<?xml version="1.0" encoding="UTF-8" standalone="no"?>
<!-- Created with Inkscape (http://www.inkscape.org/) -->

<svg
   width="626.43182mm"
   height="141.95013mm"
   viewBox="0 0 626.43182 141.95013"
   version="1.1"
   id="svg1"
   xmlns="http://www.w3.org/2000/svg"
   xmlns:svg="http://www.w3.org/2000/svg">
  <defs
     id="defs1" />
  <g
     id="layer1"
     transform="translate(55.551876,-63.740583)">
    <path
       style="fill:none;stroke:#000000;stroke-width:1.5875;stroke-linecap:round;stroke-linejoin:round;stroke-dasharray:none"
       d="m -53.176186,84.724897 c -0.983272,0.842072 -2.755758,-2.243842 -0.471161,-4.356036 8.221944,-7.601493 5.596375,11.463713 0.471161,4.356036 -0.702364,-0.97404 0.07075,-2.374252 0.471157,-3.48483 2.226184,-6.174565 5.52767,9.955327 -0.471157,3.48483 -4.189426,-4.518825 10.313333,-4.086453 0,0 z"
       id="path2" />
    <path
       style="fill:none;stroke:#000000;stroke-width:1.5875;stroke-linecap:round;stroke-linejoin:round;stroke-dasharray:none"
       d="m -25.849479,71.443239 c -14.167539,-5.457122 -16.9891,26.254015 0,20.907734"
       id="path3" />
    <path
       style="fill:none;stroke:#000000;stroke-width:1.5875;stroke-linecap:round;stroke-linejoin:round;stroke-dasharray:none"
       d="m -25.857531,81.955747 c 0,6.083175 0,-7.880705 0,3.500318 0,17.824605 -1.572578,-7.406079 5.788325,1.166773"
       id="path4" />
    <path
       style="fill:none;stroke:#000000;stroke-width:1.5875;stroke-linecap:round;stroke-linejoin:round;stroke-dasharray:none"
       d="m -18.288183,87.400688 c 9.211171,-1.394661 -0.152428,-6.835972 -1.335767,3.500319 -0.272275,2.378274 8.145414,1.887491 8.905116,1.555697"
       id="path5" />
    <path
       style="fill:none;stroke:#000000;stroke-width:1.5875;stroke-linecap:round;stroke-linejoin:round;stroke-dasharray:none"
       d="m -19.178694,81.177897 c 3.046097,-0.617012 4.198781,-2.500799 6.233581,-4.278166"
       id="path6" />
    <path
       style="fill:none;stroke:#000000;stroke-width:1.5875;stroke-linecap:round;stroke-linejoin:round;stroke-dasharray:none"
       d="m -10.273579,85.591491 c 0.5936747,-0.334485 2.2262792,-0.557477 1.7810236,-1.003458 -0.4452556,-0.445983 -2.4447716,1.252771 -1.7810236,1.003458 13.9972961,-5.257544 -1.543258,4.371068 -0.445255,6.020757 3.0840427,4.633606 5.8848825,-4.827882 5.3430698,-4.013837 -1.6637838,2.499744 1.7845624,8.686013 3.1167902,4.682809"
       id="path7" />
    <path
       style="fill:none;stroke:#000000;stroke-width:1.5875;stroke-linecap:round;stroke-linejoin:round;stroke-dasharray:none"
       d="M 8.4267431,91.060448 C -0.3110365,99.879754 -5.9248594,80.368616 -0.5888545,77.678511 1.5566868,79.033756 3.774373,80.890177 6.3054264,80.890177"
       id="path8" />
    <path
       style="fill:none;stroke:#000000;stroke-width:1.5875;stroke-linecap:round;stroke-linejoin:round;stroke-dasharray:none"
       d="m 10.653444,83.511443 c -1.6317789,4.55081 -1.8920119,9.747346 1.781024,8.945259"
       id="path9" />
    <path
       style="fill:none;stroke:#000000;stroke-width:1.5875;stroke-linecap:round;stroke-linejoin:round;stroke-dasharray:none"
       d="m 10.653444,73.399413 c 0.968136,0.56914 -1.1001879,2.562659 -1.3357679,3.111393"
       id="path10" />
    <path
       style="fill:none;stroke:#000000;stroke-width:1.58749;stroke-linecap:round;stroke-linejoin:round;stroke-dasharray:none"
       d="m 15.64506,94.012084 c -13.8147077,-16.428541 22.307307,-8.321742 0,0 z"
       id="path11" />
    <path
       style="fill:none;stroke:#000000;stroke-width:1.5875;stroke-linecap:round;stroke-linejoin:round;stroke-dasharray:none"
       d="M 24.01115,95.179164 C 24.755404,82.429516 30.689922,77.60792 30.689922,92.494448"
       id="path12" />
    <path
       style="fill:none;stroke:#000000;stroke-width:1.58749;stroke-linecap:round;stroke-linejoin:round;stroke-dasharray:none"
       d="m 45.306487,91.977111 c -0.24828,-2.850635 0.569394,-11.563464 8.470471,-14.374957"
       id="path13" />
    <path
       style="fill:none;stroke:#000000;stroke-width:1.58749;stroke-linecap:round;stroke-linejoin:round;stroke-dasharray:none"
       d="m 45.95806,86.412612 c 0.463749,0.233887 4.630088,-1.830616 5.864176,-2.318541"
       id="path14" />
    <path
       style="fill:none;stroke:#000000;stroke-width:1.5875;stroke-linecap:round;stroke-linejoin:round;stroke-dasharray:none"
       d="m 53.784837,83.240277 c 4.059558,7.566253 -1.822165,-7.125741 1.210199,3.342144 4.579727,15.809539 -1.712842,-3.110793 -1.210199,-3.342144 2.443558,-1.124709 5.622276,1.179307 8.47138,1.671072"
       id="path16" />
    <path
       style="fill:none;stroke:#000000;stroke-width:1.5875;stroke-linecap:round;stroke-linejoin:round;stroke-dasharray:none"
       d="M 64.142345,93.283905 C 63.671191,92.7031 63.357084,91.105887 62.728871,91.54149 c -0.628212,0.435606 1.705121,2.416497 1.413474,1.742415 -9.970528,-23.045302 21.687398,-2.864398 0,0 z"
       id="path17" />
    <path
       style="fill:none;stroke:#000000;stroke-width:1.5875;stroke-linecap:round;stroke-linejoin:round;stroke-dasharray:none"
       d="m 72.623206,92.412699 c -0.545585,0.271376 -1.663576,-7.725254 3.298112,-10.018887 4.951441,-2.288896 2.239785,8.383729 3.298113,7.405264 1.291676,-1.194198 0.855464,-4.275741 2.355792,-5.662849 2.334766,-2.158572 1.94779,6.417277 0.471165,9.147678"
       id="path18" />
    <path
       style="fill:none;stroke:#000000;stroke-width:1.5875;stroke-linecap:round;stroke-linejoin:round;stroke-dasharray:none"
       d="m 107.01779,83.033505 c -7.293792,-2.534289 8.43449,2.454129 -3.76926,-1.306812 -2.16038,-0.665782 -4.546522,2.330637 -2.82696,3.920435 2.0113,1.859518 5.87008,2.142125 7.06739,4.356037 1.91176,3.534999 -5.63045,3.277873 -6.12507,3.049227"
       id="path19" />
    <path
       style="fill:none;stroke:#000000;stroke-width:1.5875;stroke-linecap:round;stroke-linejoin:round;stroke-dasharray:none"
       d="m 117.38329,82.597902 c -16.4557,-4.094743 -7.7877,15.476482 0,8.276472"
       id="path20" />
    <path
       style="fill:none;stroke:#000000;stroke-width:1.5875;stroke-linecap:round;stroke-linejoin:round;stroke-dasharray:none"
       d="m 120.50962,82.597901 c -0.20173,0.580805 -1.41216,1.597213 -0.60521,1.742415 0.80695,0.145201 0.80695,-2.32322 0.60521,-1.742415 -0.0723,0.208139 -3.14393,10.45449 -1.21042,10.45449 4.85846,0 -3.00792,-8.719538 1.21042,-10.45449 2.1947,-0.902657 4.86993,1.327136 6.65732,2.613624"
       id="path21" />
    <path
       style="fill:none;stroke:#000000;stroke-width:1.5875;stroke-linecap:round;stroke-linejoin:round;stroke-dasharray:none"
       d="m 141.93988,77.372674 c -7.71513,4.564139 -3.2201,17.34798 6.53902,15.173939"
       id="path23" />
    <path
       style="fill:none;stroke:#000000;stroke-width:1.5875;stroke-linecap:round;stroke-linejoin:round;stroke-dasharray:none"
       d="m 139.76021,82.228336 c 2.94239,-0.626531 6.03927,-0.9356 8.71869,-2.427832"
       id="path24" />
    <path
       style="fill:none;stroke:#000000;stroke-width:1.5875;stroke-linecap:round;stroke-linejoin:round;stroke-dasharray:none"
       d="m 156.01831,83.469108 c -11.44894,-3.038519 -6.90449,15.335736 -0.47116,7.405265"
       id="path25" />
    <path
       style="fill:none;stroke:#000000;stroke-width:1.58749;stroke-linecap:round;stroke-linejoin:round;stroke-dasharray:none"
       d="m 160.82547,76.51469 c -0.4535,0.857492 -2.26746,2.143726 -1.36047,2.572474 0.90697,0.428743 1.55934,-3.51256 1.36047,-2.572474 -0.67709,3.200737 -2.72095,6.318691 -2.72095,9.646777 0,20.695433 -3.25742,-6.68479 5.4419,-2.572474 2.66751,1.260978 1.53284,7.676674 -1.36048,8.360538"
       id="path26" />
    <path
       style="fill:none;stroke:#000000;stroke-width:1.5875;stroke-linecap:round;stroke-linejoin:round;stroke-dasharray:none"
       d="m 129.11779,84.683651 c 3.98832,-1.742556 -4.76015,2.676785 2.27345,-1.09815 2.43753,-1.308216 6.20743,-0.188364 4.54694,3.019919 -0.75363,1.456098 -9.26176,4.342738 -8.24131,6.314368 2.13261,4.120466 9.39676,-3.001839 7.38876,-4.941679 -0.93381,-0.902126 -0.7593,7.047895 2.55764,3.843529"
       id="path27" />
    <path
       style="fill:none;stroke:#000000;stroke-width:1.5875;stroke-linecap:round;stroke-linejoin:round;stroke-dasharray:none"
       d="m 184.59769,91.189538 c 1.54327,0.76501 -2.94455,2.959836 -4.98429,0.820157 -5.96295,-6.255143 1.1412,-13.705504 6.15706,-12.302399 4.7444,1.327165 4.45281,12.465781 -1.17277,11.482242 z"
       id="path28" />
    <path
       style="fill:none;stroke:#000000;stroke-width:1.5875;stroke-linecap:round;stroke-linejoin:round;stroke-dasharray:none"
       d="m 188.57842,64.534333 c 0.24359,2.347803 -1.6663,32.481921 0,25.424963"
       id="path29" />
    <path
       style="fill:none;stroke:#000000;stroke-width:1.5875;stroke-linecap:round;stroke-linejoin:round;stroke-dasharray:none"
       d="m 191.2896,85.448415 c 2.79146,1.181865 6.33025,0.269009 8.52088,-2.050399 11.91025,-12.61036 -28.27908,7.791522 0,7.791522 1.9537,0 3.91433,-0.318467 5.80969,-0.820163"
       id="path30" />
    <path
       style="fill:none;stroke:#000000;stroke-width:1.5875;stroke-linecap:round;stroke-linejoin:round;stroke-dasharray:none"
       d="m 221.77051,68.512036 c -0.75889,7.441849 -0.90606,17.942555 -0.90606,23.867849"
       id="path31" />
    <path
       style="fill:none;stroke:#000000;stroke-width:1.5875;stroke-linecap:round;stroke-linejoin:round;stroke-dasharray:none"
       d="m 230.22398,68.045302 c -1.5586,2.290949 -3.23116,5.475126 -4.82917,7.320854"
       id="path32" />
    <path
       style="fill:none;stroke:#000000;stroke-width:1.5875;stroke-linecap:round;stroke-linejoin:round;stroke-dasharray:none"
       d="m 236.21958,80.119971 c -0.52133,3.91091 -0.40244,7.885988 -0.40244,11.852814"
       id="path33" />
    <path
       style="fill:none;stroke:#000000;stroke-width:1.5875;stroke-linecap:round;stroke-linejoin:round;stroke-dasharray:none"
       d="m 237.32319,71.578379 c 0.18392,1.608404 -0.63273,3.038796 -1.20728,4.53196"
       id="path34" />
    <path
       style="fill:none;stroke:#000000;stroke-width:1.5875;stroke-linecap:round;stroke-linejoin:round;stroke-dasharray:none"
       d="m 238.60972,93.367234 c -3.71429,-14.777365 11.49271,-18.065817 4.42675,-1.743061"
       id="path35" />
    <path
       style="fill:none;stroke:#000000;stroke-width:1.5875;stroke-linecap:round;stroke-linejoin:round;stroke-dasharray:none"
       d="m 247.3668,91.964219 c 0.36083,3.658635 1.19446,-2.885562 1.00175,-3.651989 -2.69493,-10.717887 -4.33842,-15.692804 12.52177,-17.927928"
       id="path36" />
    <path
       style="fill:none;stroke:#000000;stroke-width:1.5875;stroke-linecap:round;stroke-linejoin:round;stroke-dasharray:none"
       d="m 249.87116,81.67226 c 2.35952,-0.997676 5.23684,-1.429899 8.01394,-1.66"
       id="path37" />
    <path
       style="fill:none;stroke:#000000;stroke-width:1.5875;stroke-linecap:round;stroke-linejoin:round;stroke-dasharray:none"
       d="m 259.07791,80.549504 c 8.5056,28.579256 -7.48543,-1.549038 9.51355,1.767983"
       id="path38" />
    <path
       style="fill:none;stroke:#000000;stroke-width:1.58751;stroke-linecap:round;stroke-linejoin:round;stroke-dasharray:none"
       d="m 271.5451,81.438521 c 10.36587,-4.69218 -5.96691,9.866843 -0.32394,12.448388 5.24392,2.399005 5.83088,-11.15749 5.83088,-10.225461 0,3.855869 0.52551,9.059645 3.23934,5.335025"
       id="path39" />
    <path
       style="fill:none;stroke:#000000;stroke-width:1.5875;stroke-linecap:round;stroke-linejoin:round;stroke-dasharray:none"
       d="m 288.04561,80.7529 c -6.02626,-2.177789 6.96876,2.108901 -3.11423,-1.122978 -3.99775,-1.281391 -7.47495,4.092393 -2.72496,5.614895 3.82226,1.22514 14.31264,6.011035 5.06063,8.235179 -2.85018,0.685178 -3.79741,1.098198 -5.83921,-0.374322"
       id="path40" />
    <path
       style="fill:none;stroke:#000000;stroke-width:1.5875;stroke-linecap:round;stroke-linejoin:round;stroke-dasharray:none"
       d="m 302.56848,89.187409 c -5.76189,10.343835 -12.05215,-4.142948 -9.51356,-13.419163 3.58568,-4.347782 5.79957,-4.866259 9.96659,-5.48966"
       id="path41" />
    <path
       style="fill:none;stroke:#000000;stroke-width:1.5875;stroke-linecap:round;stroke-linejoin:round;stroke-dasharray:none"
       d="m 302.11545,80.003964 c 1.41234,28.030506 -3.26697,0.30814 8.15449,3.093982"
       id="path42" />
    <path
       style="fill:none;stroke:#000000;stroke-width:1.5875;stroke-linecap:round;stroke-linejoin:round;stroke-dasharray:none"
       d="m 311.40822,82.873453 c -4.31475,10.137884 7.01671,16.708241 7.01671,-0.658157"
       id="path43" />
    <path
       style="fill:none;stroke:#000000;stroke-width:1.5875;stroke-linecap:round;stroke-linejoin:round;stroke-dasharray:none"
       d="m 329.68614,81.330968 c -18.45152,1.743994 -5.61721,16.430556 2.78089,8.453124"
       id="path44" />
    <path
       style="fill:none;stroke:#000000;stroke-width:1.5875;stroke-linecap:round;stroke-linejoin:round;stroke-dasharray:none"
       d="m 343.68779,88.122451 c -2.37922,15.319339 -18.10672,-3.711005 -10.87266,-15.313936 3.51256,1.306633 6.88852,-2.664732 7.70147,-3.646178"
       id="path45" />
    <path
       style="fill:none;stroke:#000000;stroke-width:1.5875;stroke-linecap:round;stroke-linejoin:round;stroke-dasharray:none"
       d="m 342.88786,83.233101 c -2.58731,23.885549 10.85535,0.749965 11.77871,-4.554249"
       id="path46" />
    <path
       style="fill:none;stroke:#000000;stroke-width:1.5875;stroke-linecap:round;stroke-linejoin:round;stroke-dasharray:none"
       d="m 355.11958,85.749924 c 3.97886,19.541586 -1.7026,0.949239 0,0 2.11415,-1.178652 4.86077,1.349905 7.24845,0.883996"
       id="path47" />
    <path
       style="fill:none;stroke:#000000;stroke-width:1.5875;stroke-linecap:round;stroke-linejoin:round;stroke-dasharray:none"
       d="m 361.91499,88.401912 c 1.84381,0.926425 4.13884,0.924307 5.88936,-0.442002 3.87814,-3.026975 -0.7962,-4.969149 -3.17121,-2.651978 -9.079,8.857962 6.96666,8.738432 9.06054,8.397946"
       id="path48" />
    <path
       style="fill:none;stroke:#000000;stroke-width:1.5875;stroke-linecap:round;stroke-linejoin:round;stroke-dasharray:none"
       d="m 394.42466,92.412698 c 2.40811,0.245333 -3.17015,3.088656 -6.12506,2.178016 -20.71148,-6.382838 24.28586,-21.766746 6.12506,-2.178016 z"
       id="path49" />
    <path
       style="fill:none;stroke:#000000;stroke-width:1.5875;stroke-linecap:round;stroke-linejoin:round;stroke-dasharray:none"
       d="m 396.4493,67.521127 c 0.15706,0.806439 -0.31409,2.580605 0.47116,2.419316 0.78528,-0.161289 -0.66538,-3.217172 -0.47116,-2.419316 1.72481,7.0852 1.5094,26.522637 1.41348,26.128631"
       id="path50" />
    <path
       style="fill:none;stroke:#000000;stroke-width:1.5875;stroke-linecap:round;stroke-linejoin:round;stroke-dasharray:none"
       d="m 401.02088,88.056659 c 7.15035,1.030892 -8.31741,-0.806016 3.76927,0.435605 15.45189,1.587315 -8.72265,-19.848693 -3.76927,3.049227 0.56858,2.628403 10.65205,2.954993 11.77898,0.871206"
       id="path51" />
    <path
       style="fill:none;stroke:#000000;stroke-width:1.5875;stroke-linecap:round;stroke-linejoin:round;stroke-dasharray:none"
       d="m 440.5982,90.002804 c -12.16277,8.44221 -19.39419,0.05261 -12.2501,-17.659674 3.26593,6.831752 8.3932,2.010861 8.48085,1.962189"
       id="path52" />
    <path
       style="fill:none;stroke:#000000;stroke-width:1.5875;stroke-linecap:round;stroke-linejoin:round;stroke-dasharray:none"
       d="m 439.65591,87.621058 c 0.48642,0.385323 3.57167,0.06089 8.00968,-1.306812 10.0957,-3.111281 -3.06552,-9.52263 -6.59621,-2.178021 -3.95114,8.219221 7.90145,8.544316 11.3078,6.969663"
       id="path53" />
    <path
       style="fill:none;stroke:#000000;stroke-width:1.5875;stroke-linecap:round;stroke-linejoin:round;stroke-dasharray:none"
       d="m 459.44456,79.344585 c -16.31165,-1.899152 1.94271,6.152158 3.76926,7.840869 4.21982,3.901362 -7.44334,5.401781 -9.42316,4.791639"
       id="path54" />
    <path
       style="fill:none;stroke:#000000;stroke-width:1.5875;stroke-linecap:round;stroke-linejoin:round;stroke-dasharray:none"
       d="m 466.83882,71.724725 c -4.25295,15.705693 -1.0711,25.322059 12.70508,18.523875"
       id="path55" />
    <path
       style="fill:none;stroke:#000000;stroke-width:1.5875;stroke-linecap:round;stroke-linejoin:round;stroke-dasharray:none"
       d="m 466.26131,76.711922 c 2.80162,2.099924 6.60307,0.08069 9.81757,-0.712457"
       id="path56" />
    <path
       style="fill:none;stroke:#000000;stroke-width:1.5875;stroke-linecap:round;stroke-linejoin:round;stroke-dasharray:none"
       d="m 484.41598,80.549352 c -0.78525,-0.290402 -2.04169,-1.597214 -2.35578,-0.871207 -0.3141,0.726004 3.17627,0.681561 2.35578,0.871207 -1.84363,0.426126 -5.26943,-1.58215 -6.59621,0.871208 -2.64164,4.884614 8.11403,5.469899 6.12506,9.147678 -1.46972,2.717614 -6.17174,0.838841 -8.00969,-0.435603"
       id="path57" />
    <path
       style="fill:none;stroke:#000000;stroke-width:1.5875;stroke-linecap:round;stroke-linejoin:round;stroke-dasharray:none"
       d="m 502.56538,73.244984 c -1.84767,1.125906 -9.85552,10.58556 -3.98788,19.772911 0.73533,1.151359 7.6503,4.948619 3.32323,1.561019"
       id="path58" />
    <path
       style="fill:none;stroke:#000000;stroke-width:1.5875;stroke-linecap:round;stroke-linejoin:round;stroke-dasharray:none"
       d="m 506.03411,77.319635 c 0.0782,3.79609 1.41347,7.483459 1.41347,11.325696 0,11.172993 10.1901,-10.413954 8.48084,-10.018887"
       id="path59" />
    <path
       style="fill:none;stroke:#000000;stroke-width:1.5875;stroke-linecap:round;stroke-linejoin:round;stroke-dasharray:none"
       d="m 519.58731,78.806937 c -0.839,4.201968 -1.23484,8.487125 -2.35579,12.632509"
       id="path60" />
    <path
       style="fill:none;stroke:#000000;stroke-width:1.5875;stroke-linecap:round;stroke-linejoin:round;stroke-dasharray:none"
       d="m 520.36411,65.405266 c 0.50231,2.142127 -1.68344,4.543604 -1.88463,4.79164"
       id="path61" />
    <path
       style="fill:none;stroke:#000000;stroke-width:1.5875;stroke-linecap:round;stroke-linejoin:round;stroke-dasharray:none"
       d="m 528.48558,71.963523 c -5.55003,-1.530024 -10.33918,22.979811 5.32056,18.987938"
       id="path62" />
    <path
       style="fill:none;stroke:#000000;stroke-width:1.5875;stroke-linecap:round;stroke-linejoin:round;stroke-dasharray:none"
       d="m 522.49995,74.676085 c 3.1346,-0.06132 6.26941,0.580947 9.31098,1.356282"
       id="path63" />
    <path
       style="fill:none;stroke:#000000;stroke-width:1.5875;stroke-linecap:round;stroke-linejoin:round;stroke-dasharray:none"
       d="m 532.00302,84.136227 c 14.56722,1.810263 9.80545,-9.501105 3.29811,-3.48483 -8.16645,7.550183 3.77642,10.801651 8.00969,10.018888"
       id="path64" />
    <path
       style="fill:none;stroke:#000000;stroke-width:1.5875;stroke-linecap:round;stroke-linejoin:round;stroke-dasharray:none"
       d="m 549.6863,79.191518 c -0.62822,-0.435602 -1.41347,-1.887616 -1.88464,-1.306811 -0.47115,0.580805 2.65465,1.16443 1.88464,1.306811 -0.33476,0.0619 -4.46844,-1.98125 -5.18277,0 -0.74404,2.063713 12.526,17.551666 -0.94231,11.3257"
       id="path65" />
    <path
       style="fill:none;stroke:#000000;stroke-width:1.5875;stroke-linecap:round;stroke-linejoin:round;stroke-dasharray:none"
       d="m 557.83603,76.475852 c -6.77775,-0.03632 -5.14768,19.368162 4.71161,14.810529"
       id="path66" />
    <path
       style="fill:none;stroke:#000000;stroke-width:1.5875;stroke-linecap:round;stroke-linejoin:round;stroke-dasharray:none"
       d="m 555.00908,80.396285 c 0.33023,-0.409917 5.62474,-0.266755 7.0674,0"
       id="path67" />
    <path
       style="fill:none;stroke:#000000;stroke-width:1.5875;stroke-linecap:round;stroke-linejoin:round;stroke-dasharray:none"
       d="m 570.08617,91.286381 c -1.0088,1.267104 -2.27658,4.627803 -5.6539,6.969643"
       id="path68" />
    <path
       style="fill:none;stroke:#000000;stroke-width:1.5875;stroke-linecap:round;stroke-linejoin:round;stroke-dasharray:none"
       d="m -26.066892,119.05043 c 5.892879,3.79917 10.21549,-8.76658 2.665317,-1.87638 -0.844955,0.7711 -2.577806,0.29511 -2.665317,1.87638 -0.5607,10.13142 7.529651,8.27145 9.899745,4.3782"
       id="path70" />
    <path
       style="fill:none;stroke:#000000;stroke-width:1.5875;stroke-linecap:round;stroke-linejoin:round;stroke-dasharray:none"
       d="m -9.0993168,113.48397 c -17.1396252,-1.88543 14.5471327,8.39895 -1.8846352,12.1969 -3.290886,0.76064 -3.599247,0.59279 -5.182747,-0.8712"
       id="path71" />
    <path
       style="fill:none;stroke:#000000;stroke-width:1.5875;stroke-linecap:round;stroke-linejoin:round;stroke-dasharray:none"
       d="m 8.4904006,112.44851 c 5.2633194,-2.24294 -10.5634136,0.84895 -3.8736551,3.94857 2.9888696,1.38487 12.9929615,0.85232 10.8462325,6.82029 -0.984628,2.73731 -10.4505414,3.05311 -12.7830589,2.51274"
       id="path73" />
    <path
       style="fill:none;stroke:#000000;stroke-width:1.5875;stroke-linecap:round;stroke-linejoin:round;stroke-dasharray:none"
       d="m -26.532193,124.80967 c -16.67481,7.70823 -6.828382,-18.04003 -8.009698,-13.06812 2.974968,0.25906 5.963881,0.43561 8.952016,0.43561"
       id="path74" />
    <path
       style="fill:none;stroke:#000000;stroke-width:1.5875;stroke-linecap:round;stroke-linejoin:round;stroke-dasharray:none"
       d="m 30.490685,115.40956 c -6.968955,18.16842 11.4305,8.72593 11.4305,-2.08939"
       id="path75" />
    <path
       style="fill:none;stroke:#000000;stroke-width:1.5875;stroke-linecap:round;stroke-linejoin:round;stroke-dasharray:none"
       d="m 40.092321,127.11016 c 4.878149,-13.58658 10.973264,-22.56071 10.973264,-5.18274"
       id="path76" />
    <path
       style="fill:none;stroke:#000000;stroke-width:1.58751;stroke-linecap:round;stroke-linejoin:round;stroke-dasharray:none"
       d="m 54.266134,111.64867 c 0.67508,4.38484 0.914441,8.89634 0.914441,13.37208"
       id="path77" />
    <path
       style="fill:none;stroke:#000000;stroke-width:1.5875;stroke-linecap:round;stroke-linejoin:round;stroke-dasharray:none"
       d="m 51.799244,93.919068 c -0.568547,1.661136 -0.457226,3.319376 -0.457226,5.014526"
       id="path78" />
    <path
       style="fill:none;stroke:#000000;stroke-width:1.5875;stroke-linecap:round;stroke-linejoin:round;stroke-dasharray:none"
       d="m 58.838338,107.13883 c 0.457215,-0.8173 1.981285,-1.83892 1.371658,-2.4519 -5.042052,-5.069776 -2.318176,35.2014 9.144409,14.71147"
       id="path79" />
    <path
       style="fill:none;stroke:#000000;stroke-width:1.5875;stroke-linecap:round;stroke-linejoin:round;stroke-dasharray:none"
       d="m 60.209996,107.46988 c 2.756298,-0.13414 5.507317,-0.42103 8.229968,-0.83576"
       id="path80" />
    <path
       style="fill:none;stroke:#000000;stroke-width:1.5875;stroke-linecap:round;stroke-linejoin:round;stroke-dasharray:none"
       d="m 68.439964,113.73806 c 6.722046,-2.18248 -7.991853,3.00523 3.657757,-1.25365 8.477116,-3.09906 -8.913379,12.53634 -4.114984,12.53634 5.363275,0 8.687181,-5.15694 8.687181,-9.61119 0,-0.32009 -1.003084,12.61735 5.486641,6.68605"
       id="path81" />
    <path
       style="fill:none;stroke:#000000;stroke-width:1.5875;stroke-linecap:round;stroke-linejoin:round;stroke-dasharray:none"
       d="m 83.985446,111.23011 c -0.258315,4.3013 -0.702315,8.76598 0,12.95557"
       id="path82" />
    <path
       style="fill:none;stroke:#000000;stroke-width:1.58749;stroke-linecap:round;stroke-linejoin:round;stroke-dasharray:none"
       d="m 81.518555,97.857564 c 1.219255,-8.801769 1.219255,-8.801769 0,0 z"
       id="path83" />
    <path
       style="fill:none;stroke:#000000;stroke-width:1.5875;stroke-linecap:round;stroke-linejoin:round;stroke-dasharray:none"
       d="m 88.142146,112.90253 c 0,2.22874 0,4.45749 0,6.68624 0,13.48292 -0.945173,-5.51448 0,-6.68624 1.682811,-2.08624 6.158041,-0.60812 9.101206,0"
       id="path84" />
    <path
       style="fill:none;stroke:#000000;stroke-width:1.5875;stroke-linecap:round;stroke-linejoin:round;stroke-dasharray:none"
       d="m 93.12985,121.67772 c 0.609633,-0.41787 2.286097,-0.69646 1.828887,-1.25363 -0.457229,-0.55717 -2.510471,1.5651 -1.828887,1.25363 4.613004,-2.10804 6.542588,-8.2103 2.743316,-5.43241 -6.30006,4.60638 -0.337481,9.84003 5.486634,8.77543"
       id="path85" />
    <path
       style="fill:none;stroke:#000000;stroke-width:1.5875;stroke-linecap:round;stroke-linejoin:round;stroke-dasharray:none"
       d="m 105.93202,112.9023 c -0.60965,-0.41788 -1.37166,-1.8108 -1.82889,-1.25363 -0.45722,0.55715 2.5364,0.99497 1.82889,1.25363 -1.62611,0.59447 -5.48665,-1.35816 -5.48665,1.67151 0,2.51348 6.93514,3.48351 8.22996,5.85028 2.16826,3.96336 -4.23481,5.61398 -6.8583,5.01453"
       id="path86" />
    <path
       style="fill:none;stroke:#000000;stroke-width:1.5875;stroke-linecap:round;stroke-linejoin:round;stroke-dasharray:none"
       d="m 1.4431373,125.68087 c -4.4844174,3.6057 -6.9108685,-6.75094 -4.6049911,-14.81052 2.42923121,1.11697 7.2271541,-0.40774 8.6682199,-0.87121"
       id="path87" />
    <path
       style="fill:none;stroke:#000000;stroke-width:1.5875;stroke-linecap:round;stroke-linejoin:round;stroke-dasharray:none"
       d="m 122.84917,120.42409 c 0.63389,-0.67162 1.94879,2.15562 5.48664,0 6.78419,-4.13362 -5.51929,-8.89498 -6.8583,3.34303 -0.49948,4.56503 14.03591,1.79754 14.17382,1.6715"
       id="path88" />
    <path
       style="fill:none;stroke:#000000;stroke-width:1.5875;stroke-linecap:round;stroke-linejoin:round;stroke-dasharray:none"
       d="m 143.42408,123.35328 c -4.60887,5.8318 -14.28192,2.32897 -6.8583,-12.3422 0.13807,-2.27657 11.07554,-7.56418 5.94386,-5.39973"
       id="path89" />
    <path
       style="fill:none;stroke:#000000;stroke-width:1.5875;stroke-linecap:round;stroke-linejoin:round;stroke-dasharray:none"
       d="m 163.99898,124.60286 c -0.60963,0.27859 -2.13369,0.27859 -1.82888,0.83576 0.30481,0.55717 2.49012,-0.68466 1.82888,-0.83576 -16.81909,-3.84295 9.69508,-10.33764 0,0 z"
       id="path90" />
    <path
       style="fill:none;stroke:#000000;stroke-width:1.5875;stroke-linecap:round;stroke-linejoin:round;stroke-dasharray:none"
       d="m 169.02841,106.63412 c -0.9381,5.56842 0.0135,11.67589 -2.74333,16.71512"
       id="path91" />
    <path
       style="fill:none;stroke:#000000;stroke-width:1.5875;stroke-linecap:round;stroke-linejoin:round;stroke-dasharray:none"
       d="m 175.88671,105.79836 c 1.96552,2.38135 -2.50005,6.25029 -3.20055,7.10393"
       id="path92" />
    <path
       style="fill:none;stroke:#000000;stroke-width:1.5875;stroke-linecap:round;stroke-linejoin:round;stroke-dasharray:none"
       d="m 179.54446,115.40955 c -1.3707,0.8875 -2.99709,12.46197 5.94387,9.19331"
       id="path93" />
    <path
       style="fill:none;stroke:#000000;stroke-width:1.5875;stroke-linecap:round;stroke-linejoin:round;stroke-dasharray:none"
       d="m 183.65945,104.12686 c 1.00834,0.61775 -1.78085,4.56372 -3.65776,5.85028"
       id="path94" />
    <path
       style="fill:none;stroke:#000000;stroke-width:1.5875;stroke-linecap:round;stroke-linejoin:round;stroke-dasharray:none"
       d="m 186.40276,125.02075 c 1.63881,-18.78492 12.81737,-7.5357 6.40108,-1.67151"
       id="path95" />
    <path
       style="fill:none;stroke:#000000;stroke-width:1.5875;stroke-linecap:round;stroke-linejoin:round;stroke-dasharray:none"
       d="m 200.71109,106.21589 c -1.64257,8.99551 -6.29327,20.78746 5.8094,17.80653"
       id="path96" />
    <path
       style="fill:none;stroke:#000000;stroke-width:1.5875;stroke-linecap:round;stroke-linejoin:round;stroke-dasharray:none"
       d="m 195.54715,111.30347 c 2.96497,-0.56514 6.07555,-1.21944 9.03688,-0.63595"
       id="path97" />
    <path
       style="fill:none;stroke:#000000;stroke-width:1.5875;stroke-linecap:round;stroke-linejoin:round;stroke-dasharray:none"
       d="m 206.52045,123.34924 c 2.43989,-0.25402 4.2786,-1.53735 6.4011,-2.50728 4.36944,-1.99672 0.60904,-4.80521 -2.74335,-2.50725 -7.2733,4.9856 0.0515,8.45025 5.94389,7.10391"
       id="path98" />
    <path
       style="fill:none;stroke:#000000;stroke-width:1.5875;stroke-linecap:round;stroke-linejoin:round;stroke-dasharray:none"
       d="m 205.14879,113.32017 c 3.30513,-0.98861 5.97915,-3.15826 8.6872,-5.01453"
       id="path99" />
    <path
       style="fill:none;stroke:#000000;stroke-width:1.5875;stroke-linecap:round;stroke-linejoin:round;stroke-dasharray:none"
       d="m 224.53635,125.44756 c -0.7419,0.62353 -2.78223,1.03922 -2.22579,1.8706 0.55645,0.83138 3.15322,-1.8706 2.22579,-1.8706 -19.56869,0 3.63784,-14.26749 0,0 z"
       id="path100" />
    <path
       style="fill:none;stroke:#000000;stroke-width:1.5875;stroke-linecap:round;stroke-linejoin:round;stroke-dasharray:none"
       d="m 208.57041,115.38658 c 4.65241,3.20472 -8.20935,22.33642 -10.89638,12.17477"
       id="path101" />
    <path
       style="fill:none;stroke:#000000;stroke-width:1.5875;stroke-linecap:round;stroke-linejoin:round;stroke-dasharray:none"
       d="m 229.83869,119.17046 c 0.56177,18.21989 -2.42,-8.55381 8.22995,-1.25363"
       id="path102" />
    <path
       style="fill:none;stroke:#000000;stroke-width:1.5875;stroke-linecap:round;stroke-linejoin:round;stroke-dasharray:none"
       d="m 240.51613,119.35201 c 6.33548,-2.22192 -9.43323,4.24949 4.16716,-1.95554 3.81359,-1.73992 1.63421,3.29756 0.83342,4.23702 -0.78217,0.91765 -10.39093,4.0846 -7.50088,5.21479 8.61381,3.36856 6.17753,-9.68082 8.75104,-1.62962"
       id="path103" />
    <path
       style="fill:none;stroke:#000000;stroke-width:1.5875;stroke-linecap:round;stroke-linejoin:round;stroke-dasharray:none"
       d="m 252.47478,106.6342 c -2.73489,3.00479 -6.3837,22.40427 7.54043,18.20267"
       id="path104" />
    <path
       style="fill:none;stroke:#000000;stroke-width:1.5875;stroke-linecap:round;stroke-linejoin:round;stroke-dasharray:none"
       d="m 251.46938,110.88149 c 1.80809,1.06194 4.02158,0 6.03235,0"
       id="path105" />
    <path
       style="fill:none;stroke:#000000;stroke-width:1.5875;stroke-linecap:round;stroke-linejoin:round;stroke-dasharray:none"
       d="m 267.33075,114.5738 c 0.42868,3.38373 -2.72101,9.30541 -3.65777,10.44695"
       id="path106" />
    <path
       style="fill:none;stroke:#000000;stroke-width:1.5875;stroke-linecap:round;stroke-linejoin:round;stroke-dasharray:none"
       d="m 251.48446,88.288493 c 1.43336,0.831141 2.85185,3.945035 0,4.59666"
       id="path107" />
    <path
       style="fill:none;stroke:#000000;stroke-width:1.5875;stroke-linecap:round;stroke-linejoin:round;stroke-dasharray:none"
       d="m 276.57142,127.09015 c -1.95451,0.69458 -3.83178,-0.37243 -5.46558,-1.83591 -11.00346,-9.85624 21.01878,-10.10547 5.46558,1.83591 z"
       id="path108" />
    <path
       style="fill:none;stroke:#000000;stroke-width:1.58751;stroke-linecap:round;stroke-linejoin:round;stroke-dasharray:none"
       d="m 282.99609,126.6906 c -5.29654,-15.94337 18.33559,-8.70065 8.65958,-0.60385"
       id="path109" />
    <path
       style="fill:none;stroke:#000000;stroke-width:1.5875;stroke-linecap:round;stroke-linejoin:round;stroke-dasharray:none"
       d="m 307.07029,111.96885 c 4.92094,1.36873 9.51763,14.89686 1.99883,18.46664"
       id="path110" />
    <path
       style="fill:none;stroke:#000000;stroke-width:1.5875;stroke-linecap:round;stroke-linejoin:round;stroke-dasharray:none"
       d="m 330.60041,115.48156 c -0.78526,0 -2.3558,-0.72601 -2.3558,0 0,0.726 3.14108,0 2.3558,0 -14.25933,0 8.73459,5.98117 0.94231,9.58328 -2.30818,1.06701 -4.10115,1.33899 -6.12505,0.87121"
       id="path111" />
    <path
       style="fill:none;stroke:#000000;stroke-width:1.5875;stroke-linecap:round;stroke-linejoin:round;stroke-dasharray:none"
       d="m 336.25432,114.17429 c -5.14295,18.95546 7.76272,10.67517 6.12505,3.2181"
       id="path112" />
    <path
       style="fill:none;stroke:#000000;stroke-width:1.5875;stroke-linecap:round;stroke-linejoin:round;stroke-dasharray:none"
       d="m 346.4553,114.88872 c 1.01652,8.35516 0,-10.59541 0,4.87029 0,1.62343 -2.09657,4.87028 0,4.87028 4.19312,0 -3.48893,-7.93954 0,-9.74057 1.99557,-1.03015 4.19312,1.80381 6.28968,2.70572"
       id="path113" />
    <path
       style="fill:none;stroke:#000000;stroke-width:1.58751;stroke-linecap:round;stroke-linejoin:round;stroke-dasharray:none"
       d="m 362.16804,115.04559 c -5.76187,17.9433 9.36564,11.10993 7.06738,1.03293"
       id="path114" />
    <path
       style="fill:none;stroke:#000000;stroke-width:1.58749;stroke-linecap:round;stroke-linejoin:round;stroke-dasharray:none"
       d="m 387.0993,120.63227 c 1.16381,0 3.49138,0.9356 3.49138,0 0,-0.93561 -4.45971,0.51898 -3.49138,0 24.26132,-13.00289 -21.63686,0.42297 6.98278,6.17499"
       id="path116" />
    <path
       style="fill:none;stroke:#000000;stroke-width:1.58749;stroke-linecap:round;stroke-linejoin:round;stroke-dasharray:none"
       d="m 371.12008,126.37188 c 1.25015,-16.68606 17.05834,-14.8077 8.48085,-0.58589"
       id="path117" />
    <path
       style="fill:none;stroke:#000000;stroke-width:1.5875;stroke-linecap:round;stroke-linejoin:round;stroke-dasharray:none"
       d="m 300.70936,116.24085 c 1.09044,-0.092 -2.15059,0.36727 -3.1906,0.6496 -9.16615,2.48824 5.24336,6.21888 5.58355,6.49592 3.51206,2.86016 -6.44331,3.31652 -8.37534,2.92316"
       id="path118" />
    <path
       style="fill:none;stroke:#000000;stroke-width:1.5875;stroke-linecap:round;stroke-linejoin:round;stroke-dasharray:none"
       d="m 416.86984,116.26087 c 16.56096,-5.35745 -4.04741,8.61281 -1.4135,10.5077 4.35067,3.12991 9.30739,-9.57989 8.48087,-7.79603 -1.10756,2.3904 -0.51215,6.62442 3.76927,5.08436"
       id="path120" />
    <path
       style="fill:none;stroke:#000000;stroke-width:1.5875;stroke-linecap:round;stroke-linejoin:round;stroke-dasharray:none"
       d="m 430.84304,114.35297 c 3.49921,-1.25769 -1.93751,1.51789 -2.66553,2.81558 -0.0972,0.17331 7.06893,3.07446 7.55234,4.22338 1.71531,4.07669 -6.47933,4.01759 -7.55234,3.16754"
       id="path121" />
    <path
       style="fill:none;stroke:#000000;stroke-width:1.5875;stroke-linecap:round;stroke-linejoin:round;stroke-dasharray:none"
       d="m 436.6585,119.65716 c 2.82276,1.3636 4.36043,0.81573 7.06737,-0.4356 3.87236,-1.79007 1.07264,-5.92308 -2.35579,-3.48484 -11.25689,8.00572 3.06609,9.27771 8.48085,8.27648"
       id="path122" />
    <path
       style="fill:none;stroke:#000000;stroke-width:1.5875;stroke-linecap:round;stroke-linejoin:round;stroke-dasharray:none"
       d="m 464.45686,124.4488 c -20.11379,-3.67262 11.54099,-16.00511 0,0 z"
       id="path123" />
    <path
       style="fill:none;stroke:#000000;stroke-width:1.5875;stroke-linecap:round;stroke-linejoin:round;stroke-dasharray:none"
       d="m 468.69731,105.28223 c 0.10124,5.07523 -1.58204,15.31932 -2.35582,16.98855"
       id="path124" />
    <path
       style="fill:none;stroke:#000000;stroke-width:1.5875;stroke-linecap:round;stroke-linejoin:round;stroke-dasharray:none"
       d="m 500.26493,110.50948 c -18.95762,4.37401 3.62286,18.4012 5.6539,10.89009"
       id="path126" />
    <path
       style="fill:none;stroke:#000000;stroke-width:1.5875;stroke-linecap:round;stroke-linejoin:round;stroke-dasharray:none"
       d="m 527.80471,122.76848 c -7.57809,1.78681 8.33021,0.6866 -4.24326,0.6866 -5.28429,0 2.09621,-10.28811 3.71284,-10.9857 6.17882,-2.66612 10.00015,8.54789 0.53042,10.2991 z"
       id="path131" />
    <path
       style="fill:none;stroke:#000000;stroke-width:1.5875;stroke-linecap:round;stroke-linejoin:round;stroke-dasharray:none"
       d="m 532.20555,95.192203 c 3.50708,6.354287 1.6492,27.293617 1.57252,27.696747"
       id="path132" />
    <path
       style="fill:none;stroke:#000000;stroke-width:1.58749;stroke-linecap:round;stroke-linejoin:round;stroke-dasharray:none"
       d="m 406.20786,99.632861 c -0.5431,4.209409 -1.27639,8.342419 -1.62596,12.573509 -2.48636,30.09467 15.97234,-1.09336 5.28437,-1.09336 -2.66782,0 -4.18503,1.25492 -5.28437,2.73338"
       id="path135" />
    <path
       style="fill:none;stroke:#000000;stroke-width:1.5875;stroke-linecap:round;stroke-linejoin:round;stroke-dasharray:none"
       d="m 541.72682,119.43184 c 1.22627,0.47765 5.28912,-0.51449 8.48081,-3.35754 1.1715,-1.04357 -9.42338,-6.29491 -14.13465,2.09846 -2.67974,4.7741 12.2114,9.79059 13.6635,4.61664"
       id="path136" />
    <path
       style="fill:none;stroke:#000000;stroke-width:1.5875;stroke-linecap:round;stroke-linejoin:round;stroke-dasharray:none"
       d="m 514.87085,124.8844 c -30.70278,-13.42214 23.56435,-18.6738 0,0 z"
       id="path137" />
    <path
       style="fill:none;stroke:#000000;stroke-width:1.5875;stroke-linecap:round;stroke-linejoin:round;stroke-dasharray:none"
       d="m 469.16844,120.52837 c 1.6641,1.26364 5.52542,2.13842 7.0674,0 4.07986,-5.65798 -6.75807,-5.33711 -7.0674,-3.04923 -1.32425,9.79462 5.24067,9.56187 9.89435,7.84087"
       id="path139" />
    <path
       style="fill:none;stroke:#000000;stroke-width:1.51191;stroke-linecap:round;stroke-linejoin:round;stroke-dasharray:none"
       d="m -39.255209,152.06839 c 0.875884,0.44831 2.396203,1.65292 6.925836,-1.22038 5.049657,-3.20313 3.351205,-9.69192 -2.308612,-6.10173 -13.692183,8.68535 3.419593,15.601 8.849678,14.64421"
       id="path140" />
    <path
       style="fill:none;stroke:#000000;stroke-width:1.51191;stroke-linecap:round;stroke-linejoin:round;stroke-dasharray:none"
       d="m -25.83541,148.00055 c -3.7023,-10.51174 8.981715,14.5166 6.156299,8.54243"
       id="path141" />
    <path
       style="fill:none;stroke:#000000;stroke-width:1.51191;stroke-linecap:round;stroke-linejoin:round;stroke-dasharray:none"
       d="m -18.524805,148.00055 c 2.402244,-8.00816 -16.177417,21.07367 -8.84968,11.38994"
       id="path142" />
    <path
       style="fill:none;stroke:#000000;stroke-width:1.51191;stroke-linecap:round;stroke-linejoin:round;stroke-dasharray:none"
       d="m -16.263299,148.00055 c 0.769536,-0.54237 2.821635,-0.81358 2.308612,-1.62715 -1.708258,-2.70899 -2.5551,12.20351 3.847685,12.20351 1.439264,0 1.1543063,-1.82535 1.1543063,-2.84748"
       id="path143" />
    <path
       style="fill:none;stroke:#000000;stroke-width:1.51191;stroke-linecap:round;stroke-linejoin:round;stroke-dasharray:none"
       d="m -32.80986,127.62108 c 0.359167,1.09452 0.769539,2.16951 1.154307,3.25426"
       id="path144" />
    <path
       style="fill:none;stroke:#000000;stroke-width:1.51191;stroke-linecap:round;stroke-linejoin:round;stroke-dasharray:none"
       d="m -2.7963999,147.18697 c 4.5362132,-0.57131 -7.3323211,-4.15967 -6.1562958,0.81358 0.8797927,3.72051 7.217486,3.05736 8.84967474,6.50852 1.03212723,2.18237 -3.37946644,3.96422 -8.08013804,3.25426"
       id="path145" />
    <path
       style="fill:none;stroke:#000000;stroke-width:1.51191;stroke-linecap:round;stroke-linejoin:round;stroke-dasharray:none"
       d="M 9.4690934,155.08167 C 3.9509896,172.4845 -2.1785782,137.50872 2.5432565,141.97619 c 0.5130258,0.48538 -0.7695366,1.29436 -1.154305,1.94156 3.0645408,-1.11841 7.0668601,-2.59518 9.6192145,-3.88311"
       id="path146" />
    <path
       style="fill:none;stroke:#000000;stroke-width:1.51191;stroke-linecap:round;stroke-linejoin:round;stroke-dasharray:none"
       d="m 12.250476,147.22698 c 0.548032,-0.31989 1.918122,-0.31989 1.644107,-0.95963 -0.274023,-0.63975 -2.192144,1.27951 -1.644107,0.95963 15.126348,-8.8289 -5.1299856,12.47517 0,12.47517 4.382623,0 4.788632,-9.59631 6.165403,-9.59631 0.33808,0 -2.166594,10.53803 5.343348,5.27798"
       id="path147" />
    <path
       style="fill:none;stroke:#000000;stroke-width:1.51191;stroke-linecap:round;stroke-linejoin:round;stroke-dasharray:none"
       d="m 23.248021,157.84104 c 1.065858,-6.23045 6.987452,-14.82023 6.987452,-0.47981"
       id="path148" />
    <path
       style="fill:none;stroke:#000000;stroke-width:1.5119;stroke-linecap:round;stroke-linejoin:round;stroke-dasharray:none"
       d="m 32.541338,138.71983 c -2.842238,8.87118 -0.704096,26.40558 6.165406,16.07343"
       id="path149" />
    <path
       style="fill:none;stroke:#000000;stroke-width:1.5119;stroke-linecap:round;stroke-linejoin:round;stroke-dasharray:none"
       d="m 32.541338,144.9019 c 1.800199,-0.72444 3.562236,-1.64854 5.343356,-2.47282"
       id="path150" />
    <path
       style="fill:none;stroke:#000000;stroke-width:1.51191;stroke-linecap:round;stroke-linejoin:round;stroke-dasharray:none"
       d="m 41.636479,150.84329 c 6.256642,1.41739 -8.193023,0.54084 4.171675,0.54084 7.577204,0 1.098046,-10.47843 -4.171675,-0.54084 -5.12331,9.66147 7.383404,9.00548 10.429208,7.03105"
       id="path151" />
    <path
       style="fill:none;stroke:#000000;stroke-width:1.51191;stroke-linecap:round;stroke-linejoin:round;stroke-dasharray:none"
       d="m 66.642849,143.58337 c -12.642167,1.98632 10.074093,12.34119 -1.999641,15.5037 -3.149792,0.82505 -4.170764,0.59858 -5.599012,0"
       id="path152" />
    <path
       style="fill:none;stroke:#000000;stroke-width:1.51191;stroke-linecap:round;stroke-linejoin:round;stroke-dasharray:none"
       d="m 72.241864,146.93552 c 14.105006,-5.93331 -3.900944,9.00549 -2.399584,12.15155 1.540536,3.22812 8.398523,-5.15558 8.398523,-7.12332 0,-1.62886 0.891354,4.58526 2.399584,4.1902"
       id="path153" />
    <path
       style="fill:none;stroke:#000000;stroke-width:1.51191;stroke-linecap:round;stroke-linejoin:round;stroke-dasharray:none"
       d="m 81.44024,157.83002 c 0.790237,-14.75406 7.198722,-8.15233 7.198722,-0.83805"
       id="path154" />
    <path
       style="fill:none;stroke:#000000;stroke-width:1.51191;stroke-linecap:round;stroke-linejoin:round;stroke-dasharray:none"
       d="m 96.23762,145.25944 c -0.266612,-0.5587 -0.266612,-1.95543 -0.799865,-1.67607 -0.533233,0.27934 1.333089,1.39673 0.799865,1.67607 -1.192361,0.62463 -3.259817,-1.16215 -3.999281,0 -0.682831,1.07311 10.350731,18.83104 -1.599729,12.57058"
       id="path155" />
    <path
       style="fill:none;stroke:#000000;stroke-width:1.51191;stroke-linecap:round;stroke-linejoin:round;stroke-dasharray:none"
       d="m 117.71927,147.23768 c -13.02344,-3.49399 -9.37801,15.89198 0.53854,10.30892"
       id="path156" />
    <path
       style="fill:none;stroke:#000000;stroke-width:1.51191;stroke-linecap:round;stroke-linejoin:round;stroke-dasharray:none"
       d="m 124.39545,159.3659 c -17.36134,-14.96198 16.03157,-17.58609 0,0 z"
       id="path157" />
    <path
       style="fill:none;stroke:#000000;stroke-width:1.51191;stroke-linecap:round;stroke-linejoin:round;stroke-dasharray:none"
       d="m 131.72153,149.66331 c -5.15699,17.87421 9.51969,3.87057 8.61678,-1.21282"
       id="path158" />
    <path
       style="fill:none;stroke:#000000;stroke-width:1.51191;stroke-linecap:round;stroke-linejoin:round;stroke-dasharray:none"
       d="m 143.03103,148.06018 c -1.1456,22.8004 5.95338,4.76303 8.07825,-3.24914"
       id="path159" />
    <path
       style="fill:none;stroke:#000000;stroke-width:1.51191;stroke-linecap:round;stroke-linejoin:round;stroke-dasharray:none"
       d="m 151.10927,153.90816 c 2.76353,0.34288 5.02002,-0.1949 7.00113,-2.42564 6.11321,-6.88349 -13.58936,-5.16205 -3.76984,7.27691 1.81259,2.29609 3.70609,0.7564 5.38549,0"
       id="path160" />
    <path
       style="fill:none;stroke:#000000;stroke-width:1.51191;stroke-linecap:round;stroke-linejoin:round;stroke-dasharray:none"
       d="m 164.03444,147.23768 c -3.2289,-0.24587 -3.77482,10.91533 -0.53854,10.91533 1.9531,0 0.36669,-10.72183 0.53854,-10.91533 2.40545,-2.70856 6.62043,-0.21435 8.07824,0.60641"
       id="path161" />
    <path
       style="fill:none;stroke:#000000;stroke-width:1.40167;stroke-linecap:round;stroke-linejoin:round;stroke-dasharray:none"
       d="m 176.35779,133.97336 c -6.63968,16.33587 1.5022,29.21089 10.52358,24.30783"
       id="path162" />
    <path
       style="fill:none;stroke:#000000;stroke-width:1.40167;stroke-linecap:round;stroke-linejoin:round;stroke-dasharray:none"
       d="m 174.78719,141.12273 c 1.93399,1.72597 5.18894,0.5141 7.70859,0"
       id="path163" />
    <path
       style="fill:none;stroke:#000000;stroke-width:1.40167;stroke-linecap:round;stroke-linejoin:round;stroke-dasharray:none"
       d="m 183.37352,148.27572 c -5.56627,15.85498 8.33115,11.50396 8.33115,-0.54016"
       id="path164" />
    <path
       style="fill:none;stroke:#000000;stroke-width:1.40167;stroke-linecap:round;stroke-linejoin:round;stroke-dasharray:none"
       d="m 194.35916,149.25106 c 2.62386,2.31931 1.49456,5.20326 0.56519,7.75308 -1.85867,5.0993 2.43048,-1.37784 1.69559,-3.6181 -0.48421,-1.47603 -2.90887,-2.71251 -2.26078,-4.13498 1.17062,-2.56936 5.52509,-3.77634 8.47784,-3.10125"
       id="path165" />
    <path
       style="fill:none;stroke:#000000;stroke-width:1.40167;stroke-linecap:round;stroke-linejoin:round;stroke-dasharray:none"
       d="m 203.98219,153.67728 c 2.2187,-1.29364 4.32247,-1.04956 6.57726,-2.16061 9.54568,-4.70364 -7.24423,-12.62912 -6.57726,2.16061 0.15259,3.38325 4.9369,4.8614 7.01574,4.8614"
       id="path166" />
    <path
       style="fill:none;stroke:#000000;stroke-width:1.40167;stroke-linecap:round;stroke-linejoin:round;stroke-dasharray:none"
       d="m 216.25624,157.10199 c 2.13051,-0.16685 0.78958,5.96039 -0.49112,8.13655"
       id="path167" />
    <path
       style="fill:none;stroke:#000000;stroke-width:1.5875;stroke-linecap:round;stroke-linejoin:round;stroke-dasharray:none;stroke-opacity:1"
       d="m 226.25293,150.63615 c 0.4322,-0.39247 1.72881,-0.78494 1.29661,-1.17742 -0.4322,-0.39248 -1.7288,1.56991 -1.29661,1.17742 1.17003,-1.06247 5.65784,-6.36889 7.13125,-2.35485 0.82281,2.24155 -5.71865,5.27679 -6.48294,7.35894 -0.27692,0.75445 0.57811,1.73428 1.29658,2.0605 2.30529,1.0467 6.79129,-5.88714 4.21391,-5.88714 -1.53566,0 1.68881,4.07465 2.91734,3.23792"
       id="path171" />
    <path
       style="fill:none;stroke:#000000;stroke-width:1.5875;stroke-linecap:round;stroke-linejoin:round;stroke-dasharray:none;stroke-opacity:1"
       d="m 236.4566,146.8166 c 5.62544,18.09993 3.23437,11.76948 7.48997,0.49604"
       id="path172" />
    <path
       style="fill:none;stroke:#000000;stroke-width:1.5875;stroke-linecap:round;stroke-linejoin:round;stroke-dasharray:none;stroke-opacity:1"
       d="m 245.0135,154.11593 c 12.34194,-2.35582 0.39929,-11.49116 0,0 -0.26033,7.49184 7.34051,3.37952 8.56091,1.18445"
       id="path173" />
    <path
       style="fill:none;stroke:#000000;stroke-width:1.5875;stroke-linecap:round;stroke-linejoin:round;stroke-dasharray:none;stroke-opacity:1"
       d="m 262.88102,148.21451 c -15.51244,-4.47468 -10.00114,15.27367 -2.05407,8.35336"
       id="path174" />
    <path
       style="fill:none;stroke:#000000;stroke-width:1.5875;stroke-linecap:round;stroke-linejoin:round;stroke-dasharray:none;stroke-opacity:1"
       d="m 270.269,150.17672 c -1.39875,15.83245 6.82633,7.20218 9.09417,-1.34395"
       id="path175" />
    <path
       style="fill:none;stroke:#000000;stroke-width:1.5875;stroke-linecap:round;stroke-linejoin:round;stroke-dasharray:none;stroke-opacity:1"
       d="m 281.0219,157.56837 c 5.14296,-17.59681 7.77331,-3.94872 8.02426,-2.68788"
       id="path176" />
    <path
       style="fill:none;stroke:#000000;stroke-width:1.5875;stroke-linecap:round;stroke-linejoin:round;stroke-dasharray:none;stroke-opacity:1"
       d="m 293.37964,153.53656 c 2.67698,1.89076 2.66345,1.35105 4.81459,0 4.40789,-2.76844 -0.4257,-6.5878 -2.13982,-4.70379 -12.31723,13.53806 2.36578,12.62549 9.62912,8.06363"
       id="path177" />
    <path
       style="fill:none;stroke:#000000;stroke-width:1.5875;stroke-linecap:round;stroke-linejoin:round;stroke-dasharray:none;stroke-opacity:1"
       d="m 314.40562,152.99563 c 0.50424,0.30119 1.26063,1.50598 1.51274,0.90359 0.25211,-0.6024 -2.0765,-0.90359 -1.51274,-0.90359 19.36382,0 -5.31974,-9.53793 1.51274,4.06616 1.81222,3.60829 7.99699,-0.13182 9.07636,-2.71078"
       id="path178" />
    <path
       style="fill:none;stroke:#000000;stroke-width:1.5875;stroke-linecap:round;stroke-linejoin:round;stroke-dasharray:none;stroke-opacity:1"
       d="m 315.33274,143.37206 c 2.42806,-0.94628 4.74223,-2.43286 7.18546,-3.16257"
       id="path179" />
    <path
       style="fill:none;stroke:#000000;stroke-width:1.5875;stroke-linecap:round;stroke-linejoin:round;stroke-dasharray:none;stroke-opacity:1"
       d="m 334.36441,148.68412 c -9.63285,-0.0996 -9.16415,12.03707 0,8.30161"
       id="path186" />
    <path
       style="fill:none;stroke:#000000;stroke-width:1.5875;stroke-linecap:round;stroke-linejoin:round;stroke-dasharray:none;stroke-opacity:1"
       d="m 340.16797,147.06662 c -0.0839,0.41936 -0.0381,11.4618 0.54883,11.4618 3.84613,0 -3.67855,-9.2386 -0.54883,-11.4618 1.95803,-1.39087 4.75649,0.72774 7.13472,1.0916"
       id="path187" />
    <path
       style="fill:none;stroke:#000000;stroke-width:1.5875;stroke-linecap:round;stroke-linejoin:round;stroke-dasharray:none;stroke-opacity:1"
       d="m 350.59565,149.24983 c 2.18336,1.95968 0.16966,13.51582 1.64648,7.64119"
       id="path188" />
    <path
       style="fill:none;stroke:#000000;stroke-width:1.5875;stroke-linecap:round;stroke-linejoin:round;stroke-dasharray:none;stroke-opacity:1"
       d="m 351.14447,137.78803 c -0.57731,1.15124 -0.36588,2.54706 -0.54881,3.8206"
       id="path189" />
    <path
       style="fill:none;stroke:#000000;stroke-width:1.58749;stroke-linecap:round;stroke-linejoin:round;stroke-dasharray:none;stroke-opacity:1"
       d="m 364.4786,156.48386 c -7.50193,10.57143 -11.43726,-8.20702 -7.42369,-15.69181 2.5926,-1.55237 5.93896,-0.52305 8.90844,-0.78459"
       id="path190" />
    <path
       style="fill:none;stroke:#000000;stroke-width:1.58749;stroke-linecap:round;stroke-linejoin:round;stroke-dasharray:none;stroke-opacity:1"
       d="m 367.25909,147.68968 c -1.03188,21.58011 9.15576,9.53438 6.53733,-2.57301"
       id="path191" />
    <path
       style="fill:none;stroke:#000000;stroke-width:1.58751;stroke-linecap:round;stroke-linejoin:round;stroke-dasharray:none;stroke-opacity:1"
       d="m 380.42691,145.98348 c -0.24283,1.69596 -4.63646,12.18643 -2.84017,13.62235 3.67761,2.93983 -0.75463,-12.18554 2.84017,-13.62235 1.9517,-0.78009 4.26025,0.7568 6.39039,1.1352"
       id="path192" />
    <path
       style="fill:none;stroke:#000000;stroke-width:1.5875;stroke-linecap:round;stroke-linejoin:round;stroke-dasharray:none;stroke-opacity:1"
       d="m 387.91576,151.89165 c 1.53548,-0.15518 1.11446,1.96807 6.03707,-1.0916 6.30625,-3.91969 2.17276,-7.62625 -2.74413,-4.3664 -12.6812,8.40754 2.85644,14.9386 9.33005,13.0992"
       id="path193" />
    <path
       style="fill:none;stroke:#000000;stroke-width:1.5875;stroke-linecap:round;stroke-linejoin:round;stroke-dasharray:none;stroke-opacity:1"
       d="m 411.18392,154.11956 c 5.98252,-1.54213 -7.57609,2.75396 3.71844,-0.38243 2.33761,-0.64914 4.49202,-5.73651 0.41313,-5.73651 -9.38234,0 -4.36743,15.65231 3.30527,10.32572"
       id="path194" />
    <path
       style="fill:none;stroke:#000000;stroke-width:1.5875;stroke-linecap:round;stroke-linejoin:round;stroke-dasharray:none;stroke-opacity:1"
       d="m 422.07322,135.89456 c -1.90102,6.76267 -2.31585,32.70053 6.12058,21.21341"
       id="path195" />
    <path
       style="fill:none;stroke:#000000;stroke-width:1.5875;stroke-linecap:round;stroke-linejoin:round;stroke-dasharray:none;stroke-opacity:1"
       d="m 422.07203,148.67879 c 0.58517,2.65109 8.69149,-0.94016 9.09793,-1.23909"
       id="path196" />
    <path
       style="fill:none;stroke:#000000;stroke-width:1.5875;stroke-linecap:round;stroke-linejoin:round;stroke-dasharray:none;stroke-opacity:1"
       d="m 438.21464,159.30037 c 1.12337,5.10302 3.68816,-12.12512 6.23979,-11.01844 3.6071,1.56445 2.44529,11.61407 2.67418,11.01844 4.21557,-10.97012 4.72977,-19.45737 7.57685,-4.63934"
       id="path197" />
    <path
       style="fill:none;stroke:#000000;stroke-width:1.5875;stroke-linecap:round;stroke-linejoin:round;stroke-dasharray:none;stroke-opacity:1"
       d="m 458.79164,150.66925 c 0.53198,-0.66004 2.30516,-1.48507 1.59588,-1.9801 -0.70926,-0.49502 -2.28821,2.4955 -1.59588,1.9801 1.80536,-1.34401 4.81765,-5.38952 5.85159,-3.46519 2.24657,4.18119 -5.53963,3.02974 -5.85159,3.46519 -0.12873,0.17969 -0.71916,9.23136 -0.53198,9.40554 2.66573,2.48063 11.2174,-7.92045 7.44749,-7.92045 -0.91253,0 -0.62496,8.007 3.72375,3.96022"
       id="path198" />
    <path
       style="fill:none;stroke:#000000;stroke-width:1.5875;stroke-linecap:round;stroke-linejoin:round;stroke-dasharray:none;stroke-opacity:1"
       d="m 471.02679,150.17423 c -0.45703,4.01956 3.11136,11.53532 6.38356,5.44532"
       id="path199" />
    <path
       style="fill:none;stroke:#000000;stroke-width:1.5875;stroke-linecap:round;stroke-linejoin:round;stroke-dasharray:none;stroke-opacity:1"
       d="m 477.41034,158.58961 c 4.33705,-20.31405 6.95917,-5.43185 8.51143,-3.65454"
       id="path200" />
    <path
       style="fill:none;stroke:#000000;stroke-width:1.5875;stroke-linecap:round;stroke-linejoin:round;stroke-dasharray:none;stroke-opacity:1"
       d="m 501.62422,152.61636 c -6.5203,15.3633 -13.4046,-9.50417 -7.61295,-18.21378 2.37075,-0.19488 4.6849,-1.10387 7.02734,-1.6558"
       id="path201" />
    <path
       style="fill:none;stroke:#000000;stroke-width:1.5875;stroke-linecap:round;stroke-linejoin:round;stroke-dasharray:none;stroke-opacity:1"
       d="m 498.30688,153.93392 c 11.56316,2.97881 5.04592,-10.43196 0,0 -4.81504,9.95467 7.98616,2.83387 9.95541,1.81605"
       id="path202" />
    <path
       style="fill:none;stroke:#000000;stroke-width:1.5875;stroke-linecap:round;stroke-linejoin:round;stroke-dasharray:none;stroke-opacity:1"
       d="m 509.43353,157.56596 c 1.51747,-26.18607 7.47691,-4.35535 8.19857,-1.95104"
       id="path203" />
    <path
       style="fill:none;stroke:#000000;stroke-width:1.5875;stroke-linecap:round;stroke-linejoin:round;stroke-dasharray:none;stroke-opacity:1"
       d="m 519.45655,146.79706 c 11.08734,-4.87015 -6.10484,7.65311 -2.30579,11.19444 2.69223,2.50959 11.88477,-6.76039 8.16799,-7.4407 -0.30637,-0.0561 -0.13648,10.14361 4.86003,4.01708"
       id="path204" />
    <path
       style="fill:none;stroke:#000000;stroke-width:1.5875;stroke-linecap:round;stroke-linejoin:round;stroke-dasharray:none;stroke-opacity:1"
       d="m 530.51557,155.74997 c -3.22717,7.40186 4.97257,-11.52284 5.8561,-7.86954 1.00852,4.17003 -1.93156,14.70904 4.0993,8.4749"
       id="path205" />
    <path
       style="fill:none;stroke:#000000;stroke-width:1.5875;stroke-linecap:round;stroke-linejoin:round;stroke-dasharray:none;stroke-opacity:1"
       d="m 545.7415,146.06437 c -5.98131,-0.56166 -8.60669,16.95765 6.44173,10.29095"
       id="path206" />
    <path
       style="fill:none;stroke:#000000;stroke-width:1.5875;stroke-linecap:round;stroke-linejoin:round;stroke-dasharray:none;stroke-opacity:1"
       d="m 546.23972,156.54611 c -0.40453,1.93095 10.49718,-3.94429 8.84966,-7.60032 -0.15574,-0.3456 -6.79015,5.14256 -3.61379,7.75037 4.74278,3.89386 11.09804,5.06633 15.95487,0.99888"
       id="path207" />
    <path
       style="fill:none;stroke:#000000;stroke-width:1.5875;stroke-linecap:round;stroke-linejoin:round;stroke-dasharray:none;stroke-opacity:1"
       d="m 469.96286,139.77864 c 1.37552,7.50841 -1.17289,-8.73168 0.53196,3.96022"
       id="path208" />
    <path
       style="fill:none;stroke:#000000;stroke-width:1.5875;stroke-linecap:round;stroke-linejoin:round;stroke-dasharray:none;stroke-opacity:1"
       d="m -35.316165,191.18516 c 0.774311,1.21388 -3.902223,1.0828 -4.263157,0 -0.522158,-1.56647 0.770644,-3.43602 1.421053,-4.73684 3.924435,-7.84886 12.132763,6.06407 2.842104,4.73684 z"
       id="path209" />
    <path
       style="fill:none;stroke:#000000;stroke-width:1.5875;stroke-linecap:round;stroke-linejoin:round;stroke-dasharray:none;stroke-opacity:1"
       d="m -10.01463,202.07988 c 0.9509678,4.75486 1.8487798,-14.31705 0.4736836,-17.52631 19.6357654,-6.68359 4.4518002,14.58782 0.9473692,7.57896"
       id="path211" />
    <path
       style="fill:none;stroke:#000000;stroke-width:1.5875;stroke-linecap:round;stroke-linejoin:round;stroke-dasharray:none;stroke-opacity:1"
       d="m 4.1958959,169.86937 c -0.618166,7.24202 -0.772101,14.55268 -1.421053,21.78948"
       id="path212" />
    <path
       style="fill:none;stroke:#000000;stroke-width:1.58751;stroke-linecap:round;stroke-linejoin:round;stroke-dasharray:none;stroke-opacity:1"
       d="m 6.6347502,182.65904 c -1.6224983,15.24485 7.0325158,8.18785 7.0325158,0"
       id="path213" />
    <path
       style="fill:none;stroke:#000000;stroke-width:1.5875;stroke-linecap:round;stroke-linejoin:round;stroke-dasharray:none;stroke-opacity:1"
       d="m 13.25225,188.41926 c -2.012081,3.29871 4.680137,3.81832 6.782156,2.11828 5.944749,-4.8079 -9.58291,-8.95401 3.446229,-7.85617 0.648713,0.0547 0.461226,-2.00634 1.017016,-1.66735 0.555784,0.33901 -0.678017,1.11158 -1.017016,1.66735 3.918205,1.94242 1.426596,16.08761 3.194709,10.4266"
       id="path214" />
    <path
       style="fill:none;stroke:#000000;stroke-width:1.5875;stroke-linecap:round;stroke-linejoin:round;stroke-dasharray:none;stroke-opacity:1"
       d="m 23.61695,171.76411 c -1.129583,0.93901 0.442822,3.54259 0.473683,3.78947"
       id="path215" />
    <path
       style="fill:none;stroke:#000000;stroke-width:1.5875;stroke-linecap:round;stroke-linejoin:round;stroke-dasharray:none;stroke-opacity:1"
       d="m 28.353791,188.34305 c -0.453657,0.75552 5.684211,0.24876 5.684211,-3.78947 0,-2.91777 -5.20351,-0.96842 -5.684211,0.47369 -2.203204,6.60961 4.739418,10.10181 8.052631,5.6842"
       id="path216" />
    <path
       style="fill:none;stroke:#000000;stroke-width:1.5875;stroke-linecap:round;stroke-linejoin:round;stroke-dasharray:none;stroke-opacity:1"
       d="m 39.96911,184.82124 c -0.181236,-0.70292 0.181236,-2.28444 -0.543706,-2.10871 -3.724842,0.90288 0.764134,19.70498 5.980774,-0.52717"
       id="path217" />
    <path
       style="fill:none;stroke:#000000;stroke-width:1.5875;stroke-linecap:round;stroke-linejoin:round;stroke-dasharray:none;stroke-opacity:1"
       d="m 47.774843,182.65885 c 0.705668,1.84075 0.473684,3.76295 0.473684,5.6842 0,12.05725 -0.63889,-5.49148 -0.473684,-5.6842 1.339781,-1.56308 4.160666,0.0257 6.157894,-0.47369"
       id="path218" />
    <path
       style="fill:none;stroke:#000000;stroke-width:1.5875;stroke-linecap:round;stroke-linejoin:round;stroke-dasharray:none;stroke-opacity:1"
       d="m 80.459053,183.13254 c 1.05251,-7.37008 -15.181984,13.15074 1.42106,8.99998"
       id="path220" />
    <path
       style="fill:none;stroke:#000000;stroke-width:1.5875;stroke-linecap:round;stroke-linejoin:round;stroke-dasharray:none;stroke-opacity:1"
       d="m 86.616953,186.922 c -0.0747,0.56983 3.317887,1.41475 4.263157,-1.42106 3.86485,-11.59454 -20.717504,14.16069 0.47368,5.68421"
       id="path221" />
    <path
       style="fill:none;stroke:#000000;stroke-width:1.5875;stroke-linecap:round;stroke-linejoin:round;stroke-dasharray:none;stroke-opacity:1"
       d="m 93.25047,192.6039 c 0.97445,-25.71515 7.44969,-2.01284 8.04877,0"
       id="path222" />
    <path
       style="fill:none;stroke:#000000;stroke-width:1.5875;stroke-linecap:round;stroke-linejoin:round;stroke-dasharray:none;stroke-opacity:1"
       d="m 106.0731,172.25702 c -7.144694,11.19326 -1.82175,28.19141 7.39687,17.66325"
       id="path223" />
    <path
       style="fill:none;stroke:#000000;stroke-width:1.5875;stroke-linecap:round;stroke-linejoin:round;stroke-dasharray:none;stroke-opacity:1"
       d="m 106.74553,177.63283 c -1.69816,-0.19879 3.13809,-1.53595 4.70712,-2.3039"
       id="path224" />
    <path
       style="fill:none;stroke:#000000;stroke-width:1.5875;stroke-linecap:round;stroke-linejoin:round;stroke-dasharray:none;stroke-opacity:1"
       d="m 113.28255,183.38372 c 0.27418,-0.31088 3.8661,-3.90698 4.83095,-1.86181 0.28994,0.61456 -0.64536,3.86611 -1.31753,3.72364 -1.28396,-0.27216 -2.58756,-2.84309 -3.51342,-1.86183 -0.92587,0.98128 1.49991,2.36288 1.75672,3.72365 0.19682,1.04307 -4.1714,3.4918 -2.63508,5.12 2.12396,2.25105 9.15221,-6.98182 6.14849,-6.98182 -1.44922,0 1.83154,4.04841 3.07424,3.25818"
       id="path225" />
    <path
       style="fill:none;stroke:#000000;stroke-width:1.5875;stroke-linecap:round;stroke-linejoin:round;stroke-dasharray:none;stroke-opacity:1"
       d="m 122.02976,180.20722 c -0.48092,3.47862 2.78864,18.28052 6.03227,9.8866"
       id="path226" />
    <path
       style="fill:none;stroke:#000000;stroke-width:1.5875;stroke-linecap:round;stroke-linejoin:round;stroke-dasharray:none;stroke-opacity:1"
       d="m 123.23622,169.39607 c -0.44944,1.43481 -0.0236,0.26748 -0.40215,4.57398"
       id="path227" />
    <path
       style="fill:none;stroke:#000000;stroke-width:1.5875;stroke-linecap:round;stroke-linejoin:round;stroke-dasharray:none;stroke-opacity:1"
       d="m 128.06203,192.25719 c 4.95696,-23.51596 7.01843,-3.24258 7.64086,0"
       id="path228" />
    <path
       style="fill:none;stroke:#000000;stroke-width:1.5875;stroke-linecap:round;stroke-linejoin:round;stroke-dasharray:none;stroke-opacity:1"
       d="m 138.68995,188.88108 c 7.36457,-1.49494 -8.6343,2.58502 3.987,-0.71718 5.30979,-1.38921 3.69772,-8.9531 -0.49838,-3.58579 -7.05204,9.02037 1.18939,9.75703 5.98048,7.1716"
       id="path229" />
    <path
       style="fill:none;stroke:#000000;stroke-width:1.58751;stroke-linecap:round;stroke-linejoin:round;stroke-dasharray:none;stroke-opacity:1"
       d="m 175.61748,168.08176 c -1.10232,7.933 -1.21018,15.95639 -1.21018,23.94586"
       id="path232" />
    <path
       style="fill:none;stroke:#000000;stroke-width:1.5875;stroke-linecap:round;stroke-linejoin:round;stroke-dasharray:none;stroke-opacity:1"
       d="m 178.75492,185.80154 c 0.7063,0.4238 1.76571,2.11902 2.11887,1.27143 0.35313,-0.84763 -2.90851,-1.27143 -2.11887,-1.27143 16.55838,0 2.40038,-6.33756 0,0 -4.25443,11.23276 11.42939,4.58457 12.71309,3.81428"
       id="path233" />
    <path
       style="fill:none;stroke:#000000;stroke-width:1.5875;stroke-linecap:round;stroke-linejoin:round;stroke-dasharray:none;stroke-opacity:1"
       d="m 200.0793,177.88133 c 0.77509,-0.8179 2.90666,-1.36316 2.32532,-2.45372 -0.69919,-1.31162 -3.98804,10.74716 -1.16265,14.72232 4.03769,5.68085 9.26263,0.20714 11.62664,-2.45371"
       id="path234" />
    <path
       style="fill:none;stroke:#000000;stroke-width:1.5875;stroke-linecap:round;stroke-linejoin:round;stroke-dasharray:none;stroke-opacity:1"
       d="m 204.14862,177.06343 c 2.33826,-2.17399 4.96557,-1.99792 7.55732,-2.45371"
       id="path235" />
    <path
       style="fill:none;stroke:#000000;stroke-width:1.5875;stroke-linecap:round;stroke-linejoin:round;stroke-dasharray:none;stroke-opacity:1"
       d="m 214.28974,186.92202 c 8.21653,6.07846 8.72082,-10.17429 0,0 -7.13894,8.32877 4.93318,6.13481 8.05264,4.26315"
       id="path236" />
    <path
       style="fill:none;stroke:#000000;stroke-width:1.5875;stroke-linecap:round;stroke-linejoin:round;stroke-dasharray:none;stroke-opacity:1"
       d="m -28.684586,169.86936 c -2.680497,1.3671 -1.585228,19.76081 -2.842106,21.78947"
       id="path237" />
    <path
       style="fill:none;stroke:#000000;stroke-width:1.5875;stroke-linecap:round;stroke-linejoin:round;stroke-dasharray:none;stroke-opacity:1"
       d="m -27.771739,187.46739 c -0.36157,0.55992 5.17047,-0.0787 6.420053,-2.93479 1.461559,-3.34062 -5.113708,-2.14511 -6.420053,-0.65218 -0.757005,0.86512 0.11693,2.9188 0,3.58697 -0.925177,5.28658 4.85153,4.71716 8.560071,3.58697"
       id="path238" />
    <path
       style="fill:none;stroke:#000000;stroke-width:1.5875;stroke-linecap:round;stroke-linejoin:round;stroke-dasharray:none;stroke-opacity:1"
       d="m 60.530809,181.68063 c -5.369164,3.22168 6.053695,-2.83987 -2.718881,1.52026 -6.694581,3.32734 4.113937,4.64042 4.758067,6.08104 1.858179,4.15598 -6.082071,3.81056 -6.117515,3.80064"
       id="path239" />
    <path
       style="fill:none;stroke:#000000;stroke-width:1.5875;stroke-linecap:round;stroke-linejoin:round;stroke-dasharray:none;stroke-opacity:1"
       d="m 154.79016,181.35465 c 1.03198,-1.32348 -7.89472,1.83855 -6.63613,4.12588 0.93051,1.69108 5.28826,0.67947 6.63613,1.90427 4.14986,3.77091 -3.4539,5.71273 -4.88978,5.71273"
       id="path240" />
    <path
       style="fill:none;stroke:#000000;stroke-width:1.5875;stroke-linecap:round;stroke-linejoin:round;stroke-dasharray:none;stroke-opacity:1"
       d="m 171.11591,192.54463 c 1.07584,1.35714 -2.04803,0.93692 -3.34847,0 -1.08698,-0.78314 -1.94409,-2.84198 -2.23233,-4.50331 -2.05267,-11.83116 15.65923,2.42867 5.5808,4.50331 z"
       id="path241" />
    <path
       style="fill:none;stroke:#000000;stroke-width:1.5875;stroke-linecap:round;stroke-linejoin:round;stroke-dasharray:none;stroke-opacity:1"
       d="m 230.55524,182.90829 c -0.31396,-0.24183 -2.18698,-1.25196 -4.80157,0 -7.4676,3.57576 2.37054,3.80299 4.16136,5.51801 3.78472,3.62452 -4.49974,4.2918 -6.7222,4.2918"
       id="path242" />
    <path
       style="fill:none;stroke:#000000;stroke-width:1.58749;stroke-linecap:round;stroke-linejoin:round;stroke-dasharray:none;stroke-opacity:1"
       d="m 241.95941,192.65581 c -7.1519,2.12928 -11.16278,-10.57477 -7.60464,-17.4657 6.42064,4.19441 9.54362,1.43296 9.7774,1.29376"
       id="path243" />
    <path
       style="fill:none;stroke:#000000;stroke-width:1.5875;stroke-linecap:round;stroke-linejoin:round;stroke-dasharray:none;stroke-opacity:1"
       d="m 249.34239,181.34876 c -8.44214,-0.73938 8.22934,0 -3.78947,0 -16.53309,0 21.3463,10.89474 -4.26317,10.89474"
       id="path244" />
    <path
       style="fill:none;stroke:#000000;stroke-width:1.5875;stroke-linecap:round;stroke-linejoin:round;stroke-dasharray:none;stroke-opacity:1"
       d="m 259.86258,186.28224 c 4.55258,-2.60433 -5.85081,4.61208 3.0407,-1.71807 4.42062,-3.14718 4.71105,0.38212 3.0407,3.77978 -0.78434,1.59541 -7.93422,1.72904 -6.75712,4.12338 3.4491,7.0158 9.01114,-5.49786 7.77068,-5.49786 -0.58106,0 0.98943,3.83296 2.70285,4.1234"
       id="path245" />
    <path
       style="fill:none;stroke:#000000;stroke-width:1.58751;stroke-linecap:round;stroke-linejoin:round;stroke-dasharray:none;stroke-opacity:1"
       d="m 270.71847,193.55409 c -1.56918,-6.51835 1.45286,-16.08324 9.83606,-18.00102"
       id="path246" />
    <path
       style="fill:none;stroke:#000000;stroke-width:1.58751;stroke-linecap:round;stroke-linejoin:round;stroke-dasharray:none;stroke-opacity:1"
       d="m 271.37421,186.80372 c 3.12522,-0.18915 5.72542,-2.8994 8.52459,-4.50029"
       id="path247" />
    <path
       style="fill:none;stroke:#000000;stroke-width:1.5875;stroke-linecap:round;stroke-linejoin:round;stroke-dasharray:none;stroke-opacity:1"
       d="m 281.50135,183.60612 c 2.47049,3.25373 0.98404,8.6801 0.7146,9.47389"
       id="path248" />
    <path
       style="fill:none;stroke:#000000;stroke-width:1.5875;stroke-linecap:round;stroke-linejoin:round;stroke-dasharray:none;stroke-opacity:1"
       d="m 281.97527,176.47136 c 0.53698,1.0598 0.37159,2.23165 0,3.31529"
       id="path249" />
    <path
       style="fill:none;stroke:#000000;stroke-width:1.5875;stroke-linecap:round;stroke-linejoin:round;stroke-dasharray:none;stroke-opacity:1"
       d="m 286.73213,190.96321 c -1.26072,-17.34284 11.6124,-5.06628 4.22282,1.64321"
       id="path250" />
    <path
       style="fill:none;stroke:#000000;stroke-width:1.5875;stroke-linecap:round;stroke-linejoin:round;stroke-dasharray:none;stroke-opacity:1"
       d="m 306.39148,192.08065 c -1.09317,-0.18987 -3.06084,-1.51878 -3.27948,-0.56954 -0.21861,0.94921 4.20703,1.10649 3.27948,0.56954 -18.42746,-10.66741 9.47688,-11.5207 0,0 z"
       id="path251" />
    <path
       style="fill:none;stroke:#000000;stroke-width:1.5875;stroke-linecap:round;stroke-linejoin:round;stroke-dasharray:none;stroke-opacity:1"
       d="m 307.70327,169.86897 c 1.16043,6.51163 0.65589,17.65973 0.65589,22.21168"
       id="path252" />
    <path
       style="fill:none;stroke:#000000;stroke-width:1.5875;stroke-linecap:round;stroke-linejoin:round;stroke-dasharray:none;stroke-opacity:1"
       d="m 314.3851,188.48525 c -0.0417,0.28631 3.44664,0.33322 3.49208,-2.64275 0.13059,-8.55406 -13.86811,5.1174 -3.16939,6.62832 2.27735,0.32161 4.59479,-0.9377 4.61691,-0.95615"
       id="path254" />
    <path
       style="fill:none;stroke:#000000;stroke-width:1.5875;stroke-linecap:round;stroke-linejoin:round;stroke-dasharray:none;stroke-opacity:1"
       d="m 333.88355,182.45675 c -1.61165,1.61014 -1.07199,3.40224 -1.07199,5.15963 0,9.80263 -2.01455,-4.1171 1.07199,-5.15963 1.79008,-0.60463 4.71076,0.38244 6.43189,-0.27157"
       id="path255" />
    <path
       style="fill:none;stroke:#000000;stroke-width:1.5875;stroke-linecap:round;stroke-linejoin:round;stroke-dasharray:none;stroke-opacity:1"
       d="m 341.26278,188.34305 c 7.15788,-3.57894 -8.42105,4.21052 3.78947,-1.89474 6.20059,-3.10028 -4.98766,-7.6908 -3.78947,1.89474 0.67464,5.39718 6.13463,5.2338 8.99999,2.36844"
       id="path256" />
    <path
       style="fill:none;stroke:#000000;stroke-width:1.5875;stroke-linecap:round;stroke-linejoin:round;stroke-dasharray:none;stroke-opacity:1"
       d="m 340.31541,177.92201 c 3.33147,-1.06802 5.89518,-5.15879 6.63157,-6.6316"
       id="path257" />
    <path
       style="fill:none;stroke:#000000;stroke-width:1.5875;stroke-linecap:round;stroke-linejoin:round;stroke-dasharray:none;stroke-opacity:1"
       d="m 358.6047,193.15405 c -6.54124,-1.75321 6.36967,1.79817 -2.96568,-0.39125 -15.46448,-3.6269 14.60171,-16.80153 2.96568,0.39125 z"
       id="path258" />
    <path
       style="fill:none;stroke:#000000;stroke-width:1.5875;stroke-linecap:round;stroke-linejoin:round;stroke-dasharray:none;stroke-opacity:1"
       d="m 359.09726,167.97483 c 3.5518,4.92493 2.35132,27.14129 1.55842,25.09824"
       id="path259" />
    <path
       style="fill:none;stroke:#000000;stroke-width:1.5875;stroke-linecap:round;stroke-linejoin:round;stroke-dasharray:none;stroke-opacity:1"
       d="m 364.27618,184.59806 c -4.52365,9.02356 8.25088,16.61638 8.25088,-0.99143"
       id="path260" />
    <path
       style="fill:none;stroke:#000000;stroke-width:1.5875;stroke-linecap:round;stroke-linejoin:round;stroke-dasharray:none;stroke-opacity:1"
       d="m 375.36805,181.71147 c 1.28624,3.28504 0.47368,8.58441 0.47368,11.36843"
       id="path261" />
    <path
       style="fill:none;stroke:#000000;stroke-width:1.5875;stroke-linecap:round;stroke-linejoin:round;stroke-dasharray:none;stroke-opacity:1"
       d="m 375.36805,169.86937 c 0.4658,0.60584 0.29663,2.60292 -0.47368,5.68423"
       id="path262" />
    <path
       style="fill:none;stroke:#000000;stroke-width:1.5875;stroke-linecap:round;stroke-linejoin:round;stroke-dasharray:none;stroke-opacity:1"
       d="m 381.16493,183.13673 c -0.0994,1.24146 -0.61545,0.65834 -1.34379,5.28999 -0.31673,2.01414 -2.23965,6.10381 0,6.10381 1.31674,0 -0.55979,-10.62522 1.34379,-11.3938 1.39145,-0.5618 2.9862,0.54256 4.47932,0.81383"
       id="path264" />
    <path
       style="fill:none;stroke:#000000;stroke-width:1.5875;stroke-linecap:round;stroke-linejoin:round;stroke-dasharray:none;stroke-opacity:1"
       d="m 386.88501,187.61288 c 6.83573,-0.94204 -8.81868,1.71553 4.03137,-0.40692 3.96994,-0.65574 2.60012,-5.04005 -0.89586,-2.44155 -5.50346,4.09059 -3.05312,9.02111 2.68757,9.76612"
       id="path265" />
    <path
       style="fill:none;stroke:#000000;stroke-width:1.5875;stroke-linecap:round;stroke-linejoin:round;stroke-dasharray:none;stroke-opacity:1"
       d="m 402.84179,191.18514 c 2.03801,7.28483 12.3584,-20.39858 6.21883,-22.73683 -8.91334,-3.39461 -2.72352,22.96517 -1.86565,25.57896"
       id="path266" />
    <path
       style="fill:none;stroke:#000000;stroke-width:1.5875;stroke-linecap:round;stroke-linejoin:round;stroke-dasharray:none;stroke-opacity:1"
       d="m 412.3154,188.34305 c 6.68983,-1.6504 -7.81658,2.92131 3.7895,-0.94737 2.70306,-0.90101 4.24,-6.27052 0,-5.21052 -5.53414,1.38353 -7.12298,11.7851 0,10.89472"
       id="path267" />
    <path
       style="fill:none;stroke:#000000;stroke-width:1.5875;stroke-linecap:round;stroke-linejoin:round;stroke-dasharray:none;stroke-opacity:1"
       d="m 427.4733,183.60621 c 4.16602,-3.55362 -8.04773,-1.09712 -5.6842,2.8421 1.86028,3.10047 6.45438,1.06667 8.05262,4.26315 1.52331,3.04663 -5.70802,3.66512 -7.10526,3.31579"
       id="path268" />
    <path
       style="fill:none;stroke:#000000;stroke-width:1.5875;stroke-linecap:round;stroke-linejoin:round;stroke-dasharray:none;stroke-opacity:1"
       d="m 444.22675,182.18516 c -0.59857,2.85661 -1.12188,5.74859 -1.12188,8.66927 0,8.55598 0.66452,-8.79509 7.10527,-4.90002"
       id="path269" />
    <path
       style="fill:none;stroke:#000000;stroke-width:1.5875;stroke-linecap:round;stroke-linejoin:round;stroke-dasharray:none;stroke-opacity:1"
       d="m 451.1575,188.81674 c 14.6337,2.68708 2.96928,-9.65012 0,0 -1.99978,6.4993 7.86156,5.27423 9.47369,4.73686"
       id="path270" />
    <path
       style="fill:none;stroke:#000000;stroke-width:1.5875;stroke-linecap:round;stroke-linejoin:round;stroke-dasharray:none;stroke-opacity:1"
       d="m 451.15752,180.29044 c 2.44486,-1.108 4.87185,-2.30056 7.10525,-3.7895"
       id="path271" />
    <path
       style="fill:none;stroke:#000000;stroke-width:1.5875;stroke-linecap:round;stroke-linejoin:round;stroke-dasharray:none;stroke-opacity:1"
       d="m 468.21014,190.71147 c -23.52082,8.65444 14.54994,-20.3699 0,0 z"
       id="path272" />
    <path
       style="fill:none;stroke:#000000;stroke-width:1.5875;stroke-linecap:round;stroke-linejoin:round;stroke-dasharray:none;stroke-opacity:1"
       d="m 471.99961,185.97464 c 0.81656,4.13017 -0.32078,25.25818 -8.5263,17.05263"
       id="path273" />
    <path
       style="fill:none;stroke:#000000;stroke-width:1.5875;stroke-linecap:round;stroke-linejoin:round;stroke-dasharray:none;stroke-opacity:1"
       d="m 477.43166,182.18533 c -3.1378,1.7886 -2.09653,4.52609 -2.09653,7.1713 0,10.04855 -1.692,-1.84412 4.71723,-4.15181"
       id="path274" />
    <path
       style="fill:none;stroke:#000000;stroke-width:1.5875;stroke-linecap:round;stroke-linejoin:round;stroke-dasharray:none;stroke-opacity:1"
       d="m 482.42067,187.86937 c 8.89376,2.51441 5.49408,-7.14227 0,0 -4.47325,5.81522 2.92862,7.415 5.68421,5.21054"
       id="path275" />
    <path
       style="fill:none;stroke:#000000;stroke-width:1.5875;stroke-linecap:round;stroke-linejoin:round;stroke-dasharray:none;stroke-opacity:1"
       d="m 481.4733,179.81676 c 2.39435,-0.53798 5.58628,-4.63894 6.15789,-5.21052"
       id="path276" />
    <path
       style="fill:none;stroke:#000000;stroke-width:1.5875;stroke-linecap:round;stroke-linejoin:round;stroke-dasharray:none;stroke-opacity:1"
       d="m 497.80282,185.19967 c 5.00999,-1.83993 -12.86287,0.65174 -7.57704,2.89818 10.6925,4.54428 8.28903,3.228 0.7577,4.50832"
       id="path277" />
    <path
       style="fill:none;stroke:#000000;stroke-width:1.5875;stroke-linecap:round;stroke-linejoin:round;stroke-dasharray:none;stroke-opacity:1"
       d="m 505.37059,184.87766 c -6.34913,-0.32631 7.49094,0.61037 -3.37769,-0.32813 -2.28508,-0.19731 -3.36934,3.28767 -2.11104,4.26556 1.92115,1.49302 15.28854,4.26557 0,4.26557"
       id="path278" />
    <path
       style="fill:none;stroke:#000000;stroke-width:1.5875;stroke-linecap:round;stroke-linejoin:round;stroke-dasharray:none;stroke-opacity:1"
       d="m 509.89436,184.07989 c 0.004,3.03718 -0.0628,6.28348 -1.42108,9.00001"
       id="path279" />
    <path
       style="fill:none;stroke:#000000;stroke-width:1.5875;stroke-linecap:round;stroke-linejoin:round;stroke-dasharray:none;stroke-opacity:1"
       d="m 510.31256,179.20221 c 0.63098,0.5831 -0.63159,1.26326 -0.94737,1.89488"
       id="path280" />
    <path
       style="fill:none;stroke:#000000;stroke-width:1.5875;stroke-linecap:round;stroke-linejoin:round;stroke-dasharray:none;stroke-opacity:1"
       d="m 516.99961,194.02727 c -16.37665,-11.1969 22.86227,-13.06417 0,0 z"
       id="path281" />
    <path
       style="fill:none;stroke:#000000;stroke-width:1.5875;stroke-linecap:round;stroke-linejoin:round;stroke-dasharray:none;stroke-opacity:1"
       d="m 525.52593,193.0799 c -1.70153,-11.45722 15.63489,-10.2676 8.99999,-1.42105"
       id="path282" />
    <path
       style="fill:none;stroke:#000000;stroke-width:1.5875;stroke-linecap:round;stroke-linejoin:round;stroke-dasharray:none;stroke-opacity:1"
       d="m 543.52593,184.07988 c -0.63159,-0.31578 -1.57896,-1.57892 -1.89474,-0.94736 -0.3158,0.63158 2.52633,0.63158 1.89474,0.94736 -0.19558,0.0978 -3.57108,-0.91045 -4.26315,0.47369 -2.10876,4.21751 13.4824,8.05264 -1.89474,8.05264"
       id="path283" />
  </g>
</svg>
