<?xml version="1.0" encoding="UTF-8" standalone="no"?>
<!-- Created with Inkscape (http://www.inkscape.org/) -->

<svg
   width="374.10818mm"
   height="95.831367mm"
   viewBox="0 0 374.10818 95.831367"
   version="1.1"
   id="svg1"
   xmlns="http://www.w3.org/2000/svg"
   xmlns:svg="http://www.w3.org/2000/svg">
  <defs
     id="defs1" />
  <g
     id="layer1"
     transform="translate(90.051221,-106.73247)">
    <path
       style="fill:none;stroke:#000000;stroke-width:1.5875;stroke-linecap:round;stroke-linejoin:round"
       d="m -87.262215,128.99807 c -0.489748,-0.112 -1.346809,-0.78398 -1.469244,-0.336 -0.122439,0.44799 1.540636,0.79312 1.469244,0.336 -0.163352,-1.04596 -1.367438,-1.72241 -1.836557,-2.68793 -1.592898,-3.2784 9.451104,3.8488 1.836557,2.68793 -2.691501,-0.41035 2.216774,-7.09712 0,0 z"
       id="path2" />
    <path
       style="fill:none;stroke:#000000;stroke-width:1.5875;stroke-linecap:round;stroke-linejoin:round"
       d="m -68.285758,117.34669 c -20.065589,11.79776 -10.285913,16.52337 1.852428,16.52337"
       id="path3" />
    <path
       style="fill:none;stroke:#000000;stroke-width:1.5875;stroke-linecap:round;stroke-linejoin:round"
       d="m -60.315627,133.87097 c -5.955724,4.13955 -8.623457,-9.91512 0,-9.91512 6.033421,0 6.127468,9.04809 0,9.91512 z"
       id="path4" />
    <path
       style="fill:none;stroke:#000000;stroke-width:1.5875;stroke-linecap:round;stroke-linejoin:round"
       d="m -54.183841,133.25702 c -3.670007,-15.47703 11.56511,-8.94761 5.588333,0.0914"
       id="path5" />
    <path
       style="fill:none;stroke:#000000;stroke-width:1.58749;stroke-linecap:round;stroke-linejoin:round"
       d="m -45.820092,117.05021 c -0.624449,6.40254 -0.18301,18.95281 8.861624,15.42425"
       id="path6" />
    <path
       style="fill:none;stroke:#000000;stroke-width:1.58749;stroke-linecap:round;stroke-linejoin:round"
       d="m -45.138427,120.77331 c 2.948361,0.24347 7.768023,-4.14402 7.839125,-4.25497"
       id="path7" />
    <path
       style="fill:none;stroke:#000000;stroke-width:1.5875;stroke-linecap:round;stroke-linejoin:round"
       d="m -36.957928,125.33295 c 3.108531,15.19036 -5.36432,4.21849 8.063968,-1.10168"
       id="path8" />
    <path
       style="fill:none;stroke:#000000;stroke-width:1.5875;stroke-linecap:round;stroke-linejoin:round"
       d="m -27.503622,125.33294 c 0.476617,2.53353 0.556137,5.13463 0.556137,7.71176"
       id="path9" />
    <path
       style="fill:none;stroke:#000000;stroke-width:1.5875;stroke-linecap:round;stroke-linejoin:round"
       d="m -26.947485,117.34578 c -0.142706,1.221 0.352236,2.59812 -1.390338,3.0296"
       id="path95" />
    <path
       style="fill:none;stroke:#000000;stroke-width:1.5875;stroke-linecap:round;stroke-linejoin:round"
       d="m -22.776469,115.41533 c -4.484367,38.78915 13.6257269,5.45399 0.834202,10.90833"
       id="path10" />
    <path
       style="fill:none;stroke:#000000;stroke-width:1.5875;stroke-linecap:round;stroke-linejoin:round"
       d="m -14.990567,125.60836 c -3.03619,7.73966 2.135487,14.12382 5.5613595,0.55085"
       id="path11" />
    <path
       style="fill:none;stroke:#000000;stroke-width:1.5875;stroke-linecap:round;stroke-linejoin:round"
       d="m 2.2499025,132.15208 c -6.184031,4.01725 -13.3156545,-2.27743 -8.6041119,-14.53238 2.2968182,3.15665 5.1398059,1.41575 6.19496636,0.55894"
       id="path12" />
    <path
       style="fill:none;stroke:#000000;stroke-width:1.5875;stroke-linecap:round;stroke-linejoin:round"
       d="m 3.9180445,125.60836 c -0.2972442,2.21609 -1.1122675,7.87942 -1.1122675,7.98719"
       id="path13" />
    <path
       style="fill:none;stroke:#000000;stroke-width:1.5875;stroke-linecap:round;stroke-linejoin:round"
       d="m 5.3083883,117.34578 c -0.044672,2.09904 0.223794,-1.10833 -0.5561364,2.75419"
       id="path14" />
    <path
       style="fill:none;stroke:#000000;stroke-width:1.5875;stroke-linecap:round;stroke-linejoin:round"
       d="m 10.44836,134.22018 c 0.419739,0.73657 -3.5370344,0.83584 -4.2894426,-1.66 -4.8380767,-16.04837 22.1825596,3.3087 1.7157746,1.42285"
       id="path15" />
    <path
       style="fill:none;stroke:#000000;stroke-width:1.5875;stroke-linecap:round;stroke-linejoin:round"
       d="m 17.893259,133.8425 c -5.534038,-9.21725 6.646181,-12.27797 5.870448,0.59575"
       id="path16" />
    <path
       style="fill:none;stroke:#000000;stroke-width:1.5875;stroke-linecap:round;stroke-linejoin:round"
       d="m 33.115176,127.5363 c 0.18556,-0.0584 2.905902,-3.05694 3.892945,-1.10168 1.237005,2.45044 -5.564074,5.37474 -6.395557,6.61009 -1.50983,2.24317 5.839419,2.24023 5.839419,-3.30504 0,-0.45904 0.463457,-1.37711 0,-1.37711 -1.991553,0 -0.730355,5.52897 3.336826,6.33467"
       id="path17" />
    <path
       style="fill:none;stroke:#000000;stroke-width:1.5875;stroke-linecap:round;stroke-linejoin:round"
       d="m 35.617781,117.07036 c -0.63808,2.58306 2.348053,6.44672 2.780678,7.16091"
       id="path18" />
    <path
       style="fill:none;stroke:#000000;stroke-width:1.5875;stroke-linecap:round;stroke-linejoin:round"
       d="m 47.785026,114.36697 c 1.132825,5.5721 0.600005,15.70618 0.999528,19.62919"
       id="path19" />
    <path
       style="fill:none;stroke:#000000;stroke-width:1.5875;stroke-linecap:round;stroke-linejoin:round"
       d="m 54.78174,115.06802 c 0.956024,2.08783 -0.656382,4.01262 -1.33271,5.25781"
       id="path20" />
    <path
       style="fill:none;stroke:#000000;stroke-width:1.5875;stroke-linecap:round;stroke-linejoin:round"
       d="m 55.081503,126.6761 c 0.234343,-0.33516 1.015481,-0.75412 0.703028,-1.00549 -0.312459,-0.25137 -1.008011,1.26721 -0.703028,1.00549 9.805002,-8.41403 -0.132333,6.59038 0.234343,6.78703 4.200264,2.25276 3.821131,-5.02742 3.749472,-5.02742 -1.258856,0 0.374863,5.70618 3.04645,4.2733"
       id="path21" />
    <path
       style="fill:none;stroke:#000000;stroke-width:1.5875;stroke-linecap:round;stroke-linejoin:round"
       d="m 63.005214,124.77467 c -0.58942,1.26202 0,2.54178 0,3.83467 0,0.31042 0.307142,4.47382 0.502645,4.47382 0.593906,0 -0.67123,-2.98521 -0.75396,-3.19558 -0.449942,-1.14419 1.480678,-3.11516 1.256612,-3.62166 -0.237157,-0.53607 -1.63239,-1.27863 -1.005297,-1.49125 1.549813,-0.5255 3.13836,1.00073 4.775138,1.27822"
       id="path22" />
    <path
       style="fill:none;stroke:#000000;stroke-width:1.5875;stroke-linecap:round;stroke-linejoin:round"
       d="m 75.096665,124.51526 c -11.765859,0.48201 -4.60706,12.25363 3.640561,8.67878"
       id="path23" />
    <path
       style="fill:none;stroke:#000000;stroke-width:1.5875;stroke-linecap:round;stroke-linejoin:round"
       d="m 79.675681,114.36547 c 1.188243,3.09775 0.814611,6.27455 0.814611,9.66598 0,20.67405 -0.294755,1.611 1.221943,1.611 2.525469,0 5.609836,5.0769 4.480403,8.05498"
       id="path27" />
    <path
       style="fill:none;stroke:#000000;stroke-width:1.5875;stroke-linecap:round;stroke-linejoin:round"
       d="m 87.815254,126.08679 c 0.979975,1.84712 0.935758,9.37971 0.313028,7.71955"
       id="path25" />
    <path
       style="fill:none;stroke:#000000;stroke-width:1.5875;stroke-linecap:round;stroke-linejoin:round"
       d="m 87.502217,119.61907 c 1.153198,0.99673 0.297512,2.2269 0,2.92091"
       id="path26" />
    <path
       style="fill:none;stroke:#000000;stroke-width:1.5875;stroke-linecap:round;stroke-linejoin:round"
       d="m 90.764831,116.12029 c -1.979665,13.45627 2.157069,20.76595 9.662119,17.19589"
       id="path28" />
    <path
       style="fill:none;stroke:#000000;stroke-width:1.5875;stroke-linecap:round;stroke-linejoin:round"
       d="m 91.431182,120.55795 c 2.409083,-0.47001 4.916819,-1.25054 6.996716,-3.32824"
       id="path29" />
    <path
       style="fill:none;stroke:#000000;stroke-width:1.5875;stroke-linecap:round;stroke-linejoin:round"
       d="m 100.92841,128.39143 c -0.0424,0.0709 5.24587,0.34706 5.9835,-2.63838 0.71591,-2.89754 -8.196348,-2.89949 -8.783921,2.61528 -0.719153,6.74972 10.167751,6.91058 10.288461,3.22057"
       id="path30" />
    <path
       style="fill:none;stroke:#000000;stroke-width:1.5875;stroke-linecap:round;stroke-linejoin:round"
       d="m 116.23998,124.17137 c -12.24168,-7.23398 -8.03349,17.35697 1.84088,7.48347"
       id="path31" />
    <path
       style="fill:none;stroke:#000000;stroke-width:1.5875;stroke-linecap:round;stroke-linejoin:round"
       d="m 120.75074,116.12184 c -4.59914,12.15247 0.0704,22.89524 6.33036,18.54079"
       id="path32" />
    <path
       style="fill:none;stroke:#000000;stroke-width:1.5875;stroke-linecap:round;stroke-linejoin:round"
       d="m 121.41709,121.33644 c 1.81091,1.05485 4.70017,-2.05893 4.99766,-2.3176"
       id="path33" />
    <path
       style="fill:none;stroke:#000000;stroke-width:1.5875;stroke-linecap:round;stroke-linejoin:round"
       d="m 129.01735,123.48077 c -6.63609,20.14982 5.39347,12.09709 5.39347,0"
       id="path34" />
    <path
       style="fill:none;stroke:#000000;stroke-width:1.5875;stroke-linecap:round;stroke-linejoin:round"
       d="m 137.74277,123.83105 c 0.0111,2.59332 -0.66636,5.10673 -0.66636,7.71146 0,9.73799 -2.2844,-5.29696 0.66636,-7.71146 1.41354,-1.15666 3.7291,0.1415 5.33082,-0.70104"
       id="path42" />
    <path
       style="fill:none;stroke:#000000;stroke-width:1.5875;stroke-linecap:round;stroke-linejoin:round"
       d="m 147.49083,129.1445 c 8.45759,2.57986 2.25729,-10.15838 -3.48152,-3.44577 -1.52104,1.77915 -2.00794,3.91779 -1.33904,6.26503 1.3359,4.68776 11.44492,4.30267 8.83768,1.25302"
       id="path43" />
    <path
       style="fill:none;stroke:#000000;stroke-width:1.58749;stroke-linecap:round;stroke-linejoin:round"
       d="m 160.78234,113.08489 c 0.4326,5.69576 -0.74912,20.2658 -0.74912,22.23607"
       id="path44" />
    <path
       style="fill:none;stroke:#000000;stroke-width:1.5875;stroke-linecap:round;stroke-linejoin:round"
       d="m 166.87879,135.31393 c -17.31142,-20.35695 20.74572,-9.01808 0,0 z"
       id="path45" />
    <path
       style="fill:none;stroke:#000000;stroke-width:1.5875;stroke-linecap:round;stroke-linejoin:round"
       d="m 180.69415,133.15368 c 0.50367,1.77769 0.60343,0.93383 -2.96324,0.93383 -3.62615,0 -4.34364,-10.73894 1.11122,-10.73894 5.54557,0 9.00519,11.09324 1.85202,9.80511 z"
       id="path46" />
    <path
       style="fill:none;stroke:#000000;stroke-width:1.5875;stroke-linecap:round;stroke-linejoin:round"
       d="m 184.05329,128.93207 c 3.12922,8.34262 -1.67159,24.45714 -9.63824,15.5556"
       id="path47" />
    <path
       style="fill:none;stroke:#000000;stroke-width:1.5875;stroke-linecap:round;stroke-linejoin:round"
       d="m 187.75063,118.64402 c 0.0987,5.27486 -0.37456,10.54492 -0.37456,15.82149"
       id="path48" />
    <path
       style="fill:none;stroke:#000000;stroke-width:1.5875;stroke-linecap:round;stroke-linejoin:round"
       d="m 187.75062,107.52717 c 0.73628,1.73635 -0.49913,5.38545 -0.74911,5.98461"
       id="path49" />
    <path
       style="fill:none;stroke:#000000;stroke-width:1.5875;stroke-linecap:round;stroke-linejoin:round"
       d="m 197.05482,123.77522 c -15.90293,1.64311 -1.22247,17.11195 1.93266,10.21286"
       id="path50" />
    <path
       style="fill:none;stroke:#000000;stroke-width:1.5875;stroke-linecap:round;stroke-linejoin:round"
       d="m 200.8602,118.64403 c 0.59574,5.08801 -0.37456,10.2606 -0.37456,15.39386"
       id="path51" />
    <path
       style="fill:none;stroke:#000000;stroke-width:1.5875;stroke-linecap:round;stroke-linejoin:round"
       d="m 201.98388,107.52622 c -0.57617,1.71641 -0.78138,3.50611 -1.8728,5.1313"
       id="path52" />
    <path
       style="fill:none;stroke:#000000;stroke-width:1.5875;stroke-linecap:round;stroke-linejoin:round"
       d="m 207.96579,128.05001 c 0.11175,1.60427 4.65065,0.79419 3.91468,-3.6423 -1.07248,-6.4651 -9.27519,2.10189 -9.55649,5.95345 -0.66856,9.15426 10.29256,4.66172 11.21792,1.0351"
       id="path53" />
    <path
       style="fill:none;stroke:#000000;stroke-width:1.58749;stroke-linecap:round;stroke-linejoin:round"
       d="m 214.34436,111.37469 c 1.24342,7.41107 1.23274,15.17661 2.24734,22.6632"
       id="path54" />
    <path
       style="fill:none;stroke:#000000;stroke-width:1.58748;stroke-linecap:round;stroke-linejoin:round"
       d="m 217.34082,111.37293 c 3.34883,5.79378 3.41231,16.10878 2.24737,23.94956"
       id="path55" />
    <path
       style="fill:none;stroke:#000000;stroke-width:1.5875;stroke-linecap:round;stroke-linejoin:round"
       d="m 227.40709,127.09497 c -0.26652,0.34841 3.86141,1.33319 5.06613,-1.33653 2.71123,-6.00828 -14.53006,-3.03248 -8.68479,6.68266 2.32673,3.86713 13.10823,2.49771 12.30344,-1.06923"
       id="path96" />
    <path
       style="fill:none;stroke:#000000;stroke-width:1.5875;stroke-linecap:round;stroke-linejoin:round"
       d="m 248.59419,129.07633 c 1.86212,-0.62316 4.22931,-0.6679 5.15048,-2.7843 0.9527,-2.18885 -8.0546,-3.70933 -9.08908,1.04413 -1.29127,5.93335 8.24234,11.19959 9.39204,5.91661"
       id="path57" />
    <path
       style="fill:none;stroke:#000000;stroke-width:1.58749;stroke-linecap:round;stroke-linejoin:round"
       d="m 256.86889,110.34874 c -2.0991,10.98854 -2.32824,25.52063 8.65948,26.89125"
       id="path58" />
    <path
       style="fill:none;stroke:#000000;stroke-width:1.58749;stroke-linecap:round;stroke-linejoin:round"
       d="m 255.15972,115.82267 c 2.42576,1.38676 5.68912,0.45851 8.68106,-0.0206"
       id="path59" />
    <path
       style="fill:none;stroke:#000000;stroke-width:1.5875;stroke-linecap:round;stroke-linejoin:round"
       d="m 273.5183,124.4183 c 0.48124,-0.50247 1.92493,-1.00493 1.44369,-1.5074 -0.48122,-0.50247 -2.07556,1.7713 -1.44369,1.5074 15.52621,-6.48453 -3.45265,9.35007 1.08277,10.92859 5.38244,1.87331 4.27332,-9.22524 4.33108,-9.04436 1.20577,3.77695 -0.18991,6.78326 4.33107,6.78326"
       id="path60" />
    <path
       style="fill:none;stroke:#000000;stroke-width:1.5875;stroke-linecap:round;stroke-linejoin:round"
       d="m 275.02298,107.95385 c -0.34849,3.19052 3.8322,8.74987 4.12015,9.40737"
       id="path61" />
    <path
       style="fill:none;stroke:#000000;stroke-width:1.5875;stroke-linecap:round;stroke-linejoin:round"
       d="m -42.157994,146.04802 c 0.972751,7.0196 0.921355,14.2838 1.309797,21.43552"
       id="path62" />
    <path
       style="fill:none;stroke:#000000;stroke-width:1.5875;stroke-linecap:round;stroke-linejoin:round"
       d="m -33.862605,148.14954 c 2.869452,-3.46927 -1.097382,5.54345 -1.309799,5.88426"
       id="path63" />
    <path
       style="fill:none;stroke:#000000;stroke-width:1.5875;stroke-linecap:round;stroke-linejoin:round"
       d="m -26.440414,155.2947 c 0.253334,4.34712 0.320837,8.72922 0.873201,13.02943"
       id="path64" />
    <path
       style="fill:none;stroke:#000000;stroke-width:1.5875;stroke-linecap:round;stroke-linejoin:round"
       d="m -28.623412,145.62771 c 0.712869,-2.19181 3.289205,4.35386 3.492793,4.62334"
       id="path97" />
    <path
       style="fill:none;stroke:#000000;stroke-width:1.5875;stroke-linecap:round;stroke-linejoin:round"
       d="m -24.257415,167.48353 c 1.279702,-2.78855 -0.614366,-11.34821 3.929397,-11.34821 4.660139,0 3.056197,9.80534 3.056197,9.66699 0,-12.85377 10.3647042,-7.3466 5.239194,2.52183"
       id="path65" />
    <path
       style="fill:none;stroke:#000000;stroke-width:1.5875;stroke-linecap:round;stroke-linejoin:round"
       d="m -8.5398308,161.59927 c 0.740078,3.30556 0.436595,6.72588 0.436595,10.0873 0,15.9327 -1.723404,-8.22912 -0.436595,-10.0873 5.869081,-8.47504 17.635272,4.62335 3.492792,4.62335"
       id="path66" />
    <path
       style="fill:none;stroke:#000000;stroke-width:1.5875;stroke-linecap:round;stroke-linejoin:round"
       d="m 2.8117532,146.048 c 2.071276,5.37394 1.309796,17.37467 1.309796,21.01524"
       id="path67" />
    <path
       style="fill:none;stroke:#000000;stroke-width:1.5875;stroke-linecap:round;stroke-linejoin:round"
       d="m 9.6086882,162.36824 c 1.4458608,-0.0172 5.5136698,0.51043 5.5136698,-1.9726 0,-4.039 -8.0743298,-1.61797 -8.9268908,1.12719 -1.582781,5.09638 8.5612238,9.46029 9.7145568,4.50881"
       id="path68" />
    <path
       style="fill:none;stroke:#000000;stroke-width:1.5875;stroke-linecap:round;stroke-linejoin:round"
       d="m 7.2456862,155.32323 c 1.63715,-1.82114 3.4660048,-3.47577 5.2511158,-5.0724"
       id="path69" />
    <path
       style="fill:none;stroke:#000000;stroke-width:1.5875;stroke-linecap:round;stroke-linejoin:round"
       d="m 16.623994,166.54176 c 0.151518,-0.60933 1.087518,-1.68214 0.454555,-1.82801 -0.632963,-0.14585 -0.434186,2.45427 -0.454555,1.82801 -0.695957,-21.40164 13.260796,0.0493 9.197489,0.95986 -0.361042,0.0809 0.184767,-9.93376 2.628335,-11.37743 3.130783,-1.8497 5.608565,3.72183 6.261209,5.50165 0.948399,2.58639 0.323968,4.08907 -0.414218,5.70283"
       id="path70" />
    <path
       style="fill:none;stroke:#000000;stroke-width:1.5875;stroke-linecap:round;stroke-linejoin:round"
       d="m 40.238929,161.88849 c -0.04805,0.0805 5.944973,0.39398 6.780904,-2.9951 0.811318,-3.28931 -9.288655,-3.29152 -9.954528,2.96888 -0.815001,7.66232 11.522779,7.84493 11.659575,3.65601"
       id="path30-8" />
    <path
       style="fill:none;stroke:#000000;stroke-width:1.5875;stroke-linecap:round;stroke-linejoin:round"
       d="m 50.837697,166.64292 c -3.158636,-13.18154 14.035663,-19.52021 6.985594,0.84061"
       id="path72" />
    <path
       style="fill:none;stroke:#000000;stroke-width:1.58749;stroke-linecap:round;stroke-linejoin:round"
       d="m 62.748421,144.78897 c -3.750154,18.80318 3.530324,28.00682 13.41245,20.85411"
       id="path73" />
    <path
       style="fill:none;stroke:#000000;stroke-width:1.58749;stroke-linecap:round;stroke-linejoin:round"
       d="m 61.754916,150.54182 c 3.323486,-0.59431 6.606859,-1.62198 9.935128,-2.15732"
       id="path74" />
    <path
       style="fill:none;stroke:#000000;stroke-width:1.5875;stroke-linecap:round;stroke-linejoin:round"
       d="m 76.546223,159.15191 c 2.881952,-4.60212 -5.280383,5.57334 2.531195,-2.82068 2.770848,-2.97744 6.028992,0.74978 5.062416,3.17326 -0.814184,2.04137 -14.32937,6.46796 -7.171738,8.462 7.593067,2.11535 8.015473,-8.87431 8.015473,-7.75683 0,2.63245 -0.64236,5.95184 2.531194,5.28874"
       id="path75" />
    <path
       style="fill:none;stroke:#000000;stroke-width:1.58751;stroke-linecap:round;stroke-linejoin:round"
       d="m 90.568245,143.5263 c -3.651723,13.54272 -1.484359,30.03957 6.549008,22.3343"
       id="path76" />
    <path
       style="fill:none;stroke:#000000;stroke-width:1.58751;stroke-linecap:round;stroke-linejoin:round"
       d="m 87.512057,149.80782 c 2.433638,-0.74917 4.991973,-1.47493 7.4222,-0.69795"
       id="path77" />
    <path
       style="fill:none;stroke:#000000;stroke-width:1.5875;stroke-linecap:round;stroke-linejoin:round"
       d="m 99.300238,154.83373 c 1.872692,3.27763 -0.390971,13.62944 -0.436596,13.91072"
       id="path78" />
    <path
       style="fill:none;stroke:#000000;stroke-width:1.5875;stroke-linecap:round;stroke-linejoin:round"
       d="m 100.61006,144.78711 c -0.18288,1.44179 -1.201763,4.5882 -1.309825,5.02331"
       id="path79" />
    <path
       style="fill:none;stroke:#000000;stroke-width:1.5875;stroke-linecap:round;stroke-linejoin:round"
       d="m 104.87587,169.58509 c -12.501084,-29.30381 25.05764,-3.27749 0,0 z"
       id="path80" />
    <path
       style="fill:none;stroke:#000000;stroke-width:1.5875;stroke-linecap:round;stroke-linejoin:round"
       d="m 115.77291,168.48594 c -2.99475,-23.08935 12.39529,-8.93429 12.16846,0.62103"
       id="path81" />
    <path
       style="fill:none;stroke:#000000;stroke-width:1.5875;stroke-linecap:round;stroke-linejoin:round"
       d="m 145.1432,168.74444 c -7.91727,0.96323 -12.9171,-8.92546 -3.0562,-10.50761 8.63991,-1.38623 11.40072,7.49521 3.0562,10.50761 z"
       id="path82" />
    <path
       style="fill:none;stroke:#000000;stroke-width:1.5875;stroke-linecap:round;stroke-linejoin:round"
       d="m 148.38028,144.36607 c 1.23792,6.26827 1.80592,22.22188 1.7464,22.69789"
       id="path83" />
    <path
       style="fill:none;stroke:#000000;stroke-width:1.5875;stroke-linecap:round;stroke-linejoin:round"
       d="m 157.29264,164.2133 c -0.5649,0.56821 5.93937,-0.92507 6.11771,-4.15991 0.25322,-4.59305 -12.07794,-2.33006 -11.86547,4.03734 0.22579,6.76638 13.43794,6.20204 13.28816,1.71349"
       id="path84" />
    <path
       style="fill:none;stroke:#000000;stroke-width:1.58751;stroke-linecap:round;stroke-linejoin:round"
       d="m 173.95881,168.00867 c 2.32168,-16.74993 9.42617,-13.25961 7.38073,1.15593"
       id="path85" />
    <path
       style="fill:none;stroke:#000000;stroke-width:1.5875;stroke-linecap:round;stroke-linejoin:round"
       d="m 186.10396,168.74442 c -11.79867,-23.97732 20.75132,-3.03143 0,0 z"
       id="path86" />
    <path
       style="fill:none;stroke:#000000;stroke-width:1.58749;stroke-linecap:round;stroke-linejoin:round"
       d="m 195.53348,156.97552 c -4.1601,16.79816 7.57187,11.49045 9.8608,0"
       id="path87" />
    <path
       style="fill:none;stroke:#000000;stroke-width:1.5875;stroke-linecap:round;stroke-linejoin:round"
       d="m 208.88672,157.16401 c 4.31137,17.5937 9.46993,10.04397 11.35159,-2.28935"
       id="path88" />
    <path
       style="fill:none;stroke:#000000;stroke-width:1.5875;stroke-linecap:round;stroke-linejoin:round"
       d="m 222.86301,162.61896 c 0.55414,-0.45401 2.13406,-0.82854 1.66245,-1.36201 -0.47159,-0.53348 -2.38875,1.40512 -1.66245,1.36201 10.9945,-0.65272 8.95057,-10.79 0.57593,-4.66633 -0.18682,0.1366 -2.07788,1.77409 -2.07137,1.80738 1.35761,6.94733 3.44439,-2.00683 -1.3131,6.8156 -0.99044,1.83671 11.13448,4.25544 12.17473,-1.14389"
       id="path89" />
    <path
       style="fill:none;stroke:#000000;stroke-width:1.5875;stroke-linecap:round;stroke-linejoin:round"
       d="m 232.7451,145.16341 c 1.14861,8.0377 0.10449,15.53041 1.54418,23.62503"
       id="path90" />
    <path
       style="fill:none;stroke:#000000;stroke-width:1.58751;stroke-linecap:round;stroke-linejoin:round"
       d="m 237.44657,145.20739 c 1.77309,6.30539 1.7464,20.34744 1.7464,23.53705"
       id="path91" />
    <path
       style="fill:none;stroke:#000000;stroke-width:1.5875;stroke-linecap:round;stroke-linejoin:round"
       d="m 244.83971,162.43988 c 1.93551,1.85608 4.52963,1.44458 5.63183,-1.68122 2.05927,-5.83999 -6.70075,-6.34268 -8.89236,-1.68121 -4.9961,10.62652 9.63666,9.0319 10.96724,7.14517"
       id="path92" />
    <path
       style="fill:none;stroke:#000000;stroke-width:1.5875;stroke-linecap:round;stroke-linejoin:round"
       d="m 261.47566,157.34169 c -2.15536,-1.80562 -4.57858,-2.06465 -7.03945,-0.97451 -1.89948,0.84145 -5.02391,4.20201 -2.05318,5.84702 3.79216,2.09986 7.97789,-2.40386 11.1458,-0.64967 0.58661,0.32483 0.67252,1.25992 0.87993,1.949 1.59856,5.31114 -10.00835,3.40084 -11.73242,2.9235"
       id="path94" />
    <path
       style="fill:none;stroke:#000000;stroke-width:1.5875;stroke-linecap:round;stroke-linejoin:round"
       d="m 11.162352,201.16462 c 0.300652,-9.26595 -3.37359,-21.00626 10.362771,-21.40353"
       id="path98" />
    <path
       style="fill:none;stroke:#000000;stroke-width:1.5875;stroke-linecap:round;stroke-linejoin:round"
       d="m 13.824198,189.84821 c 1.583315,-0.49205 6.029507,-1.13379 6.105674,-1.13314"
       id="path99" />
    <path
       style="fill:none;stroke:#000000;stroke-width:1.5875;stroke-linecap:round;stroke-linejoin:round"
       d="m 21.493221,198.20356 c 0.706113,1.14256 -2.103854,-1.92278 -2.731896,-3.09787 -2.106868,-3.94204 9.76114,-7.84031 11.382881,-2.32339 1.585943,5.39524 -6.474295,11.90049 -8.650985,5.42126 z"
       id="path100" />
    <path
       style="fill:none;stroke:#000000;stroke-width:1.5875;stroke-linecap:round;stroke-linejoin:round"
       d="m 31.606049,200.01115 c 5.912278,-23.68734 12.194029,4.95503 7.397547,-0.90355"
       id="path101" />
    <path
       style="fill:none;stroke:#000000;stroke-width:1.5875;stroke-linecap:round;stroke-linejoin:round"
       d="m 49.66478,191.37832 c -10.624711,-8.34406 -12.16407,13.97233 0.547176,9.6872"
       id="path102" />
    <path
       style="fill:none;stroke:#000000;stroke-width:1.5875;stroke-linecap:round;stroke-linejoin:round"
       d="m 51.894141,178.86644 c -1.965379,14.44376 -0.414224,29.11119 14.882791,20.17363"
       id="path103" />
    <path
       style="fill:none;stroke:#000000;stroke-width:1.5875;stroke-linecap:round;stroke-linejoin:round"
       d="m 52.489439,184.43158 c 3.462128,-0.18032 6.832595,-1.50197 10.120322,-2.78257"
       id="path104" />
    <path
       style="fill:none;stroke:#000000;stroke-width:1.5875;stroke-linecap:round;stroke-linejoin:round"
       d="m 67.715233,189.11924 c 0.519715,3.53679 1.093936,7.22448 0.460739,10.7384"
       id="path105" />
    <path
       style="fill:none;stroke:#000000;stroke-width:1.5875;stroke-linecap:round;stroke-linejoin:round"
       d="m 68.175972,177.64092 c 1.691444,3.79627 -1.050326,-4.22052 0.921448,3.70276"
       id="path106" />
    <path
       style="fill:none;stroke:#000000;stroke-width:1.5875;stroke-linecap:round;stroke-linejoin:round"
       d="m 74.792677,200.55029 c -0.805567,-0.58325 -1.611114,-2.33301 -2.416661,-1.74977 -0.805567,0.58326 3.1002,2.40966 2.416661,1.74977 -4.026069,-3.88671 -5.858169,-3.39423 -3.625001,-7.43651 7.723073,-13.97963 22.017624,10.76578 3.625001,7.43651 z"
       id="path107" />
    <path
       style="fill:none;stroke:#000000;stroke-width:1.5875;stroke-linecap:round;stroke-linejoin:round"
       d="m 85.683689,199.85743 c -3.540674,-20.97647 14.851351,-7.49232 4.607289,0.74056"
       id="path108" />
    <path
       style="fill:none;stroke:#000000;stroke-width:1.5875;stroke-linecap:round;stroke-linejoin:round"
       d="m 93.978069,198.17709 c 3.349271,-15.47999 13.368931,-7.33224 9.068251,2.41894"
       id="path113" />
    <path
       style="fill:none;stroke:#000000;stroke-width:1.5875;stroke-linecap:round;stroke-linejoin:round"
       d="m 106.85326,191.92827 c 0.42619,-0.2894 3.91057,-3.77387 4.96536,-1.35536 1.22853,2.8169 -6.8682,8.84643 -6.38404,9.21646 5.59121,4.27338 7.01435,-5.69252 6.02937,-5.69252 -0.5705,0 0.88138,4.5261 3.19201,4.8793"
       id="path109" />
    <path
       style="fill:none;stroke:#000000;stroke-width:1.5875;stroke-linecap:round;stroke-linejoin:round"
       d="m 115.63109,175.51539 c 1.27498,1.78264 -0.46074,15.95033 -0.46074,24.71232"
       id="path110" />
    <path
       style="fill:none;stroke:#000000;stroke-width:1.58749;stroke-linecap:round;stroke-linejoin:round"
       d="m 119.75796,189.72059 c 1.27991,2.42224 0.81213,9.72086 0.81213,10.54956"
       id="path111" />
    <path
       style="fill:none;stroke:#000000;stroke-width:1.58749;stroke-linecap:round;stroke-linejoin:round"
       d="m 120.56983,179.51136 c 1.23223,1.65872 0.48875,2.93928 0,4.08369"
       id="path112" />
    <path
       style="fill:none;stroke:#000000;stroke-width:1.58749;stroke-linecap:round;stroke-linejoin:round"
       d="m 125.15206,177.8948 c -4.67222,15.24101 -1.69231,24.95091 13.58757,21.6976"
       id="path114" />
    <path
       style="fill:none;stroke:#000000;stroke-width:1.58749;stroke-linecap:round;stroke-linejoin:round"
       d="m 125.15206,185.12733 c 3.81427,0.32985 8.76032,-4.98654 9.51131,-5.78602"
       id="path115" />
    <path
       style="fill:none;stroke:#000000;stroke-width:1.5875;stroke-linecap:round;stroke-linejoin:round"
       d="m 137.06768,195.62589 c -0.45231,0.51 5.77071,-0.61909 6.25578,-4.08034 0.79492,-5.67204 -7.62324,-3.4042 -9.26246,-0.12454 -4.82753,9.65872 9.55557,10.44267 12.15242,7.6453"
       id="path116" />
    <path
       style="fill:none;stroke:#000000;stroke-width:1.5875;stroke-linecap:round;stroke-linejoin:round"
       d="m 132.92329,185.15525 c 2.74212,0.71352 5.45756,-1.62316 7.99341,-2.879"
       id="path117" />
    <path
       style="fill:none;stroke:#000000;stroke-width:1.5875;stroke-linecap:round;stroke-linejoin:round"
       d="m 154.05187,187.26295 c -0.3085,-0.42415 -3.10061,-0.82611 -6.33591,0.63654 -14.39372,6.50728 25.55014,6.55738 -1.75998,12.73072"
       id="path118" />
    <path
       style="fill:none;stroke:#000000;stroke-width:1.5875;stroke-linecap:round;stroke-linejoin:round"
       d="m 165.61713,199.56148 c -1.87211,-2.90134 1.15165,-13.74881 5.23811,-12.63584 2.11935,0.57722 0.76121,12.22824 1.12245,12.22824 0.5767,0 0.87905,-13.67531 4.86393,-12.22824 3.66783,1.33193 2.73383,9.65755 0,12.63584"
       id="path119" />
    <path
       style="fill:none;stroke:#000000;stroke-width:1.5875;stroke-linecap:round;stroke-linejoin:round"
       d="m 186.22459,192.54154 c 16.67826,-6.55249 -12.08795,-10.1916 -4.76865,4.92408 2.70651,5.58945 11.53562,-0.6038 9.19669,0"
       id="path122" />
    <path
       style="fill:none;stroke:#000000;stroke-width:1.5875;stroke-linecap:round;stroke-linejoin:round"
       d="m 180.7487,181.69415 c 3.29018,-1.3458 6.53782,-2.87892 9.94171,-3.81865"
       id="path121" />
    <path
       style="fill:none;stroke:#000000;stroke-width:1.5875;stroke-linecap:round;stroke-linejoin:round"
       d="m 195.8023,176.58717 c -5.38307,24.25988 2.6194,24.48821 11.59864,21.06831"
       id="path123" />
    <path
       style="fill:none;stroke:#000000;stroke-width:1.5875;stroke-linecap:round;stroke-linejoin:round"
       d="m 195.03635,184.06302 c 2.57073,-4.45026 6.07654,-2.76138 6.24541,-2.7185"
       id="path124" />
    <path
       style="fill:none;stroke:#000000;stroke-width:1.5875;stroke-linecap:round;stroke-linejoin:round"
       d="m 208.08487,184.99298 c 0.45957,4.34397 -1.2546,12.50887 -1.71409,14.51101"
       id="path125" />
    <path
       style="fill:none;stroke:#000000;stroke-width:1.5875;stroke-linecap:round;stroke-linejoin:round"
       d="m 207.74205,174.76581 c 0.4486,1.57927 -0.36099,3.22581 -0.68565,4.58163"
       id="path126" />
    <path
       style="fill:none;stroke:#000000;stroke-width:1.5875;stroke-linecap:round;stroke-linejoin:round"
       d="m 212.16844,191.75152 c 1.81565,-0.0315 4.45434,0.39227 5.28994,-1.48761 1.29822,-2.92067 -7.23341,-3.22917 -8.9268,-0.37191 -3.19051,5.38339 1.84043,11.64999 5.9512,8.18193"
       id="path127" />
    <path
       style="fill:none;stroke:#000000;stroke-width:1.5875;stroke-linecap:round;stroke-linejoin:round"
       d="m 219.77275,186.56822 c -0.75221,3.61012 -1.04427,7.4334 -1.32251,11.20493 -1.10208,14.94001 -0.03,-14.37287 7.93494,-6.27476"
       id="path128" />
    <path
       style="fill:none;stroke:#000000;stroke-width:1.5875;stroke-linecap:round;stroke-linejoin:round"
       d="m 228.3689,199.56155 c -1.07495,-4.83675 -0.3583,-1.61225 0,0 z"
       id="path129" />
  </g>
</svg>
