<?xml version="1.0" encoding="UTF-8" standalone="no"?>
<!-- Created with Inkscape (http://www.inkscape.org/) -->

<svg
   width="641.93695mm"
   height="133.32062mm"
   viewBox="0 0 641.93695 133.32062"
   version="1.1"
   id="svg1"
   xmlns="http://www.w3.org/2000/svg"
   xmlns:svg="http://www.w3.org/2000/svg">
  <defs
     id="defs1" />
  <g
     id="layer1"
     transform="translate(68.235754,-72.679815)">
    <path
       style="fill:none;stroke:#000000;stroke-width:1.5875;stroke-linecap:round;stroke-linejoin:round"
       d="m -63.068429,88.862912 c 4.578892,6.389114 -5.014846,2.296118 -4.339742,0 1.284912,-4.370155 8.237404,-3.461928 7.232902,1.093337 -0.495541,2.247201 -3.93502,0.678417 -2.89316,-1.093337 1.937493,-3.294841 2.578867,1.234927 2.410966,2.186673 -0.276579,1.567804 -5.851067,-0.126528 -4.821935,-2.460008 0.361199,-0.818989 2.410969,-0.642324 2.410969,0.273335 0,8.125929 -2.177901,0.0353 -1.928774,0 0.637959,-0.09041 2.216298,-0.651941 1.928774,0 -1.001824,2.271554 -3.375355,1.262273 -3.375355,-0.546669 0,-2.706559 7.081381,0.761073 1.205485,1.36667 -0.637374,0.06569 -0.443418,-6.004753 2.16987,-0.820001 z"
       id="path1" />
    <path
       style="fill:none;stroke:#000000;stroke-width:1.5875;stroke-linecap:round;stroke-linejoin:round"
       d="m -50.684506,75.78932 c -2.20246,0.257163 0.483667,18.112636 -0.620355,22.737146"
       id="path2" />
    <path
       style="fill:none;stroke:#000000;stroke-width:1.5875;stroke-linecap:round;stroke-linejoin:round"
       d="m -44.526315,96.741568 c -6.736469,4.289372 -2.313249,-20.754063 2.36842,-9.596067 1.597592,3.807596 1.587278,10.863549 1.421054,11.853964"
       id="path3" />
    <path
       style="fill:none;stroke:#000000;stroke-width:1.5875;stroke-linecap:round;stroke-linejoin:round"
       d="m -25.578948,95.716958 c -9.324528,8.457382 -15.105051,-5.926596 -11.368421,-16.612453 3.75956,2.981983 6.536325,1.74733 10.421052,0.572846"
       id="path4" />
    <path
       style="fill:none;stroke:#000000;stroke-width:1.5875;stroke-linecap:round;stroke-linejoin:round"
       d="m -21.036443,90.002053 c 2.060561,-0.479831 5.812469,-1.173933 6.961209,-3.453574 3.719785,-7.381797 -22.76737,2.519018 -6.961209,10.360725 3.206685,1.59089 6.464541,1.443372 9.668346,0.38373"
       id="path7" />
    <path
       style="fill:none;stroke:#000000;stroke-width:1.5875;stroke-linecap:round;stroke-linejoin:round"
       d="m -11.060296,83.829867 c 0.337243,1.49699 1.5755688,14.641053 2.3682071,14.641053 2.0643318,0 -3.4933741,-12.642158 -2.3682071,-14.641053 1.1630202,-2.066146 4.4143746,1.042046 6.630983,1.51459"
       id="path6" />
    <path
       style="fill:none;stroke:#000000;stroke-width:1.5875;stroke-linecap:round;stroke-linejoin:round"
       d="M 9.4736842e-7,89.067723 C -0.47368605,88.337473 -0.78947405,86.329287 -1.4210531,86.876974 c -1.754835,1.521744 2.33480805,4.303767 3.31579,6.572248 0.442148,1.022451 2.638319,6.260186 2.842104,6.024561 2.739649,-3.167659 5.6386071,-14.523906 6.1578941,-17.525995"
       id="path8" />
    <path
       style="fill:none;stroke:#000000;stroke-width:1.5875;stroke-linecap:round;stroke-linejoin:round"
       d="M 13.736843,90.473683 C 20.869898,87.782614 4.4863588,94.458086 18,89.05263 c 4.803148,-1.921259 -0.363336,-8.691837 -3.31579,-4.263157 -5.4935992,8.240398 0.969947,14.796988 9,12.789478"
       id="path9" />
    <path
       style="fill:none;stroke:#000000;stroke-width:1.5875;stroke-linecap:round;stroke-linejoin:round"
       d="M 24.631579,97.105184 C 22.484446,76.12457 35.244106,83.202724 31.263156,96.473558"
       id="path10" />
    <path
       style="fill:none;stroke:#000000;stroke-width:1.5875;stroke-linecap:round;stroke-linejoin:round"
       d="M 35.702173,77.683154 C 32.333051,88.542348 35.033921,102.883 45.474057,97.740133"
       id="path11" />
    <path
       style="fill:none;stroke:#000000;stroke-width:1.5875;stroke-linecap:round;stroke-linejoin:round"
       d="m 35.159292,83.031682 c 2.189504,3.055595 7.857603,1.337133 8.686117,1.337133"
       id="path12" />
    <path
       style="fill:none;stroke:#000000;stroke-width:1.5875;stroke-linecap:round;stroke-linejoin:round"
       d="m 49.263157,87.902269 c 0.658374,3.38347 1.40076,6.839251 0.473684,10.150164"
       id="path13" />
    <path
       style="fill:none;stroke:#000000;stroke-width:1.5875;stroke-linecap:round;stroke-linejoin:round"
       d="m 49.736841,79.105461 c 0.327231,0.606355 -0.291227,2.080146 -0.473684,3.383388"
       id="path14" />
    <path
       style="fill:none;stroke:#000000;stroke-width:1.5875;stroke-linecap:round;stroke-linejoin:round"
       d="m 63.94737,99.473685 c -23.262132,-4.998096 11.19367,-26.11858 0,0 z"
       id="path15" />
    <path
       style="fill:none;stroke:#000000;stroke-width:1.5875;stroke-linecap:round;stroke-linejoin:round"
       d="M 69.158523,99.472953 C 71.778625,75.442628 86.750538,89.241255 77.80754,98.369433"
       id="path16" />
    <path
       style="fill:none;stroke:#000000;stroke-width:1.5875;stroke-linecap:round;stroke-linejoin:round"
       d="m 100.39243,85.181892 c -17.695825,2.450405 0.22482,7.030593 4.11692,8.975063 3.29505,1.646184 -6.046934,5.235454 -9.730905,5.235454"
       id="path17" />
    <path
       style="fill:none;stroke:#000000;stroke-width:1.5875;stroke-linecap:round;stroke-linejoin:round"
       d="m 107.72444,86.655791 c -1.07495,13.930259 4.72326,21.457249 9.8884,-0.891359"
       id="path20" />
    <path
       style="fill:none;stroke:#000000;stroke-width:1.5875;stroke-linecap:round;stroke-linejoin:round"
       d="m 120.66088,84.191276 c 0,8.841563 0,-11.454165 0,5.087523 0,22.630181 -1.08416,0.807195 5.06664,-0.565287"
       id="path19" />
    <path
       style="fill:none;stroke:#000000;stroke-width:1.5875;stroke-linecap:round;stroke-linejoin:round"
       d="m 144.04083,98.597024 c -6.14391,0.53964 4.9875,2.563416 -3.78947,-0.94737 -3.34965,-1.33986 -2.70927,-9.94737 0.94737,-9.94737 5.7196,0 10.37914,10.89474 2.8421,10.89474 z"
       id="path21" />
    <path
       style="fill:none;stroke:#000000;stroke-width:1.5875;stroke-linecap:round;stroke-linejoin:round"
       d="m 149.25136,77.281237 c -0.78176,4.163711 -0.47369,23.284153 -0.47369,19.421047"
       id="path22" />
    <path
       style="fill:none;stroke:#000000;stroke-width:1.5875;stroke-linecap:round;stroke-linejoin:round"
       d="m 156.74903,87.47242 c 0.78338,0.25685 1.928,1.86147 4.26316,-0.47369 2.56685,-2.56685 -7.80274,-0.0522 -8.52631,2.84211 -1.61473,6.45891 5.9243,9.707268 9,6.63158"
       id="path23" />
    <path
       style="fill:none;stroke:#000000;stroke-width:1.5875;stroke-linecap:round;stroke-linejoin:round"
       d="m 173.32798,86.52505 c 1.59343,-2.11338 -4.23331,-1.95443 -6.15789,1.89474 -1.56373,3.12745 12.96949,10.421048 0,10.421048"
       id="path24" />
    <path
       style="fill:none;stroke:#000000;stroke-width:1.5875;stroke-linecap:round;stroke-linejoin:round"
       d="m 189.44539,79.839094 c -8.14458,13.81697 -0.68221,24.051826 13.26315,18.47369"
       id="path26" />
    <path
       style="fill:none;stroke:#000000;stroke-width:1.5875;stroke-linecap:round;stroke-linejoin:round"
       d="m 190.39275,83.628574 c 3.12437,2.05729 10.6898,-0.77772 11.36843,-0.94737"
       id="path27" />
    <path
       style="fill:none;stroke:#000000;stroke-width:1.5875;stroke-linecap:round;stroke-linejoin:round"
       d="m 207.21552,87.925397 c -4.50598,6.54202 -1.06517,13.263153 5.21053,13.263153"
       id="path28" />
    <path
       style="fill:none;stroke:#000000;stroke-width:1.5875;stroke-linecap:round;stroke-linejoin:round"
       d="m 206.85281,76.646785 c 0.78065,1.365921 -0.0324,2.706102 -0.47369,4.031823"
       id="path29" />
    <path
       style="fill:none;stroke:#000000;stroke-width:1.5875;stroke-linecap:round;stroke-linejoin:round"
       d="M 217.94663,87.926142 C 215.38928,82.895449 203.58725,101.38828 221.11,100.67521"
       id="path30" />
    <path
       style="fill:none;stroke:#000000;stroke-width:1.5875;stroke-linecap:round;stroke-linejoin:round"
       d="m 222.03677,83.20249 c 0,3.47369 0,6.94737 0,10.42106 0,20.09651 -0.15653,-1.26452 0,-1.42106 1.76103,-1.76102 4.98406,-3.08931 6.63158,-4.73684 0.24966,-0.24965 0.94737,-0.12062 0.94737,-0.47368 0,-2.81124 -6.63158,2.39929 -6.63158,5.21052 0,0.0861 3.49707,1.24561 3.78948,1.42106 2.98173,1.78904 8.05263,10.10885 8.05263,6.63157 0,-0.8631 -9.65258,-7.43154 -9.94737,-7.57894"
       id="path32" />
    <path
       style="fill:none;stroke:#000000;stroke-width:1.5875;stroke-linecap:round;stroke-linejoin:round"
       d="m 237.83089,91.72881 c 0.82581,2.11687 6.63158,0.22555 6.63158,-0.94737 0,-16.43392 -20.66815,19.80776 0.94737,9"
       id="path33" />
    <path
       style="fill:none;stroke:#000000;stroke-width:1.5875;stroke-linecap:round;stroke-linejoin:round"
       d="m 249.68694,85.57092 c -10.7584,12.36453 5.71243,18.3733 12.31579,17.05263"
       id="path34" />
    <path
       style="fill:none;stroke:#000000;stroke-width:1.5875;stroke-linecap:round;stroke-linejoin:round"
       d="m 250.16063,90.78144 c 2.55936,0.91122 4.70009,-0.0728 7.10526,-0.47368"
       id="path35" />
    <path
       style="fill:none;stroke:#000000;stroke-width:1.5875;stroke-linecap:round;stroke-linejoin:round"
       d="m 269.35181,89.407996 c -23.13728,-5.35715 12.45644,8.7824 -7.57894,12.789474"
       id="path36" />
    <path
       style="fill:none;stroke:#000000;stroke-width:1.5875;stroke-linecap:round;stroke-linejoin:round"
       d="m 298.4567,101.80504 c -8.69991,-1.46988 -21.29912,-7.416591 -12.05989,-24.062698 2.31672,5.637661 10.16586,4.657305 11.4856,4.657305"
       id="path37" />
    <path
       style="fill:none;stroke:#000000;stroke-width:1.5875;stroke-linecap:round;stroke-linejoin:round"
       d="m 302.90567,97.382162 c -0.0684,-0.880995 3.30597,0.565165 6.26248,-1.674028 5.70424,-4.32029 -3.44631,-9.058446 -7.36763,-4.603571 -10.39853,11.813467 9.2586,13.799547 11.05143,13.392197"
       id="path62" />
    <path
       style="fill:none;stroke:#000000;stroke-width:1.5875;stroke-linecap:round;stroke-linejoin:round"
       d="M 323.86264,89.831045 C 313.36757,84.02008 309.1533,106.621 326.01065,100.33834"
       id="path39" />
    <path
       style="fill:none;stroke:#000000;stroke-width:1.5875;stroke-linecap:round;stroke-linejoin:round"
       d="m 334.35354,75.665266 c -2.22547,4.597266 -4.30246,10.297955 -4.836,15.764222 -1.22306,12.530132 -2.98978,10.923282 -0.43965,1.126017 0.40093,-1.540318 4.36776,-6.492919 5.71529,-5.630087 3.27685,2.09821 0.71849,9.474583 0,14.075202"
       id="path43" />
    <path
       style="fill:none;stroke:#000000;stroke-width:1.5875;stroke-linecap:round;stroke-linejoin:round"
       d="m 338.92985,97.912521 c 6.45396,-18.6539 13.62856,-5.829408 7.19513,3.365549"
       id="path44" />
    <path
       style="fill:none;stroke:#000000;stroke-width:1.5875;stroke-linecap:round;stroke-linejoin:round"
       d="m 355.31274,87.311276 c -1.57897,3.73979 -3.63822,7.86147 -2.8421,11.8421"
       id="path45" />
    <path
       style="fill:none;stroke:#000000;stroke-width:1.5875;stroke-linecap:round;stroke-linejoin:round"
       d="m 355.31274,75.217414 c -0.76673,2.12672 -1.10133,4.39359 -1.42105,6.63158"
       id="path46" />
    <path
       style="fill:none;stroke:#000000;stroke-width:1.5875;stroke-linecap:round;stroke-linejoin:round"
       d="m 362.71183,100.84344 c -6.26982,-3.139916 7.13047,5.67886 -3.98035,-1.811193 -6.86585,-4.628411 -0.0783,-15.919085 7.46317,-9.055955 5.02536,4.57339 5.73035,19.251718 -3.48282,10.867148 z"
       id="path47" />
    <path
       style="fill:none;stroke:#000000;stroke-width:1.5875;stroke-linecap:round;stroke-linejoin:round"
       d="m 363.8054,97.381516 c 1.59899,4.778054 10.87058,11.523284 11.87578,11.957024"
       id="path48" />
    <path
       style="fill:none;stroke:#000000;stroke-width:1.5875;stroke-linecap:round;stroke-linejoin:round"
       d="m 373.99659,90.301981 c -6.3816,15.745589 9.47368,14.731239 9.47368,0.94737"
       id="path49" />
    <path
       style="fill:none;stroke:#000000;stroke-width:1.5875;stroke-linecap:round;stroke-linejoin:round"
       d="m 389.82437,94.091451 c 7.18932,0.96982 -8.36356,-0.63114 3.78947,0.47369 8.09085,0.73553 2.2549,-13.98347 -6.63157,3.78947 -2.38706,4.774109 6.67646,5.165639 8.52631,3.315789"
       id="path50" />
    <path
       style="fill:none;stroke:#000000;stroke-width:1.5875;stroke-linecap:round;stroke-linejoin:round"
       d="m 409.76671,88.651058 c -19.81977,1.86949 -0.62525,7.44638 0,9.94737 1.34649,5.385962 -6.18447,4.236582 -7.57895,2.842102"
       id="path51" />
    <path
       style="fill:none;stroke:#000000;stroke-width:1.5875;stroke-linecap:round;stroke-linejoin:round"
       d="m 437.817,88.549939 c 0.6906,-4.78792 -17.95801,8.65524 -3.31579,12.315791 3.24099,0.81025 3.54139,1.19544 5.21052,-0.47369"
       id="path52" />
    <path
       style="fill:none;stroke:#000000;stroke-width:1.5875;stroke-linecap:round;stroke-linejoin:round"
       d="m 447.90513,97.217049 c -0.51007,0.35629 -1.97923,2.57154 -4.26315,-0.47368 -3.49111,-4.65481 2.10477,-12.2845 7.57894,-9 5.04696,3.02818 3.60161,16.721861 -4.26315,12.789471"
       id="path53" />
    <path
       style="fill:none;stroke:#000000;stroke-width:1.5875;stroke-linecap:round;stroke-linejoin:round"
       d="m 457.63056,97.942479 c -1.52407,-3.76669 1.78483,-10.42105 6.1579,-10.42105 2.82623,0 -1.08769,11.36842 -0.94737,11.36842 2.72713,0 3.53052,-10.42106 7.57895,-10.42106 3.71639,0 -0.13859,7.92162 -2.36843,10.89474"
       id="path54" />
    <path
       style="fill:none;stroke:#000000;stroke-width:1.5875;stroke-linecap:round;stroke-linejoin:round"
       d="m 475.54379,108.58245 c 1.61334,12.883 -1.27073,-17.92449 2.50636,-21.993779 13.21796,-10.060747 13.42884,24.183869 -0.007,11.404658"
       id="path55" />
    <path
       style="fill:none;stroke:#000000;stroke-width:1.5875;stroke-linecap:round;stroke-linejoin:round"
       d="m 498.0345,73.473565 c -3.43857,6.843186 -5.01747,15.647872 -6.63157,23.440403"
       id="path56" />
    <path
       style="fill:none;stroke:#000000;stroke-width:1.5875;stroke-linecap:round;stroke-linejoin:round"
       d="m 504.06147,91.965219 c -0.8092,2.18542 5.73497,3.31323 7.36346,-1.53996 1.95372,-5.82249 -11.71834,-4.43746 -13.95182,0 -4.98978,9.913681 11.51219,11.414041 13.56426,10.394771"
       id="path64" />
    <path
       style="fill:none;stroke:#000000;stroke-width:1.5875;stroke-linecap:round;stroke-linejoin:round"
       d="m 519.824,87.692019 c -1.15604,4.41974 3.2938,15.576601 3.31578,15.631581"
       id="path58" />
    <path
       style="fill:none;stroke:#000000;stroke-width:1.5875;stroke-linecap:round;stroke-linejoin:round"
       d="m 529.29767,89.586759 c -4.41201,3.71636 -12.57062,8.53831 -16.10527,10.894741"
       id="path59" />
    <path
       style="fill:none;stroke:#000000;stroke-width:1.5875;stroke-linecap:round;stroke-linejoin:round"
       d="m 534.59352,93.376239 c 2.45568,1.26524 5.99684,0.63473 8.05262,-1.42106 9.21544,-9.21543 -25.1347,-6.73505 -8.5263,7.10527 2.92328,2.436071 6.50793,3.689911 9.94735,4.263151"
       id="path61" />
    <path
       style="fill:none;stroke:#000000;stroke-width:1.5875;stroke-linecap:round;stroke-linejoin:round"
       d="m 555.80984,88.097955 c 2.62607,-3.740881 -12.53286,0.244116 -7.95176,4.262357 4.79534,4.206151 16.23466,9.299678 0,9.299678"
       id="path67" />
    <path
       style="fill:none;stroke:#000000;stroke-width:1.5875;stroke-linecap:round;stroke-linejoin:round"
       d="m -46.637743,112.54713 c -6.126097,8.5751 -4.738126,22.50806 -1.909316,30.17108"
       id="path69" />
    <path
       style="fill:none;stroke:#000000;stroke-width:1.5875;stroke-linecap:round;stroke-linejoin:round"
       d="m -42.790239,137.69439 c -2.51406,-6.84116 4.860728,-22.70528 12.484498,-24.6801"
       id="path70" />
    <path
       style="fill:none;stroke:#000000;stroke-width:1.5875;stroke-linecap:round;stroke-linejoin:round"
       d="m -41.476082,130.88607 c 3.183211,-0.88707 6.407056,-2.08545 9.199104,-4.25518"
       id="path71" />
    <path
       style="fill:none;stroke:#000000;stroke-width:1.5875;stroke-linecap:round;stroke-linejoin:round"
       d="m -27.435604,125.14604 c 0,0 0,0 0,0 -0.833146,5.11926 -4.884663,15.64238 -0.63644,15.64238 4.248224,0 -3.006383,-12.95638 0.63644,-15.64238 1.872917,-1.38097 3.818629,2.60706 5.727945,3.91059"
       id="path72" />
    <path
       style="fill:none;stroke:#000000;stroke-width:1.5875;stroke-linecap:round;stroke-linejoin:round"
       d="m -5.8930343,138.04251 c -2.1669548,-1.78717 -0.070549,4.40311 -7.0008247,1.56423 -7.878778,-3.22741 -4.54422,-13.08821 3.1821937,-11.73178 8.77210315,1.54001 8.4856666,11.44207 -1.9093167,8.60331"
       id="path73" />
    <path
       style="fill:none;stroke:#000000;stroke-width:1.5875;stroke-linecap:round;stroke-linejoin:round"
       d="m -1.3469713,137.07336 c -0.7220052,-14.20182 10.0971225,-12.98269 7.5813847,2.39736"
       id="path156" />
    <path
       style="fill:none;stroke:#000000;stroke-width:1.5875;stroke-linecap:round;stroke-linejoin:round"
       d="m 13.068402,112.60794 c -2.129821,0.34227 -7.8122359,34.31062 4.633806,25.76971"
       id="path75" />
    <path
       style="fill:none;stroke:#000000;stroke-width:1.5875;stroke-linecap:round;stroke-linejoin:round"
       d="m 10.589244,123.28725 c 2.524112,-1.0423 4.924483,-0.85579 7.316158,-1.17285"
       id="path76" />
    <path
       style="fill:none;stroke:#000000;stroke-width:1.5875;stroke-linecap:round;stroke-linejoin:round"
       d="m 26.975972,130.96943 c -0.444629,1.77761 7.518388,0.48994 5.727951,-3.9106 -2.908684,-7.14895 -7.164983,19.50875 3.818627,9.38543"
       id="path77" />
    <path
       style="fill:none;stroke:#000000;stroke-width:1.5875;stroke-linecap:round;stroke-linejoin:round"
       d="m 46.850074,135.90613 c -8.196826,9.49013 -11.060579,-6.40211 -9.546574,-18.66708 4.032802,3.98109 5.251163,3.92991 8.910137,3.92991"
       id="path78" />
    <path
       style="fill:none;stroke:#000000;stroke-width:1.5875;stroke-linecap:round;stroke-linejoin:round"
       d="m 58.442078,110.89804 c -5.351547,54.31803 22.564181,9.90737 1.067602,15.62926"
       id="path79" />
    <path
       style="fill:none;stroke:#000000;stroke-width:1.5875;stroke-linecap:round;stroke-linejoin:round"
       d="m 71.574843,129.4222 c -0.529432,-6.98872 7.381912,0.33252 4.455064,0.78212 -1.488512,0.22865 -3.394331,-2.08566 -4.455064,-0.78212 -10.254197,12.60136 13.319748,10.11169 6.364382,1.56423 -1.710373,-2.10188 2.108453,7.76002 4.455065,7.03907"
       id="path80" />
    <path
       style="fill:none;stroke:#000000;stroke-width:1.5875;stroke-linecap:round;stroke-linejoin:round"
       d="m 86.813846,129.02263 c -4.030707,-4.88172 -9.482605,11.09036 0.636437,8.6033"
       id="path81" />
    <path
       style="fill:none;stroke:#000000;stroke-width:1.5875;stroke-linecap:round;stroke-linejoin:round"
       d="m 88.076145,118.294 c 2.547917,0.38592 1.707503,18.88739 1.224705,20.2156"
       id="path157" />
    <path
       style="fill:none;stroke:#000000;stroke-width:1.5875;stroke-linecap:round;stroke-linejoin:round"
       d="m 98.954511,119.81667 c -1.057348,5.08486 -9.058592,10.49052 -8.835965,9.29525 3.11796,3.33527 6.884144,5.94515 9.388217,9.95921"
       id="path158" />
    <path
       style="fill:none;stroke:#000000;stroke-width:1.5875;stroke-linecap:round;stroke-linejoin:round"
       d="m 105.21244,113.03615 c 2.68533,4.99927 8.09392,23.53082 1.2502,28.99084"
       id="path83" />
    <path
       style="fill:none;stroke:#000000;stroke-width:1.5875;stroke-linecap:round;stroke-linejoin:round"
       d="m 117.69645,133.82441 c -1.97301,3.58327 -3.07768,7.39819 -5.35349,10.89308"
       id="path85" />
    <path
       style="fill:none;stroke:#000000;stroke-width:1.5875;stroke-linecap:round;stroke-linejoin:round"
       d="m 128.31071,136.55816 c -4.93833,-27.78493 13.31896,-10.3967 8.14396,2.03861"
       id="path86" />
    <path
       style="fill:none;stroke:#000000;stroke-width:1.5875;stroke-linecap:round;stroke-linejoin:round"
       d="m 141.43763,139.48529 c -0.80839,-1.01555 -1.61679,-4.06223 -2.42521,-3.04666 -0.80841,1.01556 2.9365,4.33125 2.42521,3.04666 -13.3458,-33.53113 28.70448,-4.50748 0,0 z"
       id="path87" />
    <path
       style="fill:none;stroke:#000000;stroke-width:1.5875;stroke-linecap:round;stroke-linejoin:round"
       d="m 155.02683,113.49937 c 1.0437,0.80394 -7.18221,33.53005 8.1647,22.43341"
       id="path88" />
    <path
       style="fill:none;stroke:#000000;stroke-width:1.5875;stroke-linecap:round;stroke-linejoin:round"
       d="m 154.21036,125.30643 c 3.15707,-0.61416 6.13196,-2.66269 8.98117,-4.72283"
       id="path89" />
    <path
       style="fill:none;stroke:#000000;stroke-width:1.5875;stroke-linecap:round;stroke-linejoin:round"
       d="m 167.09678,125.95565 c 1.79389,-0.51738 6.62095,-5.42529 9.31776,-4.14112 6.84593,3.25988 -11.18132,12.83112 -11.18132,14.19812 0,9.73555 12.85716,-10.46981 9.93895,-7.69064 -3.98829,3.79826 2.13086,6.74708 4.3483,7.09906"
       id="path91" />
    <path
       style="fill:none;stroke:#000000;stroke-width:1.5875;stroke-linecap:round;stroke-linejoin:round"
       d="m 181.46288,137.03036 c -0.19223,-6.3179 -0.31054,7.3223 -0.31054,-3.36443 0,-2.33667 0.70721,-11.77555 3.416,-11.77555 2.56271,0 4.50191,6.72336 4.96874,9.25221 0.0485,0.26284 -0.0426,3.36445 0,3.36445 1.2465,0 -0.70472,-3.44524 -0.31054,-5.04666 0.25343,-1.02963 1.00975,-6.676 2.79492,-5.46723 2.95601,2.00158 1.95194,11.71582 1.86328,12.19611"
       id="path159" />
    <path
       style="fill:none;stroke:#000000;stroke-width:1.5875;stroke-linecap:round;stroke-linejoin:round"
       d="m 195.44181,136.67379 c 0.0553,4.44775 0.89954,-3.38541 0.95551,-3.59604 2.40201,-9.03995 -0.9745,4.08296 0.95551,-4.79473 0.24709,-1.13661 1.95054,-9.16511 3.82202,-7.99122 3.59025,2.25198 1.32213,15.98243 2.22952,15.98243 0.43055,0 1.76114,-14.38418 5.41453,-14.38418 3.93393,0 2.66099,10.55192 0.63701,14.78374"
       id="path160" />
    <path
       style="fill:none;stroke:#000000;stroke-width:1.5875;stroke-linecap:round;stroke-linejoin:round"
       d="m 213.81279,129.4817 c -0.28433,0.4886 2.28516,3.00704 6.12352,1.59825 10.00929,-3.67372 -0.92559,-16.13387 -6.12352,-1.59825 -0.49653,1.38851 -1.08044,3.07938 -0.40823,4.39517 2.61504,5.119 12.24664,4.79515 14.28823,2.79693"
       id="path161" />
    <path
       style="fill:none;stroke:#000000;stroke-width:1.5875;stroke-linecap:round;stroke-linejoin:round"
       d="m 230.20729,137.35413 c -7.00233,-16.50017 12.31695,-24.10051 7.24643,0.51738"
       id="path162" />
    <path
       style="fill:none;stroke:#000000;stroke-width:1.58749;stroke-linecap:round;stroke-linejoin:round"
       d="m 242.05773,115.09245 c -0.008,17.08056 -4.27326,26.18198 11.35511,22.43861"
       id="path163" />
    <path
       style="fill:none;stroke:#000000;stroke-width:1.58749;stroke-linecap:round;stroke-linejoin:round"
       d="m 244.42335,121.89203 c 3.02744,-0.66111 5.98679,-1.85676 8.98949,-2.71984"
       id="path164" />
    <path
       style="fill:none;stroke:#000000;stroke-width:1.5875;stroke-linecap:round;stroke-linejoin:round"
       d="m 265.58189,138.46338 c 0.16314,3.38544 -1.09056,6.81919 -0.68758,10.20509 3.61209,30.34898 -4.97851,-33.32404 8.80916,-14.26618 4.65562,6.43516 -2.97264,5.88493 -8.12158,4.06109 z"
       id="path92" />
    <path
       style="fill:none;stroke:#000000;stroke-width:1.5875;stroke-linecap:round;stroke-linejoin:round"
       d="m 279.21765,138.43345 c -0.83142,-0.72473 -1.87071,-3.14046 -2.49428,-2.17417 -0.62357,0.9663 2.88024,3.29563 2.49428,2.17417 -8.24732,-23.96284 18.51909,-3.07475 0,0 z"
       id="path93" />
    <path
       style="fill:none;stroke:#000000;stroke-width:1.5875;stroke-linecap:round;stroke-linejoin:round"
       d="m 291.03236,126.81401 c -6.91817,14.78276 5.345,14.59814 8.16474,0.79912"
       id="path94" />
    <path
       style="fill:none;stroke:#000000;stroke-width:1.5875;stroke-linecap:round;stroke-linejoin:round"
       d="m 301.64651,126.81401 c 0.40823,-0.53275 1.76902,-1.19868 1.2247,-1.59825 -0.54433,-0.39956 -1.2247,0.93232 -1.2247,1.59825 0,3.33056 0.81646,6.90527 0.81646,10.38858 0,0.42117 -0.40823,1.61985 -0.40823,1.19868 0,-1.92705 1.61044,-7.65775 1.2247,-8.79034 -0.34693,-1.01868 -2.4087,-2.03764 -1.63293,-2.79692 1.92684,-1.8859 5.5211,-0.2473 8.16472,0.39955"
       id="path165" />
    <path
       style="fill:none;stroke:#000000;stroke-width:1.5875;stroke-linecap:round;stroke-linejoin:round"
       d="m 322.68281,136.34303 c 4.77229,-12.58226 -5.61554,13.06585 2.76493,-5.75758 13.67072,-30.705857 -8.31719,-26.62936 -3.98552,-3.15992 1.79887,9.74638 0.41398,8.70468 6.36177,10.27404"
       id="path96" />
    <path
       style="fill:none;stroke:#000000;stroke-width:1.5875;stroke-linecap:round;stroke-linejoin:round"
       d="m 330.83813,132.6007 c 6.7164,1.4292 -7.95722,-1.43844 3.48474,1.06724 9.79139,2.14424 -2.07494,-14.78985 -3.48474,-1.06724 -0.67828,6.60207 7.33938,5.01284 9.11486,2.60432"
       id="path166" />
    <path
       style="fill:none;stroke:#000000;stroke-width:1.5875;stroke-linecap:round;stroke-linejoin:round"
       d="m 357.57481,138.40127 c -22.27238,-4.24479 11.439,-19.59286 0,0 z"
       id="path98" />
    <path
       style="fill:none;stroke:#000000;stroke-width:1.5875;stroke-linecap:round;stroke-linejoin:round"
       d="m 360.04019,110.93711 c 2.90698,-4.77557 0.13329,25.01217 0.0949,25.5842"
       id="path99" />
    <path
       style="fill:none;stroke:#000000;stroke-width:1.5875;stroke-linecap:round;stroke-linejoin:round"
       d="m 362.47365,132.80742 c 1.36079,0 4.08234,1.33187 4.08234,0 0,-1.33187 -5.37331,0.42117 -4.08234,0 25.10048,-8.18904 -1.32205,-7.76375 0,0 1.13181,6.64655 7.84701,3.73814 10.61411,3.19649"
       id="path100" />
    <path
       style="fill:none;stroke:#000000;stroke-width:1.5875;stroke-linecap:round;stroke-linejoin:round"
       d="m 363.27671,121.66106 c 0.48307,1.30997 8.1573,-2.73176 11.31477,-4.85769"
       id="path101" />
    <path
       style="fill:none;stroke:#000000;stroke-width:1.5875;stroke-linecap:round;stroke-linejoin:round"
       d="m 379.10745,110.72472 c -3.09585,11.33854 2.58479,-13.971366 -1.30497,6.54161 -8.7934,46.37275 20.37373,2.58801 0.94817,6.74065"
       id="path105" />
    <path
       style="fill:none;stroke:#000000;stroke-width:1.5875;stroke-linecap:round;stroke-linejoin:round"
       d="m 388.30756,136.89882 c -2.11693,-11.01704 3.63427,12.887 -0.90045,-6.00081 -3.74377,-15.59332 29.84596,12.89009 0.90045,6.00081 z"
       id="path103" />
    <path
       style="fill:none;stroke:#000000;stroke-width:1.5875;stroke-linecap:round;stroke-linejoin:round"
       d="m 408.51508,136.48244 c 1.1125,0.79221 -3.24957,4.21679 -5.58038,1.03785 -1.22781,-1.67457 -0.29615,-4.58342 0.50731,-6.22715 6.85181,-14.01757 17.84202,1.45745 5.07307,5.1893 z"
       id="path107" />
    <path
       style="fill:none;stroke:#000000;stroke-width:1.5875;stroke-linecap:round;stroke-linejoin:round"
       d="m 413.30567,129.43728 c 3.20885,14.83832 8.9246,34.81194 -14.17081,26.7409"
       id="path109" />
    <path
       style="fill:none;stroke:#000000;stroke-width:1.5875;stroke-linecap:round;stroke-linejoin:round"
       d="m 416.61855,127.52001 c 0.16597,-0.559 1.16172,-1.53726 0.49788,-1.677 -0.66383,-0.13975 -0.98173,2.08445 -0.49788,1.677 0.94156,-0.79286 6.62878,-8.12166 9.45965,-3.35401 3.23846,5.45411 -12.91555,6.74495 -8.96177,11.73907 4.85642,6.13426 9.87295,-7.1273 8.96177,-7.1273 -2.18562,0 0.72591,8.62669 4.97874,9.22357"
       id="path110" />
    <path
       style="fill:none;stroke:#000000;stroke-width:1.5875;stroke-linecap:round;stroke-linejoin:round"
       d="m 440.79536,138.61556 c -29.58882,6.17306 10.88989,-37.81772 0,0 z"
       id="path111" />
    <path
       style="fill:none;stroke:#000000;stroke-width:1.5875;stroke-linecap:round;stroke-linejoin:round"
       d="m 439.28962,126.27379 c 7.41171,1.87021 5.06508,47.50592 -9.92185,32.72817"
       id="path112" />
    <path
       style="fill:none;stroke:#000000;stroke-width:1.5875;stroke-linecap:round;stroke-linejoin:round"
       d="m 449.58191,130.90996 c 1.58555,-0.51812 5.61297,-2.41585 6.05039,-4.58917 2.15912,-10.72758 -22.18716,8.22824 -2.81216,10.0533 2.93956,0.2769 5.90557,-0.23554 6.63247,-0.62341"
       id="path114" />
    <path
       style="fill:none;stroke:#000000;stroke-width:1.5875;stroke-linecap:round;stroke-linejoin:round"
       d="m 479.42735,138.41814 c -10.11176,3.3208 12.32342,-1.4447 -5.97871,0.82316 -1.54659,0.19164 -2.08494,-2.69757 -2.65722,-4.11576 -6.09511,-15.10525 17.73299,-16.43409 8.63593,3.2926 z"
       id="path115" />
    <path
       style="fill:none;stroke:#000000;stroke-width:1.5875;stroke-linecap:round;stroke-linejoin:round"
       d="m 483.3846,106.62172 c 0.0552,9.11938 -1.91065,29.37359 -2.70641,31.4899"
       id="path116" />
    <path
       style="fill:none;stroke:#000000;stroke-width:1.5875;stroke-linecap:round;stroke-linejoin:round"
       d="m 488.78149,131.15761 c -0.21949,1.75829 5.07244,1.1473 6.37364,-3.85678 4.15396,-15.97501 -25.40563,20.3944 2.13174,10.73525"
       id="path117" />
    <path
       style="fill:none;stroke:#000000;stroke-width:1.5875;stroke-linecap:round;stroke-linejoin:round"
       d="m 511.95036,109.32386 c -2.24033,6.4191 -3.31696,13.80668 -3.04722,21.02913 0.97716,26.16413 20.55652,-10.96762 1.16227,-5.82306"
       id="path119" />
    <path
       style="fill:none;stroke:#000000;stroke-width:1.5875;stroke-linecap:round;stroke-linejoin:round"
       d="m 522.13131,123.72788 c -7.56058,28.12826 9.32281,20.41576 9.32281,0.79168"
       id="path120" />
    <path
       style="fill:none;stroke:#000000;stroke-width:1.5875;stroke-linecap:round;stroke-linejoin:round"
       d="m 543.07387,141.4379 c -24.45515,-18.59674 16.819,-29.04926 0,0 z"
       id="path121" />
    <path
       style="fill:none;stroke:#000000;stroke-width:1.5875;stroke-linecap:round;stroke-linejoin:round"
       d="m 546.51679,124.87531 c -0.20423,3.75824 1.64437,43.75632 -12.68439,31.41343"
       id="path122" />
    <path
       style="fill:none;stroke:#000000;stroke-width:1.5875;stroke-linecap:round;stroke-linejoin:round"
       d="m 558.08193,127.57012 c -1.06551,-0.87113 -2.22219,-3.56605 -3.19651,-2.61339 -0.97432,0.95265 4.63887,2.55574 3.19651,2.61339 -1.74879,0.0699 -5.69696,-3.37864 -8.55101,-2.39939 -10.17972,3.49277 25.19446,21.94194 0.15827,18.49641"
       id="path123" />
    <path
       style="fill:none;stroke:#000000;stroke-width:1.5875;stroke-linecap:round;stroke-linejoin:round"
       d="m -45.203737,154.34535 c -5.752018,15.91044 5.657991,-18.36938 -3.332196,7.83284 -4.307497,12.55432 -1.630103,29.0603 7.915846,18.98788 2.852269,-3.00955 -4.03187,-11.27238 -7.521175,-5.97399"
       id="path124" />
    <path
       style="fill:none;stroke:#000000;stroke-width:1.5875;stroke-linecap:round;stroke-linejoin:round"
       d="m -36.471428,152.36144 c -1.339617,10.54416 -2.572068,21.13659 -0.391273,31.66351"
       id="path125" />
    <path
       style="fill:none;stroke:#000000;stroke-width:1.5875;stroke-linecap:round;stroke-linejoin:round"
       d="m -33.182026,183.25681 c -3.703169,-4.84702 2.17674,9.74965 -3.032003,-6.88621 -0.07161,-0.22872 2.807011,-4.11227 3.032003,-4.30389 10.084206,-8.58863 10.608806,13.3414 0,11.1901 z"
       id="path126" />
    <path
       style="fill:none;stroke:#000000;stroke-width:1.5875;stroke-linecap:round;stroke-linejoin:round"
       d="m -18.021967,181.96566 c -6.810774,-5.2034 7.527938,9.7359 -4.851206,-3.44311 -2.727184,-2.9034 9.702439,-18.75374 9.702439,0 0,4.03923 -2.246396,2.91489 -4.851233,3.44311 z"
       id="path127" />
    <path
       style="fill:none;stroke:#000000;stroke-width:1.5875;stroke-linecap:round;stroke-linejoin:round"
       d="m -13.777139,170.77555 c 1.965871,2.8167 -1.381233,32.08786 -3.032029,34.43114"
       id="path128" />
    <path
       style="fill:none;stroke:#000000;stroke-width:1.5875;stroke-linecap:round;stroke-linejoin:round"
       d="m -9.3974076,168.75591 c -9.2552424,19.71065 11.4078709,24.30321 5.0602722,-0.99765"
       id="path130" />
    <path
       style="fill:none;stroke:#000000;stroke-width:1.58749;stroke-linecap:round;stroke-linejoin:round"
       d="m -1.4555065,170.83674 c 3.7949013,-2.18142 -4.7427871,3.54344 2.09205414,-1.861 1.03144256,-0.81556 6.91001596,-0.90212 4.96865126,1.861 -1.0883912,1.54911 -11.1696465,10.47516 -6.53770666,13.77145 3.63314216,2.5855 6.51078366,-8.56062 4.70715196,-8.56062 -2.0267695,0 2.2855652,10.89062 5.4916725,6.32741"
       id="path167" />
    <path
       style="fill:none;stroke:#000000;stroke-width:1.5875;stroke-linecap:round;stroke-linejoin:round"
       d="m 9.2731875,183.52624 c -2.3168814,-24.95341 6.4008055,-18.01591 6.0024885,0.98143"
       id="path132" />
    <path
       style="fill:none;stroke:#000000;stroke-width:1.58751;stroke-linecap:round;stroke-linejoin:round"
       d="m 26.120244,182.90971 c -6.817238,8.06851 -11.690835,-9.01588 -8.99918,-24.94494 1.774538,2.26527 4.047307,2.02357 6.070967,3.03534"
       id="path133" />
    <path
       style="fill:none;stroke:#000000;stroke-width:1.5875;stroke-linecap:round;stroke-linejoin:round"
       d="m 27.948614,166.90066 c -14.161974,0.88503 8.347616,10.17066 1.187996,16.02301 -1.80665,1.4768 -3.326688,1.40802 -4.752009,0.97111"
       id="path135" />
    <path
       style="fill:none;stroke:#000000;stroke-width:1.5875;stroke-linecap:round;stroke-linejoin:round"
       d="m 39.365812,174.55486 c 6.537084,1.52694 -7.185889,0.58673 3.660359,0.58673 10.494495,0 -5.931272,-18.56 -4.117908,4.69392 0.354827,4.55015 9.563461,4.26827 11.896175,3.52043"
       id="path136" />
    <path
       style="fill:none;stroke:#000000;stroke-width:1.5875;stroke-linecap:round;stroke-linejoin:round"
       d="m 61.719921,183.2026 c -9.697859,5.95619 -17.106602,-4.69628 -12.128038,-24.58089 3.083025,2.33673 6.368761,4.46927 9.702434,4.46927"
       id="path137" />
    <path
       style="fill:none;stroke:#000000;stroke-width:1.5875;stroke-linecap:round;stroke-linejoin:round"
       d="m 68.614872,181.79408 c -0.404273,-1.14773 -0.404273,-4.01696 -1.212805,-3.44311 -0.808538,0.57383 0.670421,4.46964 1.212805,3.44311 0.977782,-1.85063 0.09105,-4.69168 0.606403,-6.88625 2.583146,-11.00026 17.324871,14.15857 -0.606403,6.88625 z"
       id="path138" />
    <path
       style="fill:none;stroke:#000000;stroke-width:1.5875;stroke-linecap:round;stroke-linejoin:round"
       d="m 76.490654,151.73398 c 0.542354,8.24187 0.982222,29.76716 1.295522,31.8488"
       id="path139" />
    <path
       style="fill:none;stroke:#000000;stroke-width:1.5875;stroke-linecap:round;stroke-linejoin:round"
       d="m 79.634602,174.22145 c 18.015129,1.04865 -1.589282,-15.60247 0,5.02375 0.320065,4.15383 6.315026,3.61884 8.515908,3.90734"
       id="path140" />
    <path
       style="fill:none;stroke:#000000;stroke-width:1.5875;stroke-linecap:round;stroke-linejoin:round"
       d="m 103.8038,166.90577 c -11.050574,-2.33534 -7.109339,18.28975 0.97132,16.74239"
       id="path141" />
    <path
       style="fill:none;stroke:#000000;stroke-width:1.5875;stroke-linecap:round;stroke-linejoin:round"
       d="m 110.80645,183.56278 c -0.16508,-0.32555 -1.50709,1.37722 -3.38224,-0.47806 -4.76177,-4.7113 -2.64764,-20.54986 3.14064,-16.73192 4.91259,3.24037 5.66454,14.14399 0.2416,17.20998 z"
       id="path168" />
    <path
       style="fill:none;stroke:#000000;stroke-width:1.5875;stroke-linecap:round;stroke-linejoin:round"
       d="m 115.86981,182.92091 c -3.47504,-29.49705 11.72857,-9.78925 5.93639,0.38929 -0.78037,1.37134 1.14684,-8.91497 2.01594,-10.75675 5.46674,-11.58478 4.58693,3.61394 3.64721,8.9209"
       id="path143" />
    <path
       style="fill:none;stroke:#000000;stroke-width:1.5875;stroke-linecap:round;stroke-linejoin:round"
       d="m 129.65029,194.35505 c 0,17.80747 -0.77472,-22.1304 1.44952,-25.60426 17.74258,-9.36311 10.9163,21.43796 0.48317,10.73728"
       id="path144" />
    <path
       style="fill:none;stroke:#000000;stroke-width:1.5875;stroke-linecap:round;stroke-linejoin:round"
       d="m 146.70202,167.29434 c -1.00824,-1.36085 2.39187,-3.42408 4.28231,-0.64555 1.97083,2.89667 2.96468,6.17295 2.96468,10.97428 0,15.55412 -18.75042,-0.66728 -7.24699,-10.32873 z"
       id="path147" />
    <path
       style="fill:none;stroke:#000000;stroke-width:1.5875;stroke-linecap:round;stroke-linejoin:round"
       d="m 155.73046,167.78913 c -0.16104,0.91538 -1.1274,2.51732 -0.48315,2.74616 0.64421,0.22883 0.48315,-3.6897 0.48315,-2.74616 0,3.90382 -0.96634,7.20634 -0.96634,10.98459 0,18.04024 0.75807,-10.81546 0.96634,-10.98459 1.94774,-1.5814 4.10498,2.65963 6.28129,3.4327"
       id="path148" />
    <path
       style="fill:none;stroke:#000000;stroke-width:1.5875;stroke-linecap:round;stroke-linejoin:round"
       d="m 171.60659,180.78477 c -7.63605,8.39321 -9.09092,-6.83975 -8.214,-21.24341 2.24746,1.47173 4.48943,2.99838 6.76447,4.24868"
       id="path149" />
    <path
       style="fill:none;stroke:#000000;stroke-width:1.5875;stroke-linecap:round;stroke-linejoin:round"
       d="m 174.0841,174.68769 c -3.65145,-1.29892 2.94456,0.73948 5.24768,-0.81993 2.65426,-1.79719 -0.31171,-4.98199 -2.82566,-3.27984 -8.38339,5.67628 -4.39708,14.83239 4.03665,13.11926"
       id="path150" />
    <path
       style="fill:none;stroke:#000000;stroke-width:1.5875;stroke-linecap:round;stroke-linejoin:round"
       d="m 180.77424,183.66626 c 0.4684,-6.58591 1.21385,-10.16213 3.2279,-15.40919 1.78631,-4.65379 3.81997,-2.10107 3.81566,3.18367 -0.004,4.97306 -3.13106,14.41485 -1.11748,15.015 0.64684,0.19278 4.89534,-25.36146 7.85387,-20.16963 1.88753,3.31234 -0.76308,12.48129 -2.225,17.7545"
       id="path151" />
    <path
       style="fill:none;stroke:#000000;stroke-width:1.5875;stroke-linecap:round;stroke-linejoin:round"
       d="m 201.34649,176.35443 c 3.02401,0.49148 4.48751,-0.70284 5.69881,-4.69263 3.1179,-10.2696 -19.25885,1.23607 -6.91999,11.39642 2.61943,2.15693 4.24091,2.49131 5.69881,2.01113"
       id="path118" />
    <path
       style="fill:none;stroke:#000000;stroke-width:1.5875;stroke-linecap:round;stroke-linejoin:round"
       d="m 207.53721,183.72102 c 2.59826,-24.31703 10.50982,-19.57314 11.22965,-1.81737"
       id="path153" />
    <path
       style="fill:none;stroke:#000000;stroke-width:1.5875;stroke-linecap:round;stroke-linejoin:round"
       d="m 226.94559,181.01651 c -6.5743,0 -8.63664,-5.51623 -4.83174,-21.79577 1.2907,-0.33757 2.57694,-0.76473 3.8654,-1.14713"
       id="path154" />
    <path
       style="fill:none;stroke:#000000;stroke-width:1.5875;stroke-linecap:round;stroke-linejoin:round"
       d="m 228.90628,166.48365 c -11.91034,1.30266 13.73695,17.19052 -1.20927,14.5219"
       id="path134" />
    <path
       style="fill:none;stroke:#000000;stroke-width:1.5875;stroke-linecap:round;stroke-linejoin:round"
       d="m 244.53102,182.95531 c 0.94837,-9.48652 -0.6777,11.03595 0.43282,-5 0.72851,-10.51962 7.84213,-27.82917 11.25355,-8.12499 0.49487,2.85831 -1.1747,8.75 0.86566,8.75 0.16076,0 -1.07758,-15.625 3.02981,-15.625 4.89543,0 3.27246,17.3484 3.02979,18.75"
       id="path169" />
    <path
       style="fill:none;stroke:#000000;stroke-width:1.5875;stroke-linecap:round;stroke-linejoin:round"
       d="m 266.11513,175.45531 c 0.58216,-1.50124 2.23206,2.381 6.11417,0 5.51286,-3.3812 0.29578,-10.18141 -4.07613,-7.49999 -3.35814,2.05966 -2.26413,3.34027 -2.03804,7.49999 0.46506,8.55707 7.05442,6.11791 8.66173,5.62501"
       id="path170" />
    <path
       style="fill:none;stroke:#000000;stroke-width:1.5875;stroke-linecap:round;stroke-linejoin:round"
       d="m 266.11513,163.58032 c 1.02198,2.20762 7.3907,-6.25673 8.66173,-9.375"
       id="path171" />
    <path
       style="fill:none;stroke:#000000;stroke-width:1.58749;stroke-linecap:round;stroke-linejoin:round"
       d="m 280.89104,154.83226 c -8.12669,16.53087 1.37198,36.62748 9.17125,21.99146"
       id="path172" />
    <path
       style="fill:none;stroke:#000000;stroke-width:1.58749;stroke-linecap:round;stroke-linejoin:round"
       d="m 280.89104,162.48147 c 2.0423,-1.57437 4.13935,-2.92781 6.11417,-4.78075"
       id="path173" />
    <path
       style="fill:none;stroke:#000000;stroke-width:1.5875;stroke-linecap:round;stroke-linejoin:round"
       d="m 291.59084,167.95532 c -1.5375,7.13078 1.89853,18.92112 7.6427,11.87499"
       id="path174" />
    <path
       style="fill:none;stroke:#000000;stroke-width:1.5875;stroke-linecap:round;stroke-linejoin:round"
       d="m 291.08132,154.20532 c 0.33255,2.0536 0.50952,4.15627 0.50952,6.25"
       id="path175" />
    <path
       style="fill:none;stroke:#000000;stroke-width:1.5875;stroke-linecap:round;stroke-linejoin:round"
       d="m 300.25256,176.08031 c 7.61887,-4.62676 -8.69527,5.08773 4.07612,-1.87499 7.52688,-4.10353 0.43659,-11.78555 -5.09514,-5 -6.22473,7.6356 5.08049,13.75897 9.17126,11.24999"
       id="path176" />
    <path
       style="fill:none;stroke:#000000;stroke-width:1.5875;stroke-linecap:round;stroke-linejoin:round"
       d="m 311.50432,164.20532 c 0.44741,4.0565 -0.53613,8.33377 0,12.37665 2.38889,18.01452 -1.88773,-16.59434 8.10978,-5.8243"
       id="path177" />
    <path
       style="fill:none;stroke:#000000;stroke-width:1.5875;stroke-linecap:round;stroke-linejoin:round"
       d="m 335.98052,180.7953 c -2.22337,1.84169 -5.9305,1.00915 -6.7735,-2.04515 -4.39697,-15.93123 23.19745,-6.45595 6.7735,2.04515 z"
       id="path178" />
    <path
       style="fill:none;stroke:#000000;stroke-width:1.5875;stroke-linecap:round;stroke-linejoin:round"
       d="m 341.62508,156.93512 c 2.22535,7.26272 0.94749,22.25327 0,24.5419"
       id="path179" />
    <path
       style="fill:none;stroke:#000000;stroke-width:1.5875;stroke-linecap:round;stroke-linejoin:round"
       d="m 347.26964,170.56951 c 1.59926,0.46348 1.17924,8.05904 0,10.90751"
       id="path180" />
    <path
       style="fill:none;stroke:#000000;stroke-width:1.5875;stroke-linecap:round;stroke-linejoin:round"
       d="m 347.83411,157.18722 c 1.30714,1.31987 0.3763,4.09032 0.56445,6.13548"
       id="path181" />
    <path
       style="fill:none;stroke:#000000;stroke-width:1.5875;stroke-linecap:round;stroke-linejoin:round"
       d="m 352.37243,181.47702 c -0.19808,-1.36698 -1.37722,-23.86019 6.46858,-23.86019"
       id="path182" />
    <path
       style="fill:none;stroke:#000000;stroke-width:1.5875;stroke-linecap:round;stroke-linejoin:round"
       d="m 353.66616,172.95552 c 1.07785,-2.31253 2.7833,-2.15438 4.20456,-2.98252"
       id="path211" />
    <path
       style="fill:none;stroke:#000000;stroke-width:1.5875;stroke-linecap:round;stroke-linejoin:round"
       d="m 359.12323,181.47702 c 2.105,-1.24264 0.76555,-27.85336 11.85359,-22.49674"
       id="path184" />
    <path
       style="fill:none;stroke:#000000;stroke-width:1.5875;stroke-linecap:round;stroke-linejoin:round"
       d="m 362.50998,176.02327 c -0.48163,-2.58543 3.76304,-2.72688 5.64457,-4.09033"
       id="path185" />
    <path
       style="fill:none;stroke:#000000;stroke-width:1.5875;stroke-linecap:round;stroke-linejoin:round"
       d="m 372.10575,172.27381 c 2.00368,-6.51004 -0.45827,9.28758 -0.56447,9.54407"
       id="path186" />
    <path
       style="fill:none;stroke:#000000;stroke-width:1.5875;stroke-linecap:round;stroke-linejoin:round"
       d="m 372.95242,158.63942 c 1.16918,1.10741 0.32932,3.1817 0.56447,5.45376"
       id="path187" />
    <path
       style="fill:none;stroke:#000000;stroke-width:1.5875;stroke-linecap:round;stroke-linejoin:round"
       d="m 386.21716,170.91037 c -12.55288,-0.78942 -4.78669,14.13892 2.82229,9.54408"
       id="path188" />
    <path
       style="fill:none;stroke:#000000;stroke-width:1.5875;stroke-linecap:round;stroke-linejoin:round"
       d="m 392.14395,165.79696 c 2.61157,3.97957 0.68394,14.89112 0.56446,16.02145"
       id="path189" />
    <path
       style="fill:none;stroke:#000000;stroke-width:1.5875;stroke-linecap:round;stroke-linejoin:round"
       d="m 390.73282,152.50395 c 2.77864,3.9299 0.20086,6.21072 0,6.81719"
       id="path190" />
    <path
       style="fill:none;stroke:#000000;stroke-width:1.5875;stroke-linecap:round;stroke-linejoin:round"
       d="m 399.4819,152.50378 c 0.83743,9.17736 -1.1323,26.27107 -3.38676,29.65515"
       id="path191" />
    <path
       style="fill:none;stroke:#000000;stroke-width:1.5875;stroke-linecap:round;stroke-linejoin:round"
       d="m 404.47225,175.13316 c -0.66803,3.56193 6.38839,0.88658 4.90031,-4.12975 -3.97297,-13.39293 -18.97866,12.97922 2.80018,12.97922"
       id="path195" />
    <path
       style="fill:none;stroke:#000000;stroke-width:1.5875;stroke-linecap:round;stroke-linejoin:round"
       d="m 415.46005,168.64356 c -0.62659,-0.39331 -1.56645,-1.96655 -1.87973,-1.17992 -0.31332,0.78661 2.55935,0.96662 1.87973,1.17992 -1.2252,0.38454 -2.52663,-0.9339 -3.75948,-0.58995 -3.89516,1.08666 13.56725,20.77711 -1.87974,15.92902"
       id="path193" />
    <path
       style="fill:none;stroke:#000000;stroke-width:1.5875;stroke-linecap:round;stroke-linejoin:round"
       d="m 429.24665,169.375 c 4.75417,-1.72474 -5.97816,2.72585 2.73225,-1.15325 2.41222,-1.07427 7.04422,-0.74695 4.85961,3.48899 -1.5111,2.93005 -10.99625,6.73517 -7.36305,11.88589 3.1596,4.47932 7.66738,-10.72659 7.15734,-8.77711 -0.75711,2.89387 -0.22702,4.52876 0.76129,5.21887"
       id="path196" />
    <path
       style="fill:none;stroke:#000000;stroke-width:1.5875;stroke-linecap:round;stroke-linejoin:round"
       d="m 430.49572,152.83979 c -2.47262,-4.14997 6.23645,4.08079 6.77348,4.67365"
       id="path197" />
    <path
       style="fill:none;stroke:#000000;stroke-width:1.5875;stroke-linecap:round;stroke-linejoin:round"
       d="m 450.04324,166.83487 c 2.77532,0.0254 1.77652,16.80411 1.97392,16.80411 4.29449,0 -3.35178,-13.32865 -1.97392,-16.80411 0.59308,-1.496 2.62165,0.62237 3.94784,0.62237 2.809,0 5.41777,-1.25138 6.41525,-0.62237"
       id="path198" />
    <path
       style="fill:none;stroke:#000000;stroke-width:1.5875;stroke-linecap:round;stroke-linejoin:round"
       d="m 458.43241,176.79287 c 2.61995,1.49244 4.40698,1.91045 6.41526,-0.62239 6.48427,-8.17789 -7.41666,-10.11269 -6.41526,0.62239 0.7786,8.34678 8.94058,7.72492 11.84356,4.979"
       id="path199" />
    <path
       style="fill:none;stroke:#000000;stroke-width:1.5875;stroke-linecap:round;stroke-linejoin:round"
       d="m 473.23685,188.61799 c 4.0847,20.60632 -0.62602,-21.88684 -3.45437,-13.06989 14.15812,-21.99446 19.88867,11.40547 1.48044,5.60139"
       id="path200" />
    <path
       style="fill:none;stroke:#000000;stroke-width:1.5875;stroke-linecap:round;stroke-linejoin:round"
       d="m 484.63934,168.49046 c 5.32661,12.72198 -4.22446,-15.17959 2.01737,7.24911 6.32566,22.72983 -12.07965,-14.89346 10.75946,-8.05454"
       id="path201" />
    <path
       style="fill:none;stroke:#000000;stroke-width:1.5875;stroke-linecap:round;stroke-linejoin:round"
       d="m 500.57123,184.41097 c -6.17718,6.3984 -4.93967,-8.67132 -1.54883,-13.34636 5.12491,-7.06588 15.20262,10.7318 1.54883,13.34636 z"
       id="path202" />
    <path
       style="fill:none;stroke:#000000;stroke-width:1.5875;stroke-linecap:round;stroke-linejoin:round"
       d="m 512.96391,182.03541 c 1.28254,4.9544 -4.76062,-4.56461 -3.67518,-7.5298 6.0704,-16.58282 19.98297,13.89392 3.67518,7.5298 z"
       id="path203" />
    <path
       style="fill:none;stroke:#000000;stroke-width:1.5875;stroke-linecap:round;stroke-linejoin:round"
       d="m 522.09222,147.81885 c 0.83616,10.81622 1.56164,21.96391 0,32.62905"
       id="path204" />
    <path
       style="fill:none;stroke:#000000;stroke-width:1.5875;stroke-linecap:round;stroke-linejoin:round"
       d="m 523.07843,171.19147 c 0.32899,-0.82982 1.64495,-2.07455 0.98699,-2.48949 -0.54012,-0.34058 -1.48121,26.14163 4.93479,9.95801 1.43802,-3.62727 2.46741,-8.42304 2.46741,-12.44749"
       id="path205" />
    <path
       style="fill:none;stroke:#000000;stroke-width:1.5875;stroke-linecap:round;stroke-linejoin:round"
       d="m 534.4285,165.59009 c 0.79491,5.2918 1.97392,10.572 1.97392,16.18176"
       id="path206" />
    <path
       style="fill:none;stroke:#000000;stroke-width:1.5875;stroke-linecap:round;stroke-linejoin:round"
       d="m 534.92199,151.27548 c 0.0221,2.0744 0,4.14917 0,6.22376"
       id="path207" />
    <path
       style="fill:none;stroke:#000000;stroke-width:1.5875;stroke-linecap:round;stroke-linejoin:round"
       d="m 539.36358,168.39945 c 4.81145,32.15467 -5.57871,-11.52804 10.85605,-0.71431"
       id="path208" />
    <path
       style="fill:none;stroke:#000000;stroke-width:1.5875;stroke-linecap:round;stroke-linejoin:round"
       d="m 551.44783,177.4692 c 9.75941,3.134 9.82161,-18.75138 2.21205,-7.62015 -0.8752,1.28023 -2.37668,7.0197 -2.21205,7.62015 2.48175,9.05272 10.54202,5.80737 15.24696,3.431"
       id="path209" />
    <path
       style="fill:none;stroke:#000000;stroke-width:1.5875;stroke-linecap:round;stroke-linejoin:round"
       d="m 571.43959,181.14948 c -1.79553,-1.89967 4.05463,-8.94893 0,0 z"
       id="path210" />
  </g>
</svg>
