<?xml version="1.0" encoding="UTF-8" standalone="no"?>
<!-- Created with Inkscape (http://www.inkscape.org/) -->

<svg
   width="582.85583mm"
   height="130.84302mm"
   viewBox="0 0 582.85584 130.84302"
   version="1.1"
   id="svg1"
   xmlns="http://www.w3.org/2000/svg"
   xmlns:svg="http://www.w3.org/2000/svg">
  <defs
     id="defs1" />
  <g
     id="layer1"
     transform="translate(167.40341,-56.179935)">
    <path
       style="fill:none;stroke:#000000;stroke-width:1.5875"
       d="m -162.47368,74.842107 c -0.47369,-0.63158 -0.78948,-2.36842 -1.42106,-1.89474 -0.63157,0.47368 0.94737,2.52631 1.42106,1.89474 0.85263,-1.13684 -1.00484,-3.25833 0,-4.26316 1.99219,-1.99219 4.68706,1.9943 3.78947,3.78947 -1.85274,3.70549 -7.70172,-2.30703 -4.73684,-3.78947 5.47376,-2.73688 4.41629,4.73684 4.26316,4.73684 -0.94062,0 -8.14508,-1.32861 -4.73685,-4.73684 2.14872,-2.14872 5.78992,7.32253 -2.36842,4.26316 -1.25444,-0.47042 1.2396,-6.06717 2.36842,-6.63158 1.72574,-0.86287 10.15757,7.87965 1.42106,6.63158 z"
       id="path1" />
    <path
       style="fill:none;stroke:#000000;stroke-width:1.5875"
       d="m -151.10526,82.421052 c 0.97757,3.910163 1.69991,-17.00939 0.94737,-21.789474 18.79614,-4.090926 17.75198,21.789475 -0.94737,21.789474 z"
       id="path2" />
    <path
       style="fill:none;stroke:#000000;stroke-width:1.5875"
       d="m -137.36842,78.631578 c 7.13609,-0.386577 -8.42477,0.747742 3.78947,-0.473684 5.78682,-0.578683 6.74416,-10.059945 -0.47368,-2.842106 -1.10526,1.105265 -3.55347,1.770888 -3.31579,3.31579 1.14326,7.431156 11.89647,2.259687 12.78947,0.473684"
       id="path3" />
    <path
       style="fill:none;stroke:#000000;stroke-width:1.5875"
       d="m -136.42105,67.263157 c 3.3141,-2.00924 5.79359,-5.228825 8.05263,-8.05263"
       id="path4" />
    <path
       style="fill:none;stroke:#000000;stroke-width:1.58751"
       d="m -126.43077,71.741373 c -0.74482,-2.156142 1.87533,4.148928 2.747,6.253542 3.77245,9.108478 4.38611,-0.829257 7.14219,-7.959053"
       id="path5" />
    <path
       style="fill:none;stroke:#000000;stroke-width:1.5875"
       d="m -116.05263,76.263157 c 0.78947,0 2.36842,0.789474 2.36842,0 0,-0.789474 -3.11738,0.249653 -2.36842,0 17.882412,-5.960806 -5.7292,-7.646426 1.89474,3.789474 1.92055,2.880828 7.61636,-0.306663 9.47368,-1.421054"
       id="path6" />
    <path
       style="fill:none;stroke:#000000;stroke-width:1.5875"
       d="m -102.78947,56.192931 c 0.10662,6.511132 -1.37867,25.53843 -1.42106,25.818452"
       id="path7" />
    <path
       style="fill:none;stroke:#000000;stroke-width:1.5875"
       d="m -100.09328,81.26696 c -0.8958,-0.40429 -2.23951,-2.02144 -2.68741,-1.212865 -0.4479,0.808575 2.962554,2.082092 2.68741,1.212865 -8.03177,-25.373908 18.985563,4.284217 0,0 z"
       id="path8" />
    <path
       style="fill:none;stroke:#000000;stroke-width:1.5875"
       d="m -92.415219,92.368423 c -0.968145,4.68818 1.754314,-15.42909 0.391276,-19.42106 11.622743,-6.481787 10.346882,12.02095 1.173832,7.57895"
       id="path32" />
    <path
       style="fill:none;stroke:#000000;stroke-width:1.5875"
       d="M -81.793399,94.263155 C -81.369725,96.413985 -82.182448,76.63368 -82.913085,72 c 11.209907,-6.038498 6.704594,15.140726 1.866145,8.999999"
       id="path11" />
    <path
       style="fill:none;stroke:#000000;stroke-width:1.5875"
       d="m -74.17215,76.736841 c -1.348028,1.049207 7.578947,0.958085 7.578947,-2.842104 0,-3.314766 -7.423197,1.673976 -7.578947,2.842104 -1.173869,8.804018 12.070339,2.28057 13.736841,0.947369"
       id="path12" />
    <path
       style="fill:none;stroke:#000000;stroke-width:1.5875"
       d="m -63.012904,80.934105 c 0.23476,-0.636974 0.543228,-1.255478 0.704271,-1.910915 0.316906,-1.289769 0.525513,-2.222904 1.056423,-3.503354 0.573469,-1.383119 3.127346,-6.607318 5.634225,-5.095785 3.702763,2.232606 -0.68646,8.296765 1.40855,10.19157 1.448568,1.310135 -1.516917,-8.335768 2.464973,-9.236113 3.493198,-0.789841 4.113338,6.023818 3.521388,9.236113"
       id="path33" />
    <path
       style="fill:none;stroke:#000000;stroke-width:1.5875"
       d="m -47.368422,76.736841 c 8.784317,3.68544 11.963487,-10.672402 3.789473,-3.31579 -1.247576,1.12282 -3.789473,1.637345 -3.789473,3.31579 0,6.67748 9.284996,3.978159 11.36842,1.894737"
       id="path14" />
    <path
       style="fill:none;stroke:#000000;stroke-width:1.5875"
       d="m -34.999382,77.866384 c 5.617758,-20.814529 7.026212,1.221766 6.984271,1.523745"
       id="path15" />
    <path
       style="fill:none;stroke:#000000;stroke-width:1.5875"
       d="m -17.971704,76.763797 c -7.502146,8.09213 -9.954896,-6.494557 -6.46442,-12.783463 1.43654,0.387378 2.873069,0.774756 4.309609,1.162134 0.538709,-0.193688 1.077406,-0.387377 1.616103,-0.581066"
       id="path16" />
    <path
       style="fill:none;stroke:#000000;stroke-width:1.5875"
       d="M -3.7143334,82.432972 C -10.458866,71.943488 -3.1521724,60.211283 6.7412736,60.211283"
       id="path17" />
    <path
       style="fill:none;stroke:#000000;stroke-width:1.5875"
       d="m -1.9717244,67.433334 c 3.279953,2.075332 3.970076,0.499513 5.808665,-0.555545"
       id="path18" />
    <path
       style="fill:none;stroke:#000000;stroke-width:1.58751"
       d="m 3.8803926,73.311602 c -1.256589,15.555252 4.425686,6.441742 7.4602194,-1.262728"
       id="path19" />
    <path
       style="fill:none;stroke:#000000;stroke-width:1.5875"
       d="m 16.105256,62.114611 c 0.28257,6.181587 -0.11018,12.393135 -0.47368,18.567496"
       id="path20" />
    <path
       style="fill:none;stroke:#000000;stroke-width:1.5875"
       d="m 20.368415,62.116471 c 2.45136,-11.012927 1.1291,15.639555 0.94737,18.669906"
       id="path21" />
    <path
       style="fill:none;stroke:#000000;stroke-width:1.5875"
       d="m 24.631581,73.894736 c 3.02,0.670716 6.07014,0.361397 9,0.947367"
       id="path22" />
    <path
       style="fill:none;stroke:#000000;stroke-width:1.5875"
       d="m 42.157894,65.368424 c -12.742282,2.77972 -2.233048,6.65418 0.947368,10.89473 3.588247,4.78433 -5.281092,6.45016 -7.578948,5.68421"
       id="path27" />
    <path
       style="fill:none;stroke:#000000;stroke-width:1.5875"
       d="m 55.894739,75.569819 c -4.775026,13.408877 -13.438217,0.403978 -7.578951,-10.641338 2.348837,0.648692 4.380051,0.526875 6.631581,0"
       id="path28" />
    <path
       style="fill:none;stroke:#000000;stroke-width:1.5875"
       d="m 57.115987,70.943797 c 0.77025,-0.17314 2.4839,0.25083 2.31076,-0.51942 -0.17313,-0.77025 -3.04878,0.79975 -2.31076,0.51942 15.900142,-6.0395 -3.47967,8.13102 -2.5875,9.22361 2.2442,2.74837 12.110512,-4.42423 8.874122,-5.87881 -1.73421,-0.77942 0.5576,5.8792 2.33499,5.20408"
       id="path29" />
    <path
       style="fill:none;stroke:#000000;stroke-width:1.5875"
       d="m 71.691339,71.405843 c -11.405964,2.987 -4.23031,8.51262 2.88961,8.83979"
       id="path30" />
    <path
       style="fill:none;stroke:#000000;stroke-width:1.5875"
       d="m 74.425009,66.863917 c 2.32897,0.345525 0.82013,15.067497 1.23122,15.067497 0.52434,0 0.41121,-9.042443 0.82082,-10.044993 0.68622,-1.679567 3.9634,-2.339105 5.3353,-4.018004 0.21468,-0.262742 2.05204,-2.192816 2.05204,-2.008999 0,8.332425 -11.81034,-1.874661 -3.69368,10.044998 0.74314,1.091319 1.5338,2.161157 2.46244,3.013494"
       id="path31" />
    <path
       style="fill:none;stroke:#000000;stroke-width:1.5875"
       d="m 103.12938,57.379132 c -20.050045,14.767606 -1.76782,33.253777 -1.98373,25.021694"
       id="path35" />
    <path
       style="fill:none;stroke:#000000;stroke-width:1.5875"
       d="m 107.52632,82.894736 c 0,-5.844238 0.19689,-11.720676 -0.47369,-17.526314 1.26591,-4.20128 7.9124,-5.631249 9.47369,-0.947369 2.21256,6.637672 -7.10526,5.572979 -7.10526,8.526316 0,2.11838 5.01432,0.832433 5.68421,2.842105 0.5579,1.673709 3.02085,11.609714 1.89473,7.105263"
       id="path43" />
    <path
       style="fill:none;stroke:#000000;stroke-width:1.5875"
       d="m 119.43056,75.254706 c 1.68397,3.005226 -3.48029,-0.624515 3.28121,1.958754 10.47994,4.003921 -10.37508,-16.409384 -3.28121,3.91751 1.04542,2.995562 5.8959,2.142401 7.79286,0.783501"
       id="path44" />
    <path
       style="fill:none;stroke:#000000;stroke-width:1.5875"
       d="m 131.26915,72.813948 c 7.6201,-2.57306 -9.03333,2.90898 3.947,-1.512531 13.03955,-4.441682 -11.87713,12.100255 -3.45361,12.100255 4.56971,0 6.03702,-8.318927 5.92049,-8.318927 -3.16342,0 1.37141,7.016293 4.44037,6.428263"
       id="path59" />
    <path
       style="fill:none;stroke:#000000;stroke-width:1.5875"
       d="m 149.72604,70.378807 c -3.58234,-2.398525 -12.04145,14.671807 3.56062,10.943159"
       id="path46" />
    <path
       style="fill:none;stroke:#000000;stroke-width:1.5875"
       d="m 163.42105,76.596865 c -3.23725,18.232975 -13.01944,-4.613604 -8.52632,-13.339514 2.5442,4.566918 8.12447,2.238403 9.47369,2.00093"
       id="path47" />
    <path
       style="fill:none;stroke:#000000;stroke-width:1.5875"
       d="m 169.10526,79.578947 c -0.42606,2.88009 -1.0949,5.726901 -1.89473,8.526314"
       id="path48" />
    <path
       style="fill:none;stroke:#000000;stroke-width:1.5875"
       d="m 175.73684,83.368421 c 4.38266,-7.369916 -4.12566,8.25132 1.89474,-3.789474 1.91535,-3.830708 0.6179,-9.288446 2.36842,-12.789474 0.44659,-0.893188 1.94598,-2.842106 0.94736,-2.842106 -1.64846,0 1.02125,3.137593 1.42106,4.736843 0.40953,1.638131 2.76767,14.210525 4.26315,14.210525 0.96152,0 0.97172,-6.704624 1.42106,-8.052631 1.03013,-3.090394 1.146,-6.784414 0.47368,-9.473684"
       id="path60" />
    <path
       style="fill:none;stroke:#000000;stroke-width:1.5875"
       d="m 199.21624,83.822377 c 0.71848,-0.348674 -3.80589,0.156402 -6.20314,-0.981379 -7.27716,-3.453889 -0.7701,-12.305616 6.54776,-8.83241 4.22541,2.005463 4.29563,10.914968 -3.10157,9.159537"
       id="path61" />
    <path
       style="fill:none;stroke:#000000;stroke-width:1.5875"
       d="m 213.48074,82.274012 c -0.91594,-0.0087 -0.51514,1.336408 -3.61207,0.322514 -12.78742,-4.186438 7.55252,-14.455517 7.55252,-4.515181 0,2.260707 -1.85992,3.31692 -3.94045,4.192667 z"
       id="path62" />
    <path
       style="fill:none;stroke:#000000;stroke-width:1.5875"
       d="m 218.84211,64.894735 c 0.31578,-0.789472 1.73683,-2.052629 0.94737,-2.36842 -0.58627,-0.2345 -1.29342,8.70781 -3.31579,20.842104"
       id="path52" />
    <path
       style="fill:none;stroke:#000000;stroke-width:1.5875"
       d="m 219.78946,76.73684 c 5.42028,4.976199 11.29157,-5.408937 4.26315,-1.894736 -1.39088,0.695454 -3.66503,0.459277 -4.26315,1.894736 -3.91393,9.39341 13.086,1.22337 14.21053,0.473687"
       id="path53" />
    <path
       style="fill:none;stroke:#000000;stroke-width:1.5875"
       d="m 238.73685,83.842103 c -3.0951,-2.91102 3.93025,-6.87797 0,0 z"
       id="path65" />
    <path
       style="fill:none;stroke:#000000;stroke-width:1.5875"
       d="m 256.73684,66.315789 c 2.52929,13.920978 -4.59893,23.486337 -9.94738,12.789472"
       id="path64" />
    <path
       style="fill:none;stroke:#000000;stroke-width:1.5875"
       d="m 246.78946,66.008553 c 0.68752,0.486315 17.13561,0.195353 18.47368,-0.473686"
       id="path63" />
    <path
       style="fill:none;stroke:#000000;stroke-width:1.5875"
       d="m 274.29289,66.16113 c -21.38646,-5.853819 16.4133,21.413324 -12.86444,15.928092"
       id="path56" />
    <path
       style="fill:none;stroke:#000000;stroke-width:1.5875"
       d="m 278.5263,79.578947 c 1.64999,0.589529 -0.70554,5.505336 -3.31579,6.157894"
       id="path66" />
    <path
       style="fill:none;stroke:#000000;stroke-width:1.5875"
       d="m 288.4737,82.421053 c 1.60885,-6.435402 -0.10023,-13.286152 0.47368,-19.894737 13.55041,-8.197537 10.36554,9.367846 1.42105,7.578948"
       id="path67" />
    <path
       style="fill:none;stroke:#000000;stroke-width:1.5875"
       d="m 301.87415,81.803517 c -8.58945,6.276216 -10.58342,-12.062926 0,-9.84847 7.85531,1.643634 -2.20538,16.101592 -4.97836,6.818171"
       id="path68" />
    <path
       style="fill:none;stroke:#000000;stroke-width:1.5875"
       d="m 311.21053,69.628279 c 2.72732,0.604539 -0.2376,-1.066877 -1.89474,3.607676 -0.18721,0.528085 7.1228,3.147414 6.15789,6.413649 -1.01402,3.432413 -8.9944,3.747612 -10.89475,1.603412"
       id="path69" />
    <path
       style="fill:none;stroke:#000000;stroke-width:1.5875"
       d="m 325.42104,77.753376 c -5.53506,11.11784 -9.42298,-3.808091 -6.15789,-12.844601 1.73529,-1.489571 3.78948,-1.902903 5.68422,-2.854353"
       id="path70" />
    <path
       style="fill:none;stroke:#000000;stroke-width:1.5875"
       d="m 331.57895,78.631577 c 2.20417,0.984785 -3.28432,1.452526 -4.26315,0.473687 -1.24402,-1.243997 -1.03272,-2.865586 -0.47368,-4.26316 4.7993,-11.998291 18.12954,7.137656 4.73683,3.789473 z"
       id="path71" />
    <path
       style="fill:none;stroke:#000000;stroke-width:1.5875"
       d="m 336.31579,72.947368 c 8.70479,7.836638 -7.35714,36.443632 -13.26317,24.631575"
       id="path72" />
    <path
       style="fill:none;stroke:#000000;stroke-width:1.5875"
       d="m 341.41093,70.748432 c 0,2.4873 0,4.974599 0,7.461899 0,14.100747 -1.08643,-6.506832 0,-7.461899 2.00669,-1.763981 5.73538,-0.03103 8.48852,0.573995"
       id="path73" />
    <path
       style="fill:none;stroke:#000000;stroke-width:1.5875"
       d="m 347.21052,81 c 2.3608,0.660726 3.92028,0.816557 5.6842,-0.94737 4.65823,-4.65823 0.70144,-6.727285 -0.47368,-3.789473 -2.50368,6.259192 2.64583,5.880502 6.15791,2.36842"
       id="path74" />
    <path
       style="fill:none;stroke:#000000;stroke-width:1.5875"
       d="m 366.82794,62.549429 c 8.72877,-1.831048 -8.14921,1.15136 -6.3546,4.663277 1.94497,3.806154 9.45396,3.6953 11.12057,7.772125 2.85634,6.986942 -7.9974,9.997816 -10.32625,5.44049"
       id="path75" />
    <path
       style="fill:none;stroke:#000000;stroke-width:1.5875"
       d="m 378.8765,83.436325 c -15.68748,-29.930057 23.31831,-22.311181 0,0 z"
       id="path76" />
    <path
       style="fill:none;stroke:#000000;stroke-width:1.5875"
       d="m 380.29755,72.750491 c -0.44994,6.88477 3.19917,13.33289 5.13068,19.88215"
       id="path77" />
    <path
       style="fill:none;stroke:#000000;stroke-width:1.5875"
       d="m 390.69803,62.078201 c 1.92103,2.349602 1.078,4.825891 1.078,7.764876 0,2.373963 -1.9818,11.232419 -1.078,12.26033 0.74314,0.84519 15.94158,1.36541 12.57669,0.408678"
       id="path78" />
    <path
       style="fill:none;stroke:#000000;stroke-width:1.5875"
       d="m 406.82213,61.160746 c 6.04772,5.19063 15.54428,22.591802 -3.20834,26.052631"
       id="path79" />
    <path
       style="fill:none;stroke:#000000;stroke-width:1.5875"
       d="m -128.46232,121.02237 c 1.25325,-0.14666 -2.5574,0.0658 -3.78072,0.31979 -13.15558,2.73123 16.58314,9.19753 7.98151,12.47149 -3.12105,1.18795 -9.96157,4.20388 -10.92207,1.27913"
       id="path80" />
    <path
       style="fill:none;stroke:#000000;stroke-width:1.5875"
       d="m -121.40925,123.35668 c -0.0212,-0.98682 0.68245,-2.98851 -0.0636,-2.96045 -7.56165,0.2845 10.72824,35.46546 7.76097,-0.64054"
       id="path81" />
    <path
       style="fill:none;stroke:#000000;stroke-width:1.5875"
       d="m -110.29962,118.9573 c 1.63983,3.38116 1.62942,7.49235 1.62942,11.24061 0,23.20163 2.95978,-25.13943 8.14716,-5.62031"
       id="path93" />
    <path
       style="fill:none;stroke:#000000;stroke-width:1.5875"
       d="m -90.19554,123.68445 c 0.50022,-1.1828 2.461637,-2.9327 1.500653,-3.54837 -2.392747,-1.53299 6.937053,27.5966 8.41686,9.33854 0.251602,-3.10432 -0.237845,-5.63124 -0.977538,-8.51843"
       id="path83" />
    <path
       style="fill:none;stroke:#000000;stroke-width:1.5875"
       d="m -79.990225,137.17748 c 6.322374,-22.65671 11.461979,-21.07554 8.23223,-4.99459"
       id="path84" />
    <path
       style="fill:none;stroke:#000000;stroke-width:1.5875"
       d="m -68.354256,129.80418 c 0.766063,0.1993 2.106669,1.39514 2.298184,0.59791 0.191517,-0.79722 -3.023977,-0.2742 -2.298184,-0.59791 9.430648,-4.20613 4.446187,0.75421 6.894556,-1.79376 9.177814,-9.55114 -10.637835,-5.99733 -6.894556,1.79376 3.592381,7.477 10.823431,3.14786 15.512752,1.19583"
       id="path85" />
    <path
       style="fill:none;stroke:#000000;stroke-width:1.5875"
       d="m -33.913453,121.26256 c 23.240447,-4.2804 -3.274537,8.93523 -0.451685,11.33495 3.356092,2.85302 15.909724,-3.94175 11.858915,-5.54391 -2.046909,-0.80959 0.08304,6.41158 0.107108,6.4388"
       id="path86" />
    <path
       style="fill:none;stroke:#000000;stroke-width:1.58751"
       d="m -18.943263,124.63068 c 5.817433,39.39326 -4.537128,9.59711 0,0 5.893021,-12.46516 16.3401479,8.29249 4.596366,5.23513"
       id="path87" />
    <path
       style="fill:none;stroke:#000000;stroke-width:1.5875"
       d="m -6.8777918,124.42292 c 1.4529727,0.58386 0.3602987,23.9167 0.5745457,23.9167 0.09855,0 -1.7131751,-8.46892 -1.1490914,-13.75211 3.0507894,-28.57398 16.5620461,1.74182 5.1709124,-4.18542"
       id="path88" />
    <path
       style="fill:none;stroke:#000000;stroke-width:1.5875"
       d="m 4.0385848,114.85623 c 0.3830276,-0.99652 2.1066733,-2.59097 1.1490918,-2.98956 -0.9575736,-0.39861 -1.1490918,4.06287 -1.1490918,2.98956 0,-19.085869 1.7236372,19.57921 1.7236372,19.73128"
       id="path89" />
    <path
       style="fill:none;stroke:#000000;stroke-width:1.5875"
       d="m 10.475445,121.82379 c 0.393368,3.71143 0.699948,7.45814 1.49457,11.08498"
       id="path90" />
    <path
       style="fill:none;stroke:#000000;stroke-width:1.5875"
       d="m 9.7840513,114.85623 1.1490937,-2.98958"
       id="path94" />
    <path
       style="fill:none;stroke:#000000;stroke-width:1.5875"
       d="m 21.047144,122.93725 c -12.1591391,1.92409 -5.176962,11.16727 2.020711,11.84768"
       id="path92" />
    <path
       style="fill:none;stroke:#000000;stroke-width:1.5875"
       d="m 24.062669,124.43251 c 0.632104,-0.15288 2.054337,0.15288 1.896311,-0.45864 -0.158026,-0.6115 -2.303338,0.95085 -1.896311,0.45864 2.05703,-2.4875 6.66775,-5.90288 8.533401,-2.29317 1.505956,2.91377 -12.357982,11.67964 -8.059324,13.75894 5.003671,2.42032 9.959608,-8.714 8.533401,-8.714 -2.49861,0 2.499918,7.67142 4.266702,5.9622"
       id="path95" />
    <path
       style="fill:none;stroke:#000000;stroke-width:1.5875"
       d="m 47.129571,131.00001 c -9.604063,13.32631 -12.551089,-16.86599 -9.767288,-18.53545 4.772649,3.87603 9.735168,1.21256 12.065478,0"
       id="path96" />
    <path
       style="fill:none;stroke:#000000;stroke-width:1.5875"
       d="m 50.57685,121.43332 c 0.816203,4.44457 1.97021,12.59984 2.872729,14.94794"
       id="path97" />
    <path
       style="fill:none;stroke:#000000;stroke-width:1.5875"
       d="m 48.85321,113.88151 c -0.321583,0.91511 0.403364,2.93838 0.574547,4.18542"
       id="path98" />
    <path
       style="fill:none;stroke:#000000;stroke-width:1.5875"
       d="m 64.365967,132.79376 c -4.937841,4.41682 8.575808,-2.13487 -5.170922,3.5875 -1.388803,0.57811 -2.347525,-2.12999 -2.872729,-3.5875 -4.939898,-13.70891 18.404413,-14.37628 8.043651,0 z"
       id="path99" />
    <path
       style="fill:none;stroke:#000000;stroke-width:1.5875"
       d="m 67.813239,136.97917 c 4.367729,-22.93224 14.733063,-14.71316 9.767288,-1.79374"
       id="path100" />
    <path
       style="fill:none;stroke:#000000;stroke-width:1.5875"
       d="m 98.183882,133.13492 c 1.305931,-1.3742 2.369168,-13.29975 5.737298,-12.18685 5.76862,1.90609 3.68825,15.51391 3.68825,13.40554 0,-20.7824 10.32072,-6.89536 6.14707,0"
       id="path101" />
    <path
       style="fill:none;stroke:#000000;stroke-width:1.5875"
       d="m 118.16167,129.73332 c 14.87115,-4.23291 -1.80579,-15.02594 0,4.03049 0.33324,3.51684 5.55668,0.63984 6.01534,-1.51143"
       id="path102" />
    <path
       style="fill:none;stroke:#000000;stroke-width:1.5875"
       d="m 118.2035,117.14708 c 2.47958,-0.81804 3.82647,-3.52052 4.85162,-5.58613"
       id="path103" />
    <path
       style="fill:none;stroke:#000000;stroke-width:1.5875"
       d="m 128.0896,110.35432 c -1.85975,4.19711 -4.26433,28.62662 2.03082,22.53479"
       id="path118" />
    <path
       style="fill:none;stroke:#000000;stroke-width:1.5875"
       d="m 126.8711,116.6431 c 4.11697,-0.72306 7.92108,-3.58147 11.77879,-5.24065"
       id="path119" />
    <path
       style="fill:none;stroke:#000000;stroke-width:1.5875"
       d="m 133.80966,120.95896 c 1.71241,3.66316 0.36072,9.76774 -0.49677,12.96469"
       id="path105" />
    <path
       style="fill:none;stroke:#000000;stroke-width:1.5875"
       d="m 135.31835,106.56136 c -0.0557,1.35205 -1.20725,3.23269 -1.88048,4.0742"
       id="path106" />
    <path
       style="fill:none;stroke:#000000;stroke-width:1.5875"
       d="m 137.96318,126.39074 c 2.72751,-1.11807 -1.54611,1.10961 4.96768,-0.93608 7.69774,-2.41749 -1.60817,-13.77538 -5.9612,4.68037 -1.17655,4.98826 7.30913,0.64691 7.45151,0.46804"
       id="path107" />
    <path
       style="fill:none;stroke:#000000;stroke-width:1.5875"
       d="m 148.4937,120.47753 c -0.39786,7.26591 0.80113,-8.58188 -0.59479,3.8535 -2.8937,25.77826 1.72284,-11.17842 8.92174,0.48167"
       id="path108" />
    <path
       style="fill:none;stroke:#000000;stroke-width:1.5875"
       d="m 186.23827,120.09766 c -14.46803,-6.49232 -10.64312,22.89973 -0.94753,13.68567"
       id="path109" />
    <path
       style="fill:none;stroke:#000000;stroke-width:1.5875"
       d="m 192.55145,135.40695 c -0.88504,-0.50647 -2.21256,-2.53239 -2.65506,-1.51944 -0.44251,1.01297 3.35471,2.32024 2.65506,1.51944 -14.13841,-16.18223 6.63758,-23.9872 6.63758,-6.07772 0,5.16306 -1.9768,5.31563 -6.63758,6.07772 z"
       id="path110" />
    <path
       style="fill:none;stroke:#000000;stroke-width:1.5875"
       d="m 200.31654,134.91516 c 0.33192,-2.81607 1.88277,-17.91599 6.02815,-16.07376 3.50469,1.55752 -2.05025,14.61251 1.64403,14.61251 0.59251,0 3.51957,-17.3807 7.67216,-14.61251 3.67357,2.44884 -1.32271,14.04135 -1.64403,14.61251"
       id="path111" />
    <path
       style="fill:none;stroke:#000000;stroke-width:1.58749"
       d="m 219.66906,150.48776 c 0.89378,-9.036 0.9337,-18.52469 -0.63162,-27.36801 15.38123,-8.60347 11.95807,16.93081 1.89491,8.21041"
       id="path112" />
    <path
       style="fill:none;stroke:#000000;stroke-width:1.58751"
       d="m 230.90016,110.23129 c 1.89107,-2.4886 1.69879,22.14519 1.69879,23.51495"
       id="path113" />
    <path
       style="fill:none;stroke:#000000;stroke-width:1.5875"
       d="m 235.43029,125.46172 c -1.44493,0.71352 7.26003,3.20406 9.0603,-1.47028 2.07012,-5.3749 -9.0231,1.39786 -9.0603,1.47028 -5.61959,10.94322 9.11777,8.41685 11.89166,6.6163"
       id="path114" />
    <path
       style="fill:none;stroke:#000000;stroke-width:1.58751"
       d="m 245.42088,118.72879 c 0.92648,-1.95618 9.34216,10.28871 13.03323,14.67591"
       id="path115" />
    <path
       style="fill:none;stroke:#000000;stroke-width:1.58751"
       d="m 257.0822,121.17477 c -3.5819,2.97221 -6.49434,7.09439 -8.91748,11.41461"
       id="path116" />
    <path
       style="fill:none;stroke:#000000;stroke-width:1.5875"
       d="m 259.24211,128.16193 c 8.77704,-0.87487 -11.33823,1.4881 5.09643,0 10.14331,-0.91846 6.95024,-10.30675 0.56626,-3.94813 -8.73884,8.70406 7.40266,8.168 10.75912,7.33222"
       id="path117" />
    <path
       style="fill:none;stroke:#000000;stroke-width:1.5875"
       d="m 286.80242,119.15367 c -1.79723,25.3616 12.07561,15.30331 12.07561,-2.55605"
       id="path120" />
    <path
       style="fill:none;stroke:#000000;stroke-width:1.5875"
       d="m 312.56439,129.635 c -11.22759,15.36153 -13.20971,-13.96565 -11.57245,-17.21015 1.91625,2.2302 5.08037,0.67504 7.54727,0"
       id="path121" />
    <path
       style="fill:none;stroke:#000000;stroke-width:1.5875"
       d="m 315.68464,116.49997 c -1.32664,4.51546 -1.97933,12.75417 -1.50944,15.20182"
       id="path122" />
    <path
       style="fill:none;stroke:#000000;stroke-width:1.5875"
       d="m 316.69094,104.44334 c -0.13128,1.57635 0.13479,3.18276 0.50316,4.7178"
       id="path123" />
    <path
       style="fill:none;stroke:#000000;stroke-width:1.5875"
       d="m 321.8491,103.8013 c -2.46959,9.57223 0.58223,21.34639 -2.51576,30.51016"
       id="path124" />
    <path
       style="fill:none;stroke:#000000;stroke-width:1.5875"
       d="m 325.44712,120.11664 c 1.72633,4.36155 -1.09827,9.57648 0,14.15342"
       id="path125" />
    <path
       style="fill:none;stroke:#000000;stroke-width:1.5875"
       d="m 326.45345,107.0116 c 0.61562,1.71005 0,0.44285 0,6.29042"
       id="path126" />
    <path
       style="fill:none;stroke:#000000;stroke-width:1.5875"
       d="m 334.05135,114.40321 c -0.6827,0.3133 -3.78537,3.37057 -3.0189,5.7662 1.21332,3.79222 11.97898,16.23012 -0.50315,13.62925"
       id="path127" />
    <path
       style="fill:none;stroke:#000000;stroke-width:1.5875"
       d="m 341.17145,129.08083 c 6.1407,-3.74868 -7.08585,6.98374 4.02521,-3.1452 3.13624,-2.85904 -2.09491,-7.16729 -5.0315,-1.0484 -3.08071,6.41916 2.05825,14.26477 7.04409,7.33881"
       id="path128" />
    <path
       style="fill:none;stroke:#000000;stroke-width:1.5875"
       d="m 341.6746,116.5 c 3.40777,-2.11777 5.27454,-5.75435 7.54725,-8.91142"
       id="path130" />
    <path
       style="fill:none;stroke:#000000;stroke-width:1.5875"
       d="m 353.24706,127.50823 c 2.07591,-0.44781 -0.26294,3.28218 5.0315,0.5242 9.04324,-4.71078 1.8598,-12.42165 -5.0315,-5.242 -5.68466,5.9225 2.59679,15.15119 10.06298,10.48402"
       id="path129" />
    <path
       style="fill:none;stroke:#000000;stroke-width:1.5875"
       d="m 378.13021,126.79951 c 8.13289,-1.89048 -9.56517,3.3796 4.53016,-1.23626 6.11646,-2.003 4.3706,-11.21628 -1.69883,-6.79944 -9.8838,7.19268 -2.66256,16.15818 6.22898,14.217"
       id="path131" />
    <path
       style="fill:none;stroke:#000000;stroke-width:1.5875"
       d="m 390.09909,134.26604 c -3.68263,-29.23514 23.43498,-19.47785 6.8796,0"
       id="path132" />
    <path
       style="fill:none;stroke:#000000;stroke-width:1.5875"
       d="m 35.945271,169.94203 c 0.537886,-0.42657 2.077577,-0.78513 1.613669,-1.2797 -1.31218,-1.39888 -3.383306,1.99312 -5.07495,2.98969 -12.68339,7.47188 1.837323,18.34849 6.853928,10.60679"
       id="path133" />
    <path
       style="fill:none;stroke:#000000;stroke-width:1.58751"
       d="m 46.00012,183.34692 c -20.063716,3.25327 9.025662,-27.05524 6.059363,-6.34563 -0.611,4.2658 -2.825157,4.73278 -6.059363,6.34563 z"
       id="path134" />
    <path
       style="fill:none;stroke:#000000;stroke-width:1.5875"
       d="m 52.122781,184.0665 c 4.182537,-26.28229 13.660256,-11.15505 9.812716,-1.70183"
       id="path135" />
    <path
       style="fill:none;stroke:#000000;stroke-width:1.5875"
       d="m 69.828707,183.37507 c -19.724323,2.58949 12.713403,-18.46308 0,0 z"
       id="path136" />
    <path
       style="fill:none;stroke:#000000;stroke-width:1.5875"
       d="m 70.802086,158.04175 c 3.389711,-9.00772 2.479397,24.18835 2.269164,25.33332"
       id="path137" />
    <path
       style="fill:none;stroke:#000000;stroke-width:1.5875"
       d="m 76.809667,170.14229 c 0.0065,4.61703 -0.600561,9.29688 0,13.85108"
       id="path138" />
    <path
       style="fill:none;stroke:#000000;stroke-width:1.5875"
       d="m 76.333165,159.62267 c 0,1.16834 0,2.33667 0,3.50501"
       id="path139" />
    <path
       style="fill:none;stroke:#000000;stroke-width:1.5875"
       d="m 89.992047,180.33675 c -10.329051,9.01802 -10.584307,-7.3628 -10.006322,-18.02719 2.196505,-0.4919 9.046054,-0.14078 9.529835,0"
       id="path140" />
    <path
       style="fill:none;stroke:#000000;stroke-width:1.5875"
       d="m 93.413353,170.99196 c 0.433168,3.92568 -0.365115,7.96018 0.476493,11.8294"
       id="path141" />
    <path
       style="fill:none;stroke:#000000;stroke-width:1.5875"
       d="m 92.855109,159.35312 c 0.0747,2.08314 0.746953,5.24581 0.952983,6.57191"
       id="path142" />
    <path
       style="fill:none;stroke:#000000;stroke-width:1.5875"
       d="m 101.14293,182.30807 c -0.58592,-0.67628 -3.015218,2.43957 -4.764919,-1.31438 -0.765159,-1.64158 -0.383446,-4.11426 0.476487,-5.69564 5.303982,-9.75384 19.318512,10.465 0.47649,6.13377"
       id="path143" />
    <path
       style="fill:none;stroke:#000000;stroke-width:1.5875"
       d="m 107.82786,180.55556 c 0.0637,-13.46904 14.26789,-11.77996 7.14738,1.31438"
       id="path144" />
    <path
       style="fill:none;stroke:#000000;stroke-width:1.5875"
       d="m 123.26475,170.69787 c -19.9107,0.46359 12.71649,6.76235 -2.2634,11.2915 -3.59603,1.08726 -2.73175,1.08545 -4.52679,0"
       id="path145" />
    <path
       style="fill:none;stroke:#000000;stroke-width:1.5875"
       d="m 152.19333,170.39988 c 0.52851,2.72689 1.16863,5.30808 2.11461,7.98827 5.2451,14.86045 -3.90455,-6.29783 -2.11461,-7.98827 2.01846,-1.90624 6.98356,0.27186 9.86826,1.4978"
       id="path146" />
    <path
       style="fill:none;stroke:#000000;stroke-width:1.5875"
       d="m 157.86001,180.90608 c 3.32528,0.0674 6.68293,0.27262 9.64554,-1.3777 0.35223,-0.1962 6.23324,-5.5108 2.96785,-5.5108 -13.66279,0 -4.83131,18.95135 5.19377,9.64391"
       id="path147" />
    <path
       style="fill:none;stroke:#000000;stroke-width:1.5875"
       d="m 161.26251,168.84104 c 1.21985,0.84367 4.90783,-3.88916 11.12945,-6.19965"
       id="path148" />
    <path
       style="fill:none;stroke:#000000;stroke-width:1.5875"
       d="m 175.54625,180.11933 c 10.68278,-2.10189 -12.39986,3.5669 5.9357,-0.68886 15.8002,-3.66729 -8.84785,-11.02713 -5.9357,0.68886 2.04029,8.20831 13.36073,2.75238 17.06517,0.68885"
       id="path149" />
    <path
       style="fill:none;stroke:#000000;stroke-width:1.5875"
       d="m 193.33794,158.16189 c 0.24732,-1.19285 1.73125,-3.28034 0.74196,-3.57855 -0.27134,-0.0818 -2.494,18.99789 0,29.52303"
       id="path150" />
    <path
       style="fill:none;stroke:#000000;stroke-width:1.5875"
       d="m 198.17164,160.03071 c 3.66235,-18.82009 0.063,23.24314 0,24.15521"
       id="path151" />
    <path
       style="fill:none;stroke:#000000;stroke-width:1.5875"
       d="m 200.5621,177.93457 c 5.31608,1.48305 5.99773,0.25252 10.38751,-1.37769 18.99606,-7.0545 -11.47036,-3.649 -10.38751,1.37769 1.70839,7.9304 9.9859,4.97111 14.09733,3.44427"
       id="path152" />
    <path
       style="fill:none;stroke:#000000;stroke-width:1.5875"
       d="m 227.44592,170.32448 c 3.69823,0.35269 -3.54091,-1.85925 -5.39715,-0.57463 -14.7692,10.2211 1.26725,5.18678 9.13363,10.63075 4.17631,2.89023 -10.15924,4.2422 -12.45496,3.44782"
       id="path153" />
    <path
       style="fill:none;stroke:#000000;stroke-width:1.5875"
       d="m 235.78314,181.94594 2.49062,1.03811"
       id="path155" />
  </g>
</svg>
