<?xml version="1.0" encoding="UTF-8" standalone="no"?>
<!-- Created with Inkscape (http://www.inkscape.org/) -->

<svg
   width="567.71527mm"
   height="149.51625mm"
   viewBox="0 0 567.71527 149.51625"
   version="1.1"
   id="svg1"
   xmlns="http://www.w3.org/2000/svg"
   xmlns:svg="http://www.w3.org/2000/svg">
  <defs
     id="defs1" />
  <g
     id="layer1"
     transform="translate(100.00895,-78.290418)">
    <path
       style="fill:none;stroke:#000000;stroke-width:1.58751;stroke-linecap:round;stroke-linejoin:round;stroke-dasharray:none"
       d="m -98.384355,107.32037 c -2.716895,-42.858943 26.565473,-26.004041 16.334857,-3.10471"
       id="path1" />
    <path
       style="fill:none;stroke:#000000;stroke-width:1.5875;stroke-linecap:round;stroke-linejoin:round;stroke-dasharray:none"
       d="m -98.346521,96.556075 c -5.404839,-3.706912 16.095227,-2.009725 16.774281,-2.219503"
       id="path2" />
    <path
       style="fill:none;stroke:#000000;stroke-width:1.5875;stroke-linecap:round;stroke-linejoin:round;stroke-dasharray:none"
       d="m -78.157894,102.00439 c 0.732395,3.65309 1.702043,7.22966 2.368423,10.89474 2.549469,14.02208 -4.172898,-6.25466 -2.368423,-10.89474 5.075893,-13.052297 11.87787,4.26316 2.842106,4.26316"
       id="path3" />
    <path
       style="fill:none;stroke:#000000;stroke-width:1.5875;stroke-linecap:round;stroke-linejoin:round;stroke-dasharray:none"
       d="m -68.76535,102.89209 c 0.03113,-7.059613 6.406943,18.22465 4.736843,19.89475 -0.920514,0.92051 -2.710077,-15.67617 -2.842106,-16.10527 -1.748558,-5.68281 4.175805,-13.408736 7.105263,-8.526308 2.768378,4.613948 -2.272604,11.560048 -4.736843,6.631568"
       id="path4" />
    <path
       style="fill:none;stroke:#000000;stroke-width:1.5875;stroke-linecap:round;stroke-linejoin:round;stroke-dasharray:none"
       d="m -57.739533,86.149262 c 2.661235,-4.329039 2.340615,17.814018 3.308875,20.254558"
       id="path5" />
    <path
       style="fill:none;stroke:#000000;stroke-width:1.5875;stroke-linecap:round;stroke-linejoin:round;stroke-dasharray:none"
       d="m -52.195396,96.985966 c 2.069226,2.238235 1.421052,8.424174 1.421052,9.473694"
       id="path6" />
    <path
       style="fill:none;stroke:#000000;stroke-width:1.5875;stroke-linecap:round;stroke-linejoin:round;stroke-dasharray:none"
       d="m -52.256798,87.487482 c 0,4.761138 0,4.761138 0,0 z"
       id="path7" />
    <path
       style="fill:none;stroke:#000000;stroke-width:1.5875;stroke-linecap:round;stroke-linejoin:round;stroke-dasharray:none"
       d="m -40.634106,93.555334 c 0.649854,-0.03889 1.988456,0.53317 1.949562,-0.116684 -0.04971,-0.830591 -15.181798,9.53615 -5.701386,12.42578 2.857508,0.87098 4.053771,0.47256 5.935909,-0.81563"
       id="path8" />
    <path
       style="fill:none;stroke:#000000;stroke-width:1.5875;stroke-linecap:round;stroke-linejoin:round;stroke-dasharray:none"
       d="m -36.605176,97.740428 c -1.95642,-2.43279 8.75801,-6.28554 9.05229,-0.65234 0.14956,2.862735 -10.94515,7.309512 -9.99669,8.341892 3.33293,3.6279 8.91616,-4.95748 8.71047,-5.04789 -1.63181,-0.717247 0.59467,5.79957 2.06402,5.15254"
       id="path23" />
    <path
       style="fill:none;stroke:#000000;stroke-width:1.5875;stroke-linecap:round;stroke-linejoin:round;stroke-dasharray:none"
       d="m -19.835537,83.595841 c -8.233379,-7.342277 -4.957162,35.865649 4.551904,17.040989"
       id="path10" />
    <path
       style="fill:none;stroke:#000000;stroke-width:1.5875;stroke-linecap:round;stroke-linejoin:round;stroke-dasharray:none"
       d="m -22.850566,89.921988 c -8.299577,-6.308623 8.484932,-5.701086 13.3905832,-5.076981"
       id="path11" />
    <path
       style="fill:none;stroke:#000000;stroke-width:1.5875;stroke-linecap:round;stroke-linejoin:round;stroke-dasharray:none"
       d="m -12.789474,93.31578 c -0.17305,3.946384 0.08151,7.92035 0.473684,11.84213"
       id="path12" />
    <path
       style="fill:none;stroke:#000000;stroke-width:1.5875;stroke-linecap:round;stroke-linejoin:round;stroke-dasharray:none"
       d="m -13.292654,87.570103 c 0,4.761138 0,4.761138 0,0 z"
       id="path7-2" />
    <path
       style="fill:none;stroke:#000000;stroke-width:1.58749;stroke-linecap:round;stroke-linejoin:round;stroke-dasharray:none"
       d="m -8.0798467,106.10504 c -5.9760553,-14.973543 15.6483539,-11.075115 0,0 z"
       id="path13" />
    <path
       style="fill:none;stroke:#000000;stroke-width:1.5875;stroke-linecap:round;stroke-linejoin:round;stroke-dasharray:none"
       d="M -0.47368578,98.64624 C 0.15470769,118.25697 7.7201778,86.878448 11.131579,95.766574 c 1.119483,2.91672 -2.3769915,13.175386 1.657892,7.919096"
       id="path14" />
    <path
       style="fill:none;stroke:#000000;stroke-width:1.5875;stroke-linecap:round;stroke-linejoin:round;stroke-dasharray:none"
       d="m 28.421108,105.52162 c 4.911167,-9.632254 -0.477255,1.69186 2.916884,-7.627812 3.276554,-8.996812 4.121782,7.992792 4.861463,9.153382 0.448261,0.70333 1.636471,-13.730072 6.806053,-13.730072 4.417646,0 -0.634115,11.690452 3.889169,9.916162"
       id="path15" />
    <path
       style="fill:none;stroke:#000000;stroke-width:1.5875;stroke-linecap:round;stroke-linejoin:round;stroke-dasharray:none"
       d="M 48.315786,99.473683 C 48.660486,107.58074 58.993256,99 55.421046,99 c -9.4869,0 4.93415,18.71093 7.57895,2.8421"
       id="path16" />
    <path
       style="fill:none;stroke:#000000;stroke-width:1.5875;stroke-linecap:round;stroke-linejoin:round;stroke-dasharray:none"
       d="m 49.82215,91.672805 c 2.13382,-3.206882 5.18204,-3.817078 8.52631,-5.210527"
       id="path17" />
    <path
       style="fill:none;stroke:#000000;stroke-width:1.5875;stroke-linecap:round;stroke-linejoin:round;stroke-dasharray:none"
       d="m 61.58311,84.121459 c 0.63158,-0.780526 2.36842,-1.300881 1.89473,-2.341586 -2.6797,-5.887415 0.8029,43.133967 7.10527,17.171642"
       id="path18" />
    <path
       style="fill:none;stroke:#000000;stroke-width:1.5875;stroke-linecap:round;stroke-linejoin:round;stroke-dasharray:none"
       d="m 62.530478,89.637281 c 0.10064,-2.761313 7.081121,-3.593269 11.368418,-4.263159"
       id="path19" />
    <path
       style="fill:none;stroke:#000000;stroke-width:1.58751;stroke-linecap:round;stroke-linejoin:round;stroke-dasharray:none"
       d="m 73.425213,95.961415 c -0.41326,3.557359 -0.49784,7.371885 0,10.895175"
       id="path20" />
    <path
       style="fill:none;stroke:#000000;stroke-width:1.5875;stroke-linecap:round;stroke-linejoin:round;stroke-dasharray:none"
       d="m 73.775767,89.801903 c 0,4.761138 0,4.761138 0,0 z"
       id="path7-6" />
    <path
       style="fill:none;stroke:#000000;stroke-width:1.5875;stroke-linecap:round;stroke-linejoin:round;stroke-dasharray:none"
       d="m 75.793639,100.69847 c 1.684214,1.68422 1.290824,2.18403 3.315794,1.89475 10.073146,-1.43903 -6.369894,-8.519034 -1.42106,2.36842 1.80486,3.97067 5.583738,1.04783 7.578929,-0.94737"
       id="path21" />
    <path
       style="fill:none;stroke:#000000;stroke-width:1.5875;stroke-linecap:round;stroke-linejoin:round;stroke-dasharray:none"
       d="m 86.68835,101.47939 c 0.57227,13.57633 -0.70486,0.93982 0,0 0.10288,-0.13718 8.10246,-2.499303 9.47368,-2.84211"
       id="path22" />
    <path
       style="fill:none;stroke:#000000;stroke-width:1.5875;stroke-linecap:round;stroke-linejoin:round;stroke-dasharray:none"
       d="m 122.68421,98.052629 c -3.19999,-3.634396 -21.35611,11.368421 -4.73684,11.368421 2.89189,0 4.68759,-0.84888 5.68421,-2.8421"
       id="path25" />
    <path
       style="fill:none;stroke:#000000;stroke-width:1.5875;stroke-linecap:round;stroke-linejoin:round;stroke-dasharray:none"
       d="m 125.12217,98.750708 c 1.85019,-3.618875 0.36616,2.158072 0.76403,5.044202 1.64152,11.90768 -5.88239,-2.63553 11.14024,-8.092794"
       id="path36" />
    <path
       style="fill:none;stroke:#000000;stroke-width:1.5875;stroke-linecap:round;stroke-linejoin:round;stroke-dasharray:none"
       d="m 139.26315,98.05263 c 0.37621,4.05656 -1.89474,7.34923 -1.89474,11.36843"
       id="path27" />
    <path
       style="fill:none;stroke:#000000;stroke-width:1.5875;stroke-linecap:round;stroke-linejoin:round;stroke-dasharray:none"
       d="m 140.21052,84.789472 c 0.20908,1.336548 -1.06463,7.452368 0,0 z"
       id="path28" />
    <path
       style="fill:none;stroke:#000000;stroke-width:1.5875;stroke-linecap:round;stroke-linejoin:round;stroke-dasharray:none"
       d="m 150.88328,105.05251 c -10.91477,10.33644 -8.30585,-11.390775 -8.52623,-13.158365 2.31708,0.826397 4.39361,0.725253 6.63151,1.196216"
       id="path29" />
    <path
       style="fill:none;stroke:#000000;stroke-width:1.5875;stroke-linecap:round;stroke-linejoin:round;stroke-dasharray:none"
       d="m 154.39537,95.684207 c -1.24336,3.097053 -1.89503,9.175543 -2.36843,10.894733"
       id="path30" />
    <path
       style="fill:none;stroke:#000000;stroke-width:1.5875;stroke-linecap:round;stroke-linejoin:round;stroke-dasharray:none"
       d="m 155.34274,80.999998 c 0.28887,2.160397 -0.12746,4.080521 -0.47369,6.157897"
       id="path31" />
    <path
       style="fill:none;stroke:#000000;stroke-width:1.5875;stroke-linecap:round;stroke-linejoin:round;stroke-dasharray:none"
       d="m 163.86916,107.05256 c -17.39585,-1.85201 1.52319,-19.987518 4.26319,-6.82602 0.77433,3.71949 -1.23995,4.64772 -4.26319,6.82602 z"
       id="path32" />
    <path
       style="fill:none;stroke:#000000;stroke-width:1.5875;stroke-linecap:round;stroke-linejoin:round;stroke-dasharray:none"
       d="m 163.39537,100.42105 c 0.86536,2.80654 3.05368,5.59876 4.73684,7.57895"
       id="path33" />
    <path
       style="fill:none;stroke:#000000;stroke-width:1.5875;stroke-linecap:round;stroke-linejoin:round;stroke-dasharray:none"
       d="m 169.1616,95.21774 c 3.43849,11.25228 11.17029,17.08476 7.95083,1.428996"
       id="path34" />
    <path
       style="fill:none;stroke:#000000;stroke-width:1.5875;stroke-linecap:round;stroke-linejoin:round;stroke-dasharray:none"
       d="m 184.42499,101.89481 c -0.0131,0.33296 3.52718,-0.11204 3.49527,-3.678497 -0.0386,-4.31475 -6.53251,2.403477 -6.77495,3.285607 -1.56396,5.69055 5.88774,6.39678 7.21226,3.3407"
       id="path35" />
    <path
       style="fill:none;stroke:#000000;stroke-width:1.5875;stroke-linecap:round;stroke-linejoin:round;stroke-dasharray:none"
       d="m 199.043,99.257891 c 0.31505,4.151989 0.94749,8.254269 1.17582,12.409789 0.87356,15.89844 -4.28313,-7.5394 -1.17582,-12.409789 8.74073,-13.70015 14.50558,6.471299 2.91663,5.138519"
       id="path3-1" />
    <path
       style="fill:none;stroke:#000000;stroke-width:1.5875;stroke-linecap:round;stroke-linejoin:round;stroke-dasharray:none"
       d="m 218.5392,102.76055 c -0.20539,0.81457 -1.43774,2.24007 -0.61618,2.44371 0.82157,0.20365 1.44286,-2.62586 0.61618,-2.44371 -2.33821,0.51517 -3.82782,3.13156 -6.16172,3.66556 -4.13498,0.9461 -0.83581,-17.402373 8.01024,-10.385774 2.28382,1.811514 -4.73343,18.882664 -6.77791,6.720214"
       id="path38" />
    <path
       style="fill:none;stroke:#000000;stroke-width:1.5875;stroke-linecap:round;stroke-linejoin:round;stroke-dasharray:none"
       d="m 223.53321,95.875687 c -3.71133,18.683583 7.83144,9.327163 8.08151,-0.988939"
       id="path39" />
    <path
       style="fill:none;stroke:#000000;stroke-width:1.5875;stroke-linecap:round;stroke-linejoin:round;stroke-dasharray:none"
       d="m 234.25347,97.349338 c 0.77355,27.088612 -4.32316,-4.73442 8.02894,-2.12233"
       id="path40" />
    <path
       style="fill:none;stroke:#000000;stroke-width:1.5875;stroke-linecap:round;stroke-linejoin:round;stroke-dasharray:none"
       d="m 250.33543,87.943035 c 1.65775,-10.433458 5.68437,16.905405 5.68437,19.497965"
       id="path41" />
    <path
       style="fill:none;stroke:#000000;stroke-width:1.5875;stroke-linecap:round;stroke-linejoin:round;stroke-dasharray:none"
       d="m 259.58726,100.53201 c 6.26505,2.72168 14.39942,-5.380808 3.31579,-0.947358 -1.06728,0.426908 -2.88888,-0.11991 -3.31579,0.947358 -2.96981,7.42455 7.86236,8.7166 11.36841,5.21054"
       id="path42" />
    <path
       style="fill:none;stroke:#000000;stroke-width:1.5875;stroke-linecap:round;stroke-linejoin:round;stroke-dasharray:none"
       d="m 278.11643,98.052632 c -0.63159,-0.47369 -1.42105,-2.05263 -1.89473,-1.42105 -0.47369,0.63158 2.66062,1.22957 1.89473,1.42105 -1.60036,0.40009 -4.07966,-2.26173 -5.21052,0 -1.24619,2.492328 4.36385,4.535418 2.8421,7.578938 -1.53593,3.07187 -5.04417,2.56021 -5.68423,0"
       id="path43" />
    <path
       style="fill:none;stroke:#000000;stroke-width:1.5875;stroke-linecap:round;stroke-linejoin:round;stroke-dasharray:none"
       d="m 289.85754,102.75984 c 1.12729,0.83584 1.93617,17.08241 1.48554,17.08241 -1.2951,0 -1.94473,-8.88038 -1.85692,-10.14268 0.42491,-6.10749 -0.34549,-6.20519 3.71385,-9.60886 6.61865,-5.549598 5.87279,9.02518 1.48555,5.87207"
       id="path44" />
    <path
       style="fill:none;stroke:#000000;stroke-width:1.5875;stroke-linecap:round;stroke-linejoin:round;stroke-dasharray:none"
       d="m 302.13171,99.652998 c -3.82337,18.149192 -1.25529,0.926572 0,0 5.91606,-4.366751 6.10927,-0.751557 6.7768,-0.83368"
       id="path45" />
    <path
       style="fill:none;stroke:#000000;stroke-width:1.5875;stroke-linecap:round;stroke-linejoin:round;stroke-dasharray:none"
       d="m 315.03642,106.48158 c -0.50624,0.81922 -2.53126,2.04804 -1.51875,2.45765 1.01251,0.40961 2.53126,-2.04804 1.51875,-2.45765 -1.82528,-0.73844 -4.09517,1.01489 -6.07498,0.61441 -1.82362,-0.36888 14.88967,-18.444545 6.07498,-0.61441 z"
       id="path46" />
    <path
       style="fill:none;stroke:#000000;stroke-width:1.58751;stroke-linecap:round;stroke-linejoin:round;stroke-dasharray:none"
       d="m 320.76906,109.42056 c -1.83511,-16.553481 6.67136,-25.969314 13.71988,-23.565764"
       id="path47" />
    <path
       style="fill:none;stroke:#000000;stroke-width:1.58751;stroke-linecap:round;stroke-linejoin:round;stroke-dasharray:none"
       d="m 323.81792,94.865244 c 1.5849,1.413752 3.72162,1.810872 5.58956,1.386227"
       id="path48" />
    <path
       style="fill:none;stroke:#000000;stroke-width:1.5875;stroke-linecap:round;stroke-linejoin:round;stroke-dasharray:none"
       d="m 329.27848,104.1598 c 1.56037,3.66089 9.36817,-2.32382 6.81376,-3.164 -5.23973,-1.723438 -4.25803,14.03948 2.80567,4.74599"
       id="path49" />
    <path
       style="fill:none;stroke:#000000;stroke-width:1.5875;stroke-linecap:round;stroke-linejoin:round;stroke-dasharray:none"
       d="m 332.48496,95.458805 c 3.04777,-0.134977 7.19389,-5.901872 7.21457,-5.932498"
       id="path50" />
    <path
       style="fill:none;stroke:#000000;stroke-width:1.5875;stroke-linecap:round;stroke-linejoin:round;stroke-dasharray:none"
       d="m 346.33114,93.789474 c -0.78949,-0.15789 -2.21054,-1.26316 -2.36845,-0.47368 -0.15787,0.78947 2.8515,-0.17041 2.36845,0.47368 -0.80944,1.07924 -2.64549,0.70606 -3.7895,1.42105 -1.95368,1.22106 4.57515,6.643016 3.7895,9.000006 -0.76311,2.28929 -6.64102,4.30091 -5.68423,0.47369"
       id="path51" />
    <path
       style="fill:none;stroke:#000000;stroke-width:1.5875;stroke-linecap:round;stroke-linejoin:round;stroke-dasharray:none"
       d="m 351.54165,94.736837 c 0.78947,-0.31578 2.6842,-0.15789 2.36842,-0.94736 -0.31578,-0.78948 -2.1241,0.13294 -2.36842,0.94736 -1.26748,4.224932 4.01297,4.316572 3.31579,7.105273 -1.22341,4.89365 -10.82622,7.91563 -7.10525,0.47368"
       id="path52" />
    <path
       style="fill:none;stroke:#000000;stroke-width:1.5875;stroke-linecap:round;stroke-linejoin:round;stroke-dasharray:none"
       d="m 359.1206,94.73684 c -0.30035,1.63229 -2.88332,15.79647 -1.42105,9.94738"
       id="path53" />
    <path
       style="fill:none;stroke:#000000;stroke-width:1.5875;stroke-linecap:round;stroke-linejoin:round;stroke-dasharray:none"
       d="m 359.65306,83.673132 c 0.28887,2.1604 -0.12746,4.08052 -0.47369,6.1579"
       id="path31-2" />
    <path
       style="fill:none;stroke:#000000;stroke-width:1.5875;stroke-linecap:round;stroke-linejoin:round;stroke-dasharray:none"
       d="m 365.63847,105.97666 c -1.44196,0.98027 -6.24849,2.20563 -4.32591,2.94083 3.58852,1.37223 -6.78401,-13.233703 7.20985,-13.233703 14.30112,0 -2.64732,10.152123 -2.88394,10.292873 z"
       id="path54" />
    <path
       style="fill:none;stroke:#000000;stroke-width:1.5875;stroke-linecap:round;stroke-linejoin:round;stroke-dasharray:none"
       d="m 375.22591,104.96125 c 2.19844,-17.311909 9.80524,-15.402222 9.80524,1.39574 0,1.25272 0.55901,-2.36889 0.93383,-3.48935"
       id="path55" />
    <path
       style="fill:none;stroke:#000000;stroke-width:1.5875;stroke-linecap:round;stroke-linejoin:round;stroke-dasharray:none"
       d="m 390.47847,100.99821 c -0.62256,0.9305 -2.49023,1.86099 -1.86766,2.79149 0.62253,0.93048 2.72179,-3.11066 1.86766,-2.79149 -9.01438,3.36831 -1.50705,2.50276 0,0 0.9428,-1.565758 -0.0565,-4.325007 0.46692,-6.280852 2.33519,-8.725736 7.61822,4.333601 5.60297,11.863822"
       id="path56" />
    <path
       style="fill:none;stroke:#000000;stroke-width:1.5875;stroke-linecap:round;stroke-linejoin:round;stroke-dasharray:none"
       d="m 398.43639,104.37282 c 2.64147,0.7769 5.00224,0.45465 7.10526,-0.94737 6.86292,-4.575288 1.72691,-8.826198 -1.42105,-3.789478 -4.22386,6.758208 3.89427,10.168708 9.00001,7.105268"
       id="path58" />
    <path
       style="fill:none;stroke:#000000;stroke-width:1.5875;stroke-linecap:round;stroke-linejoin:round;stroke-dasharray:none"
       d="m 410.27849,107.37721 c 3.82601,2.12915 5.56392,-1.65418 7.10525,-4.73684 10.48544,-20.970836 -1.89473,-22.242646 -1.89473,-0.94737 0.57779,4.42726 1.99051,7.48318 5.68423,3.78947"
       id="path59" />
    <path
       style="fill:none;stroke:#000000;stroke-width:1.5875;stroke-linecap:round;stroke-linejoin:round;stroke-dasharray:none"
       d="m 426.38376,97.105264 c 5.35379,-1.37528 -4.91819,-1.01769 -4.26316,0.94737 1.15986,3.479576 6.28113,2.387716 7.10526,5.684216 1.21689,4.86762 -6.73383,5.9534 -8.52631,2.36842"
       id="path60" />
    <path
       style="fill:none;stroke:#000000;stroke-width:1.5875;stroke-linecap:round;stroke-linejoin:round;stroke-dasharray:none"
       d="m 451.61824,104.06595 c 3.46162,1.77761 -7.56983,4.73271 -8.20965,0.88223 -0.5689,-3.42353 4.1919,-6.780819 7.33005,-5.88153 1.05272,0.301672 4.54805,5.12436 2.93202,5.58746 -0.68413,0.19604 -1.73421,-1.22645 -2.05242,-0.58816 -0.48277,0.96842 1.15681,3.88448 0.29321,3.23484 -1.03989,-0.78225 -0.41985,-2.34564 -0.29321,-3.23484 z"
       id="path61" />
    <path
       style="fill:none;stroke:#000000;stroke-width:1.5875;stroke-linecap:round;stroke-linejoin:round;stroke-dasharray:none"
       d="m 452.79948,81.76193 c 0.56183,-0.820552 2.52825,-1.914622 1.68548,-2.461656 -2.33734,-1.517201 -0.36332,5.49332 0,8.20552 0.78455,5.856403 -0.68827,11.816214 -1.68548,17.641866"
       id="path62" />
    <path
       style="fill:none;stroke:#000000;stroke-width:1.5875;stroke-linecap:round;stroke-linejoin:round;stroke-dasharray:none"
       d="m 456.20743,99.898175 c 11.38586,8.058895 4.94291,-13.850303 0,0 -0.5567,1.559905 -0.74805,3.483065 0,4.962645 1.59444,3.15369 9.9364,2.71019 10.70515,-0.33085"
       id="path63" />
    <path
       style="fill:none;stroke:#000000;stroke-width:1.5875;stroke-linecap:round;stroke-linejoin:round;stroke-dasharray:none"
       d="m -72.84637,161.93046 c 1.01534,0.99503 3.919398,-1.9818 6.62137,-5.1521 1.83022,-2.14746 2.904639,-4.06141 4.181919,-6.62414 13.105933,-26.29565 -7.191178,-13.9145 -4.181919,5.1521 0.538124,3.40955 1.723597,7.4218 4.530412,9.20019"
       id="path64" />
    <path
       style="fill:none;stroke:#000000;stroke-width:1.5875;stroke-linecap:round;stroke-linejoin:round;stroke-dasharray:none"
       d="m -47.347834,134.99856 c 3.947287,-0.66922 -0.685733,7.3645 -1.383641,8.07265"
       id="path65" />
    <path
       style="fill:none;stroke:#000000;stroke-width:1.5875;stroke-linecap:round;stroke-linejoin:round;stroke-dasharray:none"
       d="m -45.75749,154.45141 c 0.465888,-0.36145 1.747085,-0.60241 1.397667,-1.08435 -0.349415,-0.48193 -1.809459,1.51032 -1.397667,1.08435 10.461905,-10.82217 -2.332393,9.6778 -1.04825,10.12059 2.984779,1.02919 8.958374,-7.72126 7.337754,-9.39769 -1.678398,-1.7362 0.233125,9.99973 2.445919,5.42174"
       id="path66" />
    <path
       style="fill:none;stroke:#000000;stroke-width:1.5875;stroke-linecap:round;stroke-linejoin:round;stroke-dasharray:none"
       d="m -31.057577,161.97212 c -0.443863,0.6753 -1.686681,1.18177 -1.331589,2.02589 0.35509,0.84413 1.870842,-2.36773 1.331589,-2.02589 -5.874283,3.72383 -2.595674,-6.93191 -1.864226,-6.58415 3.395973,1.61458 1.181387,13.2939 -1.065271,7.5971"
       id="path67" />
    <path
       style="fill:none;stroke:#000000;stroke-width:1.5875;stroke-linecap:round;stroke-linejoin:round;stroke-dasharray:none"
       d="m -31.816002,158.5742 c 1.507008,1.1877 1.90165,4.92146 2.389728,7.69488 2.119994,12.04653 -6.691236,20.36467 -6.691236,10.41075"
       id="path68" />
    <path
       style="fill:none;stroke:#000000;stroke-width:1.5875;stroke-linecap:round;stroke-linejoin:round;stroke-dasharray:none"
       d="m -26.408649,156.72776 c 1.153764,21.1526 -0.644176,1.15407 0,0 1.699572,-3.04481 6.225082,-2.73368 9.329273,-2.02589"
       id="path69" />
    <path
       style="fill:none;stroke:#000000;stroke-width:1.58751;stroke-linecap:round;stroke-linejoin:round;stroke-dasharray:none"
       d="m -14.774368,163.47018 c -0.798299,0.84113 -3.193186,1.68225 -2.394887,2.52336 0.798289,0.84113 3.298059,-1.80964 2.394887,-2.52336 -1.287214,-1.01719 -3.193186,0.84113 -4.789774,0.63084 -8.301022,-1.09327 18.4144747,-17.37902 4.789774,-0.63084 z"
       id="path70" />
    <path
       style="fill:none;stroke:#000000;stroke-width:1.5875;stroke-linecap:round;stroke-linejoin:round;stroke-dasharray:none"
       d="m -5.1878543,158.47843 c 2.544449,0.73113 5.65406302,-0.30107 7.367672,-1.33978"
       id="path71" />
    <path
       style="fill:none;stroke:#000000;stroke-width:1.5875;stroke-linecap:round;stroke-linejoin:round;stroke-dasharray:none"
       d="m 10.728677,153.7834 c 3.371903,-4.81297 -4.8800173,5.72686 1.961125,-2.87776 1.189436,-1.49605 4.429451,0.4837 3.922247,2.15832 -0.288886,0.9538 -8.9528733,10.79161 -4.902809,10.79161 3.672735,0 6.276907,-9.35273 5.88337,-9.35273 -2.09572,0 2.004451,8.1782 2.941685,6.11524"
       id="path77" />
    <path
       style="fill:none;stroke:#000000;stroke-width:1.5875;stroke-linecap:round;stroke-linejoin:round;stroke-dasharray:none"
       d="m 21.176234,162.02634 c 3.150578,-2.183 14.90788,-20.37334 10.444161,-23.32737 -9.493506,-6.28269 -8.010624,35.77546 -1.30552,22.4634"
       id="path78" />
    <path
       style="fill:none;stroke:#000000;stroke-width:1.5875;stroke-linecap:round;stroke-linejoin:round;stroke-dasharray:none"
       d="m 33.403196,151.37766 c 0.184585,4.04798 0.216832,8.33217 -0.669089,12.83547"
       id="path79" />
    <path
       style="fill:none;stroke:#000000;stroke-width:1.5875;stroke-linecap:round;stroke-linejoin:round;stroke-dasharray:none"
       d="m 34.483418,144.11614 c 0,2.96419 0,2.96419 0,0 z"
       id="path80" />
    <path
       style="fill:none;stroke:#000000;stroke-width:1.5875;stroke-linecap:round;stroke-linejoin:round;stroke-dasharray:none"
       d="m 33.743551,164.39479 c 0.706618,-0.85132 2.826468,-1.70266 2.119851,-2.55399 -0.706616,-0.85132 -2.633988,3.58639 -2.119851,2.55399 9.355527,-18.78588 8.428207,-0.63849 9.539322,-0.63849 0.195918,0 2.546631,-12.13147 5.829585,-12.13147 2.13452,0 2.298901,4.48681 2.649814,7.02348"
       id="path81" />
    <path
       style="fill:none;stroke:#000000;stroke-width:1.5875;stroke-linecap:round;stroke-linejoin:round;stroke-dasharray:none"
       d="m 52.049506,159.84738 c 6.890326,-2.35604 -8.774485,4.37552 4.351016,-1.11156 0.673977,-0.28176 3.542149,-4.38573 1.933784,-5.00207 -2.12381,-0.81387 -6.844715,14.74305 4.351023,4.44628"
       id="path82" />
    <path
       style="fill:none;stroke:#000000;stroke-width:1.5875;stroke-linecap:round;stroke-linejoin:round;stroke-dasharray:none"
       d="m 61.893939,162.74037 c 6.030335,-20.57041 7.138671,-3.06877 7.735147,-0.88498"
       id="path83" />
    <path
       style="fill:none;stroke:#000000;stroke-width:1.58749;stroke-linecap:round;stroke-linejoin:round;stroke-dasharray:none"
       d="m 78.797792,160.40605 c -6.428982,10.39589 -9.70543,-6.05197 -6.32446,-17.89703 1.612986,0.23799 3.162235,1.13633 4.743352,1.7045"
       id="path84" />
    <path
       style="fill:none;stroke:#000000;stroke-width:1.5875;stroke-linecap:round;stroke-linejoin:round;stroke-dasharray:none"
       d="m 78.066897,153.45182 c 9.678799,-9.39399 -0.35504,10.39285 0.411229,10.39285 4.962705,0 5.928351,-8.31428 5.757109,-8.31428 -0.522925,0 -0.847976,8.34008 2.878558,4.57284"
       id="path85" />
    <path
       style="fill:none;stroke:#000000;stroke-width:1.5875;stroke-linecap:round;stroke-linejoin:round;stroke-dasharray:none"
       d="m 89.01366,151.83817 c -1.330081,4.06756 -0.618706,15.7175 4.351027,10.00414"
       id="path86" />
    <path
       style="fill:none;stroke:#000000;stroke-width:1.5875;stroke-linecap:round;stroke-linejoin:round;stroke-dasharray:none"
       d="m 89.134459,144.48145 c 0,2.96419 0,2.96419 0,0 z"
       id="path80-1" />
    <path
       style="fill:none;stroke:#000000;stroke-width:1.5875;stroke-linecap:round;stroke-linejoin:round;stroke-dasharray:none"
       d="m 93.991502,153.51183 c 1.889603,22.54563 -0.494578,0.61599 0,0 1.548504,-1.92858 7.256258,-1.8771 8.163818,-1.8771"
       id="path87" />
    <path
       style="fill:none;stroke:#000000;stroke-width:1.5875;stroke-linecap:round;stroke-linejoin:round;stroke-dasharray:none"
       d="m 95.389333,160.85959 c 1.609551,1.3163 3.83965,2.61507 5.801357,1.11157 1.76279,-1.35104 4.99312,-8.08785 0.96689,-5.00206 -6.68312,5.12208 -1.59848,9.50511 4.35103,7.2252"
       id="path88" />
    <path
       style="fill:none;stroke:#000000;stroke-width:1.5875;stroke-linecap:round;stroke-linejoin:round;stroke-dasharray:none"
       d="m 120.80018,138.00152 c -16.2785,11.0969 -7.10281,28.58688 4.02346,28.58904"
       id="path89" />
    <path
       style="fill:none;stroke:#000000;stroke-width:1.5875;stroke-linecap:round;stroke-linejoin:round;stroke-dasharray:none"
       d="m 126.49754,161.68175 c -5.58914,-4.55494 5.05988,6.74778 -3.05674,-2.26209 -4.94711,-5.49157 15.86763,-7.81703 6.87766,2.82761 -1.79471,2.12504 0.36168,1.75594 -3.82092,-0.56552 z"
       id="path90" />
    <path
       style="fill:none;stroke:#000000;stroke-width:1.5875;stroke-linecap:round;stroke-linejoin:round;stroke-dasharray:none"
       d="m 132.61231,138.31498 c 1.54683,6.04969 0.11291,23.67879 0,24.40778"
       id="path91" />
    <path
       style="fill:none;stroke:#000000;stroke-width:1.5875;stroke-linecap:round;stroke-linejoin:round;stroke-dasharray:none"
       d="m 140.53601,157.72436 c 1.70606,0.669 -3.95906,4.09821 -4.96334,2.43521 -3.86809,-6.40519 9.08443,-13.28296 12.13261,-4.87042 3.35496,9.25915 -8.48459,12.87757 -11.02964,3.04401"
       id="path92" />
    <path
       style="fill:none;stroke:#000000;stroke-width:1.5875;stroke-linecap:round;stroke-linejoin:round;stroke-dasharray:none"
       d="m 150.15847,163.89374 c 0.45935,-21.04534 11.74534,-11.12704 9.90818,-0.81765"
       id="path93" />
    <path
       style="fill:none;stroke:#000000;stroke-width:1.5875;stroke-linecap:round;stroke-linejoin:round;stroke-dasharray:none"
       d="m 161.99999,162.04946 c 4.61019,-22.33846 13.81543,-4.26989 9.31031,1.37163"
       id="path94" />
    <path
       style="fill:none;stroke:#000000;stroke-width:1.5875;stroke-linecap:round;stroke-linejoin:round;stroke-dasharray:none"
       d="m 173.84211,159.1579 c 8.79823,3.26441 11.02648,-10.16974 3.31579,-3.31579 -1.16826,1.03845 -3.50967,1.76478 -3.31579,3.31579 1.20941,9.67529 11.94819,2.75369 14.68421,0.47368"
       id="path95" />
    <path
       style="fill:none;stroke:#000000;stroke-width:1.5875;stroke-linecap:round;stroke-linejoin:round;stroke-dasharray:none"
       d="m 175.26316,145.89474 c 4.13762,0.24392 7.40809,-3.61861 9.94737,-6.15789"
       id="path96" />
    <path
       style="fill:none;stroke:#000000;stroke-width:1.5875;stroke-linecap:round;stroke-linejoin:round;stroke-dasharray:none"
       d="m 188.99986,159.39209 c 2.20926,-0.64525 -0.79092,1.4134 5.41105,-1.28337 4.81776,-2.0949 1.71942,-8.01816 -1.96766,-3.20846 -8.29058,10.81489 4.70243,9.71958 9.34635,7.70029"
       id="path97" />
    <path
       style="fill:none;stroke:#000000;stroke-width:1.5875;stroke-linecap:round;stroke-linejoin:round;stroke-dasharray:none"
       d="m 208.20877,155.51335 c 2.94408,1.07292 -2.29608,-2.06224 -4.01199,-2.56506 -2.77442,-0.81301 -5.43098,2.95587 -4.37671,4.8095 1.14814,2.01868 7.15331,1.79965 9.11816,3.52697 1.13966,1.00189 -5.75322,3.59941 -7.65925,1.9238"
       id="path107" />
    <path
       style="fill:none;stroke:#000000;stroke-width:1.5875;stroke-linecap:round;stroke-linejoin:round;stroke-dasharray:none"
       d="m 221.21053,146.36843 c 0.77452,-3.11023 -5.02988,25.33969 7.10526,15.63158"
       id="path112" />
    <path
       style="fill:none;stroke:#000000;stroke-width:1.5875;stroke-linecap:round;stroke-linejoin:round;stroke-dasharray:none"
       d="m 220.26351,150.15791 c 3.70417,0.78673 10.63905,-4.58828 12.31509,-5.68421"
       id="path113" />
    <path
       style="fill:none;stroke:#000000;stroke-width:1.5875;stroke-linecap:round;stroke-linejoin:round;stroke-dasharray:none"
       d="m 231.1579,156.78948 c 12.64367,2.9596 2.31342,-11.16673 -1.89476,4.26316 -1.22975,4.50918 8.78499,1.1624 9.94738,0"
       id="path100" />
    <path
       style="fill:none;stroke:#000000;stroke-width:1.5875;stroke-linecap:round;stroke-linejoin:round;stroke-dasharray:none"
       d="m 239.20807,152.99833 c 1.62038,2.54401 0.88584,5.73339 1.16192,8.71536 0.86611,9.35492 -1.36901,-4.63207 1.16193,-7.66952 1.14556,-1.37482 6.439,-0.34861 6.68107,-0.34861"
       id="path111" />
    <path
       style="fill:none;stroke:#000000;stroke-width:1.5875;stroke-linecap:round;stroke-linejoin:round;stroke-dasharray:none"
       d="m 248.17639,152.52585 c -0.23969,2.53068 0.40344,4.96519 0.59045,7.44831 1.17548,15.6088 -1.1555,-2.95699 1.47612,-4.7042 1.9444,-1.29095 4.32103,0.78404 6.49493,0.78404"
       id="path110" />
    <path
       style="fill:none;stroke:#000000;stroke-width:1.5875;stroke-linecap:round;stroke-linejoin:round;stroke-dasharray:none"
       d="m 258.80595,157.90219 c 0.30022,-0.40171 1.20086,-0.80342 0.90064,-1.20512 -0.30021,-0.40171 -1.23217,1.56001 -0.90064,1.20512 0.14241,-0.15244 5.02956,-5.52084 5.85416,-3.31408 1.53475,4.10718 -5.21707,5.95201 -6.30448,8.13455 -0.58605,1.17626 -0.055,2.38568 0.67548,2.7115 3.50985,1.56548 4.18176,-6.02558 5.17868,-6.02558 0.68274,0 0.14229,6.13648 2.47677,3.01279"
       id="path108" />
    <path
       style="fill:none;stroke:#000000;stroke-width:1.58749;stroke-linecap:round;stroke-linejoin:round;stroke-dasharray:none"
       d="m 269.7386,153.76135 c -2.31517,2.79297 -0.86038,5.91942 -1.0427,8.89839"
       id="path103" />
    <path
       style="fill:none;stroke:#000000;stroke-width:1.5875;stroke-linecap:round;stroke-linejoin:round;stroke-dasharray:none"
       d="m 268.77519,146.0612 c 0.63159,2.52631 0.63159,2.52631 0,0 z"
       id="path104" />
    <path
       style="fill:none;stroke:#000000;stroke-width:1.58751;stroke-linecap:round;stroke-linejoin:round;stroke-dasharray:none"
       d="m 269.60334,163.93276 c 4.07988,-10.72132 9.2932,-12.81196 6.55819,-2.5395"
       id="path105" />
    <path
       style="fill:none;stroke:#000000;stroke-width:1.5875;stroke-linecap:round;stroke-linejoin:round;stroke-dasharray:none"
       d="m 282.71008,162.94737 c -1.164,1.74326 -2.50245,3.51859 -4.10436,5.21052"
       id="path106" />
    <path
       style="fill:none;stroke:#000000;stroke-width:1.5875;stroke-linecap:round;stroke-linejoin:round;stroke-dasharray:none"
       d="m 290.36919,163.89463 c 0.28772,0.0282 2.05824,0.0559 4.00475,-3.60415 13.4833,-25.35247 -1.37867,-25.86179 -0.30806,-6.17854 0.35897,6.59952 1.75353,8.52848 3.0806,9.26781"
       id="path114" />
    <path
       style="fill:none;stroke:#000000;stroke-width:1.5875;stroke-linecap:round;stroke-linejoin:round;stroke-dasharray:none"
       d="m 302.6842,163.42106 c 0.20786,0.54428 -4.73684,-0.30498 -4.73684,-3.78948 0,-2.03004 1.6523,-4.21243 3.31579,-5.21052 12.8433,-7.70599 7.1071,20.37207 -0.94737,4.26316"
       id="path115" />
    <path
       style="fill:none;stroke:#000000;stroke-width:1.5875;stroke-linecap:round;stroke-linejoin:round;stroke-dasharray:none"
       d="m 315.54506,162.14555 c 1.46471,0.10106 -1.63323,2.29539 -2.61703,1.18331 -1.01905,-1.15194 -2.10344,-3.0813 -1.83191,-5.12765 1.58649,-11.95577 12.60931,2.18731 4.44894,3.94434 z"
       id="path128" />
    <path
       style="fill:none;stroke:#000000;stroke-width:1.5875;stroke-linecap:round;stroke-linejoin:round;stroke-dasharray:none"
       d="m 318.42377,155.44016 c 2.04065,2.67272 -0.11491,26.9322 -8.63615,20.51061"
       id="path129" />
    <path
       style="fill:none;stroke:#000000;stroke-width:1.5875;stroke-linecap:round;stroke-linejoin:round;stroke-dasharray:none"
       d="m 321.63157,153 c 0.16105,2.83452 -1.28021,14.54336 2.8421,10.42105"
       id="path118" />
    <path
       style="fill:none;stroke:#000000;stroke-width:1.5875;stroke-linecap:round;stroke-linejoin:round;stroke-dasharray:none"
       d="m 321.63157,140.6842 c -0.3938,1.2002 -0.30636,2.56403 0,3.78948"
       id="path119" />
    <path
       style="fill:none;stroke:#000000;stroke-width:1.5875;stroke-linecap:round;stroke-linejoin:round;stroke-dasharray:none"
       d="m 329.21053,152.05263 c 3.56616,-1.35173 -1.28823,0.90896 -2.36842,3.78947 -0.78796,2.10122 5.21052,2.01905 5.21052,4.26316 0,4.30949 -4.28493,4.06498 -6.15789,3.31579"
       id="path120" />
    <path
       style="fill:none;stroke:#000000;stroke-width:1.5875;stroke-linecap:round;stroke-linejoin:round;stroke-dasharray:none"
       d="m 341.31168,160.36464 c -4.28651,13.14987 -11.75913,-11.79818 -4.65584,-16.98011 3.06073,1.34101 5.48267,0.37387 8.39316,-0.16915"
       id="path121" />
    <path
       style="fill:none;stroke:#000000;stroke-width:1.5875;stroke-linecap:round;stroke-linejoin:round;stroke-dasharray:none"
       d="m 344.36841,152.526 c -0.3507,3.62517 0.32989,7.34459 0.94737,10.89536"
       id="path122" />
    <path
       style="fill:none;stroke:#000000;stroke-width:1.5875;stroke-linecap:round;stroke-linejoin:round;stroke-dasharray:none"
       d="m 343.89473,147.31578 c 0,-2.52631 0,-2.52631 0,0 z"
       id="path123" />
    <path
       style="fill:none;stroke:#000000;stroke-width:1.5875;stroke-linecap:round;stroke-linejoin:round;stroke-dasharray:none"
       d="m 352.83054,164.05831 c -4.05134,-2.39445 -5.61017,-4.46403 -3.06824,-7.62084 18.81387,-23.36473 3.06824,30.44186 3.06824,0"
       id="path124" />
    <path
       style="fill:none;stroke:#000000;stroke-width:1.5875;stroke-linecap:round;stroke-linejoin:round;stroke-dasharray:none"
       d="m 354.30188,155.95897 c -2.85937,4.13224 2.84893,12.59991 4.90591,15.22987"
       id="path125" />
    <path
       style="fill:none;stroke:#000000;stroke-width:1.5875;stroke-linecap:round;stroke-linejoin:round;stroke-dasharray:none"
       d="m 360.94736,155.30633 c -0.65278,16.37067 5.6733,4.66713 7.10526,-2.30701"
       id="path126" />
    <path
       style="fill:none;stroke:#000000;stroke-width:1.5875;stroke-linecap:round;stroke-linejoin:round;stroke-dasharray:none"
       d="m 366.63158,157.80135 c 9.0473,11.10487 10.71962,-12.32395 4.13777,-0.54835 -0.44817,0.8018 -1.25221,3.3948 -0.9195,4.38689 1.9664,5.86351 10.23746,0.43107 12.41332,-1.64509"
       id="path127" />
    <path
       style="fill:none;stroke:#000000;stroke-width:1.5875;stroke-linecap:round;stroke-linejoin:round;stroke-dasharray:none"
       d="m 384.15402,162.95348 c 6.08617,-0.51243 0,4.73306 0,7.09957"
       id="path130" />
    <path
       style="fill:none;stroke:#000000;stroke-width:1.5875;stroke-linecap:round;stroke-linejoin:round;stroke-dasharray:none"
       d="m 399.78946,147.50933 c -5.68161,3.41376 7.26786,-6.91913 -4.26315,2.72317 -1.39976,1.17048 -1.74337,4.42457 -1.89474,5.99098 -1.87555,19.40826 17.45858,-2.72317 7.57894,-2.72317 -0.2367,0 5.88134,0.88968 6.63159,0.54463"
       id="path131" />
    <path
       style="fill:none;stroke:#000000;stroke-width:1.5875;stroke-linecap:round;stroke-linejoin:round;stroke-dasharray:none"
       d="m 411.63157,149.68421 c -0.4557,3.83872 -1.03728,7.53081 -1.42106,11.36843 -1.23441,12.34426 -0.7245,-11.00896 5.21055,-12.78948 8.30929,-2.49279 7.97002,12.47223 -4.26318,7.57895"
       id="path132" />
    <path
       style="fill:none;stroke:#000000;stroke-width:1.5875;stroke-linecap:round;stroke-linejoin:round;stroke-dasharray:none"
       d="m 430.86487,148.67033 c -0.0105,-2.24751 -7.38295,0.74765 -5.29024,5.23149 1.44747,3.10134 11.36073,1.85188 9.76659,6.97532 -1.24314,3.99534 -8.88633,4.19492 -11.39438,2.17978"
       id="path133" />
    <path
       style="fill:none;stroke:#000000;stroke-width:1.5875;stroke-linecap:round;stroke-linejoin:round;stroke-dasharray:none"
       d="m 439.10526,144.47368 c 13.06631,-2.1888 3.93464,27.61885 -1.89474,21.78947"
       id="path134" />
    <path
       style="fill:none;stroke:#000000;stroke-width:1.5875;stroke-linecap:round;stroke-linejoin:round;stroke-dasharray:none"
       d="m 18.199948,208.6262 c 0.33209,-0.24306 1.245338,-0.40509 0.996271,-0.72917 -0.249068,-0.32407 -1.2898,1.01561 -0.996271,0.72917 1.748771,-1.70656 7.238767,-5.135 4.483219,0.24305 -1.042655,2.03497 -3.405404,3.0823 -4.234152,5.10416 -0.454469,1.10874 0.290022,2.1198 1.245339,2.43055 1.837033,0.59756 4.925215,-4.8611 2.988813,-4.8611 -0.714187,0 0.552475,1.87042 1.245338,1.70138"
       id="path136" />
    <path
       style="fill:none;stroke:#000000;stroke-width:1.5875;stroke-linecap:round;stroke-linejoin:round;stroke-dasharray:none"
       d="m 26.448565,208.00111 c 1.168036,-2.5915 0.871671,0.75652 2.098888,4.57703 2.400424,7.47292 2.192227,2.65204 9.974229,-4.86801"
       id="path137" />
    <path
       style="fill:none;stroke:#000000;stroke-width:1.5875;stroke-linecap:round;stroke-linejoin:round;stroke-dasharray:none"
       d="m 41.295561,210.27781 c -0.32982,0.0917 3.265294,1.56857 4.414221,-1.24911 2.311919,-5.66987 -12.958483,4.97948 -2.037334,8.32742 2.116136,0.64872 3.00496,0.46332 4.414221,-0.83274"
       id="path138" />
    <path
       style="fill:none;stroke:#000000;stroke-width:1.5875;stroke-linecap:round;stroke-linejoin:round;stroke-dasharray:none"
       d="m 54.74313,206.63938 c -7.726878,-3.48599 -8.515142,10.69277 1.480494,9.47643"
       id="path139" />
    <path
       style="fill:none;stroke:#000000;stroke-width:1.5875;stroke-linecap:round;stroke-linejoin:round;stroke-dasharray:none"
       d="m 67.175065,207.1605 c -1.810885,16.4619 7.734369,7.76229 9.473684,-1.22361"
       id="path140" />
    <path
       style="fill:none;stroke:#000000;stroke-width:1.5875;stroke-linecap:round;stroke-linejoin:round;stroke-dasharray:none"
       d="m 78.543487,216.83245 c 2.420493,-19.80739 9.051369,-8.16807 8.05263,-1.80947"
       id="path141" />
    <path
       style="fill:none;stroke:#000000;stroke-width:1.5875;stroke-linecap:round;stroke-linejoin:round;stroke-dasharray:none"
       d="m 89.911912,211.62191 c 0.63157,0.15789 1.73684,1.10526 1.89473,0.47368 0.1579,-0.63158 -2.45298,-0.13874 -1.89473,-0.47368 17.404028,-10.44242 -10.001923,-2.11694 1.42105,4.73684 3.92271,2.35363 9.469088,0.79253 12.789478,-1.42105"
       id="path142" />
    <path
       style="fill:none;stroke:#000000;stroke-width:1.5875;stroke-linecap:round;stroke-linejoin:round;stroke-dasharray:none"
       d="m 111.39842,211.86187 c 1.20743,1.72346 2.06811,1.78805 3.72173,0.76644 7.58666,-4.68707 -7.46379,-5.77702 -1.48869,2.68251 1.92669,2.72782 7.50867,1.64747 8.1878,-1.14965"
       id="path143" />
    <path
       style="fill:none;stroke:#000000;stroke-width:1.5875;stroke-linecap:round;stroke-linejoin:round;stroke-dasharray:none"
       d="m 113.25929,202.66468 c 2.52059,-0.26215 4.34986,-2.37806 6.32693,-3.83216"
       id="path144" />
    <path
       style="fill:none;stroke:#000000;stroke-width:1.5875;stroke-linecap:round;stroke-linejoin:round;stroke-dasharray:none"
       d="m 124.66147,216.35874 c -0.78947,-0.31579 -2.05264,-1.73684 -2.36842,-0.94736 -0.31579,0.78947 2.48867,1.78911 2.36842,0.94736 -0.24154,-1.69072 -2.13538,-2.70835 -2.84211,-4.26315 -2.362,-5.1964 17.23411,0.15115 2.84211,4.26315 z"
       id="path145" />
    <path
       style="fill:none;stroke:#000000;stroke-width:1.5875;stroke-linecap:round;stroke-linejoin:round;stroke-dasharray:none"
       d="m 125.13515,211.6219 c 0.0651,3.59339 3.61473,9.39859 4.73684,10.89473"
       id="path146" />
    <path
       style="fill:none;stroke:#000000;stroke-width:1.6732;stroke-linecap:round;stroke-linejoin:round;stroke-dasharray:none"
       d="m 131.334,208.8226 c -1.08442,10.00318 4.48718,10.1261 6.07405,1.06694"
       id="path147" />
    <path
       style="fill:none;stroke:#000000;stroke-width:1.80672;stroke-linecap:round;stroke-linejoin:round;stroke-dasharray:none"
       d="m 139.87349,207.10565 c 0.0861,2.96892 0.46206,5.86364 0.72815,8.78077"
       id="path148" />
    <path
       style="fill:none;stroke:#000000;stroke-width:2.00887;stroke-linecap:round;stroke-linejoin:round;stroke-dasharray:none"
       d="m 140.76674,197.40829 c 0,5.05675 0,5.05675 0,0 z"
       id="path149" />
    <path
       style="fill:none;stroke:#000000;stroke-width:2.07717;stroke-linecap:round;stroke-linejoin:round;stroke-dasharray:none"
       d="m 144.64787,213.00645 c -3.53716,31.79262 0.48624,-13.09251 6.88581,-3.68201 4.51228,6.63526 -2.43615,7.42095 -6.88581,3.68201 z"
       id="path150" />
    <path
       style="fill:none;stroke:#000000;stroke-width:1.5875;stroke-linecap:round;stroke-linejoin:round;stroke-dasharray:none"
       d="m 155.45095,212.09558 c 12.81579,2.63057 0.61762,-10.49959 0,0 -0.44252,7.52275 8.01771,4.28411 10.42105,2.84211"
       id="path151" />
    <path
       style="fill:none;stroke:#000000;stroke-width:1.5875;stroke-dasharray:none;stroke-opacity:1"
       d="m 178.85586,216.83848 c -9.37791,-5.55383 6.37339,-11.75611 4.64801,-2.7674 -0.41953,2.18562 -3.07987,2.53399 -4.64801,2.7674 z"
       id="path76" />
    <path
       style="fill:none;stroke:#000000;stroke-width:1.5875;stroke-dasharray:none;stroke-opacity:1"
       d="m 183.0601,198.84522 c 0.70285,-2.21504 0,14.31251 0,16.95324"
       id="path98" />
    <path
       style="fill:none;stroke:#000000;stroke-width:1.5875;stroke-dasharray:none;stroke-opacity:1"
       d="m 185.34437,210.67454 c 5.31834,5.32011 9.94711,-5.87353 3.31578,-1.89474 -1.09158,0.65495 -2.91323,0.68708 -3.31578,1.89474 -2.37688,7.13063 6.69573,6.09374 9,3.78947"
       id="path99" />
    <path
       style="fill:none;stroke:#000000;stroke-width:1.5875;stroke-dasharray:none;stroke-opacity:1"
       d="m 199.6989,212.40754 c 1.01824,0.3379 2.49001,-1.88231 3.59863,-1.05372 3.96018,2.95987 -2.69731,10.58577 -3.59863,1.05372 -0.87572,-9.26144 10.20477,-14.5706 11.19312,-14.60478"
       id="path101" />
    <path
       style="fill:none;stroke:#000000;stroke-width:1.5875;stroke-dasharray:none;stroke-opacity:1"
       d="m 214.77165,210.31974 c 0.17286,-0.10188 3.81932,-4.50666 6.04186,-1.73731 1.12354,1.39997 -7.35354,6.694 -5.34473,7.52834 4.13115,1.71584 5.57712,-7.11594 5.57712,-6.37014 0,3.25461 0.45461,5.36304 3.02092,3.76418"
       id="path160" />
    <path
       style="fill:none;stroke:#000000;stroke-width:1.5875;stroke-dasharray:none;stroke-opacity:1"
       d="m 217.4842,201.4382 c -3.74823,-4.47128 3.9882,3.04672 5.05014,3.85797"
       id="path109" />
    <path
       style="fill:none;stroke:#000000;stroke-width:1.5875;stroke-dasharray:none;stroke-opacity:1"
       d="m 235.37248,200.22447 c 4.481,-0.89242 -3.44444,0.0536 -4.02202,1.74905 -0.95537,2.80432 5.76605,4.26614 6.70337,6.55893 1.4725,3.60194 -3.98215,11.64597 -7.15026,6.99621 -3.33213,-4.89052 14.29112,-13.93125 4.46891,-15.30419 z"
       id="path116" />
    <path
       style="fill:none;stroke:#000000;stroke-width:1.5875;stroke-dasharray:none;stroke-opacity:1"
       d="m 252.39283,215.7269 c -16.91362,4.64782 5.96277,-22.86717 0,0 z"
       id="path117" />
    <path
       style="fill:none;stroke:#000000;stroke-width:1.58749;stroke-dasharray:none;stroke-opacity:1"
       d="m 254.13954,195.82092 c 1.28895,-6.3694 0.38331,13.22739 -0.47369,19.71147"
       id="path135" />
    <path
       style="fill:none;stroke:#000000;stroke-width:1.5875;stroke-linecap:round;stroke-linejoin:round;stroke-dasharray:none"
       d="m 255.00394,212.15854 c 2.04548,-0.58894 -0.73229,1.29005 5.00992,-1.17138 4.46061,-1.91208 1.59196,-7.31844 -1.8218,-2.92847 -7.67599,9.87112 4.35384,8.87139 8.6535,7.02832"
       id="path97-8" />
    <path
       style="fill:none;stroke:#000000;stroke-width:1.5875;stroke-dasharray:none;stroke-opacity:1"
       d="m 257.45532,201.20086 c 2.25973,-0.67437 4.65416,-3.01004 6.1579,-4.26316"
       id="path153" />
    <path
       style="fill:none;stroke:#000000;stroke-width:1.5875;stroke-dasharray:none;stroke-opacity:1"
       d="m 266.77154,204.54469 c -4.1969,18.98888 1.95139,8.61301 7.72205,-0.98831"
       id="path154" />
    <path
       style="fill:none;stroke:#000000;stroke-width:1.5875;stroke-dasharray:none;stroke-opacity:1"
       d="m 272.13954,212.09559 c 0.31579,0.63158 0.31579,2.21052 0.94737,1.89474 0.63158,-0.31579 -1.6464,-1.79488 -0.94737,-1.89474 1.48286,-0.21184 2.7894,1.1531 4.26315,1.42105 3.537,0.64309 0.47651,-10.22328 -4.26315,-1.42105 -4.43405,8.23467 7.78026,3.24948 9.4737,1.89474"
       id="path155" />
    <path
       style="fill:none;stroke:#000000;stroke-width:1.5875;stroke-dasharray:none;stroke-opacity:1"
       d="m 282.08692,198.31944 c 0.76544,5.16674 0.47368,16.19222 0.47368,19.09886"
       id="path156" />
    <path
       style="fill:none;stroke:#000000;stroke-width:1.5875;stroke-dasharray:none;stroke-opacity:1"
       d="m 285.92832,200.66831 c 2.04238,-10.23044 1.77989,15.16813 1.77989,17.13857"
       id="path157" />
    <path
       style="fill:none;stroke:#000000;stroke-width:1.5875;stroke-dasharray:none;stroke-opacity:1"
       d="m 296.04482,215.93551 c -4.68945,0.0434 5.34241,1.05074 -2.58408,0 -1.2875,-0.17066 -2.08078,-1.66291 -2.58409,-2.99727 -3.9087,-10.36271 19.1169,-3.93661 5.16817,2.99727 z"
       id="path161" />
    <path
       style="fill:none;stroke:#000000;stroke-width:1.5875;stroke-dasharray:none;stroke-opacity:1"
       d="m 303.35223,211.66583 c 4.56897,27.19986 -9.36246,9.35982 4.14444,-4.08658 0.78352,-0.78001 2.87488,-2.07683 3.64629,-0.99702 3.40416,4.76514 -3.88059,8.21475 -5.06534,7.63628"
       id="path162" />
    <path
       style="fill:none;stroke:#000000;stroke-width:1.5875;stroke-dasharray:none;stroke-opacity:1"
       d="m 313.82374,209.72717 c -0.0558,-1.79941 1.10821,3.43764 1.42105,5.21053 0.48334,2.73888 -0.0907,5.84559 -0.47368,8.52631 -2.28045,15.96324 -4.09948,-27.78371 7.57896,-16.10526 4.16277,4.16277 -3.4059,7.29706 -5.6842,6.15789"
       id="path163" />
    <path
       style="fill:none;stroke:#000000;stroke-width:1.5875;stroke-dasharray:none;stroke-opacity:1"
       d="m 322.35007,212.09559 c 2.40168,0.75337 4.15695,0.25319 6.15789,-0.94737 8.56631,-5.13979 -7.06027,-4.66934 -1.42105,3.78948 2.7387,4.10808 6.88835,-0.51355 8.05262,-2.84211"
       id="path164" />
    <path
       style="fill:none;stroke:#000000;stroke-width:1.5875;stroke-dasharray:none;stroke-opacity:1"
       d="m 334.19218,208.30612 c 0.63156,-0.31579 2.21052,-0.31579 1.89474,-0.94737 -0.68594,-1.37188 -1.95837,6.83661 0.47368,8.05263 3.97264,1.98632 6.15789,-7.88214 6.15789,-9"
       id="path165" />
    <path
       style="fill:none;stroke:#000000;stroke-width:1.5875;stroke-dasharray:none;stroke-opacity:1"
       d="m 345.08691,208.77981 c -3.95441,16.3958 -0.74007,0.55505 0,0 1.93225,-1.4492 4.86267,-0.52403 7.10525,-1.42105"
       id="path166" />
    <path
       style="fill:none;stroke:#000000;stroke-width:1.5875;stroke-dasharray:none;stroke-opacity:1"
       d="m 358.58716,205.12055 c -0.71562,-0.2243 -1.86061,-1.23366 -2.14686,-0.6729 -0.28625,0.56075 2.87805,0.48191 2.14686,0.6729 -16.26803,4.24916 1.21592,6.27943 2.14685,7.73837 1.31955,2.06796 -5.51898,3.72558 -8.15805,2.69161"
       id="path167" />
    <path
       style="fill:none;stroke:#000000;stroke-width:1.5875;stroke-dasharray:none;stroke-opacity:1"
       d="m 364.03428,213.99032 c 0.63158,0.31581 1.57895,1.57895 1.89473,0.94737 0.31578,-0.63156 -1.26315,-0.63156 -1.89473,-0.94737 z"
       id="path168" />
  </g>
</svg>
