<?xml version="1.0" encoding="UTF-8" standalone="no"?>
<!-- Created with Inkscape (http://www.inkscape.org/) -->

<svg
   width="490.36014mm"
   height="157.86748mm"
   viewBox="0 0 490.36014 157.86748"
   version="1.1"
   id="svg1"
   xmlns="http://www.w3.org/2000/svg"
   xmlns:svg="http://www.w3.org/2000/svg">
  <defs
     id="defs1" />
  <g
     id="layer1"
     transform="translate(61.961237,86.277316)">
    <path
       style="fill:none;stroke:#000000;stroke-width:1.5875;stroke-linecap:round;stroke-linejoin:round"
       d="m -56.397275,-60.767843 c -1.118213,1.305594 -1.965746,2.101056 -3.092648,0.699397 -6.467052,-8.043828 8.184823,-4.729957 3.092648,-0.699397 -3.527521,2.792102 -4.192068,-4.450833 -2.2492,-3.84669 1.14477,0.355971 2.764124,2.245513 2.2492,3.84669 -0.73764,2.293723 -4.466144,-0.819752 -3.936098,-2.797592 0.140933,-0.525884 4.081916,2.25348 3.936098,2.797592 -0.371335,1.385619 -2.721313,-0.712574 -3.092648,-2.098195 -1.175735,-4.387196 4.651414,2.098195 3.092648,2.098195 -4.589708,0 -1.710739,-3.787382 -1.686899,-3.84669"
       id="path1" />
    <path
       style="fill:none;stroke:#000000;stroke-width:1.5875;stroke-linecap:round;stroke-linejoin:round"
       d="m -34.578946,-70.578947 c -0.547632,-0.785736 -4.641228,-1.705703 -9,0.473686 -14.366423,7.18321 8.309485,21.235741 10.421051,12.789471"
       id="path2" />
    <path
       style="fill:none;stroke:#000000;stroke-width:1.5875;stroke-linecap:round;stroke-linejoin:round"
       d="m -30.789474,-68.210526 c 7.506548,-4.466177 -8.689956,4.564597 3.789475,-2.36842 10.171513,-5.650841 -6.525031,12.896021 -3.789475,15.631578 3.12882,3.128819 5.684212,-12.990605 5.684212,-10.421051 0,4.898956 -0.451935,9.231404 4.263157,8.05263"
       id="path3" />
    <path
       style="fill:none;stroke:#000000;stroke-width:1.5875;stroke-linecap:round;stroke-linejoin:round"
       d="m -18.473684,-44.052631 c 0,-2.744359 0.866804,-25.542306 0.947368,-26.526315 16.80939839,1.735558 10.8555055,15.384927 0.473684,12.789472"
       id="path4" />
    <path
       style="fill:none;stroke:#000000;stroke-width:1.5875;stroke-linecap:round;stroke-linejoin:round"
       d="m -2.3684207,-70.105261 c 0.631579,-0.473684 2.36841998947368,-0.789475 1.89473599,-1.421054 -0.473684,-0.631579 -2.68421019,1.421054 -1.89473599,1.421054 17.9382827,0 -4.574706,9.63582 -3.3157899,10.894737 5.27737189,5.277371 10.2738354,-4.736844 8.5263164,-4.736844 -2.53485651,0 2.506154,5.684211 3.315789,5.684211"
       id="path5" />
    <path
       style="fill:none;stroke:#000000;stroke-width:1.5875;stroke-linecap:round;stroke-linejoin:round"
       d="M 17.05263,-70.105261 C 4.498478,-76.406819 4.833415,-52.864075 16.578947,-58.736841"
       id="path6" />
    <path
       style="fill:none;stroke:#000000;stroke-width:1.5875;stroke-linecap:round;stroke-linejoin:round"
       d="m 21.315789,-68.684209 c 1.120434,0.291563 -0.898239,9.408179 -2.36842,11.368421"
       id="path7" />
    <path
       style="fill:none;stroke:#000000;stroke-width:1.5875;stroke-linecap:round;stroke-linejoin:round"
       d="m 21.789475,-80.999997 c 0.643548,3.937397 0,-3.455593 0,3.789474"
       id="path8" />
    <path
       style="fill:none;stroke:#000000;stroke-width:1.58749;stroke-linecap:round;stroke-linejoin:round"
       d="m 34.105262,-57.965787 c -4.91676,5.572908 -12.843187,-5.508805 -8.052631,-15.570029 1.953447,2.139655 3.967809,4.765126 6.63158,5.368976"
       id="path9" />
    <path
       style="fill:none;stroke:#000000;stroke-width:1.5875;stroke-linecap:round;stroke-linejoin:round"
       d="m 39.315789,-77.684209 c 1.338376,1.060966 2.842104,-1.894736 4.263157,-2.842106"
       id="path11" />
    <path
       style="fill:none;stroke:#000000;stroke-width:1.5875;stroke-linecap:round;stroke-linejoin:round"
       d="m 39.285249,-63.828041 c -0.681728,0.495163 6.974948,2.344752 8.626463,-0.82884 4.025499,-7.73549 -10.296252,-5.494122 -13.371019,0.414421 -2.907463,5.587053 12.267252,11.933288 13.802342,4.558626"
       id="path12" />
    <path
       style="fill:none;stroke:#000000;stroke-width:1.5875;stroke-linecap:round;stroke-linejoin:round"
       d="m 61.235565,-66.551121 c 0.663488,0.783447 1.416504,-0.45363 3.930586,-1.477254 2.759662,-1.12361 4.185671,4.645294 1.511765,6.278334 -0.70395,0.429929 -10.496711,1.581863 -7.256472,5.539709 3.565184,4.354747 8.06465,-5.170394 6.651771,-5.170394 -0.75465,0 -1.508439,7.108277 2.418822,5.909023"
       id="path13" />
    <path
       style="fill:none;stroke:#000000;stroke-width:1.5875;stroke-linecap:round;stroke-linejoin:round"
       d="m 66.375565,-80.215733 c -0.381952,2.961267 1.823581,5.585932 2.418822,8.49422"
       id="path14" />
    <path
       style="fill:none;stroke:#000000;stroke-width:1.5875;stroke-linecap:round;stroke-linejoin:round"
       d="m 84.553827,-65.808377 c 6.98279,-3.00858 -9.174134,4.823909 4.26316,-1.894737 3.89826,-1.94913 7.804387,-1.398254 5.210527,3.789473 -1.022677,2.045362 -16.039557,2.907816 -10.421047,8.526317 3.66811,3.66812 11.612467,-2.827679 9.47368,-7.105263 -1.14949,-2.298981 -0.39646,5.761442 1.421047,7.578947"
       id="path15" />
    <path
       style="fill:none;stroke:#000000;stroke-width:1.5875;stroke-linecap:round;stroke-linejoin:round"
       d="m 99.238034,-71.966271 c -2.47102,7.596131 2.356616,-9.588302 -1.42105,4.263157 -8.078777,29.622166 19.929536,-0.719228 0,4.263159"
       id="path16" />
    <path
       style="fill:none;stroke:#000000;stroke-width:1.5875;stroke-linecap:round;stroke-linejoin:round"
       d="m 112.0275,-70.071535 c -19.640433,-4.067289 18.15925,19.579286 -7.10526,13.263158"
       id="path17" />
    <path
       style="fill:none;stroke:#000000;stroke-width:1.5875;stroke-linecap:round;stroke-linejoin:round"
       d="m 119.13276,-55.387324 c 0.0187,-0.877845 -3.78947,1.489914 -3.78947,-4.263157 0,-16.346485 21.45712,-3.308689 3.78947,4.263157 z"
       id="path18" />
    <path
       style="fill:none;stroke:#000000;stroke-width:1.5875;stroke-linecap:round;stroke-linejoin:round"
       d="m 129.55381,-68.650483 c -3.55784,28.96219 -4.33419,-4.807878 5.21053,4.736844"
       id="path19" />
    <path
       style="fill:none;stroke:#000000;stroke-width:1.5875;stroke-linecap:round;stroke-linejoin:round"
       d="m 139.50118,-78.124165 c -0.95008,2.948025 -0.0766,-1.985258 -1.42105,4.736841 -6.79988,33.99942 17.24085,9 0.47368,9"
       id="path21" />
    <path
       style="fill:none;stroke:#000000;stroke-width:1.5875;stroke-linecap:round;stroke-linejoin:round"
       d="m 148.48534,-61.675688 c -0.44795,0.358362 4.21274,0.5943 5.40164,-2.306004 1.61415,-3.937666 -5.26411,-4.534198 -7.02213,-1.317715 -3.31618,6.06732 3.17738,12.595881 6.48197,8.565154"
       id="path22" />
    <path
       style="fill:none;stroke:#000000;stroke-width:1.5875;stroke-linecap:round;stroke-linejoin:round"
       d="m 157.97487,-69.59785 c 1.24174,2.550787 0,5.059246 0,7.578949 0,2.216158 -2.68985,6.631578 -0.47369,6.631578 1.62128,0 0.10655,-14.063673 0.47369,-14.210527 2.59364,-1.037458 5.48039,2.974173 6.15788,5.684213"
       id="path23" />
    <path
       style="fill:none;stroke:#000000;stroke-width:1.5875;stroke-linecap:round;stroke-linejoin:round"
       d="m 178.9737,-63.674859 c 0.57001,-0.885691 1.74256,1.96498 4.287,1.227264 9.68976,-2.809369 -5.65714,-9.102849 -5.00363,-3.901395 0.72361,5.759524 1.67656,-0.842699 -0.93292,6.857694 -1.09607,3.234369 7.23106,4.436037 9.67584,2.135074"
       id="path24" />
    <path
       style="fill:none;stroke:#000000;stroke-width:1.5875;stroke-linecap:round;stroke-linejoin:round"
       d="m 196.29879,-56.647419 c -13.77307,3.574081 -7.27106,-18.877465 -7.97002,-19.303239 3.82953,6.866274 10.52173,4.163643 10.62668,4.136407"
       id="path25" />
    <path
       style="fill:none;stroke:#000000;stroke-width:1.5875;stroke-linecap:round;stroke-linejoin:round"
       d="m 208.9029,-72.273444 c 0.96982,7.189315 -0.63114,-8.363566 0.47369,3.789473 2.30003,25.300382 -6.28402,-0.947368 6.63157,-0.947368"
       id="path26" />
    <path
       style="fill:none;stroke:#000000;stroke-width:1.5875;stroke-linecap:round;stroke-linejoin:round"
       d="m 219.79764,-74.641864 c 0.67319,0.435604 3.003,-2.402401 4.73684,-3.789474"
       id="path28" />
    <path
       style="fill:none;stroke:#000000;stroke-width:1.5875;stroke-linecap:round;stroke-linejoin:round"
       d="m 219.93356,-62.814815 c 2.5487,1.425175 4.15945,0.465982 5.66819,-1.110514 2.25894,-2.360395 -7.80472,-8.109378 -10.62784,0.740342 -2.10761,6.606793 9.06458,9.189682 10.98209,5.182397"
       id="path29" />
    <path
       style="fill:none;stroke:#000000;stroke-width:1.5875;stroke-linecap:round;stroke-linejoin:round"
       d="m 234.00816,-69.431339 c -7.4563,-1.5422 9.64204,1.833669 -4.26315,-0.947369 -2.65047,-0.530092 -3.20756,3.058582 -2.36843,4.736842 2.02573,4.051457 9.13266,3.44845 11.84211,6.157895 1.66223,1.662227 -2.87729,2.622857 -3.31579,2.842106 -2.06856,1.03428 -5.9385,0.410111 -7.57895,0"
       id="path30" />
    <path
       style="fill:none;stroke:#000000;stroke-width:1.5875;stroke-linecap:round;stroke-linejoin:round"
       d="m 245.1312,-56.341443 c -4.73596,-0.84227 5.62311,3.686918 -3.23624,-0.576859 -0.44881,-0.216 -1.70145,-4.150625 -1.79791,-4.614868 -2.89481,-13.931979 23.6896,-3.35911 5.03415,5.191727 z"
       id="path32" />
    <path
       style="fill:none;stroke:#000000;stroke-width:1.5875;stroke-linecap:round;stroke-linejoin:round"
       d="m 256.27132,-69.013137 c -10.9936,19.571732 10.85259,13.568265 8.05263,2.368421"
       id="path33" />
    <path
       style="fill:none;stroke:#000000;stroke-width:1.5875;stroke-linecap:round;stroke-linejoin:round"
       d="m 270.90314,-56.75385 c -18.46224,-22.617995 21.0165,-3.518166 0,0 z"
       id="path34" />
    <path
       style="fill:none;stroke:#000000;stroke-width:1.5875;stroke-linecap:round;stroke-linejoin:round"
       d="m 277.22439,-79.963451 c 0.36863,7.449652 -1.89473,14.798987 -1.89473,22.263341"
       id="path35" />
    <path
       style="fill:none;stroke:#000000;stroke-width:1.5875;stroke-linecap:round;stroke-linejoin:round"
       d="m 281.37658,-68.594937 c -1.7389,8.554331 1.98128,-8.685733 -1.42105,3.789474 -0.22263,0.816312 -1.52,7.006314 -1.42105,7.105264 1.95681,1.956812 -0.12337,-9.782684 2.8421,-10.894738 1.80464,-0.676738 3.1579,2.210527 4.73684,3.31579"
       id="path36" />
    <path
       style="fill:none;stroke:#000000;stroke-width:1.5875;stroke-linecap:round;stroke-linejoin:round"
       d="m 288.36874,-63.306033 c 1.85654,0.07917 -0.36147,1.607647 3.57936,0.399147 6.47569,-1.985846 -1.85637,-7.3024 -4.55555,-3.991465 -0.91907,1.127369 1.08671,2.575545 0.97619,3.592318 -0.14335,1.318817 -1.35072,2.086139 -1.95238,3.193172 -2.22836,4.100111 6.19658,5.076202 6.50793,4.789758"
       id="path37" />
    <path
       style="fill:none;stroke:#000000;stroke-width:1.5875;stroke-linecap:round;stroke-linejoin:round"
       d="m 307.1109,-70.980684 c 0.83167,3.835665 0.47368,7.910568 0.47368,11.842105 0,11.033392 -2.60131,-7.437632 7.57895,-9.473684"
       id="path39" />
    <path
       style="fill:none;stroke:#000000;stroke-width:1.5875;stroke-linecap:round;stroke-linejoin:round"
       d="m 317.22543,-65.824883 c 0.52012,-0.499274 2.08051,-0.998547 1.56038,-1.497821 -0.52013,-0.499273 -2.14884,1.921469 -1.56038,1.497821 3.26809,-2.352798 7.35158,-3.571081 5.46133,1.872277 -1.12319,3.234484 -11.51713,1.479944 -8.5821,7.114651 2.49601,4.791873 11.37564,-2.935309 8.5821,-5.61683 -1.45379,-1.395513 -0.0441,6.095487 1.95049,5.61683"
       id="path40" />
    <path
       style="fill:none;stroke:#000000;stroke-width:1.5875;stroke-linecap:round;stroke-linejoin:round"
       d="m 326.1347,-66.268098 c 0.49949,3.184025 0,-2.077818 0,5.320761 0,3.24708 0.34685,6.904241 0,10.109446 -0.004,0.03874 -0.7314,5.320761 -0.40305,5.320761 0.90636,0 0.36873,-20.696602 0.40305,-20.750968 2.53376,-4.013937 21.41277,7.981141 0.80609,7.981141"
       id="path41" />
    <path
       style="fill:none;stroke:#000000;stroke-width:1.5875;stroke-linecap:round;stroke-linejoin:round"
       d="m 340.26879,-68.138579 c 0.0577,3.643098 -2.23667,10.631235 -2.36842,10.894737"
       id="path42" />
    <path
       style="fill:none;stroke:#000000;stroke-width:1.5875;stroke-linecap:round;stroke-linejoin:round"
       d="m 342.63722,-81.401737 c 0.29619,0.462889 -2.3333,4.277705 -2.84211,5.210527"
       id="path43" />
    <path
       style="fill:none;stroke:#000000;stroke-width:1.58751;stroke-linecap:round;stroke-linejoin:round"
       d="m 346.53649,-54.540742 c -0.84322,-0.461449 -2.10807,-2.307249 -2.52969,-1.384349 -0.42161,0.9229 2.99743,2.280232 2.52969,1.384349 -15.84649,-30.351462 20.92307,0 0,0 z"
       id="path44" />
    <path
       style="fill:none;stroke:#000000;stroke-width:1.58751;stroke-linecap:round;stroke-linejoin:round"
       d="m 352.30477,-86.008117 c 0.012,-2.166636 -0.72218,33.903724 -0.43459,28.195382"
       id="path45" />
    <path
       style="fill:none;stroke:#000000;stroke-width:1.5875;stroke-linecap:round;stroke-linejoin:round"
       d="m 359.22959,-59.830557 c 0.17345,0.668876 4.23614,1.408795 4.70139,-1.531808 0.67697,-4.278743 -5.6535,-4.856439 -7.63128,-1.968164 -5.06778,7.400789 2.8172,12.916138 6.98598,8.688966"
       id="path46" />
    <path
       style="fill:none;stroke:#000000;stroke-width:1.5875;stroke-linecap:round;stroke-linejoin:round"
       d="m 366.48561,-55.088774 c -0.80007,-4.861753 0.73834,-11.631836 4.49859,-11.631836 2.63279,0 1.00106,14.573507 2.86272,11.631836 1.98219,-3.132145 1.25178,-8.420448 4.49857,-10.985624 2.63207,-2.079517 3.81046,9.850524 2.0448,13.570477"
       id="path47" />
    <path
       style="fill:none;stroke:#000000;stroke-width:1.5875;stroke-linecap:round;stroke-linejoin:round"
       d="m 382.7359,-58.098446 c 9.83609,-2.979342 -9.52204,3.525086 4.48479,-0.825227 3.69053,-1.146219 3.01037,-6.748772 -0.21983,-6.419534 -8.38205,0.854342 -3.76857,17.292655 4.56617,11.314144"
       id="path48" />
    <path
       style="fill:none;stroke:#000000;stroke-width:1.5875;stroke-linecap:round;stroke-linejoin:round"
       d="m 392.71268,-52.086632 c 0.3614,-19.741981 13.60164,-15.796479 8.52631,-1.348446"
       id="path49" />
    <path
       style="fill:none;stroke:#000000;stroke-width:1.5875;stroke-linecap:round;stroke-linejoin:round"
       d="m 405.92255,-77.60582 c -1.50672,7.448865 -2.92659,27.948086 11.0839,23.861618"
       id="path50" />
    <path
       style="fill:none;stroke:#000000;stroke-width:1.5875;stroke-linecap:round;stroke-linejoin:round"
       d="m 407.50597,-71.447984 c 1.7653,2.288103 6.0887,3.168226 10.5561,1.53946"
       id="path51" />
    <path
       style="fill:none;stroke:#000000;stroke-width:1.5875;stroke-linecap:round;stroke-linejoin:round"
       d="m -42.67747,-20.50723 c -6.793995,1.361333 7.213935,1.493355 -4.166137,0 -3.795125,-0.498018 -1.066107,-7.981027 1.041536,-9.22562 5.305121,-3.132753 14.1175,7.370914 3.124601,9.22562 z"
       id="path52" />
    <path
       style="fill:none;stroke:#000000;stroke-width:1.5875;stroke-linecap:round;stroke-linejoin:round"
       d="m -41.296516,-49.180531 c 4.089922,7.846217 4.673692,26.013844 2.920403,27.990872"
       id="path53" />
    <path
       style="fill:none;stroke:#000000;stroke-width:1.5875;stroke-linecap:round;stroke-linejoin:round"
       d="m -31.67927,-26.60544 c -0.303739,0.310092 3.323855,1.057304 4.430378,-1.766731 0.518344,-1.322902 -0.739674,-1.887775 -1.107592,-2.826771 -3.48647,-8.898054 -12.570913,15.744959 -1.107597,9.893695"
       id="path54" />
    <path
       style="fill:none;stroke:#000000;stroke-width:1.5875;stroke-linecap:round;stroke-linejoin:round"
       d="m -18.062381,-32.717056 c -0.408699,-0.458644 -0.817406,-1.834573 -1.226113,-1.37593 -0.408707,0.458643 1.786853,1.533242 1.226113,1.37593 -3.346808,-0.938936 -5.45315,-2.552356 -7.356704,1.719911 -1.312226,2.945117 6.482203,4.572961 7.356704,6.535666 2.230751,5.006625 -6.048834,3.531563 -6.130586,3.439824"
       id="path56" />
    <path
       style="fill:none;stroke:#000000;stroke-width:1.58749;stroke-linecap:round;stroke-linejoin:round"
       d="m -8.7691402,-9.6829093 c 1.217027,-7.9035427 0.292296,-16.1290697 0,-24.1801857 13.2367601,-2.426678 11.5832084,17.478815 2.1902283,11.378912"
       id="path57" />
    <path
       style="fill:none;stroke:#000000;stroke-width:1.58749;stroke-linecap:round;stroke-linejoin:round"
       d="m 3.2515131,-32.595126 c -0.3392982,0.720394 -1.6964807,1.800984 -1.0178948,2.161181 0.6785966,0.360195 1.0178948,-2.966605 1.0178948,-2.161181 0,2.237996 -1.0178948,4.646077 -1.0178948,7.023837 0,16.9658706 0.7620485,-6.903124 1.0178948,-7.023837 2.0799068,-0.981342 4.2865005,1.792008 6.1073588,3.24177"
       id="path58" />
    <path
       style="fill:none;stroke:#000000;stroke-width:1.5875;stroke-linecap:round;stroke-linejoin:round"
       d="m 15.873254,-19.018714 c -5.160331,-2.674263 6.369022,5.397947 -3.143573,-2.833561 -1.079579,-0.934195 -2.8401554,-3.012859 -2.357671,-5.100405 2.941278,-12.725854 18.292487,2.663193 5.501244,7.933966 z"
       id="path59" />
    <path
       style="fill:none;stroke:#000000;stroke-width:1.5875;stroke-linecap:round;stroke-linejoin:round"
       d="m 25.99779,-47.550099 c -2.463331,11.591221 2.495858,-13.365299 -1.178835,6.035013 -9.11669,39.4853947 10.069197,15.034256 4.71535,9.009298 -1.315775,-1.480709 -4.136507,0.531019 -5.664003,1.997262"
       id="path60" />
    <path
       style="fill:none;stroke:#000000;stroke-width:1.58749;stroke-linecap:round;stroke-linejoin:round"
       d="M 34.182348,-47.045411 C 33.69871,-41.373663 32.21762,-12.654799 32.21762,-19.72175"
       id="path61" />
    <path
       style="fill:none;stroke:#000000;stroke-width:1.5875;stroke-linecap:round;stroke-linejoin:round"
       d="m 41.362178,-25.828357 c -0.175874,0.209442 3.803954,2.618193 4.715351,-0.43943 1.590542,-5.336057 -8.094119,-5.186508 -9.823645,-1.318279 -2.719505,6.08238 7.720372,13.36311 9.037751,7.470262"
       id="path62" />
    <path
       style="fill:none;stroke:#000000;stroke-width:1.5875;stroke-linecap:round;stroke-linejoin:round"
       d="m 39.790391,-36.374611 c 1.77073,-1.038234 3.694545,-1.93443 5.108302,-3.515419"
       id="path63" />
    <path
       style="fill:none;stroke:#000000;stroke-width:1.5875;stroke-linecap:round;stroke-linejoin:round"
       d="m 50.399936,-20.99466 c -2.928319,1.15585 0.07019,-13.582991 4.715351,-10.985679 2.250767,1.258506 2.948172,4.828867 2.357672,7.470262 -0.231271,1.034521 -1.739456,3.07599 -0.785894,3.07599 3.02396,0 0.612367,-7.276206 2.750622,-9.667398 0.949797,-1.062142 3.588454,7.66094 0.785894,9.227972"
       id="path64" />
    <path
       style="fill:none;stroke:#000000;stroke-width:1.5875;stroke-linecap:round;stroke-linejoin:round"
       d="m 64.545989,-29.343776 c -0.372337,-0.142208 5.44792,-4.074073 6.680071,-1.318282 2.564338,5.735329 -4.910793,5.052265 -7.073014,7.470263 -8.002087,8.948643 12.810269,2.461046 7.073014,-3.954845 -1.376858,-1.539738 0.07565,5.623856 1.964729,6.15198"
       id="path65" />
    <path
       style="fill:none;stroke:#000000;stroke-width:1.58749;stroke-linecap:round;stroke-linejoin:round"
       d="m 78.73154,-40.315249 c -5.454162,5.09974 -2.714844,20.455582 4.715345,20.455582"
       id="path66" />
    <path
       style="fill:none;stroke:#000000;stroke-width:1.58749;stroke-linecap:round;stroke-linejoin:round"
       d="m 77.552704,-34.376532 c 0.01319,0.02008 4.302228,-0.651389 5.894181,-1.319715"
       id="path67" />
    <path
       style="fill:none;stroke:#000000;stroke-width:1.5875;stroke-linecap:round;stroke-linejoin:round"
       d="m 88.459854,-30.844074 c -0.767584,3.704589 -1.229886,7.584415 -2.750621,10.98568"
       id="path68" />
    <path
       style="fill:none;stroke:#000000;stroke-width:1.5875;stroke-linecap:round;stroke-linejoin:round"
       d="m 89.63869,-41.390327 c -0.344289,1.625094 -0.510963,3.339933 -1.178836,4.833698"
       id="path69" />
    <path
       style="fill:none;stroke:#000000;stroke-width:1.58751;stroke-linecap:round;stroke-linejoin:round"
       d="m 93.030819,-18.978248 c -8.933382,-30.651241 26.243931,-8.225434 0,0 z"
       id="path70" />
    <path
       style="fill:none;stroke:#000000;stroke-width:1.5875;stroke-linecap:round;stroke-linejoin:round"
       d="m 97.497594,-26.010375 c 2.628266,3.166724 5.371106,11.441845 5.529196,12.077782"
       id="path71" />
    <path
       style="fill:none;stroke:#000000;stroke-width:1.5875;stroke-linecap:round;stroke-linejoin:round"
       d="m 105.9583,-30.01669 c -7.719873,7.489444 4.71534,18.660248 4.71534,0.439427"
       id="path72" />
    <path
       style="fill:none;stroke:#000000;stroke-width:1.5875;stroke-linecap:round;stroke-linejoin:round"
       d="m 118.65683,-26.190765 c 0.0782,0.41251 3.88944,0.555283 3.74881,-3.317119 -0.13044,-3.592045 -6.77816,-1.338081 -8.28107,-0.41066 -7.46688,4.607723 5.54207,13.884928 10.85604,8.357595"
       id="path73" />
    <path
       style="fill:none;stroke:#000000;stroke-width:1.5875;stroke-linecap:round;stroke-linejoin:round"
       d="m 133.2804,-31.466242 c 1.1499,1.049539 -4.57653,-1.974911 -6.28714,-0.368917 -7.08595,6.652618 3.28888,5.670166 7.85893,9.960727 1.43829,1.350338 -5.27823,3.372581 -10.2166,2.213494"
       id="path75" />
    <path
       style="fill:none;stroke:#000000;stroke-width:1.5875;stroke-linecap:round;stroke-linejoin:round"
       d="m 144.85665,-49.959726 c 2.80682,8.505945 0.71565,20.345869 1.96474,30.187985"
       id="path76" />
    <path
       style="fill:none;stroke:#000000;stroke-width:1.5875;stroke-linecap:round;stroke-linejoin:round"
       d="m 158.50092,-21.810497 c -6.20357,2.668457 7.1989,-0.1742 -3.90073,1.061684 -6.76062,0.752761 -6.51153,-11.497399 -0.86683,-13.801918 7.32882,-2.992097 10.40029,7.812429 4.76756,12.740234 z"
       id="path77" />
    <path
       style="fill:none;stroke:#000000;stroke-width:1.5875;stroke-linecap:round;stroke-linejoin:round"
       d="m 164.06933,-33.16393 c -0.81994,20.515908 12.27926,15.298974 9.30903,0"
       id="path78" />
    <path
       style="fill:none;stroke:#000000;stroke-width:1.5875;stroke-linecap:round;stroke-linejoin:round"
       d="m 178.48725,-32.875541 c 1.76624,6.911386 -1.24855,-8.558203 0.78589,3.954847 3.366,20.7028992 -1.78904,-3.057398 -0.78589,-3.954847 1.52048,-1.360283 3.75962,1.22332 5.50124,2.197138"
       id="path79" />
    <path
       style="fill:none;stroke:#000000;stroke-width:1.5875;stroke-linecap:round;stroke-linejoin:round"
       d="m 189.67727,-20.004833 c 0.90803,3.488567 -0.13131,0.613208 -3.14356,-0.669107 -1.68052,-0.715397 1.42893,-13.503785 3.14356,-12.043944 3.34134,2.844817 7.07155,16.153456 0,12.713051 z"
       id="path80" />
    <path
       style="fill:none;stroke:#000000;stroke-width:1.5875;stroke-linecap:round;stroke-linejoin:round"
       d="m 193.21379,-46.769868 c 0.67827,7.705392 1.17883,15.490911 1.17883,23.27671"
       id="path81" />
    <path
       style="fill:none;stroke:#000000;stroke-width:1.5875;stroke-linecap:round;stroke-linejoin:round"
       d="m 200.02603,-25.62175 c -0.67761,0.570589 4.53971,1.470034 5.45544,-1.449369 0.47825,-1.524685 -0.31774,-2.882283 -1.36386,-3.623418 -9.23448,-6.54229 -9.51767,16.108617 1.70483,10.145578"
       id="path83" />
    <path
       style="fill:none;stroke:#000000;stroke-width:1.5875;stroke-linecap:round;stroke-linejoin:round"
       d="m 216.45465,-33.024453 c 0.71426,0.418854 -3.47209,-1.235021 -5.79642,0 -11.06934,5.881663 6.10573,7.937894 6.81931,8.696211 4.93998,5.249679 -6.92832,5.435133 -7.50124,5.435133"
       id="path84" />
    <path
       style="fill:none;stroke:#000000;stroke-width:1.5875;stroke-linecap:round;stroke-linejoin:round"
       d="m 225.61156,-21.240809 c -0.66221,0.270801 -4.97084,7.316555 -5.50124,7.909692"
       id="path85" />
    <path
       style="fill:none;stroke:#000000;stroke-width:1.5875;stroke-linecap:round;stroke-linejoin:round"
       d="m 237.27991,-31.090224 c 0.71848,1.167493 0.62314,2.711956 1.17884,3.954843 2.12177,4.745502 7.89054,-4.833699 7.46598,-4.833699 -3.39702,0 -12.93089,16.096307 -12.18133,12.743391"
       id="path86" />
    <path
       style="fill:none;stroke:#000000;stroke-width:1.5875;stroke-linecap:round;stroke-linejoin:round"
       d="m 265.59995,-31.667505 c -12.59122,-6.596328 -15.68397,16.858858 -1.57178,10.546253"
       id="path87" />
    <path
       style="fill:none;stroke:#000000;stroke-width:1.5875;stroke-linecap:round;stroke-linejoin:round"
       d="m 270.30321,-19.246254 c -0.71733,-0.607565 -1.72158,-2.835303 -2.15198,-1.822697 -0.43038,1.01261 2.74351,2.657717 2.15198,1.822697 -16.62894,-23.474202 26.51043,-10.692394 0,0 z"
       id="path88" />
    <path
       style="fill:none;stroke:#000000;stroke-width:1.5875;stroke-linecap:round;stroke-linejoin:round"
       d="m 282.37335,-21.643901 c -0.83468,-12.543357 5.8942,-13.676153 5.8942,1.195596 0,4.103133 1.5171,-8.925375 3.92945,-10.760354 2.27472,-1.730287 3.0977,8.262919 1.57178,11.358151"
       id="path89" />
    <path
       style="fill:none;stroke:#000000;stroke-width:1.58749;stroke-linecap:round;stroke-linejoin:round"
       d="m 295.88892,-5.1826709 c 0.62933,-3.3339759 3.11323,-16.6390371 1.57843,-23.6921171 15.74129,-6.937054 8.70143,11.68514 0.52615,6.271441"
       id="path90" />
    <path
       style="fill:none;stroke:#000000;stroke-width:1.5875;stroke-linecap:round;stroke-linejoin:round"
       d="m 309.5312,-30.238163 c 0.78792,8.056356 0,-10.216499 0,4.69611 0,14.941555 -0.81674,-3.909372 0,-4.69611 2.29819,-2.21377 6.56341,-0.613988 9.75045,0"
       id="path91" />
    <path
       style="fill:none;stroke:#000000;stroke-width:1.5875;stroke-linecap:round;stroke-linejoin:round"
       d="m 321.38191,-32.320187 c 1.71086,0.60061 1.35336,12.784778 1.17885,14.38156"
       id="path92" />
    <path
       style="fill:none;stroke:#000000;stroke-width:1.5875;stroke-linecap:round;stroke-linejoin:round"
       d="m 322.16781,-41.698937 c 0.43174,-0.07104 0.34769,4.59668 0,6.151982"
       id="path93" />
    <path
       style="fill:none;stroke:#000000;stroke-width:1.5875;stroke-linecap:round;stroke-linejoin:round"
       d="m 333.17029,-30.637863 c 2.31126,-4.658913 -8.64103,-1.31406 -5.50124,2.197138 1.34115,1.499789 12.66951,11.232019 0.78589,7.909689"
       id="path94" />
    <path
       style="fill:none;stroke:#000000;stroke-width:1.5875;stroke-linecap:round;stroke-linejoin:round"
       d="m 345.62294,-48.461642 c 1.16491,5.017078 1.16067,10.479662 1.55233,15.791984 0.08,1.086498 -0.705,14.037319 0.38806,14.037319 1.57373,0 -0.27849,-4.768549 -0.77615,-7.01866 -0.83398,-3.770777 0.77808,-9.358212 3.49271,-9.358212 5.80726,0 5.30082,13.851101 4.65694,15.791985"
       id="path165" />
    <path
       style="fill:none;stroke:#000000;stroke-width:1.5875;stroke-linecap:round;stroke-linejoin:round"
       d="m 359.04131,-19.631703 c -12.54936,-13.62559 18.99229,-15.177526 0,0 z"
       id="path96" />
    <path
       style="fill:none;stroke:#000000;stroke-width:1.5875;stroke-linecap:round;stroke-linejoin:round"
       d="m 366.54417,-30.466854 c 0.33782,7.464717 0.53168,-9.508311 0.53168,4.327449 0,14.891996 -2.38227,-2.374878 -0.53168,-4.327449 1.53878,-1.623552 4.79691,0.486185 6.91174,1.442483"
       id="path97" />
    <path
       style="fill:none;stroke:#000000;stroke-width:1.58749;stroke-linecap:round;stroke-linejoin:round"
       d="m 382.07044,-31.760954 c -20.86063,-4.639709 13.94126,17.1727 -8.7984,12.287105"
       id="path98" />
    <path
       style="fill:none;stroke:#000000;stroke-width:1.5875;stroke-linecap:round;stroke-linejoin:round"
       d="m 396.56788,-20.21613 c -6.94648,-3.613473 9.13517,7.57994 -5.31279,-3.348962 -6.03357,-4.564007 15.91202,-9.972386 11.80617,1.674482 -0.91977,2.609044 -4.12388,1.67448 -6.49338,1.67448 z"
       id="path99" />
    <path
       style="fill:none;stroke:#000000;stroke-width:1.5875;stroke-linecap:round;stroke-linejoin:round"
       d="m 404.07856,-43.837429 c 0.25472,7.575354 0.0432,15.275017 -0.89961,22.713715"
       id="path100" />
    <path
       style="fill:none;stroke:#000000;stroke-width:1.5875;stroke-linecap:round;stroke-linejoin:round"
       d="m 408.73097,-31.754248 c -6.31597,23.1076416 8.21476,8.265626 9.44595,0"
       id="path101" />
    <path
       style="fill:none;stroke:#000000;stroke-width:1.58751;stroke-linecap:round;stroke-linejoin:round"
       d="m -48.107489,33.636627 c 0.734429,-2.63446 1.362205,-21.909942 -1.529191,-29.483662 14.485202,-2.4192092 12.246608,9.457517 4.205282,12.341996"
       id="path102" />
    <path
       style="fill:none;stroke:#000000;stroke-width:1.5875;stroke-linecap:round;stroke-linejoin:round"
       d="m -37.197767,9.4525836 c 6.45883,-0.470627 -6.399637,0.5132167 2.88391,0.5132167 2.303472,0 3.317106,-6.1585691 0.720979,-6.1585691 -6.177712,0 -0.883764,17.9293498 3.965377,8.7246378"
       id="path103" />
    <path
       style="fill:none;stroke:#000000;stroke-width:1.5875;stroke-linecap:round;stroke-linejoin:round"
       d="m -38.104298,-3.4012703 c 0.392525,0.6329782 4.273472,-0.9704827 7.209779,-4.1057149"
       id="path104" />
    <path
       style="fill:none;stroke:#000000;stroke-width:1.5875;stroke-linecap:round;stroke-linejoin:round"
       d="m -28.535419,2.2584784 c -0.634344,1.2830746 0.512741,12.7289276 1.441956,12.7289276 0.284208,0 -1.942702,-11.9601696 -1.441956,-12.7289276 1.133617,-1.74035307 3.252436,0.5595987 4.686358,1.6602951"
       id="path105" />
    <path
       style="fill:none;stroke:#000000;stroke-width:1.5875;stroke-linecap:round;stroke-linejoin:round"
       d="m -20.576225,1.3996453 c 0.527515,4.1843116 1.058466,8.433131 1.058466,12.7142377"
       id="path106" />
    <path
       style="fill:none;stroke:#000000;stroke-width:1.5875;stroke-linecap:round;stroke-linejoin:round"
       d="m -20.929044,-10.086388 c 0.169728,1.7838345 0.470427,3.5397361 0.705643,5.3096049"
       id="path107" />
    <path
       style="fill:none;stroke:#000000;stroke-width:1.5875;stroke-linecap:round;stroke-linejoin:round"
       d="m -16.89148,13.47849 c 0.357858,-7.6300425 0.471959,11.402706 -0.352821,-5.2121068 -0.164664,-3.317061 2.645689,-8.76644571 5.292319,-5.2121065 1.816261,2.4391788 -0.45165,9.9503823 2.1169302,9.9503823 0.2330831,0 -0.4597172,-6.2029199 -0.3528212,-6.6335869 0.3670261,-1.4787126 2.1039873,-4.273139 3.5282132,-3.3167954 3.3958817,2.2802795 1.5347854,10.2583543 0.3528206,11.8456943"
       id="path108" />
    <path
       style="fill:none;stroke:#000000;stroke-width:1.5875;stroke-linecap:round;stroke-linejoin:round"
       d="M 1.1024111,8.2036012 C 2.8992337,8.8671439 6.3555845,9.6653313 7.4531942,6.8425428 8.6327612,3.808978 0.3183699,2.4569003 -1.0145176,5.0278003 -4.8976266,12.517616 2.8497173,18.422333 6.0419087,16.369945"
       id="path109" />
    <path
       style="fill:none;stroke:#000000;stroke-width:1.5875;stroke-linecap:round;stroke-linejoin:round"
       d="M 0.58514148,-5.4210165 C -1.0547681,-3.2479776 7.445841,-1.3644038 6.3631679,0.90224613"
       id="path110" />
    <path
       style="fill:none;stroke:#000000;stroke-width:1.5875;stroke-linecap:round;stroke-linejoin:round"
       d="m 11.013284,14.7178 c 1.11645,-3.551992 1.095252,-14.67170944 -0.495382,-22.0648269 4.774692,7.33948486 8.225961,3.6539549 10.403016,1.5760598"
       id="path111" />
    <path
       style="fill:none;stroke:#000000;stroke-width:1.58751;stroke-linecap:round;stroke-linejoin:round"
       d="M 14.238268,3.3754446 C 19.015372,35.779428 8.0621003,-10.259789 22.377912,7.0705608"
       id="path112" />
    <path
       style="fill:none;stroke:#000000;stroke-width:1.5875;stroke-linecap:round;stroke-linejoin:round"
       d="m 28.196216,9.9269613 c -0.0455,-0.425158 3.320603,0.4290167 4.939499,-2.9163595 C 34.875814,3.4147591 25.039587,2.2133509 23.609536,6.6460571 21.908767,11.917904 29.0605,19.241217 33.135715,15.030592"
       id="path115" />
    <path
       style="fill:none;stroke:#000000;stroke-width:1.58749;stroke-linecap:round;stroke-linejoin:round"
       d="m 42.863764,-1.5763665 c 1.349687,5.578846 0.908351,11.7015845 0.908351,17.6346535"
       id="path116" />
    <path
       style="fill:none;stroke:#000000;stroke-width:1.5875;stroke-linecap:round;stroke-linejoin:round"
       d="m 42.40959,-10.920864 c -0.03256,0.9745859 -0.01202,1.9684858 -0.454173,2.9141247"
       id="path117" />
    <path
       style="fill:none;stroke:#000000;stroke-width:1.5875;stroke-linecap:round;stroke-linejoin:round"
       d="M 46.994702,14.949932 C 46.330784,-7.0736451 59.840761,3.8208829 52.633461,16.156286"
       id="path118" />
    <path
       style="fill:none;stroke:#000000;stroke-width:1.58749;stroke-linecap:round;stroke-linejoin:round"
       d="M 57.17695,-0.51062101 C 58.317201,5.3468004 57.544703,12.397384 56.268602,16.570747"
       id="path119" />
    <path
       style="fill:none;stroke:#000000;stroke-width:1.5875;stroke-linecap:round;stroke-linejoin:round"
       d="m 58.085302,-10.466515 c 0.153831,0.5074471 -0.06673,0.270426 -0.454171,1.8410925"
       id="path120" />
    <path
       style="fill:none;stroke:#000000;stroke-width:1.5875;stroke-linecap:round;stroke-linejoin:round"
       d="M 72.201241,15.956473 C 63.202235,19.257032 59.0187,5.3678525 64.201948,-6.7812195 c 3.7134,6.93515366 6.406021,3.8849965 6.99938,3.667371"
       id="path121" />
    <path
       style="fill:none;stroke:#000000;stroke-width:1.5875;stroke-linecap:round;stroke-linejoin:round"
       d="M 75.672696,0.25004116 C 75.240106,5.4930416 74.496905,10.716473 74.496905,16.001943"
       id="path122" />
    <path
       style="fill:none;stroke:#000000;stroke-width:1.5875;stroke-linecap:round;stroke-linejoin:round"
       d="m 74.956078,-9.9292464 c 0.256322,0.4544813 0.249636,1.1638914 0.391933,1.8273515"
       id="path123" />
    <path
       style="fill:none;stroke:#000000;stroke-width:1.58751;stroke-linecap:round;stroke-linejoin:round"
       d="m 80.584106,5.3728234 c 9.856987,0 -11.596479,0 5.218408,0 11.882329,0 -13.415574,9.3888286 -7.175307,10.9804096 6.121655,1.561331 14.62255,-8.6512305 9.784512,-8.6512305 -4.768702,0 1.244384,7.2447645 5.870701,6.6547925"
       id="path124" />
    <path
       style="fill:none;stroke:#000000;stroke-width:1.5875;stroke-linecap:round;stroke-linejoin:round"
       d="m 96.551548,-11.026013 c -0.92049,1.6013446 -0.05337,20.7846853 -0.783857,26.62228"
       id="path125" />
    <path
       style="fill:none;stroke:#000000;stroke-width:1.5875;stroke-linecap:round;stroke-linejoin:round"
       d="m 103.27972,11.708065 c -0.083,0.439054 4.08772,0.06786 4.74826,-2.6754714 1.64772,-6.8432922 -19.717386,3.8058704 -4.3314,6.1317364 2.39975,0.362764 6.25264,0.214871 7.32177,-0.02427"
       id="path126" />
    <path
       style="fill:none;stroke:#000000;stroke-width:1.5875;stroke-linecap:round;stroke-linejoin:round"
       d="m 111.78107,14.741986 c -0.70818,-1.958757 -1.43693,-9.0860269 2.35157,-9.0860269 3.08774,0 3.11337,9.8761169 3.13544,9.8761169 0.17417,0 1.16644,-7.6986595 3.91929,-9.0860289 2.84309,-1.4328497 2.98927,6.6153729 1.56772,9.4810739"
       id="path127" />
    <path
       style="fill:none;stroke:#000000;stroke-width:1.5875;stroke-linecap:round;stroke-linejoin:round"
       d="m 129.98088,11.117691 c 0.36909,0.200835 1.8918,1.57961 5.09507,0.310547 3.84624,-1.5237827 -1.94718,-6.526405 -5.87893,-4.9687409 -6.68931,2.6501555 -3.08978,11.6273989 3.52736,9.0058459"
       id="path132" />
    <path
       style="fill:none;stroke:#000000;stroke-width:1.5875;stroke-linecap:round;stroke-linejoin:round"
       d="m 138.82875,15.106395 c -1.25411,-2.486745 0.29784,-4.735056 1.2387,-7.1017778 3.33494,-8.38916661 10.54999,4.6435538 7.3043,7.6198968"
       id="path134" />
    <path
       style="fill:none;stroke:#000000;stroke-width:1.58751;stroke-linecap:round;stroke-linejoin:round"
       d="m 151.82903,-8.9603385 c -3.74571,19.8316215 -0.87291,28.7607575 9.01436,23.4735025"
       id="path135" />
    <path
       style="fill:none;stroke:#000000;stroke-width:1.58751;stroke-linecap:round;stroke-linejoin:round"
       d="m 151.43711,-1.41528 c 2.08366,-0.6624717 4.2272,-0.5838315 6.27087,-1.6766819"
       id="path136" />
    <path
       style="fill:none;stroke:#000000;stroke-width:1.5875;stroke-linecap:round;stroke-linejoin:round"
       d="m 172.94378,1.9650859 c 0.3039,-0.167501 3.24626,-3.4680844 7.11473,-0.2295324 1.23937,1.037562 1.20805,3.8252281 0.18973,4.9012386 -1.26845,1.3402821 -10.0927,4.6132949 -9.41042,7.1738889 0.60514,2.271017 5.06828,2.452024 6.45586,1.486992 3.14083,-2.184385 2.64784,-9.4788415 3.08219,-9.3787977 1.60728,0.3702056 -0.40811,8.9957267 5.45548,9.1033597"
       id="path138" />
    <path
       style="fill:none;stroke:#000000;stroke-width:1.5875;stroke-linecap:round;stroke-linejoin:round"
       d="m 186.74455,-0.05034194 c 4.32822,-2.30958956 -4.22014,1.32058094 -1.92156,3.93690074 4.53041,5.1566478 13.19105,9.5076972 -0.76861,12.6855612"
       id="path139" />
    <path
       style="fill:none;stroke:#000000;stroke-width:1.5875;stroke-linecap:round;stroke-linejoin:round"
       d="m 195.36985,-0.23153591 c -0.6405,-0.1458069 -1.79344,-1.16648149 -1.92154,-0.43742947 -0.12811,0.72905204 2.46504,0.025026 1.92154,0.43742947 -2.83084,2.14811171 -2.75899,-1.07725579 -3.45878,1.31230651 -0.39685,1.3551558 0.73966,4.3413622 1.53724,5.2491985 2.69576,3.0683945 11.38222,3.5831642 3.84309,7.8737909 -1.63912,0.932853 -4.06293,0.812312 -5.38033,0.437439"
       id="path140" />
    <path
       style="fill:none;stroke:#000000;stroke-width:1.5875;stroke-linecap:round;stroke-linejoin:round"
       d="m 201.4915,0.28088846 c 2.05089,4.21024394 1.92154,9.35657784 1.92154,14.28531754"
       id="path141" />
    <path
       style="fill:none;stroke:#000000;stroke-width:1.5875;stroke-linecap:round;stroke-linejoin:round"
       d="m 200.78883,-10.729933 c 0.35697,0.7764905 1.15292,1.8487318 1.15292,6.1240662"
       id="path142" />
    <path
       style="fill:none;stroke:#000000;stroke-width:1.5875;stroke-linecap:round;stroke-linejoin:round"
       d="m 210.14412,13.103745 c -4.69633,-2.440419 5.63949,4.755789 -3.07447,-2.187165 -4.01031,-3.1952625 3.98086,-6.9989334 6.14896,-6.9989334 5.21702,0 4.69425,10.2914284 -3.07449,9.1860984 z"
       id="path143" />
    <path
       style="fill:none;stroke:#000000;stroke-width:1.5875;stroke-linecap:round;stroke-linejoin:round"
       d="m 217.0617,10.24571 c 5.12772,9.052644 -1.73894,30.573535 -9.60774,20.222211"
       id="path144" />
    <path
       style="fill:none;stroke:#000000;stroke-width:1.5875;stroke-linecap:round;stroke-linejoin:round"
       d="M 220.61154,12.759743 C 218.169,-6.6021704 233.1516,-0.66319748 226.48019,17.146378"
       id="path146" />
    <path
       style="fill:none;stroke:#000000;stroke-width:1.5875;stroke-linecap:round;stroke-linejoin:round"
       d="m 233.22533,9.7543813 c 0.0652,-0.117346 3.10592,0.4016437 4.99603,-1.7497361 2.89942,-3.3002235 -5.20036,-4.588427 -6.91759,-3.9369008 -9.07432,3.4429001 3.09978,12.0222236 6.91759,10.9358356"
       id="path147" />
    <path
       style="fill:none;stroke:#000000;stroke-width:1.5875;stroke-linecap:round;stroke-linejoin:round"
       d="m 228.99792,-1.950176 c 2.81704,-0.6748535 5.2777,-2.704752 8.07051,-3.4994629"
       id="path148" />
    <path
       style="fill:none;stroke:#000000;stroke-width:1.5875;stroke-linecap:round;stroke-linejoin:round"
       d="m 243.32194,13.691283 c 0.6606,2.790412 -0.53822,5.336964 -1.92154,7.436363"
       id="path149" />
    <path
       style="fill:none;stroke:#000000;stroke-width:1.5875;stroke-linecap:round;stroke-linejoin:round"
       d="m 255.10219,3.3172988 c 0.37297,-0.5193945 1.49193,-1.0387659 1.11895,-1.5581607 -0.37299,-0.5193828 -1.57127,1.9360667 -1.11895,1.5581607 1.86515,-1.5583584 4.85796,-5.5579108 6.434,-1.1686235 1.52736,4.2537588 -7.93275,9.2096367 -6.15428,11.6861887 4.27901,5.958533 7.01931,-8.9594164 6.15428,-8.9594164 -1.01219,0 0.18451,8.6361664 3.63661,6.2326314"
       id="path150" />
    <path
       style="fill:none;stroke:#000000;stroke-width:1.58751;stroke-linecap:round;stroke-linejoin:round"
       d="m 265.94898,13.947905 c 1.95471,-5.5479128 -6.84274,-23.8998598 6.89944,-20.6816311"
       id="path151" />
    <path
       style="fill:none;stroke:#000000;stroke-width:1.58751;stroke-linecap:round;stroke-linejoin:round"
       d="m 266.63891,2.3144909 c 2.28223,-0.3423027 4.59963,-0.4308635 6.89944,-0.646309"
       id="path152" />
    <path
       style="fill:none;stroke:#000000;stroke-width:1.5875;stroke-linecap:round;stroke-linejoin:round"
       d="m 276.23927,1.9245354 c -0.32443,0.2879389 0,9.0457346 0,12.2792386"
       id="path153" />
    <path
       style="fill:none;stroke:#000000;stroke-width:1.5875;stroke-linecap:round;stroke-linejoin:round"
       d="m 276.23927,-8.3651779 c -0.12811,0.5832451 -0.89672,1.6039194 -0.3843,1.7497353 0.5124,0.1458068 0.25619,-1.1664902 0.3843,-1.7497353 z"
       id="path154" />
    <path
       style="fill:none;stroke:#000000;stroke-width:1.5875;stroke-linecap:round;stroke-linejoin:round"
       d="m 279.19031,14.590075 c -3.69296,-19.6071548 14.6523,-16.9431229 8.82241,-1.126385"
       id="path155" />
    <path
       style="fill:none;stroke:#000000;stroke-width:1.58749;stroke-linecap:round;stroke-linejoin:round"
       d="m 304.50738,13.076648 c -0.72307,0.528355 -2.60311,0.704465 -2.16925,1.585051 0.43385,0.880576 2.98733,-1.335981 2.16925,-1.585051 -1.29349,-0.393803 -2.57798,0.895132 -3.90465,1.056697 -0.48173,0.05867 -2.00571,-2.243405 -2.16925,-2.641737 -4.76757,-11.61198871 12.5496,-12.21576638 6.0739,1.58504 z"
       id="path156" />
    <path
       style="fill:none;stroke:#000000;stroke-width:1.58749;stroke-linecap:round;stroke-linejoin:round"
       d="m 306.22561,-12.102971 c 2.07397,6.8146653 -0.0486,22.573237 -0.40573,24.813723"
       id="path157" />
    <path
       style="fill:none;stroke:#000000;stroke-width:1.58749;stroke-linecap:round;stroke-linejoin:round"
       d="m 311.8389,8.0967442 c 0.0127,0.281718 3.69606,1.3145664 5.13887,-1.9202899 1.74109,-3.9036405 -7.69693,-6.98099528 -8.99304,0.7681155 -1.49249,8.9234212 8.99304,11.3508172 8.99304,5.3768122"
       id="path163" />
    <path
       style="fill:none;stroke:#000000;stroke-width:1.5875;stroke-linecap:round;stroke-linejoin:round"
       d="m 335.43142,3.0433535 c 1.6793,-4.288122 -14.82223,1.1830579 -7.85925,5.2630777 2.13849,1.2530721 6.39002,-0.7349817 7.85925,0.9868244 5.01938,5.8823024 -4.96542,6.8510254 -8.13994,5.9209584"
       id="path172" />
    <path
       style="fill:none;stroke:#000000;stroke-width:1.5875;stroke-linecap:round;stroke-linejoin:round"
       d="m 343.89315,8.5082599 c -0.0825,1.3619674 5.75945,-1.6469431 3.66263,-4.5587638 -1.25487,-1.742631 -3.84756,-1.5453786 -5.11138,-0.6681056 -12.63908,8.7732575 3.51077,16.5153515 7.63881,9.1790305"
       id="path173" />
    <path
       style="fill:none;stroke:#000000;stroke-width:1.5875;stroke-linecap:round;stroke-linejoin:round"
       d="m 338.74214,-2.7179499 c 3.10674,-2.0079302 5.6081,-5.1517024 7.95469,-6.4738292"
       id="path174" />
    <path
       style="fill:none;stroke:#000000;stroke-width:1.5875;stroke-linecap:round;stroke-linejoin:round"
       d="m 361.38742,2.715238 c -18.20682,-9.8585215 -9.71168,23.089746 1.71872,9.909316"
       id="path175" />
    <path
       style="fill:none;stroke:#000000;stroke-width:1.5875;stroke-linecap:round;stroke-linejoin:round"
       d="m 365.17017,2.4323443 c -3.07229,17.3859497 6.41271,16.4962057 9.80274,-0.6186235"
       id="path176" />
    <path
       style="fill:none;stroke:#000000;stroke-width:1.5875;stroke-linecap:round;stroke-linejoin:round"
       d="m 379.5499,0.70642723 c -1.37762,11.19170777 1.21769,-11.15428323 -1.04142,4.94898697 -0.54516,3.8859981 -4.35754,11.7538538 -1.04144,11.7538538 2.81551,0 -0.58558,-14.5893962 2.08286,-16.70284077 1.64667,-1.30418011 3.81863,1.23724697 5.72791,1.85587057"
       id="path177" />
    <path
       style="fill:none;stroke:#000000;stroke-width:1.5875;stroke-linecap:round;stroke-linejoin:round"
       d="m 388.92286,0.08780376 c 0.006,0.019023 0.0494,13.49226724 -1.04146,16.08421824"
       id="path178" />
    <path
       style="fill:none;stroke:#000000;stroke-width:1.5875;stroke-linecap:round;stroke-linejoin:round"
       d="m 389.2738,-12.160255 c 0,4.1241634 0,4.1241634 0,0 z"
       id="path179" />
    <path
       style="fill:none;stroke:#000000;stroke-width:1.5875;stroke-linecap:round;stroke-linejoin:round"
       d="m 399.71653,2.3532463 c -2.11871,-2.65566141 4.3974,2.4889101 -2.78602,-1.92655024 -2.99722,-1.84231946 -7.67233,5.12746094 -5.22374,7.38509944 3.52296,3.2482245 8.99361,1.1158874 10.79578,6.1007315 1.07461,2.972482 -8.57953,4.086846 -10.09929,1.284363"
       id="path183" />
    <path
       style="fill:none;stroke:#000000;stroke-width:1.5875;stroke-linecap:round;stroke-linejoin:round"
       d="m 409.46056,8.1413062 c -0.0931,1.5604601 5.03783,-0.02657 4.71141,-5.338248 -0.47997,-7.8103298 -9.24322,1.8322788 -10.29344,3.458663 -0.53412,0.8271526 -0.0965,2.5992617 -0.0418,3.4910341 0.68338,11.1206537 10.47421,3.0447357 11.48536,2.0378737"
       id="path185" />
    <path
       style="fill:none;stroke:#000000;stroke-width:1.5875;stroke-linecap:round;stroke-linejoin:round"
       d="m 420.45601,-2.3866872 c -1.94714,0.715029 -2.98737,19.1773332 -1.90645,19.1773332 0.26664,0 -0.94619,-9.0716615 -0.47661,-10.1213699 2.98638,-6.67569324 7.75168,-3.7188552 9.53221,-1.0654143"
       id="path186" />
    <path
       style="fill:none;stroke:#000000;stroke-width:1.5875;stroke-linecap:round;stroke-linejoin:round"
       d="m -44.938593,29.928028 c 1.03593,7.0642 0,19.426893 0,23.937458"
       id="path187" />
    <path
       style="fill:none;stroke:#000000;stroke-width:1.5875;stroke-linecap:round;stroke-linejoin:round"
       d="m -38.579052,47.399045 c -0.634539,0.27611 4.270198,2.336822 5.565076,-0.938407 1.877821,-4.749712 -7.051923,-6.092518 -9.646131,0.469198 -2.505514,6.337385 8.353663,10.76112 9.646131,4.222856"
       id="path188" />
    <path
       style="fill:none;stroke:#000000;stroke-width:1.5875;stroke-linecap:round;stroke-linejoin:round"
       d="m -26.083436,41.275132 c -0.751002,-0.487648 -1.802405,-2.275703 -2.253007,-1.462955 -0.450601,0.812749 3.083875,1.163226 2.253007,1.462955 -5.240583,1.890477 -3.256474,-2.216909 -5.407215,2.438244 -1.137555,2.462167 8.020523,4.095672 8.561424,5.851793 1.884174,6.117262 -7.159354,5.147517 -9.462627,3.901189"
       id="path189" />
    <path
       style="fill:none;stroke:#000000;stroke-width:1.5875;stroke-linecap:round;stroke-linejoin:round"
       d="m -12.836994,28.418404 c 3.0278497,7.313461 3.3704154,20.886635 3.3704154,26.617259"
       id="path190" />
    <path
       style="fill:none;stroke:#000000;stroke-width:1.5875;stroke-linecap:round;stroke-linejoin:round"
       d="m -5.6146767,40.877544 c 0.5973416,4.321863 0.8324589,8.70644 1.4444632,13.025462"
       id="path191" />
    <path
       style="fill:none;stroke:#000000;stroke-width:1.5875;stroke-linecap:round;stroke-linejoin:round"
       d="m -5.6146767,29.194153 c 0.6938626,6.53773 0,-4.954475 0,3.964268"
       id="path192" />
    <path
       style="fill:none;stroke:#000000;stroke-width:1.5875;stroke-linecap:round;stroke-linejoin:round"
       d="M -2.4225354,39.744897 C 5.9967514,62.691003 4.2105094,56.804018 7.2076722,39.178573"
       id="path193" />
    <path
       style="fill:none;stroke:#000000;stroke-width:1.5875;stroke-linecap:round;stroke-linejoin:round"
       d="m 10.573689,39.178573 c 0,9.306021 -0.352732,-0.01657 0.962977,8.494869 2.895409,18.730643 -2.1745484,-7.069825 -0.962977,-8.494869 1.403767,-1.651106 4.002219,0.654718 5.777857,1.698971"
       id="path194" />
    <path
       style="fill:none;stroke:#000000;stroke-width:1.5875;stroke-linecap:round;stroke-linejoin:round"
       d="m 19.735642,41.541314 c 6.448305,-2.785924 -7.334077,1.946935 3.214608,-1.639304 2.491292,-0.846964 2.740304,5.811497 1.607305,6.967055 -1.056243,1.077276 -6.27624,4.00049 -5.223739,6.147405 3.614004,7.371926 7.843399,-6.967057 4.821912,-6.967057 -2.600683,0 1.897055,7.200549 4.420088,6.55723"
       id="path195" />
    <path
       style="fill:none;stroke:#000000;stroke-width:1.5875;stroke-linecap:round;stroke-linejoin:round"
       d="m 29.533948,36.800722 c 1.221116,5.472887 1.675241,11.244832 2.407438,16.680281"
       id="path196" />
    <path
       style="fill:none;stroke:#000000;stroke-width:1.5875;stroke-linecap:round;stroke-linejoin:round"
       d="m 28.570969,28.981845 c 2.64632,1.260032 0.441234,3.343758 0.481485,3.648814"
       id="path197" />
    <path
       style="fill:none;stroke:#000000;stroke-width:1.5875;stroke-linecap:round;stroke-linejoin:round"
       d="M 41.689289,38.599277 C 41.032976,38.2142 40.114132,36.80226 39.720343,37.444049 c -0.393789,0.641791 2.734341,1.155228 1.968946,1.155228 -24.220778,0 15.114585,15.403044 -1.575157,15.403044 -2.073283,0 -3.615938,-0.840396 -4.725478,-1.925384"
       id="path199" />
    <path
       style="fill:none;stroke:#000000;stroke-width:1.5875;stroke-linecap:round;stroke-linejoin:round"
       d="m 52.383178,54.020581 c -5.74039,-1.313714 5.590388,2.085032 -2.654563,-0.461117 -6.826822,-2.108207 -5.154999,-15.074769 1.990918,-13.833477 5.217538,0.906323 8.697422,15.690118 0.663645,14.294594 z"
       id="path200" />
    <path
       style="fill:none;stroke:#000000;stroke-width:1.5875;stroke-linecap:round;stroke-linejoin:round"
       d="M 59.032223,54.045149 C 55.065082,49.43617 68.728217,21.981987 65.553188,53.055071"
       id="path201" />
    <path
       style="fill:none;stroke:#000000;stroke-width:1.5875;stroke-linecap:round;stroke-linejoin:round"
       d="m 74.682616,39.792683 c 2.747458,-3.443933 -7.77904,-1.833469 -6.489312,2.659688 1.332519,4.642211 6.54427,2.851165 7.634478,6.64921 2.035981,7.092897 -7.60794,5.350179 -9.16137,3.546243"
       id="path203" />
    <path
       style="fill:none;stroke:#000000;stroke-width:1.5875;stroke-linecap:round;stroke-linejoin:round"
       d="m 91.963271,46.549749 c -0.663327,0.464776 4.414552,-1.611816 4.844733,-5.264367 0.433636,-3.681971 -8.39991,1.014238 -8.984753,5.980036 -0.859896,7.301371 9.310718,8.797047 8.87562,2.1209"
       id="path204" />
    <path
       style="fill:none;stroke:#000000;stroke-width:1.5875;stroke-linecap:round;stroke-linejoin:round"
       d="m 100.79921,29.92745 c -4.396417,11.23267 -2.555931,32.431012 9.04923,19.22379"
       id="path205" />
    <path
       style="fill:none;stroke:#000000;stroke-width:1.5875;stroke-linecap:round;stroke-linejoin:round"
       d="m 100.79921,37.479655 c 1.20349,-0.07956 2.32434,-1.490233 7.84269,-2.746261"
       id="path206" />
    <path
       style="fill:none;stroke:#000000;stroke-width:1.5875;stroke-linecap:round;stroke-linejoin:round"
       d="m 119.23269,55.7202 c 0.57059,-0.760441 -3.3391,-25.913038 7.1768,-22.672026"
       id="path207" />
    <path
       style="fill:none;stroke:#000000;stroke-width:1.5875;stroke-linecap:round;stroke-linejoin:round"
       d="m 120.57834,47.978533 c 1.43354,-1.168549 5.60607,-5.307779 5.83115,-5.529765"
       id="path208" />
    <path
       style="fill:none;stroke:#000000;stroke-width:1.5875;stroke-linecap:round;stroke-linejoin:round"
       d="m 130.46905,31.997901 c -3.57108,5.714092 -2.25971,21.096628 -2.69131,23.225001"
       id="path209" />
    <path
       style="fill:none;stroke:#000000;stroke-width:1.5875;stroke-linecap:round;stroke-linejoin:round"
       d="m 132.14254,43.378084 c -7.61137,21.615 10.47101,11.993032 5.3826,-0.552975"
       id="path210" />
    <path
       style="fill:none;stroke:#000000;stroke-width:1.5875;stroke-linecap:round;stroke-linejoin:round"
       d="m 142.57991,38.080642 c 0.008,0.06067 -1.30921,13.689599 -2.24275,17.14226"
       id="path211" />
    <path
       style="fill:none;stroke:#000000;stroke-width:1.5875;stroke-linecap:round;stroke-linejoin:round"
       d="m 142.57991,25.915168 c 1.60398,0.335135 -0.33451,4.536449 -0.44856,6.082733"
       id="path212" />
    <path
       style="fill:none;stroke:#000000;stroke-width:1.5875;stroke-linecap:round;stroke-linejoin:round"
       d="m 149.59086,55.980372 c -4.92538,-3.495174 5.85196,7.027163 -3.58841,-3.317862 -9.99552,-10.953349 20.15242,-11.268019 3.58841,3.317862 z"
       id="path213" />
    <path
       style="fill:none;stroke:#000000;stroke-width:1.5875;stroke-linecap:round;stroke-linejoin:round"
       d="m 154.24223,28.331515 c -0.48819,8.634416 0,17.326649 0,25.989971"
       id="path214" />
    <path
       style="fill:none;stroke:#000000;stroke-width:1.5875;stroke-linecap:round;stroke-linejoin:round"
       d="m 160.28441,39.47942 c -1.38044,3.961632 -2.00437,14.013953 -2.24274,15.483334"
       id="path215" />
    <path
       style="fill:none;stroke:#000000;stroke-width:1.5875;stroke-linecap:round;stroke-linejoin:round"
       d="m 161.63008,26.207997 c -0.52396,1.877222 -1.19615,3.6865 -1.79419,5.529755"
       id="path216" />
    <path
       style="fill:none;stroke:#000000;stroke-width:1.5875;stroke-linecap:round;stroke-linejoin:round"
       d="m 163.66181,55.775878 c 1.22392,-0.137945 -0.198,-28.968506 8.97102,-22.562742"
       id="path217" />
    <path
       style="fill:none;stroke:#000000;stroke-width:1.5875;stroke-linecap:round;stroke-linejoin:round"
       d="m 165.45601,45.121251 c 1.22659,-0.444088 1.07828,-0.376663 3.5884,-1.253488"
       id="path218" />
    <path
       style="fill:none;stroke:#000000;stroke-width:1.5875;stroke-linecap:round;stroke-linejoin:round"
       d="m 173.19817,39.623416 c 0.40304,4.373797 -0.22676,14.11612 -0.44854,15.483326"
       id="path219" />
    <path
       style="fill:none;stroke:#000000;stroke-width:1.5875;stroke-linecap:round;stroke-linejoin:round"
       d="m 174.85532,25.246898 c 1.26975,1.72499 -2.17754,4.68052 -2.55584,4.975048"
       id="path220" />
    <path
       style="fill:none;stroke:#000000;stroke-width:1.5875;stroke-linecap:round;stroke-linejoin:round"
       d="m 180.91502,48.169224 c -0.35954,1.141059 4.67178,0.311542 5.35162,-4.099839 0.86689,-5.625256 -18.39328,-1.964888 -7.49792,11.221354 1.57846,1.910375 4.60756,0.349489 6.23321,-0.746003"
       id="path221" />
    <path
       style="fill:none;stroke:#000000;stroke-width:1.5875;stroke-linecap:round;stroke-linejoin:round"
       d="m 190.01403,39.186625 c -1.16886,4.268716 -0.82574,8.698894 -0.82574,13.097901 0,9.928948 -3.75894,-3.552783 9.90903,-12.224706"
       id="path223" />
    <path
       style="fill:none;stroke:#000000;stroke-width:1.58751;stroke-linecap:round;stroke-linejoin:round"
       d="m 209.5504,28.030388 c -0.66691,8.140651 1.35117,21.879033 -0.4967,26.729968"
       id="path224" />
    <path
       style="fill:none;stroke:#000000;stroke-width:1.5875;stroke-linecap:round;stroke-linejoin:round"
       d="m 216.66977,47.860342 c -0.48065,1.02822 4.66259,2.675987 6.39434,-1.701383 1.71339,-4.330974 -7.20477,-5.355905 -8.75015,-3.402753 -7.15638,9.044638 2.58987,14.101126 8.75015,10.208271"
       id="path225" />
    <path
       style="fill:none;stroke:#000000;stroke-width:1.5875;stroke-linecap:round;stroke-linejoin:round"
       d="m 234.28098,30.703036 c -8.02414,21.142257 2.41681,27.84149 13.90756,24.324447"
       id="path226" />
    <path
       style="fill:none;stroke:#000000;stroke-width:1.5875;stroke-linecap:round;stroke-linejoin:round"
       d="m 235.27438,37.544278 c 2.63227,-0.118054 5.36486,-2.584873 6.95378,-3.800694"
       id="path227" />
    <path
       style="fill:none;stroke:#000000;stroke-width:1.5875;stroke-linecap:round;stroke-linejoin:round"
       d="m 247.22013,45.137322 c 0.28437,20.93277 -0.25376,0.409679 0,0 1.12982,-1.823912 6.30806,-1.603692 8.44387,-1.603692"
       id="path228" />
    <path
       style="fill:none;stroke:#000000;stroke-width:1.5875;stroke-linecap:round;stroke-linejoin:round"
       d="m 256.8914,45.615684 c 0.41126,-0.564465 1.78212,-1.270053 1.23377,-1.693401 -0.54834,-0.423357 -1.84683,2.008948 -1.23377,1.693401 15.33254,-7.891706 -1.96203,7.391008 -1.23377,8.890364 2.1134,4.351065 8.9899,-5.926911 6.58011,-5.926911 -2.33448,0 3.25832,5.731571 5.34634,4.656857"
       id="path229" />
    <path
       style="fill:none;stroke:#000000;stroke-width:1.5875;stroke-linecap:round;stroke-linejoin:round"
       d="m 265.5976,44.181053 c 8.7042,16.078397 5.46497,8.280167 13.9083,-3.855221"
       id="path230" />
    <path
       style="fill:none;stroke:#000000;stroke-width:1.5875;stroke-linecap:round;stroke-linejoin:round"
       d="m 280.97097,43.685877 c 0.42902,-0.634821 1.85911,-1.428356 1.28707,-1.904476 -0.57204,-0.476112 -1.90021,2.312743 -1.28707,1.904476 15.5967,-10.385255 -0.81492,8.602036 0.42902,9.522371 3.32241,2.458065 8.23567,-6.096082 6.43537,-8.094011 -0.16813,-0.186595 -0.6331,8.044081 5.57731,6.665654"
       id="path231" />
    <path
       style="fill:none;stroke:#000000;stroke-width:1.5875;stroke-linecap:round;stroke-linejoin:round"
       d="m 291.42629,36.049728 c 3.82592,4.284729 4.89829,13.199217 3.97359,18.175188"
       id="path232" />
    <path
       style="fill:none;stroke:#000000;stroke-width:1.5875;stroke-linecap:round;stroke-linejoin:round"
       d="m 290.4329,25.893007 c 0.80182,0.683955 0.64158,2.761986 0.99339,4.27651"
       id="path233" />
    <path
       style="fill:none;stroke:#000000;stroke-width:1.5875;stroke-linecap:round;stroke-linejoin:round"
       d="m 301.85696,29.10039 c -1.2066,7.257297 -1.14835,19.527935 -1.98679,24.589962"
       id="path234" />
    <path
       style="fill:none;stroke:#000000;stroke-width:1.5875;stroke-linecap:round;stroke-linejoin:round"
       d="m 319.35104,53.489113 c -0.3726,0.605323 -1.61456,1.361969 -1.11778,1.815958 0.49679,0.45399 1.73031,-1.691565 1.11778,-1.815958 -1.16221,-0.236018 -2.17992,1.231992 -3.35331,1.361969 -0.53271,0.05902 -3.9921,-2.594324 -4.47106,-3.177928 -6.39598,-7.79335 19.52358,-14.8151 7.82437,1.815959 z"
       id="path235" />
    <path
       style="fill:none;stroke:#000000;stroke-width:1.5875;stroke-linecap:round;stroke-linejoin:round"
       d="m 321.80424,26.962069 c 0.92393,6.948115 0.0964,25.720714 0,26.193788"
       id="path236" />
    <path
       style="fill:none;stroke:#000000;stroke-width:1.5875;stroke-linecap:round;stroke-linejoin:round"
       d="m 328.56996,48.390135 c -0.48064,1.028223 4.6626,2.675989 6.39433,-1.701381 1.7134,-4.330973 -7.20476,-5.3559 -8.75014,-3.402754 -7.15638,9.044637 2.58987,14.101126 8.75014,10.208271"
       id="path225-8" />
    <path
       style="fill:none;stroke:#000000;stroke-width:1.5875;stroke-linecap:round;stroke-linejoin:round"
       d="m 347.13587,25.892977 c 0.36743,8.181376 -1.4901,25.854677 -1.4901,29.401099"
       id="path237" />
    <path
       style="fill:none;stroke:#000000;stroke-width:1.5875;stroke-linecap:round;stroke-linejoin:round"
       d="m 356.10783,25.358458 c 0.586,0.501105 -1.58578,5.204699 -3.01157,9.622128"
       id="path238" />
    <path
       style="fill:none;stroke:#000000;stroke-width:1.5875;stroke-linecap:round;stroke-linejoin:round"
       d="m 361.05704,51.402396 c -1.09244,0.224547 4.16647,0.139778 5.08367,-2.65209 2.61589,-7.962561 -8.25412,-2.74983 -10.03858,-0.01937 -4.64444,7.106533 6.09178,9.073253 11.71599,6.15546"
       id="path239" />
    <path
       style="fill:none;stroke:#000000;stroke-width:1.5875;stroke-linecap:round;stroke-linejoin:round"
       d="m 359.03568,37.210009 c 1.95622,1.698962 5.27604,-0.164699 6.97636,-2.230527"
       id="path240" />
    <path
       style="fill:none;stroke:#000000;stroke-width:1.5875;stroke-linecap:round;stroke-linejoin:round"
       d="m 373.07994,55.335321 c -0.61259,0.170293 -1.96032,-0.340585 -1.8378,0.510869 0.12251,0.851447 2.27957,0.103127 1.8378,-0.510869 -6.42311,-8.927478 -1.14684,2.642783 -3.6756,-2.04348 -8.94461,-16.576069 22.18249,-5.305836 3.6756,2.04348 z"
       id="path241" />
    <path
       style="fill:none;stroke:#000000;stroke-width:1.5875;stroke-linecap:round;stroke-linejoin:round"
       d="m 380.41465,45.137329 c -0.89326,0.447998 -0.21771,22.920358 -1.4901,25.659083"
       id="path242" />
    <path
       style="fill:none;stroke:#000000;stroke-width:1.5875;stroke-linecap:round;stroke-linejoin:round"
       d="m 381.59089,42.779301 c 0.0168,22.096946 7.98319,11.962661 8.755,0.807671"
       id="path243" />
    <path
       style="fill:none;stroke:#000000;stroke-width:1.5875;stroke-linecap:round;stroke-linejoin:round"
       d="m 392.83212,39.79168 c 1.43108,4.677762 -0.0917,12.887209 -0.49671,15.502367"
       id="path244" />
    <path
       style="fill:none;stroke:#000000;stroke-width:1.5875;stroke-linecap:round;stroke-linejoin:round"
       d="m 393.32882,25.89301 c 0.50247,0.477954 -0.80335,4.755303 -0.99341,5.880202"
       id="path245" />
    <path
       style="fill:none;stroke:#000000;stroke-width:1.5875;stroke-linecap:round;stroke-linejoin:round"
       d="m 394.81891,67.589029 c 2.02076,-5.437031 2.51674,-22.457714 1.49009,-24.055398 12.39083,-1.774757 9.37674,13.080539 0.4967,10.691295"
       id="path246" />
    <path
       style="fill:none;stroke:#000000;stroke-width:1.5875;stroke-linecap:round;stroke-linejoin:round"
       d="m 413.23644,47.115371 c 0.14085,-0.234422 4.97095,1.026049 5.62855,-3.003994 0.91006,-5.577079 -9.91811,-0.771057 -11.17468,1.904158 -4.21844,8.981018 9.51911,8.148475 10.7849,6.782448"
       id="path248" />
    <path
       style="fill:none;stroke:#000000;stroke-width:1.5875;stroke-linecap:round;stroke-linejoin:round"
       d="m 430.0845,53.690354 c -1.32401,3.461519 -8.4735,-1.139933 0,0 z"
       id="path249" />
  </g>
</svg>
