<?xml version="1.0" encoding="UTF-8" standalone="no"?>
<!-- Created with Inkscape (http://www.inkscape.org/) -->

<svg
   width="325.11389mm"
   height="77.293007mm"
   viewBox="0 0 325.11389 77.293007"
   version="1.1"
   id="svg1"
   xmlns="http://www.w3.org/2000/svg"
   xmlns:svg="http://www.w3.org/2000/svg">
  <defs
     id="defs1" />
  <g
     id="layer1"
     transform="translate(62.846422,-130.02705)">
    <path
       style="fill:none;stroke:#000000;stroke-width:1.58749;stroke-linecap:round;stroke-linejoin:round"
       d="m -55.273732,130.84782 c 4.492928,24.78579 -10.579414,29.3684 14.536891,29.3684"
       id="path22" />
    <path
       style="fill:none;stroke:#000000;stroke-width:1.58751;stroke-linecap:round;stroke-linejoin:round"
       d="m -35.999999,141.63157 c -0.209765,5.15049 -1.259094,14.58647 -1.894737,17.52632"
       id="path23" />
    <path
       style="fill:none;stroke:#000000;stroke-width:1.5875;stroke-linecap:round;stroke-linejoin:round"
       d="m -35.052632,132.1579 c -1.080937,7.23444 2.098183,-9.44182 -0.947367,4.26315"
       id="path24" />
    <path
       style="fill:none;stroke:#000000;stroke-width:1.5875;stroke-linecap:round;stroke-linejoin:round"
       d="m -31.263158,140.68421 c -1.626108,3.21862 0.606523,21.44863 -2.368421,18.47368"
       id="path25" />
    <path
       style="fill:none;stroke:#000000;stroke-width:1.5875;stroke-linecap:round;stroke-linejoin:round"
       d="m -20.368421,141.1579 c -7.076561,14.6225 -18.864784,4.56193 0.947368,19.42105"
       id="path26" />
    <path
       style="fill:none;stroke:#000000;stroke-width:1.5875;stroke-linecap:round;stroke-linejoin:round"
       d="m -14.684211,151.10526 c 14.82115132,4.23309 1.682374,-15.20685 -4.263157,-3.31579 -0.807162,1.61432 -2.494748,4.95787 -1.421053,7.10526 3.266222,6.53245 13.9254299,6.08662 12.3157893,5.68421"
       id="path27" />
    <path
       style="fill:none;stroke:#000000;stroke-width:1.5875;stroke-linecap:round;stroke-linejoin:round"
       d="m -5.5894744,134.05263 c -0.079954,7.29503 0.6631591,22.30006 0.6631591,25.10526"
       id="path28" />
    <path
       style="fill:none;stroke:#000000;stroke-width:1.5875;stroke-linecap:round;stroke-linejoin:round"
       d="m -20.842105,135.12093 c 0.980691,-0.50502 29.5832151,1.78814 33.157895,1.06831"
       id="path29" />
    <path
       style="fill:none;stroke:#000000;stroke-width:1.5875;stroke-linecap:round;stroke-linejoin:round"
       d="m -0.47368458,134.96623 c 0.423474,4.99164 -0.473686,9.86207 -0.473686,14.71376 0,22.14856 -0.75533502,-0.11045 2.84210698,-2.17982 5.152019,-2.96359 6.726181,10.84467 2.842106,13.07891"
       id="path30" />
    <path
       style="fill:none;stroke:#000000;stroke-width:1.5875;stroke-linecap:round;stroke-linejoin:round"
       d="m 12.559527,147.39481 c 6.707114,0.33422 -7.9312785,-0.39134 3.548708,-0.39134 11.456158,0 -9.9586704,9.99841 -6.6538279,12.91392 6.4500869,5.69022 8.5507609,-8.60927 8.4281829,-8.60927 -0.813578,0 -2.349233,7.17731 3.548708,8.21794"
       id="path31" />
    <path
       style="fill:none;stroke:#000000;stroke-width:1.5875;stroke-linecap:round;stroke-linejoin:round"
       d="m 26.999998,135.32451 c -2.652011,13.0078 -3.302299,26.54976 7.578947,23.75174"
       id="path32" />
    <path
       style="fill:none;stroke:#000000;stroke-width:1.5875;stroke-linecap:round;stroke-linejoin:round"
       d="m 27.947368,142.02372 c 2.300001,-0.94811 4.73684,-1.21804 7.105261,-1.82706"
       id="path33" />
    <path
       style="fill:none;stroke:#000000;stroke-width:1.5875;stroke-linecap:round;stroke-linejoin:round"
       d="m 39.315387,152.696 c 4.446615,-0.34078 11.095984,0.1871 12.79028,0.30601"
       id="path34" />
    <path
       style="fill:none;stroke:#000000;stroke-width:1.5875;stroke-linecap:round;stroke-linejoin:round"
       d="m 66.435534,133.57901 c -0.667689,28.15455 -16.98344,25.11788 13.268943,25.11788"
       id="path1" />
    <path
       style="fill:none;stroke:#000000;stroke-width:1.5875;stroke-linecap:round;stroke-linejoin:round"
       d="m 64.66634,147.39384 c 3.505822,0.68214 10.682773,1.69053 12.384348,2.09316"
       id="path2" />
    <path
       style="fill:none;stroke:#000000;stroke-width:1.5875;stroke-linecap:round;stroke-linejoin:round"
       d="m 65.550937,135.67217 c 4.000687,-0.3575 13.684678,-0.64469 15.92273,-0.83726"
       id="path3" />
    <path
       style="fill:none;stroke:#000000;stroke-width:1.5875;stroke-linecap:round;stroke-linejoin:round"
       d="m 81.622557,150.74376 c -3.020752,-3.56198 8.397859,6.56222 9.50075,7.72854"
       id="path4" />
    <path
       style="fill:none;stroke:#000000;stroke-width:1.5875;stroke-linecap:round;stroke-linejoin:round"
       d="m 93.315789,144.94737 c -1.027473,6.24728 -10.338984,12.74066 -12.789474,14.68421"
       id="path5" />
    <path
       style="fill:none;stroke:#000000;stroke-width:1.5875;stroke-linecap:round;stroke-linejoin:round"
       d="m 97.231751,133.70855 c -1.895048,6.8512 -1.874489,20.61559 -1.421053,24.84341"
       id="path7" />
    <path
       style="fill:none;stroke:#000000;stroke-width:1.5875;stroke-linecap:round;stroke-linejoin:round"
       d="m 94.86333,139.2293 c 4.947263,-0.25191 9.12777,-3.73305 13.26316,-6.6249"
       id="path8" />
    <path
       style="fill:none;stroke:#000000;stroke-width:1.5875;stroke-linecap:round;stroke-linejoin:round"
       d="m 102.84709,151.58352 c -0.0774,0.19243 5.79778,0.25568 6.75969,-4.16613 0.8864,-4.07474 -11.461026,-0.2824 -12.510559,2.6983 -3.552456,10.08902 12.687839,9.47309 16.802349,6.47343"
       id="path9" />
    <path
       style="fill:none;stroke:#000000;stroke-width:1.5875;stroke-linecap:round;stroke-linejoin:round"
       d="m 114.67706,157.092 c -1.28799,-18.25133 9.30961,-10.96126 9.28431,2.98955"
       id="path10" />
    <path
       style="fill:none;stroke:#000000;stroke-width:1.5875;stroke-linecap:round;stroke-linejoin:round"
       d="m 135.65566,146.14421 c -1.80685,-2.51976 4.2145,1.60659 -3.57395,-2.05182 -2.76547,-1.299 -8.70248,2.11009 -7.14789,4.78759 2.03144,3.49878 9.81677,1.51891 12.31026,5.8135 2.92276,5.03393 -11.25333,5.69777 -13.50158,3.76167"
       id="path11" />
    <path
       style="fill:none;stroke:#000000;stroke-width:1.5875;stroke-linecap:round;stroke-linejoin:round"
       d="m 139.32977,146.5714 c 0.26846,3.45788 0.0817,13.46617 0.0827,13.47272"
       id="path12" />
    <path
       style="fill:none;stroke:#000000;stroke-width:1.5875;stroke-linecap:round;stroke-linejoin:round"
       d="m 139.9191,134.90141 c -0.3837,1.34864 -0.47368,2.72414 -0.47368,4.09075"
       id="path13" />
    <path
       style="fill:none;stroke:#000000;stroke-width:1.5875;stroke-linecap:round;stroke-linejoin:round"
       d="m 145.24865,155.99484 c -13.05986,-13.02886 15.28556,-13.04967 8.99999,0.40561 -2.13993,4.58086 -9.89868,5.7505 -8.99999,-0.40561 z"
       id="path14" />
    <path
       style="fill:none;stroke:#000000;stroke-width:1.5875;stroke-linecap:round;stroke-linejoin:round"
       d="m 156.20495,159.62819 c 1.74955,-28.51112 10.5023,-8.13733 10.5023,-0.41673"
       id="path15" />
    <path
       style="fill:none;stroke:#000000;stroke-width:1.5875;stroke-linecap:round;stroke-linejoin:round"
       d="m 191.34292,134.26926 c -22.47791,-10.92616 -24.55301,35.96072 0.94737,23.21053"
       id="path16" />
    <path
       style="fill:none;stroke:#000000;stroke-width:1.5875;stroke-linecap:round;stroke-linejoin:round"
       d="m 195.60525,132.39813 c 1.85921,0.47376 -2.38181,27.67029 -1.63953,27.67029 2.05667,0 -2.66019,-10.46918 3.27907,-13.10698 4.45032,-1.97652 8.23677,8.18304 6.0116,12.13609"
       id="path17" />
    <path
       style="fill:none;stroke:#000000;stroke-width:1.5875;stroke-linecap:round;stroke-linejoin:round"
       d="m 205.90234,145.10653 c 0.3185,3.72185 -0.47368,7.22324 -0.47368,10.89473 0,12.71535 -2.32993,-11.01357 8.99999,-6.15789"
       id="path18" />
    <path
       style="fill:none;stroke:#000000;stroke-width:1.5875;stroke-linecap:round;stroke-linejoin:round"
       d="m 221.8352,160.68065 c -18.30971,-3.40333 10.0465,-27.12114 6.15789,-3.78948 -0.62249,3.73498 -2.28239,3.78948 -6.15789,3.78948 z"
       id="path19" />
    <path
       style="fill:none;stroke:#000000;stroke-width:1.5875;stroke-linecap:round;stroke-linejoin:round"
       d="m 228.71745,160.08019 c -0.44376,-1.7687 2.85388,-13.70886 5.03541,-13.12709 5.87285,1.56616 5.69448,14.43085 4.62573,13.07262 -7.42342,-9.43416 11.54938,-20.28882 6.49536,-1.3372"
       id="path20" />
    <path
       style="fill:none;stroke:#000000;stroke-width:1.5875;stroke-linecap:round;stroke-linejoin:round"
       d="m 251.87877,152.44217 c 0.41496,0.3663 0.93368,1.58734 1.2449,1.09892 0.31123,-0.48841 -1.75354,-1.21866 -1.2449,-1.09892 15.61741,3.67629 4.04859,-10.99239 -3.73472,-1.83155 -0.94902,1.11698 -1.63573,2.92203 -1.24491,4.76202 1.49044,7.01687 12.88426,4.08449 11.8266,4.39571"
       id="path21" />
    <path
       style="fill:none;stroke:#000000;stroke-width:1.58749;stroke-linecap:round;stroke-linejoin:round"
       d="m 0.83554216,169.5186 c -7.41290096,-7.24504 -24.49868516,32.20325 -2.05667396,26.15637 14.7933068,-3.98598 -1.234005,-15.71735 -1.234005,-11.52653 0,0.24237 2.70944596,-0.3823 2.87934396,-0.44333 2.88814404,-1.03759 6.09589204,-0.53419 9.04936504,-1.32998"
       id="path36" />
    <path
       style="fill:none;stroke:#000000;stroke-width:1.5875;stroke-linecap:round;stroke-linejoin:round"
       d="m 18.725352,187.61999 c -1.101222,0.19584 7.150885,1.28381 8.810561,-1.75134 1.985974,-3.63188 -7.220328,-5.63082 -9.576697,-4.55351 -13.6858768,6.25705 -1.9271,19.79563 9.193629,14.71133"
       id="path37" />
    <path
       style="fill:none;stroke:#000000;stroke-width:1.5875;stroke-linecap:round;stroke-linejoin:round"
       d="m 41.471847,182.35478 c -0.990248,-0.22784 -1.160895,-0.9333 -5.452703,-0.9333 -4.202798,0 -10.533828,5.42655 -5.033265,7.46646 3.578529,1.32712 8.351428,0.5945 11.324846,2.79992 5.298972,3.93031 -8.640609,5.70871 -12.583162,4.97764"
       id="path38" />
    <path
       style="fill:none;stroke:#000000;stroke-width:1.5875;stroke-linecap:round;stroke-linejoin:round"
       d="m 56.36842,197.44194 c -12.892003,4.05338 -14.070516,-22.54734 -9.947368,-25.02042 -2.936474,9.16266 13.606807,4.76579 9.473685,4.76579"
       id="path39" />
    <path
       style="fill:none;stroke:#000000;stroke-width:1.5875;stroke-linecap:round;stroke-linejoin:round"
       d="m 60.397963,180.4726 c 1.491461,4.67889 0.09922,13.57828 -0.717024,16.10745"
       id="path40" />
    <path
       style="fill:none;stroke:#000000;stroke-width:1.5875;stroke-linecap:round;stroke-linejoin:round"
       d="m 61.578945,171.47369 c 0.399071,0.0828 -0.459735,3.67789 -0.473683,3.78947"
       id="path41" />
    <path
       style="fill:none;stroke:#000000;stroke-width:1.5875;stroke-linecap:round;stroke-linejoin:round"
       d="m 76.263156,197.49198 c -0.424572,0.58761 -3.867523,-0.0309 -8.052631,-1.68623 -9.572926,-3.78644 -2.904365,-14.85362 5.210527,-12.92778 8.509698,2.01954 11.154398,17.43213 -0.473686,13.48986"
       id="path42" />
    <path
       style="fill:none;stroke:#000000;stroke-width:1.5875;stroke-linecap:round;stroke-linejoin:round"
       d="m 82.894742,196.57895 c -6.313805,-29.57803 20.656008,-11.18232 9,0.47369"
       id="path43" />
    <path
       style="fill:none;stroke:#000000;stroke-width:1.5875;stroke-linecap:round;stroke-linejoin:round"
       d="m 108.1593,197.95193 c -0.81851,-0.37184 -2.12813,-2.04514 -2.45554,-1.11554 -0.3274,0.92962 2.9091,1.97409 2.45554,1.11554 -18.29891,-34.63787 27.09146,0 0,0 z"
       id="path44" />
    <path
       style="fill:none;stroke:#000000;stroke-width:1.5875;stroke-linecap:round;stroke-linejoin:round"
       d="m 117.52917,172.89474 c -1.92232,7.02961 -2.44339,22.39392 -1.89474,24.63158"
       id="path45" />
    <path
       style="fill:none;stroke:#000000;stroke-width:1.5875;stroke-linecap:round;stroke-linejoin:round"
       d="m 125.16771,190.91946 c -0.13265,0.0789 4.69763,0.79647 6.00201,-2.82022 1.75785,-4.87405 -9.77629,-6.46005 -11.16725,-2.60329 -6.97619,19.34303 11.17183,11.96944 15.19614,11.17759"
       id="path46" />
    <path
       style="fill:none;stroke:#000000;stroke-width:1.5875;stroke-linecap:round;stroke-linejoin:round"
       d="m 145.36557,196.57894 c -1.28782,-7.59469 4.87307,-24.66563 16.10526,-27.47368"
       id="path47" />
    <path
       style="fill:none;stroke:#000000;stroke-width:1.5875;stroke-linecap:round;stroke-linejoin:round"
       d="m 146.78662,186.63157 c 2.80213,-1.05917 5.89814,-1.79083 8.52632,-2.8421"
       id="path48" />
    <path
       style="fill:none;stroke:#000000;stroke-width:1.5875;stroke-linecap:round;stroke-linejoin:round"
       d="m 158.15504,186.15789 c 0.47368,-0.63158 2.05263,-1.42105 1.42105,-1.89473 -0.63158,-0.47369 -2.07793,2.33266 -1.42105,1.89473 1.18014,-0.78676 6.02779,-7.36547 8.05263,-3.31579 3.79561,7.59122 -16.12282,8.98244 -12.78947,12.31579 5.94715,5.94716 12.75261,-5.68421 11.36842,-5.68421 -1.0264,0 -0.88452,6.63158 3.31579,6.63158"
       id="path49" />
    <path
       style="fill:none;stroke:#000000;stroke-width:1.5875;stroke-linecap:round;stroke-linejoin:round"
       d="m 169.52346,182.36842 c 9.23402,23.57698 -0.23942,12.08153 12.31579,-0.47368"
       id="path50" />
    <path
       style="fill:none;stroke:#000000;stroke-width:1.5875;stroke-linecap:round;stroke-linejoin:round"
       d="m 186.57609,198.47368 c -8.46744,2.66841 -3.81269,-20.53406 5.21053,-17.52631 10.97408,3.65802 -4.44587,23.6436 -5.68421,13.73684"
       id="path51" />
    <path
       style="fill:none;stroke:#000000;stroke-width:1.5875;stroke-linecap:round;stroke-linejoin:round"
       d="m 200.31293,182.8421 c 0.52703,0.4883 -3.46889,14.21053 -1.89473,14.21053 0.15997,0 -0.20891,-5.26641 0,-5.68421 0.45994,-0.9199 4.12318,-4.2094 3.78947,-5.21053 -0.40255,-1.20766 -2.79488,-2.41565 -1.89474,-3.31579 1.78638,-1.78637 5.12805,0.61272 7.57894,0"
       id="path52" />
    <path
       style="fill:none;stroke:#000000;stroke-width:1.5875;stroke-linecap:round;stroke-linejoin:round"
       d="m 212.15505,181.89472 c 0.29398,4.73871 -0.13989,9.55195 -0.94737,14.21054"
       id="path53" />
    <path
       style="fill:none;stroke:#000000;stroke-width:1.5875;stroke-linecap:round;stroke-linejoin:round"
       d="m 211.68135,171 c 0,2.34199 0,-0.9931 0,4.73684"
       id="path55" />
    <path
       style="fill:none;stroke:#000000;stroke-width:1.5875;stroke-linecap:round;stroke-linejoin:round"
       d="m 225.89186,182.8421 c -7.11604,-0.29322 8.24733,-0.47369 -3.78946,-0.47369 -10.80778,0 10.66569,14.68421 0,14.68421 -2.96569,0 -4.64215,0.28419 -6.15789,-0.47368"
       id="path54" />
    <path
       style="fill:none;stroke:#000000;stroke-width:1.5875;stroke-linecap:round;stroke-linejoin:round"
       d="m -62.052672,166.73597 c 94.834826,-5.65072 226.140212,-1.56323 323.526392,-1.56323"
       id="path56" />
    <path
       style="fill:none;stroke:#000000;stroke-width:1.5875;stroke-linecap:round;stroke-linejoin:round"
       d="m -13.736841,206.52631 c 62.261445,-2.037 126.182031,-2.36842 189.116151,-2.36842 15.68826,0 36.17165,2.69099 51.04174,0"
       id="path57" />
  </g>
</svg>
