<?xml version="1.0" encoding="UTF-8" standalone="no"?>
<!-- Created with Inkscape (http://www.inkscape.org/) -->

<svg
   width="517.98694mm"
   height="126.69mm"
   viewBox="0 0 517.98694 126.69"
   version="1.1"
   id="svg1"
   xmlns="http://www.w3.org/2000/svg"
   xmlns:svg="http://www.w3.org/2000/svg">
  <defs
     id="defs1" />
  <g
     id="layer1"
     transform="translate(109.02758,-85.543414)">
    <path
       style="fill:none;stroke:#000000;stroke-width:1.5875;stroke-linecap:round;stroke-linejoin:round"
       d="m -108.00505,115.86093 c -0.79325,-3.42812 0.68438,-27.54044 1.85385,-29.042228 20.294856,-1.377156 20.123465,17.816038 10.196195,28.541498 -1.194867,1.29095 -10.453905,0.50073 -12.050045,0.50073 z"
       id="path2" />
    <path
       style="fill:none;stroke:#000000;stroke-width:1.5875;stroke-linecap:round;stroke-linejoin:round"
       d="m -83.441489,109.97797 c 1.163669,-2.68735 1.507345,1.70228 5.561561,-2.27113 5.092437,-4.99094 -7.969686,-7.45485 -10.659658,0.45423 -3.232582,9.50446 11.069239,8.22888 12.050049,7.26762"
       id="path3" />
    <path
       style="fill:none;stroke:#000000;stroke-width:1.5875;stroke-linecap:round;stroke-linejoin:round"
       d="m -87.149197,95.442729 c 3.186154,0.01296 9.240322,-5.882243 9.269269,-5.904941"
       id="path4" />
    <path
       style="fill:none;stroke:#000000;stroke-width:1.5875;stroke-linecap:round;stroke-linejoin:round"
       d="m -74.635683,102.71035 c 1.140435,28.48763 8.39268,2.81098 12.976978,-3.179584"
       id="path5" />
    <path
       style="fill:none;stroke:#000000;stroke-width:1.5875;stroke-linecap:round;stroke-linejoin:round"
       d="m -58.082586,110.38529 c -1.02905,-0.10916 6.810378,0.0561 8.700308,-3.07599 4.444063,-7.364971 -9.93462,-4.92795 -13.224469,-0.3845 -5.568108,7.68985 8.229912,13.59266 12.180432,9.22795"
       id="path6" />
    <path
       style="fill:none;stroke:#000000;stroke-width:1.5875;stroke-linecap:round;stroke-linejoin:round"
       d="m -46.827874,88.470427 c 0.154488,-0.70289 1.081415,-1.932945 0.463463,-2.108669 -3.153534,-0.896748 2.649487,17.466722 0,29.521362"
       id="path7" />
    <path
       style="fill:none;stroke:#000000;stroke-width:1.5875;stroke-linecap:round;stroke-linejoin:round"
       d="m -33.736569,116.28041 c -8.157533,-3.7398 10.430908,4.66136 -4.691896,-1.98597 -3.059507,-1.34483 -4.691897,-3.13147 -4.691897,-6.4544 0,-16.114332 30.209685,-0.0599 9.383793,8.44037 z"
       id="path8" />
    <path
       style="fill:none;stroke:#000000;stroke-width:1.5875;stroke-linecap:round;stroke-linejoin:round"
       d="m -24.118164,129.05535 c 0,-1.37165 -0.716438,-17.47723 0.926928,-24.2778 12.482443,-6.828249 14.5450804,13.3951 2.317317,10.4836"
       id="path9" />
    <path
       style="fill:none;stroke:#000000;stroke-width:1.5875;stroke-linecap:round;stroke-linejoin:round"
       d="m -10.641936,128.60007 c 0,-2.85941 -0.484469,-17.8012 0,-24.43416 13.4234211,-5.190998 16.1943814,18.01905 1.1046458,10.9174"
       id="path10" />
    <path
       style="fill:none;stroke:#000000;stroke-width:1.5875;stroke-linecap:round;stroke-linejoin:round"
       d="m 8.7798758,111.34816 c -0.1399135,0.13527 3.7690862,1.29873 5.0796652,-1.99428 1.815354,-4.56136 -6.8878325,-5.7055 -8.8894142,-3.19086 -7.1986735,9.04387 4.8547164,13.49138 7.9369762,11.168 0.801824,-1.02635 1.269918,-2.39315 1.904876,-3.58972"
       id="path11" />
    <path
       style="fill:none;stroke:#000000;stroke-width:1.5875;stroke-linecap:round;stroke-linejoin:round"
       d="m 16.646471,115.88291 c -0.324247,-0.2581 -0.388899,-5.03538 2.062229,-9.08452 6.594756,-10.894226 9.185934,7.59834 7.83646,9.08452 -0.07993,0.088 -1.164698,-9.57875 5.361784,-13.17256 4.875645,-2.68477 2.93802,13.51467 2.887118,13.62679"
       id="path12" />
    <path
       style="fill:none;stroke:#000000;stroke-width:1.5875;stroke-linecap:round;stroke-linejoin:round"
       d="m 45.061381,109.74785 c 4.959646,1.59068 -5.623057,-1.07148 2.589895,0.69716 8.338221,1.79561 3.044091,-14.432241 -6.798464,-3.83438 -1.137107,1.22437 -3.566686,3.46774 -2.913629,5.57728 2.759266,8.91301 16.313814,1.01154 12.301981,2.09147"
       id="path13" />
    <path
       style="fill:none;stroke:#000000;stroke-width:1.5875;stroke-linecap:round;stroke-linejoin:round"
       d="m 53.743555,114.52023 c 2.521286,-23.881164 12.459586,-4.85048 8.182999,2.27113"
       id="path14" />
    <path
       style="fill:none;stroke:#000000;stroke-width:1.5875;stroke-linecap:round;stroke-linejoin:round"
       d="M 65.355401,88.629271 C 67.86766,99.542857 59.306915,119.68816 75.660855,116.73039"
       id="path16" />
    <path
       style="fill:none;stroke:#000000;stroke-width:1.5875;stroke-linecap:round;stroke-linejoin:round"
       d="m 70.904488,96.084669 c 1.849706,0 3.699396,0 5.549086,0"
       id="path17" />
    <path
       style="fill:none;stroke:#000000;stroke-width:1.5875;stroke-linecap:round;stroke-linejoin:round"
       d="m 92.717502,115.78897 c -2.837749,2.94839 -5.394472,-0.27299 -6.480673,-2.96288 -5.620311,-13.918245 24.067561,-3.57 6.480673,2.96288 z"
       id="path18" />
    <path
       style="fill:none;stroke:#000000;stroke-width:1.5875;stroke-linecap:round;stroke-linejoin:round"
       d="m 98.699663,88.629318 c -1.943304,5.058115 -0.480503,25.113062 0,23.209142"
       id="path19" />
    <path
       style="fill:none;stroke:#000000;stroke-width:1.5875;stroke-linecap:round;stroke-linejoin:round"
       d="m 109.35932,90.446241 c -0.67263,2.592443 -2.53997,4.978694 -3.70771,7.267621"
       id="path20" />
    <path
       style="fill:none;stroke:#000000;stroke-width:1.5875;stroke-linecap:round;stroke-linejoin:round"
       d="m 109.00443,107.35903 c -5.62974,17.68438 9.26927,5.93902 9.26927,-0.45422"
       id="path21" />
    <path
       style="fill:none;stroke:#000000;stroke-width:1.5875;stroke-linecap:round;stroke-linejoin:round"
       d="m 118.16512,116.33714 c 2.66751,-21.817346 13.16695,-4.72845 8.8058,-0.45423"
       id="path23" />
    <path
       style="fill:none;stroke:#000000;stroke-width:1.5875;stroke-linecap:round;stroke-linejoin:round"
       d="m 137.00242,111.43908 c 2.02991,-0.48649 6.75352,0.27656 7.46587,-2.62914 0.92781,-3.78447 -11.49251,-5.12227 -13.37437,-0.22465 -5.43957,14.1565 13.52835,7.80625 13.69488,7.61224"
       id="path24" />
    <path
       style="fill:none;stroke:#000000;stroke-width:1.5875;stroke-linecap:round;stroke-linejoin:round"
       d="m 160.80377,109.06953 c 2.18376,0.76195 9.65569,0.2277 8.34234,-3.63382 -0.31074,-0.91367 -3.32595,-1.81691 -4.17117,-1.81691 -15.29435,0 -10.5027,15.23125 2.31732,12.71834 1.83043,-0.35879 3.77816,-0.97749 5.0981,-2.27113"
       id="path25" />
    <path
       style="fill:none;stroke:#000000;stroke-width:1.5875;stroke-linecap:round;stroke-linejoin:round"
       d="m 174.70767,106.7984 c -0.61795,-0.45423 -1.39038,-1.96832 -1.85385,-1.3627 -0.46346,0.60565 1.32992,0.80642 1.85385,1.3627 2.60283,2.76353 4.3455,6.37374 7.41542,8.6303"
       id="path26" />
    <path
       style="fill:none;stroke:#000000;stroke-width:1.5875;stroke-linecap:round;stroke-linejoin:round"
       d="m 184.44041,103.16457 c -3.87515,3.46195 -6.43321,8.60322 -11.12312,10.90145"
       id="path27" />
    <path
       style="fill:none;stroke:#000000;stroke-width:1.5875;stroke-linecap:round;stroke-linejoin:round"
       d="m 187.8082,90.899424 c -2.46737,14.136316 -8.49409,32.931626 12.39074,24.478546"
       id="path28" />
    <path
       style="fill:none;stroke:#000000;stroke-width:1.5875;stroke-linecap:round;stroke-linejoin:round"
       d="m 190.16834,101.64609 c -4.07111,-2.49188 3.19964,-1.61879 5.90035,-2.985181"
       id="path29" />
    <path
       style="fill:none;stroke:#000000;stroke-width:1.5875;stroke-linecap:round;stroke-linejoin:round"
       d="m 203.06571,111.40762 c -0.86613,0.82134 5.90975,0.14504 6.46802,-3.3758 0.69313,-4.37155 -12.46923,-5.54683 -13.25902,-0.56572 -1.45359,9.16746 10.67591,13.00005 14.87558,7.20791"
       id="path31" />
    <path
       style="fill:none;stroke:#000000;stroke-width:1.5875;stroke-linecap:round;stroke-linejoin:round"
       d="m 213.24743,116.33711 c -3.45384,-16.11353 7.80655,-19.888407 7.80655,0"
       id="path32" />
    <path
       style="fill:none;stroke:#000000;stroke-width:1.5875;stroke-linecap:round;stroke-linejoin:round"
       d="m 231.71369,104.52726 c -2.62238,-2.95976 5.60814,2.08541 -4.17118,-2.27113 -4.55314,-2.02836 -7.99116,2.7874 -5.56156,6.35916 2.56353,3.76866 10.7003,0.53388 12.97697,4.99649 2.14357,4.20168 -10.35933,3.20648 -11.58658,2.72536"
       id="path33" />
    <path
       style="fill:none;stroke:#000000;stroke-width:1.5875;stroke-linecap:round;stroke-linejoin:round"
       d="m 238.20218,100.89344 c -0.25649,5.6121 -0.35815,11.28159 -0.92693,16.80638"
       id="path34" />
    <path
       style="fill:none;stroke:#000000;stroke-width:1.5875;stroke-linecap:round;stroke-linejoin:round"
       d="m 239.12909,92.263146 c -1.15951,2.837527 0.20262,-0.529507 -1.39038,3.633807"
       id="path35" />
    <path
       style="fill:none;stroke:#000000;stroke-width:1.5875;stroke-linecap:round;stroke-linejoin:round"
       d="m 244.47267,116.79109 c -18.56957,-26.667719 29.73816,-7.61853 0,0 z"
       id="path36" />
    <path
       style="fill:none;stroke:#000000;stroke-width:1.5875;stroke-linecap:round;stroke-linejoin:round"
       d="m 256.27725,113.43024 c 0.61534,-20.083597 11.85903,-4.45628 8.34233,3.81542"
       id="path37" />
    <path
       style="fill:none;stroke:#000000;stroke-width:1.5875;stroke-linecap:round;stroke-linejoin:round"
       d="M 288.71969,97.259638 C 273.1502,89.14123 269.7008,125.15575 291.037,116.79136"
       id="path38" />
    <path
       style="fill:none;stroke:#000000;stroke-width:1.5875;stroke-linecap:round;stroke-linejoin:round"
       d="m 294.28125,92.720047 c -1.66671,4.984118 -0.94349,10.598753 -1.39039,15.878323 -1.76945,20.90399 0.18144,-4.76116 3.24424,-6.57033 6.98826,-4.127916 2.41377,12.36527 2.31732,12.59314"
       id="path39" />
    <path
       style="fill:none;stroke:#000000;stroke-width:1.5875;stroke-linecap:round;stroke-linejoin:round"
       d="m 302.16013,104.52725 c 4.45527,26.61832 -6.68434,5.2716 7.41541,1.81691"
       id="path40" />
    <path
       style="fill:none;stroke:#000000;stroke-width:1.5875;stroke-linecap:round;stroke-linejoin:round"
       d="m 318.38135,119.0625 c 0.36224,0.93289 -4.70567,0.69961 -6.02503,-3.17959 -6.25959,-18.404488 30.9884,-12.11155 6.02503,3.17959 z"
       id="path41" />
    <path
       style="fill:none;stroke:#000000;stroke-width:1.5875;stroke-linecap:round;stroke-linejoin:round"
       d="m 329.04101,116.33714 c 1.08496,-2.90262 0.27949,-13.977 6.02503,-13.17257 5.3248,0.74553 2.69357,14.08103 2.78078,14.08103 1.7462,0 3.53139,-12.56159 7.87888,-13.6268 4.98208,-1.2207 5.97434,9.82265 4.17117,14.53525"
       id="path42" />
    <path
       style="fill:none;stroke:#000000;stroke-width:1.5875;stroke-linecap:round;stroke-linejoin:round"
       d="m 358.73687,109.96783 c 17.80521,2.85346 1.29187,-14.30607 -5.69226,-1.49198 -1.14508,2.10094 -0.85705,5.54459 0.81318,7.45988 4.02542,4.616 17.63312,1.06008 14.63725,0.373"
       id="path43" />
    <path
       style="fill:none;stroke:#000000;stroke-width:1.5875;stroke-linecap:round;stroke-linejoin:round"
       d="m 386.04703,109.06952 c -1.2772,-0.68841 9.20081,-0.18589 10.19619,-4.08804 1.01283,-3.97057 -13.92763,-1.3278 -15.75776,1.36268 -5.95209,8.7502 9.60594,13.29683 15.2943,7.72184"
       id="path44" />
    <path
       style="fill:none;stroke:#000000;stroke-width:1.5875;stroke-linecap:round;stroke-linejoin:round"
       d="m 398.20335,114.56953 c -3.0293,-21.359929 12.81803,-11.32366 9.50371,2.67629"
       id="path45" />
    <path
       style="fill:none;stroke:#000000;stroke-width:1.5875;stroke-linecap:round;stroke-linejoin:round"
       d="m -86.067335,158.63229 c 2.954817,5.80506 -0.252424,-16.63013 -0.499798,-20.62007 3.130229,-1.69836 4.129825,-3.39364 6.997152,-2.45477 9.320817,3.05196 -2.998778,9.28599 -2.998778,9.81907 0,0.21609 10.464745,2.57652 8.496541,10.31003"
       id="path46" />
    <path
       style="fill:none;stroke:#000000;stroke-width:1.5875;stroke-linecap:round;stroke-linejoin:round"
       d="m -67.351214,149.52107 c 1.311616,-1.16168 0.362028,0.50653 4.437123,-0.74081 5.234655,-1.60224 -0.218277,-7.493 -5.24387,-5.1856 -5.327261,2.44588 -5.543949,11.87655 0.806747,13.33444 2.492123,0.5721 5.130251,-0.35301 7.664119,-0.74081"
       id="path47" />
    <path
       style="fill:none;stroke:#000000;stroke-width:1.5875;stroke-linecap:round;stroke-linejoin:round"
       d="m -54.752172,143.56316 c 18.773247,-6.38412 -9.077833,13.77789 -1.311418,13.77789 7.466955,0 7.612682,-11.51458 6.55708,-10.53602 -6.666885,6.18026 6.219317,7.96831 7.431358,7.29416"
       id="path48" />
    <path
       style="fill:none;stroke:#000000;stroke-width:1.5875;stroke-linecap:round;stroke-linejoin:round"
       d="m -33.585092,142.32585 c 0.689922,-0.0359 2.106341,0.56863 2.069767,-0.10754 -0.02592,-0.47911 -10.135686,2.00411 -10.259545,6.02543 -0.185217,6.01356 7.970038,7.34625 10.602697,7.99282"
       id="path49" />
    <path
       style="fill:none;stroke:#000000;stroke-width:1.5875;stroke-linecap:round;stroke-linejoin:round"
       d="m -27.795758,134.17519 c -3.218282,6.99725 2.161188,20.10769 2.919004,22.25781"
       id="path50" />
    <path
       style="fill:none;stroke:#000000;stroke-width:1.5875;stroke-linecap:round;stroke-linejoin:round"
       d="m -28.525509,139.35143 c 2.806287,-1.6852 11.694242,-1.55288 12.40576,-1.55288"
       id="path51" />
    <path
       style="fill:none;stroke:#000000;stroke-width:1.5875;stroke-linecap:round;stroke-linejoin:round"
       d="m -11.440236,165.82652 c 0,18.19 1.8325916,-36.49417 -1.436195,-15.41993 7.7985598,-15.80166 19.0784278,6.60856 3.8298524,6.60856"
       id="path52" />
    <path
       style="fill:none;stroke:#000000;stroke-width:1.5875;stroke-linecap:round;stroke-linejoin:round"
       d="m 2.4429752,156.28518 c -0.6383084,-0.66091 -1.2766168,-2.64362 -1.91492527,-1.98272 -0.63830942,0.66091 2.16291737,2.88141 1.91492527,1.98272 -6.7662661,-24.52026 16.3027828,-4.21998 0,0 z"
       id="path53" />
    <path
       style="fill:none;stroke:#000000;stroke-width:1.5875;stroke-linecap:round;stroke-linejoin:round"
       d="m 12.017603,145.38025 c -6.1022381,16.82142 9.798304,11.33563 6.702239,-1.48703"
       id="path54" />
    <path
       style="fill:none;stroke:#000000;stroke-width:1.5875;stroke-linecap:round;stroke-linejoin:round"
       d="m 23.028427,144.3889 c -1.045849,1.00353 -1.661511,13.3833 -0.478735,13.3833 4.311537,0 -2.32718,-9.99386 0.478735,-13.3833 1.71276,-2.06895 5.305736,-0.76407 7.659701,-1.98272"
       id="path55" />
    <path
       style="fill:none;stroke:#000000;stroke-width:1.5875;stroke-linecap:round;stroke-linejoin:round"
       d="m 46.446386,156.88686 c -2.6622,1.5401 -5.662153,-0.34508 -6.48848,-3.17959 -0.803784,-2.75715 -1.052949,-6.3018 0.926919,-8.6303 8.537934,-10.04131 17.284144,13.45117 5.561561,11.80989 z"
       id="path56" />
    <path
       style="fill:none;stroke:#000000;stroke-width:1.5875;stroke-linecap:round;stroke-linejoin:round"
       d="m 54.203611,143.39526 c 0,8.12404 0,-10.5246 0,4.67465 0,21.577 -0.623346,-4.10727 0,-4.67465 2.152047,-1.95879 6.086901,0 9.130339,0"
       id="path57" />
    <path
       style="fill:none;stroke:#000000;stroke-width:1.5875;stroke-linecap:round;stroke-linejoin:round"
       d="m 70.797419,156.83567 c -2.728045,2.06402 -4.428961,-0.0294 -5.507861,-3.03308 -6.94048,-19.32232 27.903007,-5.8738 5.507861,3.03308 z"
       id="path58" />
    <path
       style="fill:none;stroke:#000000;stroke-width:1.5875;stroke-linecap:round;stroke-linejoin:round"
       d="m 77.152634,146.72542 c 0.513193,6.34057 3.247875,31.76284 -13.557793,21.73705"
       id="path59" />
    <path
       style="fill:none;stroke:#000000;stroke-width:1.5875;stroke-linecap:round;stroke-linejoin:round"
       d="m 83.523472,143.71429 c 21.628948,-6.50687 -6.663314,10.03017 -3.244245,12.26411 8.208401,5.36321 10.684173,-8.65432 10.659654,-8.6303 -3.764521,3.68949 0.842158,9.21886 5.098102,8.17608"
       id="path60" />
    <path
       style="fill:none;stroke:#000000;stroke-width:1.5875;stroke-linecap:round;stroke-linejoin:round"
       d="m 95.573563,157.72832 c 7.379327,-33.15827 10.015677,-9.90444 8.288507,0.52115"
       id="path61" />
    <path
       style="fill:none;stroke:#000000;stroke-width:1.5875;stroke-linecap:round;stroke-linejoin:round"
       d="m 109.94088,139.17202 c -0.42456,3.84158 -2.28045,16.4979 -2.31731,16.80638"
       id="path62" />
    <path
       style="fill:none;stroke:#000000;stroke-width:1.5875;stroke-linecap:round;stroke-linejoin:round"
       d="m 110.40435,128.72483 c 0,2.42254 0,2.42254 0,0 z"
       id="path63" />
    <path
       style="fill:none;stroke:#000000;stroke-width:1.5875;stroke-linecap:round;stroke-linejoin:round"
       d="m 119.21016,144.16852 c 2.11649,-1.36388 -4.59633,-3.85903 -5.56156,1.81691 -0.58506,3.44041 12.6028,14.62513 -2.31732,10.4472"
       id="path64" />
    <path
       style="fill:none;stroke:#000000;stroke-width:1.5875;stroke-linecap:round;stroke-linejoin:round"
       d="m 123.9169,149.97041 c 1.33492,-0.0844 4.17836,0.24403 4.8652,-1.77094 2.72551,-7.99587 -6.87384,-7.74248 -6.25017,-2.63517 2.15038,17.60939 1.59803,-11.64115 -0.2884,10.12187 -0.31259,3.60619 11.21098,0.008 12.40373,-2.109"
       id="path65" />
    <path
       style="fill:none;stroke:#000000;stroke-width:1.5875;stroke-linecap:round;stroke-linejoin:round"
       d="m 135.43138,143.26007 c 1.33861,0.28219 -1.57339,14.08102 -1.39039,14.08102 3.47673,0 -3.13907,-18.30952 8.80581,-13.6268"
       id="path66" />
    <path
       style="fill:none;stroke:#000000;stroke-width:1.5875;stroke-linecap:round;stroke-linejoin:round"
       d="m 157.21417,150.5277 c -0.97208,1.248 7.97475,-0.0784 6.95194,-4.08804 -3.03057,-11.88074 -29.77435,13.74 0.46346,10.44721 3.58528,-0.39043 4.51919,-1.51462 5.09812,-2.27114"
       id="path67" />
    <path
       style="fill:none;stroke:#000000;stroke-width:1.5875;stroke-linecap:round;stroke-linejoin:round"
       d="m 174.32388,130.99599 c -1.99351,2.45899 -13.63125,34.73556 7.91731,22.92901"
       id="path68" />
    <path
       style="fill:none;stroke:#000000;stroke-width:1.5875;stroke-linecap:round;stroke-linejoin:round"
       d="m 171.4963,138.43243 c 2.83017,0.60546 5.65518,1.2394 8.48278,1.8591"
       id="path69" />
    <path
       style="fill:none;stroke:#000000;stroke-width:1.58751;stroke-linecap:round;stroke-linejoin:round"
       d="m 194.15395,158.07111 c -11.44422,-16.50118 18.57596,-22.14128 11.11034,-3.33232 -2.07193,5.22001 -7.40815,3.85051 -11.11034,3.33232 z"
       id="path70" />
    <path
       style="fill:none;stroke:#000000;stroke-width:1.5875;stroke-linecap:round;stroke-linejoin:round"
       d="m 206.80476,146.44006 c -0.41544,2.08613 0.27642,3.26361 0.92693,5.02784 7.36473,19.97391 -11.58166,28.17734 -13.44045,20.11136"
       id="path71" />
    <path
       style="fill:none;stroke:#000000;stroke-width:1.5875;stroke-linecap:round;stroke-linejoin:round"
       d="m 213.29325,148.71079 c -0.14377,0.0927 5.40099,2.13163 7.41541,-1.81691 2.45096,-4.80421 -10.63825,-3.13762 -9.73273,-1.36268 0.59433,1.16497 3.00106,2.06273 2.31732,3.17959 -0.65544,1.07062 -2.43377,-0.90846 -3.70771,-0.90846 -2.3248,0 2.96638,8.44866 5.56156,9.08453 3.7081,0.90855 6.90217,-0.85967 7.41542,-1.36268"
       id="path72" />
    <path
       style="fill:none;stroke:#000000;stroke-width:1.5875;stroke-linecap:round;stroke-linejoin:round"
       d="m 208.65862,137.80936 c 3.46618,-1.82497 6.80495,-5.72485 8.8058,-8.17608"
       id="path73" />
    <path
       style="fill:none;stroke:#000000;stroke-width:1.5875;stroke-linecap:round;stroke-linejoin:round"
       d="m 224.87984,143.26006 c 0,2.87677 0,5.75354 0,8.6303 0,13.92521 -1.17667,-7.47708 0,-8.6303 1.75124,-1.71633 4.93879,0.45423 7.41542,0.45423"
       id="path74" />
    <path
       style="fill:none;stroke:#000000;stroke-width:1.5875;stroke-linecap:round;stroke-linejoin:round"
       d="m 233.22218,151.43614 c 2.49283,0.0805 5.47477,0.0851 7.41542,-1.81691 4.02485,-3.94464 -2.27591,-8.21667 -5.56156,-4.99649 -10.42611,10.2183 3.99166,14.9199 11.12312,13.17256"
       id="path75" />
    <path
       style="fill:none;stroke:#000000;stroke-width:1.5875;stroke-linecap:round;stroke-linejoin:round"
       d="m 244.80876,141.44316 c 0.82905,33.24568 -5.69403,3.88257 9.73274,1.36268"
       id="path76" />
    <path
       style="fill:none;stroke:#000000;stroke-width:1.5875;stroke-linecap:round;stroke-linejoin:round"
       d="m 269.09169,158.17826 c -0.93848,-0.4118 -2.34622,-2.05908 -2.81546,-1.23544 -0.46924,0.82364 3.33604,2.03497 2.81546,1.23544 -4.02517,-6.18199 -6.99327,-4.52316 -5.63091,-10.50132 3.39437,-14.8949 24.17057,10.50132 5.63091,10.50132 z"
       id="path77" />
    <path
       style="fill:none;stroke:#000000;stroke-width:1.5875;stroke-linecap:round;stroke-linejoin:round"
       d="m 276.32428,129.17905 c -0.30743,9.30477 -0.21362,18.81966 -0.46346,28.16204"
       id="path78" />
    <path
       style="fill:none;stroke:#000000;stroke-width:1.5875;stroke-linecap:round;stroke-linejoin:round"
       d="m 285.00754,151.2923 c -0.19862,0.5484 5.20114,-0.20051 5.75695,-4.326 0.73016,-5.41958 -13.22921,-1.65898 -13.93205,3.55785 -1.21678,9.03156 12.71566,10.72174 15.59917,4.91637"
       id="path79" />
    <path
       style="fill:none;stroke:#000000;stroke-width:1.5875;stroke-linecap:round;stroke-linejoin:round"
       d="m 301.81478,142.80584 c -21.42377,-4.7349 19.45614,21.34636 -10.1962,14.08102"
       id="path80" />
    <path
       style="fill:none;stroke:#000000;stroke-width:1.5875;stroke-linecap:round;stroke-linejoin:round"
       d="m 313.46394,157.34115 c -3.16287,-1.87001 -3.43805,-28.61638 11.9875,-28.61638"
       id="path81" />
    <path
       style="fill:none;stroke:#000000;stroke-width:1.5875;stroke-linecap:round;stroke-linejoin:round"
       d="m 316.7938,142.70022 c 2.07782,-0.34314 4.03841,-1.21491 5.99376,-1.99649"
       id="path82" />
    <path
       style="fill:none;stroke:#000000;stroke-width:1.5875;stroke-linecap:round;stroke-linejoin:round"
       d="m 324.06671,145.57517 c 17.81056,-1.80122 -12.37381,7.69032 -7.44379,11.55412 5.05125,3.95881 14.67091,-7.03633 12.09508,-7.80077 -0.99474,-0.29521 -4.03194,8.14274 1.80247,6.70465"
       id="path83" />
    <path
       style="fill:none;stroke:#000000;stroke-width:1.5875;stroke-linecap:round;stroke-linejoin:round"
       d="m 329.70519,142.17802 c 5.61359,2.25793 8.09661,19.99581 9.85939,12.82695 1.13938,-4.63364 3.30668,-9.70856 6.00129,-13.24541"
       id="path84" />
    <path
       style="fill:none;stroke:#000000;stroke-width:1.5875;stroke-linecap:round;stroke-linejoin:round"
       d="m 350.9602,158.24853 c -21.84106,-21.17295 31.96691,-23.07776 0,0 z"
       id="path85" />
    <path
       style="fill:none;stroke:#000000;stroke-width:1.5875;stroke-linecap:round;stroke-linejoin:round"
       d="m 366.72458,141.6173 c 5.42544,1.32873 -6.18642,16.63279 -0.59833,16.63279 3.11361,0 -1.65307,-15.03624 0.59833,-16.63279 2.75905,-1.95654 6.84705,0.66016 10.1718,0"
       id="path86" />
    <path
       style="fill:none;stroke:#000000;stroke-width:1.5875;stroke-linecap:round;stroke-linejoin:round"
       d="m 377.37111,144.62275 c 0.15419,4.56196 -0.45583,9.12069 -0.93868,13.6268"
       id="path87" />
    <path
       style="fill:none;stroke:#000000;stroke-width:1.5875;stroke-linecap:round;stroke-linejoin:round"
       d="m 391.24092,138.72497 c -21.60312,1.93089 0.67669,11.98858 1.11369,13.66428 1.20732,4.62963 -8.91894,5.05506 -11.47381,3.95952"
       id="path88" />
    <path
       style="fill:none;stroke:#000000;stroke-width:1.5875;stroke-linecap:round;stroke-linejoin:round"
       d="m -23.345909,179.2974 c -0.854192,4.74547 2.304137,8.97898 2.889244,13.55344 1.999857,15.63554 3.260653,-6.00574 8.667722,-13.05145"
       id="path89" />
    <path
       style="fill:none;stroke:#000000;stroke-width:1.5875;stroke-linecap:round;stroke-linejoin:round"
       d="m -8.5449626,180.20597 c -0.2882434,5.45908 -0.4634593,14.80318 -0.4634593,18.16906"
       id="path90" />
    <path
       style="fill:none;stroke:#000000;stroke-width:1.5875;stroke-linecap:round;stroke-linejoin:round"
       d="m -8.190069,169.06319 c -0.00685,1.52163 -0.086884,3.06606 -0.4634692,4.54226"
       id="path91" />
    <path
       style="fill:none;stroke:#000000;stroke-width:1.5875;stroke-linecap:round;stroke-linejoin:round"
       d="m 377.96752,132.90087 c -0.007,1.52163 -0.0869,3.06606 -0.46347,4.54227"
       id="path91-8" />
    <path
       style="fill:none;stroke:#000000;stroke-width:1.5875;stroke-linecap:round;stroke-linejoin:round"
       d="m -1.788923,184.76495 c -2.0147097,-0.61891 6.0486007,-4.88075 7.02719,-1.51366 1.4821053,5.0996 -16.991165,12.35197 -10.4614544,15.91407 3.9608517,2.16074 12.5113287,-12.18772 10.2974022,-12.28382 -2.8911908,-0.12549 -0.6523341,9.56761 3.6954345,10.61786"
       id="path92" />
    <path
       style="fill:none;stroke:#000000;stroke-width:1.5875;stroke-linecap:round;stroke-linejoin:round"
       d="m 18.364759,184.64032 c 1.288593,22.9317 6.248737,11.03462 11.123103,-0.90845"
       id="path93" />
    <path
       style="fill:none;stroke:#000000;stroke-width:1.5875;stroke-linecap:round;stroke-linejoin:round"
       d="m 28.56096,195.54175 c 6.310055,-24.79796 13.037427,-3.69307 7.878868,1.36267"
       id="path94" />
    <path
       style="fill:none;stroke:#000000;stroke-width:1.5875;stroke-linecap:round;stroke-linejoin:round"
       d="m 42.557537,191.45601 c 2.620842,0.82432 7.15339,0.73279 8.594775,-2.56455 2.257162,-5.16351 -5.952349,-5.29188 -7.847411,-3.84682 -3.37757,2.57554 -0.747364,3.03689 -0.747364,6.41137 0,1.27433 -1.142434,2.21046 -1.494746,3.41939 -1.060689,3.63969 13.157925,3.93112 13.452686,3.84683"
       id="path95" />
    <path
       style="fill:none;stroke:#000000;stroke-width:1.5875;stroke-linecap:round;stroke-linejoin:round"
       d="m 64.711101,185.93789 c 0.859906,3.61197 0.463465,12.7927 0.463465,13.37967"
       id="path96" />
    <path
       style="fill:none;stroke:#000000;stroke-width:1.5875;stroke-linecap:round;stroke-linejoin:round"
       d="m 65.63803,174.91935 c 0.363529,1.54908 0.463462,3.14269 0.463462,4.72223"
       id="path97" />
    <path
       style="fill:none;stroke:#000000;stroke-width:1.5875;stroke-linecap:round;stroke-linejoin:round"
       d="m 67.955346,198.92394 c 1.812221,-25.77197 17.202743,-9.09345 11.123122,-0.49179"
       id="path98" />
    <path
       style="fill:none;stroke:#000000;stroke-width:1.5875;stroke-linecap:round;stroke-linejoin:round"
       d="m 82.10781,173.73867 c 1.123739,9.76309 -2.266936,32.83688 13.654999,22.84693"
       id="path99" />
    <path
       style="fill:none;stroke:#000000;stroke-width:1.5875;stroke-linecap:round;stroke-linejoin:round"
       d="m 80.46921,180.59275 c 2.939029,-1.08401 6.168918,-1.14236 9.285399,-1.14236"
       id="path100" />
    <path
       style="fill:none;stroke:#000000;stroke-width:1.5875;stroke-linecap:round;stroke-linejoin:round"
       d="m 96.801914,190.79439 c 2.638611,0.13296 6.395276,-0.61168 6.692726,-3.34993 0.13065,-1.20269 -0.94584,-1.48122 -1.9872,-2.03019 -11.394291,-6.0067 -13.416574,19.17681 5.63429,11.81351"
       id="path101" />
    <path
       style="fill:none;stroke:#000000;stroke-width:1.58749;stroke-linecap:round;stroke-linejoin:round"
       d="m 106.88647,184.94981 c 7.39874,28.03051 -6.70775,2.74933 11.12274,-0.97936"
       id="path102" />
    <path
       style="fill:none;stroke:#000000;stroke-width:1.5875;stroke-linecap:round;stroke-linejoin:round"
       d="m 117.57145,198.92433 c -1.81604,-5.38996 4.0008,-22.95414 12.0247,-24.79229"
       id="path103" />
    <path
       style="fill:none;stroke:#000000;stroke-width:1.5875;stroke-linecap:round;stroke-linejoin:round"
       d="m 122.08071,186.9873 c -1.38487,0.35032 2.33814,-1.53039 3.50721,-2.29559"
       id="path104" />
    <path
       style="fill:none;stroke:#000000;stroke-width:1.5875;stroke-linecap:round;stroke-linejoin:round"
       d="m 129.53354,185.10056 c 23.36048,-2.29636 -5.37637,8.78953 -4.07957,12.20873 3.46066,9.12455 12.75232,-5.70759 13.27859,-8.62276 0.4472,-2.47713 -1.81068,5.30027 -0.41799,7.50981 1.09689,1.74025 3.26495,1.61928 5.28668,1.88241"
       id="path105" />
    <path
       style="fill:none;stroke:#000000;stroke-width:1.5875;stroke-linecap:round;stroke-linejoin:round"
       d="m 152.76916,184.77834 c -14.81515,-1.9511 -10.80373,21.52742 5.56156,13.01611"
       id="path106" />
    <path
       style="fill:none;stroke:#000000;stroke-width:1.5875;stroke-linecap:round;stroke-linejoin:round"
       d="m 167.59999,192.49161 c 2.93453,0.41259 4.43752,-1.03617 5.56157,-3.37455 6.73778,-14.01681 -26.35231,10.12363 -4.17117,10.12363 1.91091,0 3.85239,-0.55731 5.56156,-1.44624"
       id="path107" />
    <path
       style="fill:none;stroke:#000000;stroke-width:1.5875;stroke-linecap:round;stroke-linejoin:round"
       d="m 184.74814,211.43967 c 1.52737,-5.98769 -0.36669,-17.30077 -0.46346,-24.98243 14.49433,-4.90734 12.1177,18.10522 0.46346,9.53875"
       id="path108" />
    <path
       style="fill:none;stroke:#000000;stroke-width:1.5875;stroke-linecap:round;stroke-linejoin:round"
       d="m 203.70878,193.12196 c -1.6028,-1.04893 7.58842,0.14452 7.78518,-2.04986 0.62424,-6.9622 -12.05644,-6.45898 -13.9091,-0.80331 -4.47698,13.66692 14.50823,8.44634 16.08831,6.77637"
       id="path109" />
    <path
       style="fill:none;stroke:#000000;stroke-width:1.5875;stroke-linecap:round;stroke-linejoin:round"
       d="m 216.26367,185.54878 c -0.54302,0.74002 -0.53279,14.08102 -0.46347,14.08102 1.19698,0 0.3394,-13.95944 0.46347,-14.08102 1.86988,-1.83261 5.42361,0.0541 7.87888,-0.90845"
       id="path110" />
    <path
       style="fill:none;stroke:#000000;stroke-width:1.5875;stroke-linecap:round;stroke-linejoin:round"
       d="m 236.32473,186.34709 c -0.17812,-0.87663 1.34404,-1.51717 -3.853,-2.21771 -5.17827,-0.698 -7.34302,3.21911 -5.87986,7.27452 1.35818,3.76446 9.88538,2.01432 11.23697,5.76052 1.29259,3.58268 -8.54956,4.50869 -12.14242,2.60913"
       id="path111" />
    <path
       style="fill:none;stroke:#000000;stroke-width:1.5875;stroke-linecap:round;stroke-linejoin:round"
       d="m 245.77275,199.52825 c -5.39533,-2.12702 4.73227,4.88336 -3.72141,-2.11333 -3.52889,-2.92068 3.6926,-15.92721 7.93593,-12.07606 7.47353,6.78275 6.49411,15.97037 -4.21452,14.18939 z"
       id="path112" />
    <path
       style="fill:none;stroke:#000000;stroke-width:1.5875;stroke-linecap:round;stroke-linejoin:round"
       d="m 256.59012,200.08414 c -0.93449,-30.64037 15.1874,-10.78602 9.57426,0"
       id="path115" />
    <path
       style="fill:none;stroke:#000000;stroke-width:1.5875;stroke-linecap:round;stroke-linejoin:round"
       d="m 269.56196,199.62979 c -0.0976,-21.12773 14.2763,-23.26274 8.34235,0"
       id="path116" />
    <path
       style="fill:none;stroke:#000000;stroke-width:1.5875;stroke-linecap:round;stroke-linejoin:round"
       d="m 286.4172,184.91576 c 0.58275,-0.39918 2.18529,-0.66529 1.74823,-1.19752 -0.43705,-0.53223 -2.4549,1.35887 -1.74823,1.19752 16.1313,-3.68326 -8.48317,12.89133 -4.37056,14.76937 6.74284,3.07919 11.14854,-11.97517 9.17819,-11.97517 -1.58966,0 -1.67942,11.87019 5.68175,9.18096"
       id="path117" />
    <path
       style="fill:none;stroke:#000000;stroke-width:1.5875;stroke-linecap:round;stroke-linejoin:round"
       d="m 296.90631,171.92199 c 2.67961,6.64376 1.73846,27.24747 1.85386,28.16202"
       id="path118" />
    <path
       style="fill:none;stroke:#000000;stroke-width:1.5875;stroke-linecap:round;stroke-linejoin:round"
       d="m 303.85827,183.27764 c 0.53296,4.24888 0.36314,14.75102 0.46346,15.89791"
       id="path119" />
    <path
       style="fill:none;stroke:#000000;stroke-width:1.5875;stroke-linecap:round;stroke-linejoin:round"
       d="m 304.32173,174.19312 c 0,0.9116 0,1.69999 0,3.63381"
       id="path120" />
    <path
       style="fill:none;stroke:#000000;stroke-width:1.5875;stroke-linecap:round;stroke-linejoin:round"
       d="m 314.22683,185.70533 c 3.33814,-2.81956 -6.52946,-4.65575 -5.08895,0 1.73958,5.62252 15.80958,10.54502 3.05337,13.98075 -3.62071,0.97523 -3.23465,0.48782 -5.08896,-0.41119"
       id="path121" />
    <path
       style="fill:none;stroke:#000000;stroke-width:1.5875;stroke-linecap:round;stroke-linejoin:round"
       d="m 325.8082,193.23846 c -0.0886,2.30455 5.32613,-2.57448 5.02281,-4.86142 -2.49222,-18.79041 -24.74256,14.91674 -2.82027,10.35764 3.47891,-0.7235 6.43559,-3.05969 6.99468,-3.66843"
       id="path122" />
    <path
       style="fill:none;stroke:#000000;stroke-width:1.5875;stroke-linecap:round;stroke-linejoin:round"
       d="m 320.07947,178.73538 c 4.04051,-2.68778 8.44723,-5.35126 12.05006,-8.17607"
       id="path123" />
    <path
       style="fill:none;stroke:#000000;stroke-width:1.5875;stroke-linecap:round;stroke-linejoin:round"
       d="m 342.61112,191.81623 c 13.65657,3.03996 1.63532,-17.20295 -5.74123,-6.52104 -1.36054,1.9702 -2.98304,5.04925 -2.2844,7.52578 3.9103,13.86138 17.358,3.12608 15.35581,4.23347"
       id="path124" />
    <path
       style="fill:none;stroke:#000000;stroke-width:1.5875;stroke-linecap:round;stroke-linejoin:round"
       d="m 357.00074,199.43702 c -0.15447,-0.60563 0.15449,-1.96831 -0.46347,-1.81689 -0.61793,0.1514 0.46347,2.44117 0.46347,1.81689 0,-11.87939 4.07608,0.49935 0,0 -1.62873,-0.19953 -1.10009,-6.67114 1.39039,-5.45071 1.68009,0.82329 0.96845,5.83602 -1.39039,5.45071 -2.31271,-0.37776 2.72248,-9.33874 0,0 z"
       id="path125" />
  </g>
</svg>
