<?xml version="1.0" encoding="UTF-8" standalone="no"?>
<!-- Created with Inkscape (http://www.inkscape.org/) -->

<svg
   width="270.28241mm"
   height="50.476734mm"
   viewBox="-15 -5 300 70"
   version="1.1"
   id="svg1"
   xmlns="http://www.w3.org/2000/svg"
   xmlns:svg="http://www.w3.org/2000/svg">
  <defs
     id="defs1" />
  <g
     id="layer1"
     transform="translate(123.04879,-139.22626)">
    <path
       style="fill:none;stroke:#000000;stroke-width:1.5875;stroke-linecap:round;stroke-linejoin:round"
       d="m -46.557399,143.69154 c -2.073919,-2.50919 4.262076,2.15531 -2.679563,-2.00967 -2.846743,-1.70805 -8.854226,3.72805 -7.368796,6.6989 2.119548,4.2391 11.28966,-1.20179 13.397812,3.01451 2.521759,5.04352 -11.285292,7.08528 -14.067703,5.69407"
       id="path2" />
    <path
       style="fill:none;stroke:#000000;stroke-width:1.5875;stroke-linecap:round;stroke-linejoin:round"
       d="m -33.780755,148.98866 c -8.248666,-2.90737 -12.054711,13.73824 2.29589,7.36452"
       id="path3" />
    <path
       style="fill:none;stroke:#000000;stroke-width:1.5875;stroke-linecap:round;stroke-linejoin:round"
       d="m -29.390206,150.09957 c 2.93267,-3.13567 -4.425889,4.07952 1.679841,-2.01069 1.55984,-1.55587 4.628222,0.31439 3.91963,2.01069 -0.531745,1.27294 -11.01065,6.85156 -5.039525,8.04275 5.594633,1.11608 5.319497,-7.396 5.319497,-6.70229 0,1.94437 0.405118,5.00175 3.07971,4.46819"
       id="path4" />
    <path
       style="fill:none;stroke:#000000;stroke-width:1.5875;stroke-linecap:round;stroke-linejoin:round"
       d="m -19.282623,156.92963 c -4.926454,-15.18868 12.1407671,-12.35855 5.537852,0.82956"
       id="path5" />
    <path
       style="fill:none;stroke:#000000;stroke-width:1.5875;stroke-linecap:round;stroke-linejoin:round"
       d="m -7.7037419,140.34208 c 0.560888,5.1994 1.271601,15.07551 0.334944,17.41716"
       id="path8" />
    <path
       style="fill:none;stroke:#000000;stroke-width:1.5875;stroke-linecap:round;stroke-linejoin:round"
       d="M -3.6843999,157.75924 C -5.1708949,127.864 10.012584,141.75341 3.0145061,155.74957"
       id="path9" />
    <path
       style="fill:none;stroke:#000000;stroke-width:1.5875;stroke-linecap:round;stroke-linejoin:round"
       d="m -3.6843999,148.38077 c 2.327812,0.30164 4.686578,0.33494 7.033853,0.33494"
       id="path10" />
    <path
       style="fill:none;stroke:#000000;stroke-width:1.5875;stroke-linecap:round;stroke-linejoin:round"
       d="m 9.7134131,151.39528 c 2.5489719,-0.38311 5.2030979,-0.0447 7.7037439,-0.66989"
       id="path59" />
    <path
       style="fill:none;stroke:#000000;stroke-width:1.5875;stroke-linecap:round;stroke-linejoin:round"
       d="m 23.446172,157.08936 c 0.920687,-1.22758 0.595654,-14.27786 1.004836,-14.73759 12.956139,-6.58737 9.148685,10.43588 1.004835,6.36396"
       id="path11" />
    <path
       style="fill:none;stroke:#000000;stroke-width:1.5875;stroke-linecap:round;stroke-linejoin:round"
       d="m 35.718661,147.041 c 2.251369,3.17951 -1.325344,10.04835 0.535913,10.04835 1.629915,0 -0.80387,-2.9207 -0.80387,-4.41147 0,-3.48855 4.728744,-4.54125 5.359127,-4.65655"
       id="path12" />
    <path
       style="fill:none;stroke:#000000;stroke-width:1.5875;stroke-linecap:round;stroke-linejoin:round"
       d="m 48.303776,156.78227 c -0.427449,0.34396 -2.405957,0.0374 -4.589658,-1.91224 -8.730212,-7.79437 19.157422,-11.09392 4.589658,1.91224 z"
       id="path13" />
    <path
       style="fill:none;stroke:#000000;stroke-width:1.5875;stroke-linecap:round;stroke-linejoin:round"
       d="m 56.605757,149.05067 c -2.127612,7.81501 4.996744,18.27704 -9.713412,12.39298"
       id="path14" />
    <path
       style="fill:none;stroke:#000000;stroke-width:1.5875;stroke-linecap:round;stroke-linejoin:round"
       d="m 62.741265,151.11364 c 1.506242,0.60832 5.328385,0.47571 6.287875,-1.38765 1.463652,-2.84247 -5.742623,-3.86834 -7.431125,-2.77529 -5.444831,3.52469 0.565518,11.6592 6.8595,8.6034"
       id="path15" />
    <path
       style="fill:none;stroke:#000000;stroke-width:1.5875;stroke-linecap:round;stroke-linejoin:round"
       d="m 73.040886,141.01222 c -4.942574,2.96562 0.898935,23.52468 8.016073,12.66646"
       id="path16" />
    <path
       style="fill:none;stroke:#000000;stroke-width:1.5875;stroke-linecap:round;stroke-linejoin:round"
       d="m 72.182022,144.94319 c 1.775241,0.98211 5.707989,-0.64839 6.298343,-0.87355"
       id="path17" />
    <path
       style="fill:none;stroke:#000000;stroke-width:1.5875;stroke-linecap:round;stroke-linejoin:round"
       d="m 84.406236,140.34214 c 1.173696,4.42574 1.399288,14.90384 1.05263,16.4122"
       id="path18" />
    <path
       style="fill:none;stroke:#000000;stroke-width:1.5875;stroke-linecap:round;stroke-linejoin:round"
       d="m 90.769792,156.23247 c -4.384367,-29.46398 12.781068,-7.03289 5.614012,0.76336"
       id="path19" />
    <path
       style="fill:none;stroke:#000000;stroke-width:1.5875;stroke-linecap:round;stroke-linejoin:round"
       d="m 90.418914,148.98057 c 2.25997,0.70412 4.666679,0.76336 7.017511,0.76336"
       id="path20" />
    <path
       style="fill:none;stroke:#000000;stroke-width:1.5875;stroke-linecap:round;stroke-linejoin:round"
       d="m -121.1967,193.46354 c 0.31804,-23.69329 15.41989,-10.74306 10.3833,-0.66989"
       id="path21" />
    <path
       style="fill:none;stroke:#000000;stroke-width:1.5875;stroke-linecap:round;stroke-linejoin:round"
       d="m -118.51714,187.43452 c 3.01634,0.0371 6.05726,-0.0917 9.04352,0.33495"
       id="path22" />
    <path
       style="fill:none;stroke:#000000;stroke-width:1.5875;stroke-linecap:round;stroke-linejoin:round"
       d="m -106.48309,193.12873 c -1.39825,-14.83685 10.111738,-10.07253 5.59251,-0.58692"
       id="path23" />
    <path
       style="fill:none;stroke:#000000;stroke-width:1.5875;stroke-linecap:round;stroke-linejoin:round"
       d="m -95.301392,184.83564 c 0.440844,-0.25888 1.587034,-0.34516 1.322528,-0.77663 -0.264504,-0.43147 -1.810248,0.93574 -1.322528,0.77663 3.494354,-1.13999 7.556443,0.83252 3.967582,2.58877 -0.700682,0.34288 -8.99536,3.23489 -5.025602,5.17753 4.852647,2.37469 6.167831,-4.65978 5.554613,-4.65978 -0.948623,0 -0.257014,7.24122 3.438572,3.62427"
       id="path24" />
    <path
       style="fill:none;stroke:#000000;stroke-width:1.5875;stroke-linecap:round;stroke-linejoin:round"
       d="m -85.692503,178.39101 c 0.04426,3.76813 -0.619448,13.64399 -0.669891,14.06772"
       id="path25" />
    <path
       style="fill:none;stroke:#000000;stroke-width:1.5875;stroke-linecap:round;stroke-linejoin:round"
       d="m -83.347886,184.41997 c 1.974122,14.87234 11.684271,-4.51455 3.6844,6.39446 -2.17786,2.96985 -4.521047,5.70838 -6.698906,8.67821"
       id="path26" />
    <path
       style="fill:none;stroke:#000000;stroke-width:1.5875;stroke-linecap:round;stroke-linejoin:round"
       d="m -72.051937,183.98143 c -11.702963,-2.70224 11.837856,11.67401 -4.596161,7.98841"
       id="path27" />
    <path
       style="fill:none;stroke:#000000;stroke-width:1.5875;stroke-linecap:round;stroke-linejoin:round"
       d="m -64.244998,189.5605 c 0.194976,-0.5343 1.701353,0.54858 2.028952,-2.01969 1.080289,-8.46901 -14.208314,4.71618 -2.096305,6.51529 1.39135,0.20667 2.71047,-0.92285 3.89151,-1.74303"
       id="path56" />
    <path
       style="fill:none;stroke:#000000;stroke-width:1.5875;stroke-linecap:round;stroke-linejoin:round"
       d="m -49.038278,186.21222 c 0.54277,-2.94134 6.869635,-0.70535 4.018477,1.68328 -1.557589,1.3049 -9.280357,3.52723 -6.601781,5.77127 2.521481,2.11243 8.492692,-2.74429 6.314743,-4.56892 -0.522291,-0.43756 -1.121315,4.50318 3.157375,3.60704"
       id="path29" />
    <path
       style="fill:none;stroke:#000000;stroke-width:1.5875;stroke-linecap:round;stroke-linejoin:round"
       d="m -40.243315,185.08997 c -3.9657,10.72958 5.127313,11.90968 5.127313,0.62138"
       id="path30" />
    <path
       style="fill:none;stroke:#000000;stroke-width:1.5875;stroke-linecap:round;stroke-linejoin:round"
       d="m -31.766311,179.3982 c -1.874991,-0.61508 -0.910541,21.37997 6.02902,11.69109"
       id="path31" />
    <path
       style="fill:none;stroke:#000000;stroke-width:1.5875;stroke-linecap:round;stroke-linejoin:round"
       d="m -34.110922,182.67171 c 1.8065,-0.76322 6.611781,-1.40294 6.698901,-1.40294"
       id="path32" />
    <path
       style="fill:none;stroke:#000000;stroke-width:1.5875;stroke-linecap:round;stroke-linejoin:round"
       d="m -18.175217,193.20924 c -0.143739,0.10517 -2.904216,1.35096 -4.3449,0.30144 -3.279485,-2.38904 -1.424653,-9.90656 3.103503,-8.44048 5.307057,1.71827 4.953905,8.53971 -1.551751,7.83759"
       id="path33" />
    <path
       style="fill:none;stroke:#000000;stroke-width:1.5875;stroke-linecap:round;stroke-linejoin:round"
       d="m -13.679258,193.46354 c -1.72592,-2.41951 -0.84772,-10.84644 3.6843897,-9.71341 2.3393795,0.58484 2.1404195,7.44225 1.3397895,9.04352 -0.2233,0.44659 -1.1691995,1.33978 -0.6698898,1.33978 0.18425,0 -0.1696197,-7.6472 4.0193398,-9.04352 3.4130796,-1.1377 0.9204296,8.45804 0.6698896,8.70858"
       id="path34" />
    <path
       style="fill:none;stroke:#000000;stroke-width:1.5875;stroke-linecap:round;stroke-linejoin:round"
       d="m -1.4451112,186.80977 c 0.369459,-0.36311 1.47781794,-0.72621 1.10836794,-1.08932 -0.36945897,-0.36311 -1.51636094,1.41011 -1.10836794,1.08932 1.66229995,-1.30699 3.865319,-4.09866 6.095986,-1.90631 3.350889,3.29333 -9.475631,7.73459 -6.373071,9.25922 2.11967995,1.04164 7.845636,-5.17427 5.818891,-5.17427 -1.984637,0 0.447834,4.08496 3.325078,4.08496"
       id="path35" />
    <path
       style="fill:none;stroke:#000000;stroke-width:1.58749;stroke-linecap:round;stroke-linejoin:round"
       d="m 12.111528,175.04157 c -10.1345202,13.38967 1.24472,20.26577 6.029011,18.28694"
       id="path36" />
    <path
       style="fill:none;stroke:#000000;stroke-width:1.58749;stroke-linecap:round;stroke-linejoin:round"
       d="m 10.101858,182.2455 c 1.55322,-0.96997 5.970281,-1.59007 6.363961,-1.66244"
       id="path37" />
    <path
       style="fill:none;stroke:#000000;stroke-width:1.5875;stroke-linecap:round;stroke-linejoin:round"
       d="m 20.820103,183.41575 c -3.11264,3.52006 -1.62661,9.46405 3.34945,10.38216"
       id="path38" />
    <path
       style="fill:none;stroke:#000000;stroke-width:1.5875;stroke-linecap:round;stroke-linejoin:round"
       d="m 21.489993,172.36198 c -0.26589,0.54727 0.70617,2.29626 -1.33978,5.02419"
       id="path39" />
    <path
       style="fill:none;stroke:#000000;stroke-width:1.5875;stroke-linecap:round;stroke-linejoin:round"
       d="m 31.765729,185.16172 c 4.124213,-1.09896 -6.253282,-3.79934 -4.708233,0.59517 0.318928,0.90713 14.095442,10.4695 -1.883291,7.43966"
       id="path40" />
    <path
       style="fill:none;stroke:#000000;stroke-width:1.5875;stroke-linecap:round;stroke-linejoin:round"
       d="m 37.959122,189.17849 c 0.219276,0.0411 3.003678,-0.0413 3.766583,-1.48792 1.706561,-3.23593 -10.220923,-4.0736 -8.160938,1.78551 1.275713,3.62846 7.820118,6.35149 8.788701,2.67829"
       id="path41" />
    <path
       style="fill:none;stroke:#000000;stroke-width:1.5875;stroke-linecap:round;stroke-linejoin:round"
       d="m 33.878653,182.03642 c 0.633209,0.46269 2.599631,-1.47652 4.708233,-2.97587"
       id="path42" />
    <path
       style="fill:none;stroke:#000000;stroke-width:1.5875;stroke-linecap:round;stroke-linejoin:round"
       d="m 49.320824,189.87457 c 0.007,0.22144 3.034752,0.35525 3.455196,-2.47564 0.454868,-3.0626 -9.879952,-0.56772 -10.463414,3.36081 -0.873621,5.88224 9.752157,4.56977 10.659675,1.93237"
       id="path43" />
    <path
       style="fill:none;stroke:#000000;stroke-width:1.5875;stroke-linecap:round;stroke-linejoin:round"
       d="m 65.210244,193.25132 c 0.31121,0.86619 -2.50513,1.90513 -4.64572,-0.29897 -0.94174,-0.96968 -0.90545,-2.5321 -0.29036,-3.58766 4.46594,-7.66406 13.00686,-0.86207 4.93608,3.88663 z"
       id="path44" />
    <path
       style="fill:none;stroke:#000000;stroke-width:1.5875;stroke-linecap:round;stroke-linejoin:round"
       d="m 67.042564,174.70659 c 2.04323,4.72866 1.5062,17.96378 1.33978,18.75695"
       id="path45" />
    <path
       style="fill:none;stroke:#000000;stroke-width:1.5875;stroke-linecap:round;stroke-linejoin:round"
       d="m 73.741464,175.71144 c 0.32459,0.33135 0.33867,2.45006 -1.00483,4.68923"
       id="path46" />
    <path
       style="fill:none;stroke:#000000;stroke-width:1.5875;stroke-linecap:round;stroke-linejoin:round"
       d="m 77.070574,185.23812 c 4.51289,-2.93726 -5.70179,3.6313 2.60502,-1.54641 2.15006,-1.34016 1.46177,4.62628 0.28944,5.67016 -1.27411,1.13453 -4.06578,1.82826 -4.92058,3.35055 -0.37222,0.66289 -0.37855,1.37788 0.57889,1.80415 3.07961,1.37111 8.59641,-6.44337 5.49947,-6.44337 -0.26244,0 -0.21976,5.45157 4.34169,4.63922"
       id="path47" />
    <path
       style="fill:none;stroke:#000000;stroke-width:1.5875;stroke-linecap:round;stroke-linejoin:round"
       d="m 85.799504,193.79849 c 0.0408,-15.11954 10.51106,-11.54006 6.02901,-0.33495"
       id="path48" />
    <path
       style="fill:none;stroke:#000000;stroke-width:1.58749;stroke-linecap:round;stroke-linejoin:round"
       d="m 94.181004,192.7391 c -1.17215,-12.89196 10.931076,-11.6376 5.19913,0.38961"
       id="path49" />
    <path
       style="fill:none;stroke:#000000;stroke-width:1.5875;stroke-linecap:round;stroke-linejoin:round"
       d="m 107.90589,193.11116 c -0.55824,-0.2904 -1.45142,-1.59715 -1.67472,-0.87117 -0.2233,0.72597 2.24512,1.11842 1.67472,0.87117 -18.561566,-8.04624 15.60603,-14.49651 0,0 z"
       id="path50" />
    <path
       style="fill:none;stroke:#000000;stroke-width:1.5875;stroke-linecap:round;stroke-linejoin:round"
       d="m 112.93332,192.87673 c -0.61428,-13.25487 8.3745,-11.13034 5.98328,1.59163"
       id="path52" />
    <path
       style="fill:none;stroke:#000000;stroke-width:1.5875;stroke-linecap:round;stroke-linejoin:round"
       d="m 126.3726,184.18388 c -6.3556,-2.76227 -9.87447,12.52009 1.62956,9.12838"
       id="path53" />
    <path
       style="fill:none;stroke:#000000;stroke-width:1.5875;stroke-linecap:round;stroke-linejoin:round"
       d="m 133.07734,189.09543 c 0.29338,0.10989 2.19611,0.85449 3.76539,-2.19545 2.56979,-4.99447 -6.10522,-2.63467 -7.79973,0 -5.00898,7.78808 6.83813,7.70767 8.33764,5.95906"
       id="path58" />
    <path
       style="fill:none;stroke:#000000;stroke-width:1.5875;stroke-linecap:round;stroke-linejoin:round"
       d="m 145.00177,184.13308 c -1.51034,0.24326 0.0621,-1.87969 -3.65081,-0.79782 -13.3132,3.87916 13.22618,7.2504 4.25929,11.16951 -1.24287,0.54322 -6.91619,-0.79781 -7.60587,-0.79781"
       id="path55" />
    <path
       style="fill:none;stroke:#000000;stroke-width:1.5875;stroke-linecap:round;stroke-linejoin:round"
       d="m -63.428701,161.66759 c 40.018092,2.48784 100.279907,-3.01451 147.107611,-3.01451 8.673662,0 20.41698,1.84984 27.06431,1.33979"
       id="path7" />
    <path
       style="fill:none;stroke:#000000;stroke-width:1.5875;stroke-linecap:round;stroke-linejoin:round"
       d="m -121.70894,198.84663 c 14.38321,-1.39124 48.293552,-1.19075 69.60059,-1.62945 40.932837,-0.84279 81.647651,-2.46403 122.595965,-0.46555 18.365368,0.89631 36.697375,1.39666 55.115185,1.39666 6.56736,0 11.07873,-0.69833 17.31183,-0.69833 1.44894,0 8.50625,0.29542 5.29953,-0.23278"
       id="path6" />
  </g>
</svg>
