<?xml version="1.0" encoding="UTF-8" standalone="no"?>
<!-- Created with Inkscape (http://www.inkscape.org/) -->

<svg
   width="397.72412mm"
   height="195.96469mm"
   viewBox="0 0 397.72412 195.96469"
   version="1.1"
   id="svg1"
   xmlns="http://www.w3.org/2000/svg"
   xmlns:svg="http://www.w3.org/2000/svg">
  <defs
     id="defs1" />
  <g
     id="layer1"
     transform="translate(63.126157,-94.89046)">
    <path
       style="fill:none;stroke:#000000;stroke-width:1.5875;stroke-linecap:round;stroke-linejoin:round"
       d="m -46.063777,99.947624 c -17.811408,-0.06056 -25.68092,20.367936 1.063634,20.367936"
       id="path2" />
    <path
       style="fill:none;stroke:#000000;stroke-width:1.5875;stroke-linecap:round;stroke-linejoin:round"
       d="m -34.105263,121.26315 c -7.153941,1.37917 8.081913,-0.13185 -3.789473,0.94737 -8.954741,0.81407 -6.808801,-11.42771 0,-12.78947 9.540169,-1.90804 11.644674,7.35342 3.789473,11.8421 z"
       id="path3" />
    <path
       style="fill:none;stroke:#000000;stroke-width:1.5875;stroke-linecap:round;stroke-linejoin:round"
       d="m -25.105263,121.73684 c -10.727428,-6.71663 13.937706,-27.530633 8.526316,-0.47368"
       id="path4" />
    <path
       style="fill:none;stroke:#000000;stroke-width:1.5875;stroke-linecap:round;stroke-linejoin:round"
       d="m -3.231737,108.46577 c -15.82066,-1.1027 -12.968083,21.26896 2.28437896,11.41414"
       id="path5" />
    <path
       style="fill:none;stroke:#000000;stroke-width:1.5875;stroke-linecap:round;stroke-linejoin:round"
       d="m 7.3519921,115.41841 c 0.1676581,-0.86017 4.0136189,0.31511 4.2774389,-4.4298 0.284194,-5.11131 -10.2318121,-2.56895 -11.87991458,-0.024 -7.41097682,11.44367 10.79838058,14.80791 15.39294558,9.34246"
       id="path6" />
    <path
       style="fill:none;stroke:#000000;stroke-width:1.5875;stroke-linecap:round;stroke-linejoin:round"
       d="m 17.108116,110.69111 c -1.270177,2.05551 -2.02612,4.45476 -1.751526,6.88251 4.144433,36.6419 -5.5086871,-1.39625 1.751526,-6.88251 11.202343,-8.46516 14.661076,14.93767 0,9.17669"
       id="path7" />
    <path
       style="fill:none;stroke:#000000;stroke-width:1.5875;stroke-linecap:round;stroke-linejoin:round"
       d="m 29.368421,97.104744 c -4.096425,14.725516 1.499534,28.248776 11.368421,21.909046"
       id="path8" />
    <path
       style="fill:none;stroke:#000000;stroke-width:1.5875;stroke-linecap:round;stroke-linejoin:round"
       d="m 28.421051,105.62493 c 3.368604,1.96303 9.55466,-1.98909 10.421054,-2.43433"
       id="path9" />
    <path
       style="fill:none;stroke:#000000;stroke-width:1.5875;stroke-linecap:round;stroke-linejoin:round"
       d="m 42.631578,107.52611 c 1.130472,3.95148 0.298556,12.90472 0,14.68464"
       id="path10" />
    <path
       style="fill:none;stroke:#000000;stroke-width:1.5875;stroke-linecap:round;stroke-linejoin:round"
       d="m 43.578945,95.68421 c 0.133303,1.896626 -0.01254,3.839677 -0.473683,5.68422"
       id="path11" />
    <path
       style="fill:none;stroke:#000000;stroke-width:1.5875;stroke-linecap:round;stroke-linejoin:round"
       d="m 53.526314,122.21052 c -2.8764,0.38005 -3.55112,-0.29492 -5.68421,-1.89473 -1.87077,-1.40308 -3.82591,-3.49798 -2.36842,-5.68421 9.20256,-13.80385 23.13831,9.73404 8.05263,7.57894 z"
       id="path13" />
    <path
       style="fill:none;stroke:#000000;stroke-width:1.5875;stroke-linecap:round;stroke-linejoin:round"
       d="m 61.578947,121.26316 c -1.2932,-20.519 16.21019,-16.31513 8.52632,-0.94737"
       id="path14" />
    <path
       style="fill:none;stroke:#000000;stroke-width:1.5875;stroke-linecap:round;stroke-linejoin:round"
       d="m 87.157888,121.26316 c -20.51497,-3.48653 13.970802,-18.62773 0,0 z"
       id="path15" />
    <path
       style="fill:none;stroke:#000000;stroke-width:1.58751;stroke-linecap:round;stroke-linejoin:round"
       d="m 90.473682,97.10503 c 1.69625,6.68796 -0.20441,19.65391 -0.947364,21.78995"
       id="path16" />
    <path
       style="fill:none;stroke:#000000;stroke-width:1.5875;stroke-linecap:round;stroke-linejoin:round"
       d="m 98.526312,96.631579 c 0.30469,3.471101 -0.82475,6.310201 -2.8421,8.999991"
       id="path17" />
    <path
       style="fill:none;stroke:#000000;stroke-width:1.5875;stroke-linecap:round;stroke-linejoin:round"
       d="m 103.31899,110.26321 c -4.778938,17.06442 3.2874,11.03026 8.47056,-1.31588"
       id="path18" />
    <path
       style="fill:none;stroke:#000000;stroke-width:1.5875;stroke-linecap:round;stroke-linejoin:round"
       d="m 111.31578,119.8421 c -1.21187,-7.85153 15.62558,-18.46168 6.1579,0.47368"
       id="path19" />
    <path
       style="fill:none;stroke:#000000;stroke-width:1.5875;stroke-linecap:round;stroke-linejoin:round"
       d="m 139.27998,107.8867 c -18.11069,-1.77918 8.09823,6.94107 -2.49101,10.57304 -2.52839,0.8672 -5.42449,1.27737 -7.47308,0.96118"
       id="path20" />
    <path
       style="fill:none;stroke:#000000;stroke-width:1.5875;stroke-linecap:round;stroke-linejoin:round"
       d="m 145.49716,111.31579 c -7.30331,18.224 10.09132,0 8.05407,0 -2.17748,0 -8.63757,12.01187 -11.92001,15.63158"
       id="path21" />
    <path
       style="fill:none;stroke:#000000;stroke-width:1.5875;stroke-linecap:round;stroke-linejoin:round"
       d="m 163.57699,108.13444 c -21.36221,2.57136 12.27492,12.78947 -13.26317,12.78947"
       id="path45-1" />
    <path
       style="fill:none;stroke:#000000;stroke-width:1.5875;stroke-linecap:round;stroke-linejoin:round"
       d="m 169.57895,97.107594 c -11.1716,18.304926 -4.68061,28.702036 8.05262,22.981846"
       id="path22" />
    <path
       style="fill:none;stroke:#000000;stroke-width:1.5875;stroke-linecap:round;stroke-linejoin:round"
       d="m 168.63156,103.91704 c 2.09518,-2.55235 5.04772,-0.85119 7.57896,-0.85119"
       id="path23" />
    <path
       style="fill:none;stroke:#000000;stroke-width:1.5875;stroke-linecap:round;stroke-linejoin:round"
       d="m 183.98917,114.58944 c -0.004,0.0772 3.87168,-0.4226 3.38964,-3.55951 -0.82872,-5.39295 -7.70273,2.50511 -8.12812,4.5247 -2.30187,10.92854 10.4541,7.49503 11.98205,2.8876"
       id="path24" />
    <path
       style="fill:none;stroke:#000000;stroke-width:1.5875;stroke-linecap:round;stroke-linejoin:round"
       d="m 179.97456,101.7515 c 2.58827,1.09517 6.74771,1.99558 7.63413,2.56221"
       id="path25" />
    <path
       style="fill:none;stroke:#000000;stroke-width:1.58751;stroke-linecap:round;stroke-linejoin:round"
       d="m 191.28112,120.37742 c -2.86428,-24.203933 10.6141,-0.82364 5.58181,0.49264 -1.25156,0.32737 10.01448,-25.261655 10.76996,-6.07146 0.14696,3.73346 -0.5303,4.37983 -1.17354,5.514"
       id="path26" />
    <path
       style="fill:none;stroke:#000000;stroke-width:1.5875;stroke-linecap:round;stroke-linejoin:round"
       d="m 213.35293,114.30436 c 2.9594,0.79832 6.8831,-0.0453 8.40952,-3.09312 2.03612,-4.06542 -9.2624,-2.69964 -11.06519,0 -6.24151,9.34673 8.15036,11.68053 11.9504,10.16304"
       id="path103-2" />
    <path
       style="fill:none;stroke:#000000;stroke-width:1.5875;stroke-linecap:round;stroke-linejoin:round"
       d="m 238.02585,115.12929 c 2.1013,0.10217 5.98673,0.13601 7.09455,-2.19997 1.83696,-3.87349 -10.13316,-5.03252 -11.68514,-1.75997 -3.91913,8.26402 10.10569,12.24879 13.35444,9.67988"
       id="path28" />
    <path
       style="fill:none;stroke:#000000;stroke-width:1.5875;stroke-linecap:round;stroke-linejoin:round"
       d="m 248.21079,120.86347 c 0.91402,-13.08598 10.42054,-16.90266 10.42054,0.45522"
       id="path29" />
    <path
       style="fill:none;stroke:#000000;stroke-width:1.5875;stroke-linecap:round;stroke-linejoin:round"
       d="m 269.13174,121.73848 c 1.13482,-8.21921 -1.44691,-16.73066 -0.53082,-24.989533 23.35492,-3.217014 9.2169,12.057893 3.71571,15.378183"
       id="path30" />
    <path
       style="fill:none;stroke:#000000;stroke-width:1.5875;stroke-linecap:round;stroke-linejoin:round"
       d="m 277.10526,114.15789 c 0.15789,0.63158 -0.15789,2.05264 0.47368,1.89474 0.63158,-0.1579 -0.71546,-2.49919 -0.47368,-1.89474 0.97068,2.42669 0.70217,7.10527 3.31579,7.10527 0.52342,0 2.63915,-3.11283 3.31579,-3.78948 0.78947,-0.78947 3.15789,-1.57895 2.36842,-2.36842 -1.02935,-1.02935 -1.81276,2.28644 -2.84211,3.31579 -3.95997,3.95998 -8.39022,7.78045 -10.89473,12.78947"
       id="path31" />
    <path
       style="fill:none;stroke:#000000;stroke-width:1.5875;stroke-linecap:round;stroke-linejoin:round"
       d="m 289.07424,101.83905 c -2.76198,13.88308 0.10101,25.42051 10.29487,18.04167"
       id="path32" />
    <path
       style="fill:none;stroke:#000000;stroke-width:1.5875;stroke-linecap:round;stroke-linejoin:round"
       d="m 290.1579,109.68325 c 2.7609,0.40764 8.52905,-3.82052 8.66937,-3.9221"
       id="path33" />
    <path
       style="fill:none;stroke:#000000;stroke-width:1.5875;stroke-linecap:round;stroke-linejoin:round"
       d="m 300.78936,100.421 c 1.52858,3.66329 0.20968,7.59744 0.69959,11.36848 2.42983,18.70324 -0.78871,4.52566 2.7984,2.9917 7.01697,-3.00067 5.13555,7.5613 4.89719,8.37678"
       id="path34" />
    <path
       style="fill:none;stroke:#000000;stroke-width:1.5875;stroke-linecap:round;stroke-linejoin:round"
       d="m 317.12951,124.57867 c -14.92997,-5.79993 5.44908,-18.8181 5.44908,-5.68334 0,3.38658 -2.76003,4.48135 -5.44908,5.68334 z"
       id="path35" />
    <path
       style="fill:none;stroke:#000000;stroke-width:1.5875;stroke-linecap:round;stroke-linejoin:round"
       d="m 325.21494,122.37205 c -5.82413,-10.99057 14.66436,-15.57452 6.72969,1.2598"
       id="path36" />
    <path
       style="fill:none;stroke:#000000;stroke-width:1.5875;stroke-linecap:round;stroke-linejoin:round"
       d="m -8.7335573,149.31898 c -6.2101277,14.47365 8.23466399,17.41211 8.23466399,-0.6473"
       id="path37" />
    <path
       style="fill:none;stroke:#000000;stroke-width:1.58749;stroke-linecap:round;stroke-linejoin:round"
       d="m 2.1456197,141.2112 c -1.44845201,7.95285 0.301508,25.99415 6.17065,17.40855"
       id="path38" />
    <path
       style="fill:none;stroke:#000000;stroke-width:1.58749;stroke-linecap:round;stroke-linejoin:round"
       d="M -0.05817931,148.94834 C 1.9226917,147.76688 4.0148227,146.98299 6.1124617,146.36928"
       id="path39" />
    <path
       style="fill:none;stroke:#000000;stroke-width:1.5875;stroke-linecap:round;stroke-linejoin:round"
       d="m 9.6385437,148.12546 c 1.7946053,3.99072 0.4731183,9.82441 0,13.26008"
       id="path40" />
    <path
       style="fill:none;stroke:#000000;stroke-width:1.5875;stroke-linecap:round;stroke-linejoin:round"
       d="m 9.6385457,137.9618 c 0.0883,-1.47784 -0.29384,2.94626 -0.440765,4.41939"
       id="path41" />
    <path
       style="fill:none;stroke:#000000;stroke-width:1.5875;stroke-linecap:round;stroke-linejoin:round"
       d="m 16.249947,141.05538 c -0.75557,6.27504 -1.812722,17.88873 -2.644564,20.77117"
       id="path42" />
    <path
       style="fill:none;stroke:#000000;stroke-width:1.5875;stroke-linecap:round;stroke-linejoin:round"
       d="m 19.776025,147.7348 c 0.640887,3.82595 -2.036924,12.66334 -2.203799,13.26107"
       id="path43" />
    <path
       style="fill:none;stroke:#000000;stroke-width:1.5875;stroke-linecap:round;stroke-linejoin:round"
       d="m 21.979824,139.73366 c 0.769732,0.82752 -0.855989,3.01664 -0.881522,3.08538"
       id="path44" />
    <path
       style="fill:none;stroke:#000000;stroke-width:1.5875;stroke-linecap:round;stroke-linejoin:round"
       d="m 31.676546,145.91672 c -19.167481,3.19871 11.013811,15.90983 -11.900527,15.90983"
       id="path45" />
    <path
       style="fill:none;stroke:#000000;stroke-width:1.5875;stroke-linecap:round;stroke-linejoin:round"
       d="m 34.761867,146.80059 c 14.930927,-6.29059 -6.838568,11.92785 -2.203809,15.02596 3.81413,2.54956 11.2125,-6.87702 8.815205,-9.28074 -0.779046,-0.78113 -2.345336,9.53719 5.729875,7.51298"
       id="path46" />
    <path
       style="fill:none;stroke:#000000;stroke-width:1.5875;stroke-linecap:round;stroke-linejoin:round"
       d="m 46.067431,159.1993 c 0.339955,-4.00756 0.963786,-7.28123 2.423198,-10.88264 4.848573,-11.96485 8.719617,19.27254 6.196661,13.3715"
       id="path47" />
    <path
       style="fill:none;stroke:#000000;stroke-width:1.58751;stroke-linecap:round;stroke-linejoin:round"
       d="m 62.844593,138.4029 c -2.576626,11.28561 -9.149628,24.04513 6.297112,21.53022"
       id="path48" />
    <path
       style="fill:none;stroke:#000000;stroke-width:1.58751;stroke-linecap:round;stroke-linejoin:round"
       d="m 55.917773,146.29732 c 4.183621,0.46324 8.390904,0.71767 12.594226,0.71767"
       id="path49" />
    <path
       style="fill:none;stroke:#000000;stroke-width:1.5875;stroke-linecap:round;stroke-linejoin:round"
       d="m 83.804676,162.69249 c -1.831416,-2.96842 0.130419,4.12122 -4.871667,-3.43369 -3.524514,-5.32325 3.060635,-13.55001 7.307491,-7.84845 2.71791,3.64885 -0.887688,12.45126 -6.333155,8.33897"
       id="path50" />
    <path
       style="fill:none;stroke:#000000;stroke-width:1.5875;stroke-linecap:round;stroke-linejoin:round"
       d="m 88.534591,134.63369 c -1.327043,6.29493 -2.248083,27.40921 -1.728351,25.14104"
       id="path51" />
    <path
       style="fill:none;stroke:#000000;stroke-width:1.5875;stroke-linecap:round;stroke-linejoin:round"
       d="m 95.329964,154.80518 c 0.219533,-2.16183 2.230356,2.47549 3.074865,-3.34626 0.755438,-5.20764 -8.642242,-1.77337 -9.62182,1.79228 -2.319828,8.44415 9.028402,10.35667 11.831351,6.31909"
       id="path52" />
    <path
       style="fill:none;stroke:#000000;stroke-width:1.5875;stroke-linecap:round;stroke-linejoin:round"
       d="m 109.69105,149.01235 c -0.62457,-0.25698 -2.21087,-1.55358 -5.72987,0 -10.003687,4.41643 3.39478,6.11087 5.28911,7.7835 5.93719,5.24231 -5.61955,4.62146 -7.93367,4.28091"
       id="path53" />
    <path
       style="fill:none;stroke:#000000;stroke-width:1.5875;stroke-linecap:round;stroke-linejoin:round"
       d="m 121.27522,161.38669 c -5.28015,-20.83571 18.15708,-43.93317 12.05301,-0.74161"
       id="path54" />
    <path
       style="fill:none;stroke:#000000;stroke-width:1.5875;stroke-linecap:round;stroke-linejoin:round"
       d="m 123.89544,150.2625 c 2.60788,-0.61127 5.26858,-0.74959 7.86066,-1.48323"
       id="path55" />
    <path
       style="fill:none;stroke:#000000;stroke-width:1.58749;stroke-linecap:round;stroke-linejoin:round"
       d="m 140.1788,160.05903 c -1.25688,-6.71903 0.0214,-14.32882 -3.16082,-20.27659 15.3213,-8.6548 17.73316,5.90532 4.42516,9.46241"
       id="path56" />
    <path
       style="fill:none;stroke:#000000;stroke-width:1.5875;stroke-linecap:round;stroke-linejoin:round"
       d="m 154.49925,136.63135 c 0.42026,8.21457 -1.06242,16.75167 0,24.7579"
       id="path57" />
    <path
       style="fill:none;stroke:#000000;stroke-width:1.58751;stroke-linecap:round;stroke-linejoin:round"
       d="m 166.26309,147.85742 c 1.28713,0.13123 -2.55248,-0.61487 -3.84369,-0.61487 -2.02205,0 -2.50151,4.85549 -0.48046,6.14872 1.67408,1.0712 3.98127,0.044 5.76553,0.61487 7.4474,2.38271 -8.05242,7.18782 -8.64829,7.37847"
       id="path58" />
    <path
       style="fill:none;stroke:#000000;stroke-width:1.5875;stroke-linecap:round;stroke-linejoin:round"
       d="m 188.14634,145.91671 c -14.79897,8.22796 -6.24236,15.4679 6.17064,15.4679"
       id="path59" />
    <path
       style="fill:none;stroke:#000000;stroke-width:1.5875;stroke-linecap:round;stroke-linejoin:round"
       d="m 195.1985,136.19405 c -0.65095,7.28185 -0.14336,21.07465 -0.88152,25.19058"
       id="path60" />
    <path
       style="fill:none;stroke:#000000;stroke-width:1.5875;stroke-linecap:round;stroke-linejoin:round"
       d="m 201.73493,160.45072 c -3.66927,-2.25245 -6.09348,-4.98506 -4.6336,-8.91926 5.60933,-15.11645 28.74246,11.62636 4.6336,8.91926 z"
       id="path61" />
    <path
       style="fill:none;stroke:#000000;stroke-width:1.5875;stroke-linecap:round;stroke-linejoin:round"
       d="m 215.0327,148.82259 c -2.11624,23.27225 8.13234,6.36089 9.25596,-2.90902"
       id="path62" />
    <path
       style="fill:none;stroke:#000000;stroke-width:1.5875;stroke-linecap:round;stroke-linejoin:round"
       d="m 229.11313,161.82219 c -7.092,-3.56321 9.04977,7.0019 -4.98422,-2.49964 -4.7307,-3.20287 4.23491,-12.57172 7.75323,-11.24837 8.18472,3.07854 1.14866,12.09025 -2.76901,13.74801 z"
       id="path63" />
    <path
       style="fill:none;stroke:#000000;stroke-width:1.5875;stroke-linecap:round;stroke-linejoin:round"
       d="m 234.0571,136.20091 c 2.96527,6.68027 -0.1878,22.37037 -0.95877,24.37146"
       id="path64" />
    <path
       style="fill:none;stroke:#000000;stroke-width:1.5875;stroke-linecap:round;stroke-linejoin:round"
       d="m 244.12285,174.20101 c 0,-2.85297 2.73024,-22.95975 2.2038,-24.11937 13.67138,-5.35318 11.15955,11.37352 0,9.11177"
       id="path65" />
    <path
       style="fill:none;stroke:#000000;stroke-width:1.5875;stroke-linecap:round;stroke-linejoin:round"
       d="m 260.43098,160.94194 c -16.15125,-21.12636 26.14916,-9.2178 0,0 z"
       id="path66" />
    <path
       style="fill:none;stroke:#000000;stroke-width:1.5875;stroke-linecap:round;stroke-linejoin:round"
       d="m 272.77225,149.62835 c -5.41083,19.96446 5.4581,10.81437 7.49292,-0.61914"
       id="path67" />
    <path
       style="fill:none;stroke:#000000;stroke-width:1.5875;stroke-linecap:round;stroke-linejoin:round"
       d="m 282.46896,150.34276 c -0.91877,7.75322 1.58874,-9.08993 -0.44075,4.1974 -1.61448,10.57017 -1.12931,8.08284 1.76303,-0.52468 -0.44075,-1.22423 -1.99362,-2.60717 -1.32228,-3.67272 2.40204,-3.81247 10.10618,-4.10425 8.37444,1.04934"
       id="path68" />
    <path
       style="fill:none;stroke:#000000;stroke-width:1.5875;stroke-linecap:round;stroke-linejoin:round"
       d="m -21.069813,185.63534 c 0.63674,-4.3056 7.95499,-1.21948 4.53972,2.41661 -1.54358,1.64338 -13.8186,4.82593 -8.70112,8.45817 5.16997,3.6695 8.91714,-9.09093 7.94451,-8.0554 -2.86379,3.04895 0.66527,9.51373 4.1614,7.65263"
       id="path69" />
    <path
       style="fill:none;stroke:#000000;stroke-width:1.5875;stroke-linecap:round;stroke-linejoin:round"
       d="m -11.803933,195.48914 c 2.0867302,-17.17054 11.74663023,-14.42114 7.4929202,0.51592"
       id="path70" />
    <path
       style="fill:none;stroke:#000000;stroke-width:1.5875;stroke-linecap:round;stroke-linejoin:round"
       d="m 0.99380723,186.85723 c -1.73377,-1.37386 5.88573997,-5.8142 7.18688997,-1.2108 1.57055,5.55645 -12.29373,5.30967 -9.92476,10.89716 1.02534003,2.41839 4.5269,-0.0918 5.47573,-1.21079 0.55556,-0.65518 3.82635,-7.26477 4.1068,-7.26477 1.72632,0 -0.96826,4.04582 -0.68446,6.05398 0.33586,2.37652 2.28531,1.84871 3.0800998,1.61438"
       id="path71" />
    <path
       style="fill:none;stroke:#000000;stroke-width:1.58751;stroke-linecap:round;stroke-linejoin:round"
       d="m 13.319387,173.02918 c -1.37077,-0.81719 -1.76303,17.1439 -1.76303,22.53216"
       id="path72" />
    <path
       style="fill:none;stroke:#000000;stroke-width:1.5875;stroke-linecap:round;stroke-linejoin:round"
       d="m 14.810167,186.63048 c 0.0242,21.5458 14.69655,-14.15405 1.56955,9.18158 -2.24816,3.99651 -5.00231,7.56233 -7.5034698,11.34349"
       id="path73" />
    <path
       style="fill:none;stroke:#000000;stroke-width:1.5875;stroke-linecap:round;stroke-linejoin:round"
       d="m 29.686087,183.95021 c -16.54251,-4.69537 11.05262,9.82626 -2.53537,12.11025 -4.38114,0.73642 -4.83514,0.44323 -6.33846,-0.39065"
       id="path74" />
    <path
       style="fill:none;stroke:#000000;stroke-width:1.5875;stroke-linecap:round;stroke-linejoin:round"
       d="m 34.131307,188.53465 c -0.63889,0.66135 4.95656,2.49822 7.26541,-1.1471 3.49004,-5.51022 -7.99195,-4.97182 -7.99195,-2.29419 0,7.70248 -5.16378,14.54632 9.44503,11.47097"
       id="path75" />
    <path
       style="fill:none;stroke:#000000;stroke-width:1.5875;stroke-linecap:round;stroke-linejoin:round"
       d="m 46.817147,182.74674 c -2.93856,2.09121 -2.2327,6.745 -3.08532,10.16461 -3.30761,13.26587 -0.22628,-7.6981 11.45977,-5.74522"
       id="path76" />
    <path
       style="fill:none;stroke:#000000;stroke-width:1.5875;stroke-linecap:round;stroke-linejoin:round"
       d="m 53.869297,192.91135 c 1.61698,0.90228 -1.69705,10.57348 -6.17063,12.81625"
       id="path77" />
    <path
       style="fill:none;stroke:#000000;stroke-width:1.5875;stroke-linecap:round;stroke-linejoin:round"
       d="m 69.143247,185.0258 c 1.660274,-0.0787 -3.149604,-1.15378 -4.812284,-1.15378 -9.271881,0 -8.204312,15.98002 8.312127,13.07609"
       id="path78" />
    <path
       style="fill:none;stroke:#000000;stroke-width:1.5875;stroke-linecap:round;stroke-linejoin:round"
       d="m 69.845154,173.09851 c 3.620084,6.34259 4.050449,20.06372 3.264104,24.68992"
       id="path79" />
    <path
       style="fill:none;stroke:#000000;stroke-width:1.5875;stroke-linecap:round;stroke-linejoin:round"
       d="m 75.676181,185.73588 c -0.795063,-0.26323 8.979183,-4.7323 10.364603,-1.28875 1.752741,4.35654 -15.35987,10.23531 -11.088431,13.11978 3.320316,2.24218 9.522625,-8.62153 9.432569,-8.63805 -2.864434,-0.52553 0.67322,5.38255 2.953881,6.92266"
       id="path80" />
    <path
       style="fill:none;stroke:#000000;stroke-width:1.5875;stroke-linecap:round;stroke-linejoin:round"
       d="m 95.790937,183.37984 c -19.686309,1.63984 11.237543,6.59003 0,12.05305 -2.763474,1.34344 -5.43784,1.75951 -8.22638,1.16643"
       id="path81" />
    <path
       style="fill:none;stroke:#000000;stroke-width:1.5875;stroke-linecap:round;stroke-linejoin:round"
       d="m 104.01732,183.76865 c -0.60581,-2.23115 -8.650688,1.58307 -5.027238,4.6657 1.854708,1.57788 19.858218,3.42405 6.855318,8.16497 -2.60805,0.9509 -4.80487,1.31093 -7.312338,0.77762"
       id="path82" />
    <path
       style="fill:none;stroke:#000000;stroke-width:1.5875;stroke-linecap:round;stroke-linejoin:round"
       d="m 111.34591,181.17896 c 1.62039,5.16198 2.3315,10.70816 2.3315,16.16028"
       id="path83" />
    <path
       style="fill:none;stroke:#000000;stroke-width:1.5875;stroke-linecap:round;stroke-linejoin:round"
       d="m 110.67602,170.40544 c 1.28447,1.13363 1.3989,4.12161 1.3989,4.48896"
       id="path84" />
    <path
       style="fill:none;stroke:#000000;stroke-width:1.58751;stroke-linecap:round;stroke-linejoin:round"
       d="m 119.21473,197.78813 c -6.64444,-7.29339 0.35151,-25.31218 6.41164,-27.3827"
       id="path85" />
    <path
       style="fill:none;stroke:#000000;stroke-width:1.58751;stroke-linecap:round;stroke-linejoin:round"
       d="m 116.00891,186.83505 c 3.2499,0.92671 6.93471,0.16213 10.25862,-0.54766"
       id="path86" />
    <path
       style="fill:none;stroke:#000000;stroke-width:1.5875;stroke-linecap:round;stroke-linejoin:round"
       d="m 126.73383,181.17896 c 1.58294,5.14117 1.8652,10.4 1.8652,15.71138"
       id="path87" />
    <path
       style="fill:none;stroke:#000000;stroke-width:1.5875;stroke-linecap:round;stroke-linejoin:round"
       d="m 126.87463,169.29354 c 0,0.95481 0,3.79135 0,4.04008"
       id="path88" />
    <path
       style="fill:none;stroke:#000000;stroke-width:1.5875;stroke-linecap:round;stroke-linejoin:round"
       d="m 135.4278,190.14554 c 2.16469,0.35164 4.07119,-0.26153 5.71036,-5.93892 2.32891,-8.06631 -22.9568,11.63553 -1.93437,13.37526 2.35126,0.19457 6.6571,-1.51044 6.80064,-1.57438"
       id="path89" />
    <path
       style="fill:none;stroke:#000000;stroke-width:1.5875;stroke-linecap:round;stroke-linejoin:round"
       d="m 144.94161,182.4347 c -1.00356,0.15944 1.54266,5.15271 1.54266,9.27898 0,14.54863 -1.83163,-2.25278 1.02845,-5.24465 1.90909,-1.99703 4.95555,-3.08099 7.19913,-4.8412"
       id="path92" />
    <path
       style="fill:none;stroke:#000000;stroke-width:1.5875;stroke-linecap:round;stroke-linejoin:round"
       d="m 165.65885,192.46352 c -0.24071,0.24631 5.35815,-1.43549 6.11813,-5.4583 0.5934,-3.14098 -9.62681,-1.99027 -10.87425,2.58514 -2.75631,10.10976 12.78689,7.91944 14.56699,4.79489"
       id="path93" />
    <path
       style="fill:none;stroke:#000000;stroke-width:1.58749;stroke-linecap:round;stroke-linejoin:round"
       d="m 176.16169,173.09196 c -2.45012,8.17899 -1.85705,32.13725 11.19122,20.60541"
       id="path94" />
    <path
       style="fill:none;stroke:#000000;stroke-width:1.58749;stroke-linecap:round;stroke-linejoin:round"
       d="m 175.6954,178.86148 c 2.03921,2.09643 3.84084,1.64842 6.0619,1.64842"
       id="path95" />
    <path
       style="fill:none;stroke:#000000;stroke-width:1.5875;stroke-linecap:round;stroke-linejoin:round"
       d="m 207.40383,183.87233 c -21.09504,0.17973 -8.27297,19.02014 4.19671,13.018"
       id="path96" />
    <path
       style="fill:none;stroke:#000000;stroke-width:1.58749;stroke-linecap:round;stroke-linejoin:round"
       d="m 218.35736,196.13956 c -20.1024,-5.66391 12.66601,-25.15404 8.05388,-2.97873 -1.50486,7.23546 -7.00906,3.10431 -13.01012,2.38299"
       id="path97" />
    <path
       style="fill:none;stroke:#000000;stroke-width:1.5875;stroke-linecap:round;stroke-linejoin:round"
       d="m 227.92107,197.33961 c 0.50196,-3.70032 2.99839,-15.93034 7.46081,-14.79747 5.5974,1.42102 1.77478,16.34362 0.9326,14.20558 -2.16034,-5.48447 14.92344,-24.86556 7.46082,-1.1838"
       id="path98" />
    <path
       style="fill:none;stroke:#000000;stroke-width:1.5875;stroke-linecap:round;stroke-linejoin:round"
       d="m 246.10727,205.78814 c 0,6.16895 1.63231,-17.51904 4.27165,-21.44163 17.65391,-2.93747 10.44361,15.70284 -3.20372,10.72082"
       id="path99" />
    <path
       style="fill:none;stroke:#000000;stroke-width:1.5875;stroke-linecap:round;stroke-linejoin:round"
       d="m 263.3599,185.61534 c 0.62175,-0.59853 2.48695,-1.19706 1.8652,-1.79559 -0.62171,-0.59853 -2.68158,2.10996 -1.8652,1.79559 2.13035,-0.82034 18.17302,-4.92564 9.32603,3.59117 -0.25437,0.24487 -15.18019,4.36452 -9.32603,7.18233 4.38741,2.11185 14.93377,-6.73343 10.25863,-6.73343 -0.96276,0 0.78,5.83565 3.7304,5.83565"
       id="path100" />
    <path
       style="fill:none;stroke:#000000;stroke-width:1.5875;stroke-linecap:round;stroke-linejoin:round"
       d="m 279.72105,182.97447 c 1.49092,25.26638 -5.59989,5.53998 9.28481,2.5155"
       id="path105" />
    <path
       style="fill:none;stroke:#000000;stroke-width:1.5875;stroke-linecap:round;stroke-linejoin:round"
       d="m 293.52174,191.19393 c 3.22662,0.13449 7.06532,-1.57271 7.93058,-4.93268 1.15422,-4.4819 -10.14515,-0.62022 -11.37493,2.45601 -4.25761,10.65053 11.07611,9.76956 14.63206,7.42185"
       id="path103" />
    <path
       style="fill:none;stroke:#000000;stroke-width:1.5875;stroke-linecap:round;stroke-linejoin:round"
       d="m 305.32696,182.07674 c 1.15329,7.10722 -1.18446,-9.20734 0.93261,4.04007 3.59522,22.49672 -9.24092,4.58071 6.06192,0.8978"
       id="path106" />
    <path
       style="fill:none;stroke:#000000;stroke-width:1.5875;stroke-linecap:round;stroke-linejoin:round"
       d="m -25.134581,222.50079 c 5.340243,-3.63877 -5.835769,4.20722 2.612269,-1.92828 3.480168,-2.52752 10.244381,-0.0166 6.656965,3.18929 -2.494004,2.22875 -14.32279,5.76785 -13.94681,8.6051 1.005014,7.58427 12.305568,-4.62089 12.952269,-6.70098 0.01659,-0.0533 -4.416493,7.66433 4.405596,7.84115"
       id="path108" />
    <path
       style="fill:none;stroke:#000000;stroke-width:1.58749;stroke-linecap:round;stroke-linejoin:round"
       d="m -10.857815,220.97291 c -4.526808,13.21502 4.8045203,21.6241 9.8109343,1.57184"
       id="path109" />
    <path
       style="fill:none;stroke:#000000;stroke-width:1.5875;stroke-linecap:round;stroke-linejoin:round"
       d="m 2.3723513,209.44917 c -4.812845,14.28451 -0.06185,31.38406 10.6852627,23.26069"
       id="path110" />
    <path
       style="fill:none;stroke:#000000;stroke-width:1.5875;stroke-linecap:round;stroke-linejoin:round"
       d="m 2.7997623,214.6182 c 1.817316,-0.58152 3.770226,-0.12535 5.556336,0.64613"
       id="path111" />
    <path
       style="fill:none;stroke:#000000;stroke-width:1.5875;stroke-linecap:round;stroke-linejoin:round"
       d="m 16.418212,234.64048 c -6.364586,-1.68794 7.315054,2.84805 -3.623165,-0.456 -5.9878437,-1.80871 -1.863864,-16.08755 4.076061,-14.59237 10.564904,2.6594 11.413973,13.55483 -0.452896,15.04837 z"
       id="path112" />
    <path
       style="fill:none;stroke:#000000;stroke-width:1.5875;stroke-linecap:round;stroke-linejoin:round"
       d="m 26.765259,234.56216 c -1.56956,-3.39594 -0.08963,-6.8566 1.343814,-10.08336 1.190821,-2.68061 4.150543,-6.77893 6.271133,-2.80095 1.805641,3.38718 2.239689,7.87495 2.239689,11.76395 0,1.12036 -0.895876,3.36112 0,3.36112 0.503233,0 1.044513,-14.61136 4.47938,-15.68527 3.865204,-1.20843 4.469398,10.10837 2.687629,14.56489"
       id="path113" />
    <path
       style="fill:none;stroke:#000000;stroke-width:1.5875;stroke-linecap:round;stroke-linejoin:round"
       d="m 49.772951,220.07886 c 0.800382,-0.43011 2.838865,-0.50383 2.401153,-1.2903 -0.437717,-0.78644 -3.311128,1.35359 -2.401153,1.2903 20.453056,-1.4229 -9.522349,10.13083 -3.856971,14.25772 4.513479,3.28784 12.380928,-9.79793 10.494029,-10.1244 -0.07625,-0.0132 -4.076976,9.73156 3.494715,9.55968"
       id="path114" />
    <path
       style="fill:none;stroke:#000000;stroke-width:1.5875;stroke-linecap:round;stroke-linejoin:round"
       d="M 62.637228,207.81538 C 57.04,225.53193 62.212212,236.49135 71.185437,233.16507"
       id="path115" />
    <path
       style="fill:none;stroke:#000000;stroke-width:1.5875;stroke-linecap:round;stroke-linejoin:round"
       d="m 62.209816,215.73716 c 1.745471,-2.4253 6.500141,-1.58435 6.838569,-1.58435"
       id="path116" />
    <path
       style="fill:none;stroke:#000000;stroke-width:1.5875;stroke-linecap:round;stroke-linejoin:round"
       d="m 72.895082,219.5838 c -0.49138,4.27675 -0.37481,12.47653 0,14.69895"
       id="path117" />
    <path
       style="fill:none;stroke:#000000;stroke-width:1.5875;stroke-linecap:round;stroke-linejoin:round"
       d="m 71.594718,207.57255 c 0.14095,1.63226 -0.0456,3.11897 -0.42741,4.61965"
       id="path118" />
    <path
       style="fill:none;stroke:#000000;stroke-width:1.5875;stroke-linecap:round;stroke-linejoin:round"
       d="m 78.665445,232.13171 c -1.61397,-0.62319 -4.486839,-2.25674 -4.486839,-4.93352 0,-1.23017 2.801743,-4.29519 3.489763,-4.9335 9.746305,-9.04213 12.211837,18.53742 0.997076,9.86702 z"
       id="path119" />
    <path
       style="fill:none;stroke:#000000;stroke-width:1.5875;stroke-linecap:round;stroke-linejoin:round"
       d="m 86.143503,224.11474 c -0.312719,6.82354 -2.991219,24.05516 -2.991219,25.28431"
       id="path120" />
    <path
       style="fill:none;stroke:#000000;stroke-width:1.5875;stroke-linecap:round;stroke-linejoin:round"
       d="m 91.27373,219.58309 c -8.104521,23.74415 6.475544,15.98824 8.548206,0"
       id="path121" />
    <path
       style="fill:none;stroke:#000000;stroke-width:1.5875;stroke-linecap:round;stroke-linejoin:round"
       d="m 103.65396,226.14002 c -0.004,0.0779 4.16842,-0.42669 3.64944,-3.59396 -0.89224,-5.44513 -8.293106,2.52935 -8.751099,4.56848 -2.478297,11.03428 11.255349,7.56754 12.900409,2.91553"
       id="path24-2" />
    <path
       style="fill:none;stroke:#000000;stroke-width:1.5875;stroke-linecap:round;stroke-linejoin:round"
       d="m 111.36202,231.49423 c -2.66113,0.93263 1.4224,-14.62936 6.83857,-12.27297 3.53856,1.53953 1.65589,15.06227 1.70964,15.06227 0.53015,0 3.6501,-12.3734 5.98374,-13.38869 4.88985,-2.12742 1.24449,11.25577 0.85483,12.27297"
       id="path123" />
    <path
       style="fill:none;stroke:#000000;stroke-width:1.5875;stroke-linecap:round;stroke-linejoin:round"
       d="m 134.64444,226.38899 c 2.0685,0.89027 5.84381,-0.89961 5.84381,-4.34342 0,-8.437 -20.82161,4.34181 -8.03524,11.09982 3.05395,1.61412 5.25031,2.97101 8.40047,1.93041"
       id="path124" />
    <path
       style="fill:none;stroke:#000000;stroke-width:1.5875;stroke-linecap:round;stroke-linejoin:round"
       d="m 141.28074,233.21553 c 6.93647,-25.42747 9.6319,-12.0644 8.12081,2.32588"
       id="path125" />
    <path
       style="fill:none;stroke:#000000;stroke-width:1.5875;stroke-linecap:round;stroke-linejoin:round"
       d="m 154.95789,210.07642 c -8.45089,19.73355 -2.18398,30.3924 7.69338,22.42096"
       id="path126" />
    <path
       style="fill:none;stroke:#000000;stroke-width:1.5875;stroke-linecap:round;stroke-linejoin:round"
       d="m 152.82083,216.97516 c 1.52989,3.88523 4.88,1.38357 7.26598,2.58706"
       id="path127" />
    <path
       style="fill:none;stroke:#000000;stroke-width:1.58749;stroke-linecap:round;stroke-linejoin:round"
       d="m 177.75746,234.16931 c -5.10114,-1.05446 4.67799,4.8167 -4.13934,-1.29009 -5.04633,-3.49503 2.94152,-13.7562 7.24381,-11.61081 6.28431,3.13379 3.0901,13.8662 -3.10447,12.9009 z"
       id="path128" />
    <path
       style="fill:none;stroke:#000000;stroke-width:1.5875;stroke-linecap:round;stroke-linejoin:round"
       d="m 186.15884,207.55592 c -0.59342,8.51444 -3.92791,17.08147 -2.56446,25.38809"
       id="path129" />
    <path
       style="fill:none;stroke:#000000;stroke-width:1.5875;stroke-linecap:round;stroke-linejoin:round"
       d="m 191.1439,228.44034 c -0.0764,0.24141 4.78298,-0.34627 5.9833,-4.27634 1.76864,-5.79091 -6.84099,-2.87005 -8.9833,-0.85066 -10.59109,9.98348 6.41607,12.4926 12.18243,8.97187"
       id="path132" />
    <path
       style="fill:none;stroke:#000000;stroke-width:1.5875;stroke-linecap:round;stroke-linejoin:round"
       d="m 205.05741,220.55801 c 2.19007,-1.87385 -4.71602,-1.49292 -4.75366,2.28739 -0.0267,2.68031 12.01783,12.24769 -0.37015,10.0261"
       id="path131" />
    <path
       style="fill:none;stroke:#000000;stroke-width:1.5875;stroke-linecap:round;stroke-linejoin:round"
       d="m 219.47504,221.66077 c 0.55314,-0.23398 1.90167,-0.16765 1.65944,-0.70194 -0.24224,-0.53429 -2.17277,1.00911 -1.65944,0.70194 2.39602,-1.43382 7.36215,-4.88221 7.82133,-0.0228 0.51152,5.41322 -8.44433,4.1619 -10.2668,7.01711 -0.68487,1.073 -0.70094,4.39291 0.60357,5.16977 2.96163,1.76363 9.78776,-7.4853 7.88064,-7.91803 -0.90572,-0.20551 -3.19494,6.00883 3.69516,6.23077"
       id="path133" />
    <path
       style="fill:none;stroke:#000000;stroke-width:1.5875;stroke-linecap:round;stroke-linejoin:round"
       d="m 230.551,232.11809 c 1.37425,-22.29949 7.54463,-14.31059 7.54463,2.59252"
       id="path134" />
    <path
       style="fill:none;stroke:#000000;stroke-width:1.5875;stroke-linecap:round;stroke-linejoin:round"
       d="m 240.74906,234.71242 c 2.76933,-26.96717 8.28973,-21.09172 6.62567,-0.77058"
       id="path135" />
    <path
       style="fill:none;stroke:#000000;stroke-width:1.5875;stroke-linecap:round;stroke-linejoin:round"
       d="m 258.39368,234.27932 c -8.12977,-4.47564 9.46455,6.40711 -4.65127,-2.10315 -1.68867,-1.01808 -4.65126,-5.66738 -4.65126,-7.71156 0,-16.83248 28.66485,-1.85865 9.30253,9.81471 z"
       id="path136" />
    <path
       style="fill:none;stroke:#000000;stroke-width:1.5875;stroke-linecap:round;stroke-linejoin:round"
       d="m 265.72679,234.25415 c 0.55081,-20.74258 18.53065,-22.8869 12.00714,-1.49963"
       id="path137" />
    <path
       style="fill:none;stroke:#000000;stroke-width:1.5875;stroke-linecap:round;stroke-linejoin:round"
       d="m 286.39177,219.10576 c -9.30411,2.42888 -7.8286,18.72075 8.34066,14.45164"
       id="path138" />
    <path
       style="fill:none;stroke:#000000;stroke-width:1.5875;stroke-linecap:round;stroke-linejoin:round"
       d="m 294.30594,226.33495 c 2.13117,-0.89543 4.25732,-2.41184 5.54515,-4.85463 2.26087,-4.28856 -5.86434,-4.67608 -7.67791,-1.61824 -5.65642,9.53733 3.54738,17.2678 9.81066,11.32751"
       id="path139" />
    <path
       style="fill:none;stroke:#000000;stroke-width:1.5875;stroke-linecap:round;stroke-linejoin:round"
       d="m 310.51483,219.56441 c 2.20413,-1.74694 -8.95755,-3.93035 -8.95755,2.29518 0,1.69053 20.5814,11.93494 1.7062,11.93494 -1.09074,0 -1.71607,-0.27753 -2.5593,-0.45904"
       id="path140" />
    <path
       style="fill:none;stroke:#000000;stroke-width:1.5875;stroke-linecap:round;stroke-linejoin:round"
       d="m 95.203543,269.32343 c 3.41461,-0.8832 4.919587,-2.28986 5.739447,-5.57469 2.04045,-8.17509 -22.342267,7.9946 -5.558337,11.97571 2.71206,0.64332 5.569337,-1.04947 7.857307,-2.1823"
       id="path141" />
    <path
       style="fill:none;stroke:#000000;stroke-width:1.5875;stroke-linecap:round;stroke-linejoin:round"
       d="m 103.36809,271.84572 c 3.45596,-19.03236 15.24744,-9.19391 9.69888,1.67666"
       id="path142" />
    <path
       style="fill:none;stroke:#000000;stroke-width:1.5875;stroke-linecap:round;stroke-linejoin:round"
       d="m 129.6327,248.37247 c 1.74642,7.69324 -1.17858,16.77511 0,24.63272"
       id="path143" />
    <path
       style="fill:none;stroke:#000000;stroke-width:1.5875;stroke-linecap:round;stroke-linejoin:round"
       d="m 136.26428,256.42497 c -0.18738,5.36698 -1.2175,10.8375 -0.47368,16.10668"
       id="path144" />
    <path
       style="fill:none;stroke:#000000;stroke-width:1.5875;stroke-linecap:round;stroke-linejoin:round"
       d="m 137.21165,243.16253 c -0.29053,1.90164 -0.57765,3.83564 -0.94737,5.6842"
       id="path145" />
    <path
       style="fill:none;stroke:#000000;stroke-width:1.5875;stroke-linecap:round;stroke-linejoin:round"
       d="m 142.89586,275.37305 c -13.67115,-23.63065 24.60629,-7.03035 0,0 z"
       id="path146" />
    <path
       style="fill:none;stroke:#000000;stroke-width:1.5875;stroke-linecap:round;stroke-linejoin:round"
       d="m 149.05376,266.37306 c 3.10943,-2.16805 3.64174,33.87603 -13.73684,20.8421"
       id="path148" />
    <path
       style="fill:none;stroke:#000000;stroke-width:1.5875;stroke-linecap:round;stroke-linejoin:round"
       d="m 154.26428,269.47915 c -0.83987,-7.63454 13.62663,-13.37983 8.52632,3.05224"
       id="path151" />
    <path
       style="fill:none;stroke:#000000;stroke-width:1.5875;stroke-linecap:round;stroke-linejoin:round"
       d="m 172.70756,266.70204 c -0.23173,0.56459 4.52807,1.48196 6.38479,-2.28741 2.04543,-4.1525 -9.10584,-1.43154 -10.51613,0 -5.80991,5.89745 7.62793,12.08135 11.26728,8.38717"
       id="path152" />
    <path
       style="fill:none;stroke:#000000;stroke-width:1.5875;stroke-linecap:round;stroke-linejoin:round"
       d="m 185.05375,275.84675 c 0.70241,-7.38666 0.8252,-2.88819 0,0 z"
       id="path153" />
  </g>
</svg>
