<?xml version="1.0" encoding="UTF-8" standalone="no"?>
<!-- Created with Inkscape (http://www.inkscape.org/) -->

<svg
   width="891.94373mm"
   height="51.797749mm"
   viewBox="0 0 891.94373 51.797749"
   version="1.1"
   id="svg1"
   xmlns="http://www.w3.org/2000/svg"
   xmlns:svg="http://www.w3.org/2000/svg">
  <defs
     id="defs1" />
  <g
     id="layer1"
     transform="translate(75.162171,-68.737626)">
    <path
       style="fill:none;stroke:#000000;stroke-width:1.5875;stroke-linecap:round;stroke-linejoin:round;stroke-dasharray:none;stroke-opacity:1"
       d="m -74.368421,73.250442 c 6.503386,2.706819 -11.075578,44.123778 16.105264,29.842118 1.172787,-0.45711 4.115571,1.07498 4.736841,-0.94737"
       id="path4" />
    <path
       style="fill:none;stroke:#000000;stroke-width:1.5875;stroke-linecap:round;stroke-linejoin:round;stroke-dasharray:none;stroke-opacity:1"
       d="m -73.421051,88.408336 c 3.746608,-1.286083 8.489735,0.922427 11.842104,-1.894736"
       id="path5" />
    <path
       style="fill:none;stroke:#000000;stroke-width:1.5875;stroke-linecap:round;stroke-linejoin:round;stroke-dasharray:none;stroke-opacity:1"
       d="m -72.473684,74.671496 c -7.608535,-4.531133 13.748415,-5.924145 15.157894,-4.736843"
       id="path6" />
    <path
       style="fill:none;stroke:#000000;stroke-width:1.5875;stroke-linecap:round;stroke-linejoin:round;stroke-dasharray:none;stroke-opacity:1"
       d="m -52.070046,89.211115 c -2.975935,-4.685173 11.231054,18.348455 7.807565,15.142185"
       id="path7" />
    <path
       style="fill:none;stroke:#000000;stroke-width:1.5875;stroke-linecap:round;stroke-linejoin:round;stroke-dasharray:none;stroke-opacity:1"
       d="m -44.09901,92.553513 c 5.488184,-6.413975 -14.143193,16.616297 -9.72761,9.177437"
       id="path8" />
    <path
       style="fill:none;stroke:#000000;stroke-width:1.5875;stroke-linecap:round;stroke-linejoin:round;stroke-dasharray:none;stroke-opacity:1"
       d="m -39.315789,95.987283 c 2.393565,12.500317 -0.976953,37.035317 -1.421052,9.947407 -4.255857,-17.473428 22.913545,-13.673042 3.789473,-2.36844 l -0.473684,-0.94738"
       id="path9" />
    <path
       style="fill:none;stroke:#000000;stroke-width:1.5875;stroke-linecap:round;stroke-linejoin:round;stroke-dasharray:none;stroke-opacity:1"
       d="m -30.315789,99.081143 c 16.346062,-0.167198 10.512867,-16.872057 6.631578,1.894737 2.736404,5.99808 10.536084,1.65842 10.421053,-3.789474"
       id="path10" />
    <path
       style="fill:none;stroke:#000000;stroke-width:1.5875;stroke-linecap:round;stroke-linejoin:round;stroke-dasharray:none;stroke-opacity:1"
       d="m -24.631579,86.765353 c -0.228332,-4.231954 4.913081,-6.028309 8.052631,-6.631577"
       id="path11" />
    <path
       style="fill:none;stroke:#000000;stroke-width:1.5875;stroke-linecap:round;stroke-linejoin:round;stroke-dasharray:none;stroke-opacity:1"
       d="m -12.974798,87.601262 c 0.442705,9.55611 -2.93314,22.545028 0.716873,5.321025 1.805992,-1.848768 4.1050149,-4.565218 6.8257324,-4.989193"
       id="path12" />
    <path
       style="fill:none;stroke:#000000;stroke-width:1.5875;stroke-linecap:round;stroke-linejoin:round;stroke-dasharray:none;stroke-opacity:1"
       d="m -2.8421057,88.467985 c 1.2688125,0.96467 -3.3454008,21.972425 -0.473683,14.684225"
       id="path13" />
    <path
       style="fill:none;stroke:#000000;stroke-width:1.5875;stroke-linecap:round;stroke-linejoin:round;stroke-dasharray:none;stroke-opacity:1"
       d="m -2.8975894,77.180704 c 0,3.928371 0,5.475742 0,0 z"
       id="path54" />
    <path
       style="fill:none;stroke:#000000;stroke-width:1.5875;stroke-linecap:round;stroke-linejoin:round;stroke-dasharray:none;stroke-opacity:1"
       d="m 0.47368317,94.625878 c 11.29222383,5.344427 12.99167283,-11.292418 0,0 C -4.5200092,103.03319 7.4630536,107.3482 12.31579,100.78378"
       id="path14" />
    <path
       style="fill:none;stroke:#000000;stroke-width:1.5875;stroke-linecap:round;stroke-linejoin:round;stroke-dasharray:none;stroke-opacity:1"
       d="m 13.736841,98.889036 c -3.9898361,5.126284 12.7935,-19.626827 7.437861,1.199794 l 0.229147,2.83556 2.280359,-2.14062"
       id="path15" />
    <path
       style="fill:none;stroke:#000000;stroke-width:1.5875;stroke-linecap:round;stroke-linejoin:round;stroke-dasharray:none;stroke-opacity:1"
       d="m 34.081083,89.486619 c 1.569973,-0.220011 -25.5568081,10.287145 4.94772,15.724541"
       id="path55" />
    <path
       style="fill:none;stroke:#000000;stroke-width:1.5875;stroke-linecap:round;stroke-linejoin:round;stroke-dasharray:none;stroke-opacity:1"
       d="m 40.681355,96.964474 c 22.112052,-11.124373 -13.666907,1.204565 2.52555,7.801106 5.402862,1.69941 7.419143,-4.13143 11.68498,-5.432683"
       id="path17" />
    <path
       style="fill:none;stroke:#000000;stroke-width:1.5875;stroke-linecap:round;stroke-linejoin:round;stroke-dasharray:none;stroke-opacity:1"
       d="M 65.312932,87.490791 C 46.854168,84.224527 81.462176,107.62033 53.944512,101.22764"
       id="path18" />
    <path
       style="fill:none;stroke:#000000;stroke-width:1.5875;stroke-linecap:round;stroke-linejoin:round;stroke-dasharray:none;stroke-opacity:1"
       d="m 90.059644,94.591892 c -0.880849,4.636712 1.850014,35.866768 -1.42106,21.315858"
       id="path19" />
    <path
       style="fill:none;stroke:#000000;stroke-width:1.5875;stroke-linecap:round;stroke-linejoin:round;stroke-dasharray:none;stroke-opacity:1"
       d="m 86.270164,102.64453 c 1.109569,-26.189668 31.154866,-2.679616 6.631578,-2.842111"
       id="path20" />
    <path
       style="fill:none;stroke:#000000;stroke-width:1.5875;stroke-linecap:round;stroke-linejoin:round;stroke-dasharray:none;stroke-opacity:1"
       d="m 103.79644,90.802418 c 4.10543,11.835322 -0.57274,20.853082 2.84211,3.789474 1.80576,-2.765939 4.90041,-4.186351 7.57894,-5.68421"
       id="path21" />
    <path
       style="fill:none;stroke:#000000;stroke-width:1.5875;stroke-linecap:round;stroke-linejoin:round;stroke-dasharray:none;stroke-opacity:1"
       d="m 121.38165,103.02069 c -19.06763,8.0703 3.04928,-24.370494 3.06882,-0.79881 -0.28682,2.67572 -5.59585,6.77277 -7.55142,3.27478"
       id="path57" />
    <path
       style="fill:none;stroke:#000000;stroke-width:1.5875;stroke-linecap:round;stroke-linejoin:round;stroke-dasharray:none;stroke-opacity:1"
       d="m 129.41644,103.44925 c -6.67756,4.46012 1.38771,-32.506521 10.07875,-28.470152"
       id="path23" />
    <path
       style="fill:none;stroke:#000000;stroke-width:1.5875;stroke-linecap:round;stroke-linejoin:round;stroke-dasharray:none;stroke-opacity:1"
       d="m 132.18425,89.60438 c -6.41355,3.362632 5.56668,-1.936791 5.3773,-1.952145"
       id="path24" />
    <path
       style="fill:none;stroke:#000000;stroke-width:1.58751;stroke-linecap:round;stroke-linejoin:round;stroke-dasharray:none;stroke-opacity:1"
       d="m 129.15269,102.17632 c 21.48461,1.46871 0.26083,-14.103924 11.25048,3.21543 4.64222,-0.13349 7.73188,-3.70907 6.14483,-6.51936"
       id="path25" />
    <path
       style="fill:none;stroke:#000000;stroke-width:1.58751;stroke-linecap:round;stroke-linejoin:round;stroke-dasharray:none;stroke-opacity:1"
       d="m 135.40818,93.696367 c -2.82305,-3.224985 4.03276,-5.195827 5.1764,-5.907278"
       id="path26" />
    <path
       style="fill:none;stroke:#000000;stroke-width:1.5875;stroke-linecap:round;stroke-linejoin:round;stroke-dasharray:none;stroke-opacity:1"
       d="m 153.6254,94.241436 c 3.37378,-3.742182 -13.43285,2.199747 -0.4207,7.317724 0.13386,1.68766 -8.07625,4.94045 -5.46911,1.21963"
       id="path27" />
    <path
       style="fill:none;stroke:#000000;stroke-width:1.5875;stroke-linecap:round;stroke-linejoin:round;stroke-dasharray:none;stroke-opacity:1"
       d="m 163.73138,94.624568 c 1.88322,-3.748131 -11.1701,-0.728702 -2.72476,7.991872 -1.1121,4.01842 -7.41861,3.99539 -6.53946,-0.99899"
       id="path45" />
    <path
       style="fill:none;stroke:#000000;stroke-width:1.5875;stroke-linecap:round;stroke-linejoin:round;stroke-dasharray:none;stroke-opacity:1"
       d="m 169.19126,96.274135 c -0.24116,2.344335 -1.23988,9.288095 -0.42069,9.756995"
       id="path29" />
    <path
       style="fill:none;stroke:#000000;stroke-width:1.5875;stroke-linecap:round;stroke-linejoin:round;stroke-dasharray:none;stroke-opacity:1"
       d="m 168.41511,89.558015 c 0,2.520573 0,2.573656 0,0 z"
       id="path54-8" />
    <path
       style="fill:none;stroke:#000000;stroke-width:1.5875;stroke-linecap:round;stroke-linejoin:round;stroke-dasharray:none;stroke-opacity:1"
       d="m 179.58592,104.39849 c -20.94387,-0.60884 15.91244,-16.886794 0,0 z"
       id="path30" />
    <path
       style="fill:none;stroke:#000000;stroke-width:1.5875;stroke-linecap:round;stroke-linejoin:round;stroke-dasharray:none;stroke-opacity:1"
       d="m 184.32277,104.87218 c 5.10136,-9.255715 12.7979,-12.712248 8.99999,-0.94737"
       id="path31" />
    <path
       style="fill:none;stroke:#000000;stroke-width:1.5875;stroke-linecap:round;stroke-linejoin:round;stroke-dasharray:none;stroke-opacity:1"
       d="m 197.13955,102.43354 c -2.43521,1.95399 9.91885,-18.970791 7.09091,1.41386 l 0.11502,-1.05294"
       id="path32" />
    <path
       style="fill:none;stroke:#000000;stroke-width:1.5875;stroke-linecap:round;stroke-linejoin:round;stroke-dasharray:none;stroke-opacity:1"
       d="m 206.11199,99.802207 c 16.91251,-9.161259 -6.48221,-4.336087 5.79899,6.064063 l 5.07819,-0.70233 4.75487,-2.18532"
       id="path34" />
    <path
       style="fill:none;stroke:#000000;stroke-width:1.5875;stroke-linecap:round;stroke-linejoin:round;stroke-dasharray:none;stroke-opacity:1"
       d="m 216.53328,104.90201 c 14.24239,-2.03711 10.89951,-39.442106 4.33798,-9.588474 -0.78145,2.349678 1.71687,9.429044 5.13571,6.272654"
       id="path36" />
    <path
       style="fill:none;stroke:#000000;stroke-width:1.5875;stroke-linecap:round;stroke-linejoin:round;stroke-dasharray:none;stroke-opacity:1"
       d="m 226.48362,101.71214 c 17.22196,-2.605521 17.05614,-37.630862 6.00014,-10.2495 -0.29628,3.604327 -2.37937,10.42683 2.04848,12.37815"
       id="path58" />
    <path
       style="fill:none;stroke:#000000;stroke-width:1.5875;stroke-linecap:round;stroke-linejoin:round;stroke-dasharray:none;stroke-opacity:1"
       d="m 232.16484,100.05417 c 12.82417,2.731 9.62601,-11.541245 5.6149,3.28705 2.05124,3.19263 6.38866,-1.02807 8.12195,-1.866"
       id="path33" />
    <path
       style="fill:none;stroke:#000000;stroke-width:1.5875;stroke-linecap:round;stroke-linejoin:round;stroke-dasharray:none;stroke-opacity:1"
       d="m 255.40091,93.422942 c -13.22611,0.556283 10.46942,14.982248 -11.84179,9.398698"
       id="path60" />
    <path
       style="fill:none;stroke:#000000;stroke-width:1.5875;stroke-linecap:round;stroke-linejoin:round;stroke-dasharray:none;stroke-opacity:1"
       d="m 272.3738,95.930741 c 1.58132,-13.418708 -16.16786,20.900969 2.03914,6.905959"
       id="path37" />
    <path
       style="fill:none;stroke:#000000;stroke-width:1.5875;stroke-linecap:round;stroke-linejoin:round;stroke-dasharray:none;stroke-opacity:1"
       d="m 275.52963,82.024345 c 4.35065,11.789333 -3.34366,36.528555 5.23715,12.229415 6.6027,-3.278568 0.19954,16.23871 5.71325,10.10258"
       id="path38" />
    <path
       style="fill:none;stroke:#000000;stroke-width:1.5875;stroke-linecap:round;stroke-linejoin:round;stroke-dasharray:none;stroke-opacity:1"
       d="m 290.73952,100.15407 c 17.83031,-11.788185 -16.86114,6.83188 4.55753,4.30643 l 3.81874,-1.29916 3.63903,-1.57179"
       id="path39" />
    <path
       style="fill:none;stroke:#000000;stroke-width:1.5875;stroke-linecap:round;stroke-linejoin:round;stroke-dasharray:none;stroke-opacity:1"
       d="m 302.02911,97.506334 c 26.4184,-4.863548 -18.29227,9.630456 6.61837,7.733756 l 0.86349,-0.36094"
       id="path40" />
    <path
       style="fill:none;stroke:#000000;stroke-width:1.5875;stroke-linecap:round;stroke-linejoin:round;stroke-dasharray:none;stroke-opacity:1"
       d="m 331.33551,103.81384 c -21.49594,0.73633 10.65018,-20.637895 3.01264,-1.23739 -2.29811,1.84545 -6.70658,1.70052 -7.74948,-1.60473"
       id="path41" />
    <path
       style="fill:none;stroke:#000000;stroke-width:1.5875;stroke-linecap:round;stroke-linejoin:round;stroke-dasharray:none;stroke-opacity:1"
       d="m 329.91446,96.708556 c 1.96071,5.254434 2.80073,13.048514 6.15789,16.578964"
       id="path42" />
    <path
       style="fill:none;stroke:#000000;stroke-width:1.5875;stroke-linecap:round;stroke-linejoin:round;stroke-dasharray:none;stroke-opacity:1"
       d="m 340.33551,92.445393 c -9.01845,10.904107 7.17852,19.743767 6.1579,1.89474"
       id="path43" />
    <path
       style="fill:none;stroke:#000000;stroke-width:1.5875;stroke-linecap:round;stroke-linejoin:round;stroke-dasharray:none;stroke-opacity:1"
       d="m 347.44078,98.603296 c 16.71156,0.470391 3.18153,-9.424021 0.70898,2.218344 3.78181,7.48914 13.38396,1.46966 18.71207,-0.79729"
       id="path44" />
    <path
       style="fill:none;stroke:#000000;stroke-width:1.5875;stroke-linecap:round;stroke-linejoin:round;stroke-dasharray:none;stroke-opacity:1"
       d="m 366.89054,92.082737 c -20.75452,2.358451 17.09475,12.293623 -9.94633,11.045213"
       id="path61" />
    <path
       style="fill:none;stroke:#000000;stroke-width:1.5875;stroke-linecap:round;stroke-linejoin:round;stroke-dasharray:none;stroke-opacity:1"
       d="m 370.49581,86.167692 c -2.89144,22.420468 8.09889,26.186038 0.79754,3.978066 -4.03604,-8.247184 6.58629,-2.134309 7.88607,-6.058646"
       id="path46" />
    <path
       style="fill:none;stroke:#000000;stroke-width:1.5875;stroke-linecap:round;stroke-linejoin:round;stroke-dasharray:none;stroke-opacity:1"
       d="m 396.21727,92.024425 c 0.91343,-8.703284 -4.63489,17.497105 0.47044,13.186385"
       id="path47" />
    <path
       style="fill:none;stroke:#000000;stroke-width:1.5875;stroke-linecap:round;stroke-linejoin:round;stroke-dasharray:none;stroke-opacity:1"
       d="m 395.4079,80.630386 c 0,4.044818 0,4.751105 0,0 z"
       id="path54-8-1" />
    <path
       style="fill:none;stroke:#000000;stroke-width:1.5875;stroke-linecap:round;stroke-linejoin:round;stroke-dasharray:none;stroke-opacity:1"
       d="m 398.55325,102.91405 c -3.20551,8.46259 10.18179,-22.762266 6.20473,1.29515 -1.71684,2.46891 2.95871,1.37646 1.3223,-0.61755"
       id="path48" />
    <path
       style="fill:none;stroke:#000000;stroke-width:1.5875;stroke-linecap:round;stroke-linejoin:round;stroke-dasharray:none;stroke-opacity:1"
       d="m 406.97223,104.6013 c 5.28362,-18.515303 7.37697,-10.989984 6.67183,0.70166"
       id="path49" />
    <path
       style="fill:none;stroke:#000000;stroke-width:1.5875;stroke-linecap:round;stroke-linejoin:round;stroke-dasharray:none;stroke-opacity:1"
       d="m 417.36746,105.44876 c -5.50565,5.58157 3.78167,-23.611114 5.21904,-7.094985 l -2.54657,3.595455 z"
       id="path50" />
    <path
       style="fill:none;stroke:#000000;stroke-width:1.5875;stroke-linecap:round;stroke-linejoin:round;stroke-dasharray:none;stroke-opacity:1"
       d="m 425.58249,93.857919 c -1.35489,-4.973231 1.01642,26.319871 6.6019,3.643703 l 1.82759,-2.885862 1.06073,-3.360485"
       id="path51" />
    <path
       style="fill:none;stroke:#000000;stroke-width:1.5875;stroke-linecap:round;stroke-linejoin:round;stroke-dasharray:none;stroke-opacity:1"
       d="m 450.99351,102.40738 c -2.36494,8.29743 -12.90462,-11.035009 2.79136,-7.437179 7.53087,10.736369 -4.44686,9.457599 -6.04798,8.749629"
       id="path65" />
    <path
       style="fill:none;stroke:#000000;stroke-width:1.5875;stroke-linecap:round;stroke-linejoin:round;stroke-dasharray:none;stroke-opacity:1"
       d="m 456.41275,81.20331 c 1.80006,-8.362258 0.52187,27.63256 -0.93045,22.74903"
       id="path66" />
    <path
       style="fill:none;stroke:#000000;stroke-width:1.5875;stroke-linecap:round;stroke-linejoin:round;stroke-dasharray:none;stroke-opacity:1"
       d="m 459.75313,95.77022 c 21.75803,-0.649261 -7.9681,-6.198331 0.93048,8.81552 3.04149,3.33691 8.09917,1.19473 9.76978,-2.25329"
       id="path67" />
    <path
       style="fill:none;stroke:#000000;stroke-width:1.5875;stroke-linecap:round;stroke-linejoin:round;stroke-dasharray:none;stroke-opacity:1"
       d="m 483.55968,102.52705 c 1.517,10.52613 11.2071,-23.781669 13.84525,-22.865716 0.51575,0.179072 4.56626,17.665247 2.61936,24.424746"
       id="path77" />
    <path
       style="fill:none;stroke:#000000;stroke-width:1.5875;stroke-linecap:round;stroke-linejoin:round;stroke-dasharray:none;stroke-opacity:1"
       d="m 487.18415,99.408998 c 2.92987,-6.387881 11.55582,0.776052 14.10827,-4.677078"
       id="path78" />
    <path
       style="fill:none;stroke:#000000;stroke-width:1.5875;stroke-linecap:round;stroke-linejoin:round;stroke-dasharray:none;stroke-opacity:1"
       d="m 502.63381,91.495536 c 4.03357,-2.290633 1.82988,20.098014 6.97843,9.540184 1.97907,-4.058418 3.99857,-7.721804 4.65228,-12.190234"
       id="path79" />
    <path
       style="fill:none;stroke:#000000;stroke-width:1.5875;stroke-linecap:round;stroke-linejoin:round;stroke-dasharray:none;stroke-opacity:1"
       d="m 513.33289,89.383213 c 0.44581,-3.440249 1.16009,2.557378 1.32949,3.318464 0.67444,3.030149 0.37035,6.494708 0.99711,9.623553 1.77174,8.84462 -6.68762,-8.628012 9.30643,-8.628012"
       id="path95" />
    <path
       style="fill:none;stroke:#000000;stroke-width:1.5875;stroke-linecap:round;stroke-linejoin:round;stroke-dasharray:none;stroke-opacity:1"
       d="m 527.72687,91.237837 c 0.3262,1.720737 1.25107,17.392773 0,12.686963"
       id="path94" />
    <path
       style="fill:none;stroke:#000000;stroke-width:1.5875;stroke-linecap:round;stroke-linejoin:round;stroke-dasharray:none;stroke-opacity:1"
       d="m 527.84322,80.734352 c -0.23348,1.297181 -0.41094,2.628395 -0.4863,4.007369"
       id="path87-2" />
    <path
       style="fill:none;stroke:#000000;stroke-width:1.5875;stroke-linecap:round;stroke-linejoin:round;stroke-dasharray:none;stroke-opacity:1"
       d="m 530.5475,103.17143 c 2.88866,1.48163 -2.01067,3.37516 4.18705,-1.30483 1.91236,-1.44406 9.38382,-19.218496 4.65226,-20.877327 -3.9422,-1.382098 -6.89166,21.397047 -2.79136,22.834567"
       id="path81" />
    <path
       style="fill:none;stroke:#000000;stroke-width:1.5875;stroke-linecap:round;stroke-linejoin:round;stroke-dasharray:none;stroke-opacity:1"
       d="m 559.39164,89.282942 c 17.92176,-14.47214 -16.43207,25.006538 10.70023,12.249478"
       id="path82" />
    <path
       style="fill:none;stroke:#000000;stroke-width:1.5875;stroke-linecap:round;stroke-linejoin:round;stroke-dasharray:none;stroke-opacity:1"
       d="m 576.59308,98.763636 c -0.0641,4.062114 -2.14786,6.583484 -4.88591,3.576824 -5.22369,-5.736143 4.18202,-15.791086 8.68606,-14.307307 5.273,1.737078 2.53155,13.114317 -3.80015,10.730483 z"
       id="path83" />
    <path
       style="fill:none;stroke:#000000;stroke-width:1.5875;stroke-linecap:round;stroke-linejoin:round;stroke-dasharray:none;stroke-opacity:1"
       d="m 586.42797,88.592572 c 0.0673,-0.08019 4.83318,-3.083676 5.35609,-0.979651 1.08145,4.351616 -8.07888,8.826804 -6.32992,13.225279 1.7126,4.30707 9.24313,1.98018 10.22526,-0.48983"
       id="path84" />
    <path
       style="fill:none;stroke:#000000;stroke-width:1.5875;stroke-linecap:round;stroke-linejoin:round;stroke-dasharray:none;stroke-opacity:1"
       d="m 596.14425,89.072768 c 0.99374,-1.309303 7.22989,-4.23461 8.44151,-1.738824 0.69034,1.422003 -3.78967,5.873178 -2.81381,6.375689 1.85039,0.95289 4.28803,-0.889892 6.19042,0.579608 4.83113,3.731806 -2.34959,12.240599 -6.19042,9.273729"
       id="path85" />
    <path
       style="fill:none;stroke:#000000;stroke-width:1.5875;stroke-linecap:round;stroke-linejoin:round;stroke-dasharray:none;stroke-opacity:1"
       d="m 629.77299,94.937205 c 15.64204,-5.812371 -12.43368,12.162805 1.54575,9.345505 2.08675,-0.42055 2.27898,-4.361236 2.70505,-4.361236 2.22339,0 0.20604,7.621826 6.95585,2.180616"
       id="path86" />
    <path
       style="fill:none;stroke:#000000;stroke-width:1.5875;stroke-linecap:round;stroke-linejoin:round;stroke-dasharray:none;stroke-opacity:1"
       d="m 630.28047,82.97483 c 1.27767,1.490999 2.65234,2.959931 4.18704,4.374814"
       id="path87" />
    <path
       style="fill:none;stroke:#000000;stroke-width:1.5875;stroke-linecap:round;stroke-linejoin:round;stroke-dasharray:none;stroke-opacity:1"
       d="m 662.84642,83.320633 c -0.45363,-4.095515 -14.58992,8.022811 1.39568,9.62459 4.51286,5.56056 -9.7368,16.097147 -11.16546,9.187107"
       id="path68" />
    <path
       style="fill:none;stroke:#000000;stroke-width:1.5875;stroke-linecap:round;stroke-linejoin:round;stroke-dasharray:none;stroke-opacity:1"
       d="m 666.10301,97.320033 c 1.81489,5.616847 13.23861,-7.732887 0,0 -0.62061,3.962997 7.31096,7.834297 9.30457,3.499857"
       id="path69" />
    <path
       style="fill:none;stroke:#000000;stroke-width:1.58749;stroke-linecap:round;stroke-linejoin:round;stroke-dasharray:none;stroke-opacity:1"
       d="m 676.80326,95.408013 c 4.07297,28.230817 -3.5656,10.246647 1.61293,-1.680309 8.9889,-10.744087 6.76987,14.132136 1.64366,7.147836"
       id="path70" />
    <path
       style="fill:none;stroke:#000000;stroke-width:1.5875;stroke-linecap:round;stroke-linejoin:round;stroke-dasharray:none;stroke-opacity:1"
       d="m 695.87762,83.330672 c -15.33794,-1.214238 -7.30439,31.633348 3.72182,14.906191 14.60236,-13.216811 -15.9425,2.141017 2.59155,5.256877 l 2.99118,-2.0164"
       id="path71" />
    <path
       style="fill:none;stroke:#000000;stroke-width:1.5875;stroke-linecap:round;stroke-linejoin:round;stroke-dasharray:none;stroke-opacity:1"
       d="m 705.64815,99.772623 c 2.16603,-10.252085 7.8922,3.665857 7.72528,-3.1298 7.06124,-12.297156 5.95013,11.672547 6.69522,5.633627"
       id="path72" />
    <path
       style="fill:none;stroke:#000000;stroke-width:1.5875;stroke-linecap:round;stroke-linejoin:round;stroke-dasharray:none;stroke-opacity:1"
       d="m 723.32606,79.784992 c -5.35243,11.369241 1.66636,35.768808 6.04796,17.092856 -1.81573,-4.519819 -7.17662,2.025129 -5.58272,0"
       id="path73" />
    <path
       style="fill:none;stroke:#000000;stroke-width:1.5875;stroke-linecap:round;stroke-linejoin:round;stroke-dasharray:none;stroke-opacity:1"
       d="m 731.70018,90.32033 c 5.10473,23.53155 -6.64037,7.875813 8.37409,2.624893"
       id="path74" />
    <path
       style="fill:none;stroke:#000000;stroke-width:1.5875;stroke-linecap:round;stroke-linejoin:round;stroke-dasharray:none;stroke-opacity:1"
       d="m 739.60905,98.596633 c 17.67141,-8.439807 -13.22578,3.745267 10.66811,4.756937 l 2.62246,-0.96807 1.13151,-1.95727"
       id="path75" />
    <path
       style="fill:none;stroke:#000000;stroke-width:1.5875;stroke-linecap:round;stroke-linejoin:round;stroke-dasharray:none;stroke-opacity:1"
       d="m 764.09195,92.140999 c 18.94715,-9.403094 2.02879,5.730134 0.93046,8.312151 -2.25873,5.31008 11.01151,3.20716 12.56116,1.74992"
       id="path88" />
    <path
       style="fill:none;stroke:#000000;stroke-width:1.5875;stroke-linecap:round;stroke-linejoin:round;stroke-dasharray:none;stroke-opacity:1"
       d="m 783.68672,103.25825 c 2.12413,3.37606 -3.76364,-1.44343 -4.81971,-4.212497 -4.73049,-12.403604 15.70598,-14.881244 10.04104,3.685937 -1.07112,3.51065 -3.18168,1.67258 -5.22133,0.52656 z"
       id="path89" />
    <path
       style="fill:none;stroke:#000000;stroke-width:1.5875;stroke-linecap:round;stroke-linejoin:round;stroke-dasharray:none;stroke-opacity:1"
       d="m 793.01186,89.956325 c 23.47211,-1.177617 -19.68413,19.538325 11.09049,14.387065"
       id="path90" />
    <path
       style="fill:none;stroke:#000000;stroke-width:1.5875;stroke-linecap:round;stroke-linejoin:round;stroke-dasharray:none;stroke-opacity:1"
       d="m 806.11111,88.20418 c 3.29223,0 6.58444,0 9.87667,0"
       id="path91" />
    <path
       style="fill:none;stroke:#000000;stroke-width:1.5875;stroke-linecap:round;stroke-linejoin:round;stroke-dasharray:none;stroke-opacity:1"
       d="m 808.38837,89.317323 c -6.93027,7.73312 4.80163,5.53166 5.58247,8.90516 1.20603,5.210547 -6.59149,8.213477 -10.73551,6.678877"
       id="path92" />
  </g>
</svg>
