<svg width="543" height="93" viewBox="0 0 543 93" fill="none" xmlns="http://www.w3.org/2000/svg">
<g id="convoyeur-projet">
<path id="battant" d="M16.5822 91.174L177.302 91.174" stroke="black" stroke-width="2"/>
<g id="convoyeur">
<g id="Rectangle 16">
<mask id="path-2-inside-1_101_30" fill="white">
<path d="M0 0H532.111C537.634 0 542.111 4.47715 542.111 10V10.9252C542.111 16.448 537.634 20.9252 532.111 20.9252H0V0Z"/>
</mask>
<path d="M0 -2H532.111C538.739 -2 544.111 3.37258 544.111 10H540.111C540.111 5.58172 536.529 2 532.111 2H0V-2ZM544.111 10.9252C544.111 17.5526 538.739 22.9252 532.111 22.9252H0V18.9252H532.111C536.529 18.9252 540.111 15.3435 540.111 10.9252H544.111ZM540.111 10.9252M0 20.9252V0V20.9252M532.111 -2C538.739 -2 544.111 3.37258 544.111 10V10.9252C544.111 17.5526 538.739 22.9252 532.111 22.9252V18.9252C536.529 18.9252 540.111 15.3435 540.111 10.9252V10C540.111 5.58172 536.529 2 532.111 2V-2Z" fill="black" mask="url(#path-2-inside-1_101_30)"/>
</g>
<g id="Engrenage5">
<path id="Ellipse 12" d="M58.6757 3.98932C61.5029 3.98942 64.0536 6.73338 64.0536 10.463C64.0534 14.1923 61.5028 16.9355 58.6757 16.9356C55.8485 16.9356 53.2979 14.1924 53.2977 10.463C53.2977 6.73332 55.8484 3.98932 58.6757 3.98932Z" stroke="black" stroke-width="2"/>
<path id="Ellipse 13" d="M58.6752 7.72595C59.7412 7.72595 60.8645 8.79651 60.8646 10.4623C60.8646 12.1282 59.7413 13.1996 58.6752 13.1996C57.6092 13.1993 56.4867 12.128 56.4867 10.4623C56.4868 8.79673 57.6093 7.72623 58.6752 7.72595Z" stroke="black" stroke-width="2"/>
</g>
<g id="Engrenage4">
<path id="Ellipse 12_2" d="M136.485 3.98932C139.312 3.98942 141.863 6.73338 141.863 10.463C141.862 14.1923 139.312 16.9355 136.485 16.9356C133.657 16.9356 131.107 14.1924 131.107 10.463C131.107 6.73332 133.657 3.98932 136.485 3.98932Z" stroke="black" stroke-width="2"/>
<path id="Ellipse 13_2" d="M136.484 7.72595C137.55 7.72595 138.673 8.79651 138.673 10.4623C138.673 12.1282 137.55 13.1996 136.484 13.1996C135.418 13.1993 134.296 12.128 134.296 10.4623C134.296 8.79673 135.418 7.72623 136.484 7.72595Z" stroke="black" stroke-width="2"/>
</g>
<g id="Engrenage3">
<path id="Ellipse 12_3" d="M224.498 3.98932C227.325 3.98942 229.876 6.73338 229.876 10.463C229.876 14.1923 227.325 16.9355 224.498 16.9356C221.671 16.9356 219.12 14.1924 219.12 10.463C219.12 6.73332 221.671 3.98932 224.498 3.98932Z" stroke="black" stroke-width="2"/>
<path id="Ellipse 13_3" d="M224.497 7.72595C225.563 7.72595 226.687 8.79651 226.687 10.4623C226.687 12.1282 225.563 13.1996 224.497 13.1996C223.431 13.1993 222.309 12.128 222.309 10.4623C222.309 8.79673 223.431 7.72623 224.497 7.72595Z" stroke="black" stroke-width="2"/>
</g>
<g id="Engrenage2">
<path id="Ellipse 12_4" d="M303.582 3.98932C306.409 3.98942 308.96 6.73338 308.96 10.463C308.96 14.1923 306.409 16.9355 303.582 16.9356C300.755 16.9356 298.205 14.1924 298.204 10.463C298.204 6.73332 300.755 3.98932 303.582 3.98932Z" stroke="black" stroke-width="2"/>
<path id="Ellipse 13_4" d="M303.582 7.72595C304.648 7.72595 305.771 8.79651 305.771 10.4623C305.771 12.1282 304.648 13.1996 303.582 13.1996C302.516 13.1993 301.393 12.128 301.393 10.4623C301.393 8.79673 302.516 7.72623 303.582 7.72595Z" stroke="black" stroke-width="2"/>
</g>
<g id="Engrenage2_2">
<path id="Ellipse 12_5" d="M459.2 3.98932C462.027 3.98942 464.578 6.73338 464.578 10.463C464.578 14.1923 462.027 16.9355 459.2 16.9356C456.373 16.9356 453.822 14.1924 453.822 10.463C453.822 6.73332 456.373 3.98932 459.2 3.98932Z" stroke="black" stroke-width="2"/>
<path id="Ellipse 13_5" d="M459.2 7.72595C460.266 7.72595 461.389 8.79651 461.389 10.4623C461.389 12.1282 460.266 13.1996 459.2 13.1996C458.134 13.1993 457.011 12.128 457.011 10.4623C457.011 8.79673 458.134 7.72623 459.2 7.72595Z" stroke="black" stroke-width="2"/>
</g>
<g id="Engrenage1">
<path id="Ellipse 12_6" d="M383.942 3.98932C386.77 3.98942 389.32 6.73338 389.32 10.463C389.32 14.1923 386.769 16.9355 383.942 16.9356C381.115 16.9356 378.565 14.1924 378.564 10.463C378.564 6.73332 381.115 3.98932 383.942 3.98932Z" stroke="black" stroke-width="2"/>
<path id="Ellipse 13_6" d="M383.942 7.72595C385.008 7.72595 386.131 8.79651 386.131 10.4623C386.131 12.1282 385.008 13.1996 383.942 13.1996C382.876 13.1993 381.753 12.128 381.753 10.4623C381.753 8.79673 382.876 7.72623 383.942 7.72595Z" stroke="black" stroke-width="2"/>
</g>
<g id="Engrenage1_2">
<path id="Ellipse 12_7" d="M533.182 3.98932C536.01 3.98942 538.56 6.73338 538.56 10.463C538.56 14.1923 536.009 16.9355 533.182 16.9356C530.355 16.9356 527.805 14.1924 527.804 10.463C527.804 6.73332 530.355 3.98932 533.182 3.98932Z" stroke="black" stroke-width="2"/>
<path id="Ellipse 13_7" d="M533.182 7.72595C534.248 7.72595 535.371 8.79651 535.371 10.4623C535.371 12.1282 534.248 13.1996 533.182 13.1996C532.116 13.1993 530.993 12.128 530.993 10.4623C530.993 8.79673 532.116 7.72623 533.182 7.72595Z" stroke="black" stroke-width="2"/>
</g>
<g id="PiedConvoyeur1">
<path id="Rectangle 17" d="M383.942 7.72595C385.151 7.72595 386.131 8.70573 386.131 9.91443V77.4691H381.753V9.91443C381.754 8.70587 382.733 7.72617 383.942 7.72595Z" stroke="black" stroke-width="2"/>
<path id="Ellipse 14" d="M383.942 77.2274C386.77 77.2275 389.32 79.9715 389.32 83.701C389.32 87.4304 386.769 90.1736 383.942 90.1737C381.115 90.1737 378.565 87.4305 378.564 83.701C378.564 79.9714 381.115 77.2274 383.942 77.2274Z" stroke="black" stroke-width="2"/>
<ellipse id="Ellipse 15" cx="383.942" cy="83.7007" rx="1.91333" ry="2.24198" fill="#020202"/>
</g>
<g id="PiedConvoyeur1_2">
<path id="Rectangle 17_2" d="M533.182 7.72595C534.391 7.72595 535.371 8.70573 535.371 9.91443V77.4691H530.993V9.91443C530.994 8.70587 531.973 7.72617 533.182 7.72595Z" stroke="black" stroke-width="2"/>
<path id="Ellipse 14_2" d="M533.182 77.2274C536.009 77.2275 538.56 79.9715 538.56 83.701C538.56 87.4304 536.009 90.1736 533.182 90.1737C530.355 90.1737 527.804 87.4305 527.804 83.701C527.804 79.9714 530.355 77.2274 533.182 77.2274Z" stroke="black" stroke-width="2"/>
<ellipse id="Ellipse 15_2" cx="533.182" cy="83.7007" rx="1.91333" ry="2.24198" fill="#020202"/>
</g>
<g id="PiedConvoyeur2">
<path id="Rectangle 17_3" d="M224.497 7.72595C225.706 7.72595 226.687 8.70573 226.687 9.91443V77.4691H222.309V9.91443C222.309 8.70587 223.289 7.72617 224.497 7.72595Z" stroke="black" stroke-width="2"/>
<path id="Ellipse 14_3" d="M224.498 77.2274C227.325 77.2275 229.876 79.9715 229.876 83.701C229.876 87.4304 227.325 90.1736 224.498 90.1737C221.671 90.1737 219.12 87.4305 219.12 83.701C219.12 79.9714 221.671 77.2274 224.498 77.2274Z" stroke="black" stroke-width="2"/>
<ellipse id="Ellipse 15_3" cx="224.498" cy="83.7007" rx="1.91333" ry="2.24198" fill="#020202"/>
</g>
<g id="PiedConvoyeur3">
<path id="Rectangle 17_4" d="M58.6752 7.72595C59.8839 7.72595 60.8644 8.70573 60.8646 9.91443V77.4691H56.4867V9.91443C56.4869 8.70587 57.4666 7.72617 58.6752 7.72595Z" stroke="black" stroke-width="2"/>
<path id="Ellipse 14_4" d="M58.6757 77.2274C61.5029 77.2275 64.0536 79.9715 64.0536 83.701C64.0534 87.4304 61.5028 90.1736 58.6757 90.1737C55.8485 90.1737 53.2979 87.4305 53.2977 83.701C53.2977 79.9714 55.8484 77.2274 58.6757 77.2274Z" stroke="black" stroke-width="2"/>
<ellipse id="Ellipse 15_4" cx="58.6755" cy="83.7007" rx="1.91333" ry="2.24198" fill="#020202"/>
</g>
</g>
</g>
</svg>
